ply
format ascii 1.0
comment VCGLIB generated
element vertex 180
property float x
property float y
property float z
property float nx
property float ny
property float nz
element face 334
property list uchar int vertex_indices
end_header
-0.353052 0.029123 0.303732 0.189252 -0.59974 -1.06769 
-0.361626 0.027994 0.303732 -2.26498e-006 -0.837706 2.90974 
-0.370199 0.029123 0.303732 -0.18925 -0.599733 -1.06769 
-0.361626 0.029244 0.303732 0 0 -4 
-0.370199 0.093116 0.303732 -0.189241 0.599739 -1.06769 
-0.361626 0.094244 0.303732 -2.2687e-006 0.837729 2.90974 
-0.353052 0.093116 0.303732 0.189243 0.599746 -1.0677 
-0.361626 0.092994 0.303732 0 0 -3.17918 
-0.369875 0.091908 0.303732 1.16661 2.36536 -5.17918 
-0.378188 0.089806 0.303732 -0.338026 0.530315 -0.0676932 
-0.377563 0.088724 0.303732 -1.60017 2.51059 -3 
-0.385049 0.084542 0.303732 -0.463768 0.424778 -0.0676966 
-0.384165 0.083658 0.303732 -1.31585 0.0862124 -4 
-0.390313 0.077682 0.303732 -0.5579 0.290277 -0.0676964 
-0.38923 0.077057 0.303732 0 0 -5 
-0.393622 0.069693 0.303732 -0.61401 0.135985 -1.06769 
-0.392414 0.069369 0.303732 -0.732604 1.09655 -5 
-0.393501 0.061119 0.303732 -2.97429 0.130628 -3 
-0.394751 0.061119 0.303732 -0.418853 -1.11014e-006 -1.04513 
-0.392414 0.052869 0.303732 -1.46521 -2.1931 -6 
-0.393622 0.052546 0.303732 -0.614006 -0.135986 -0.0676932 
-0.38923 0.045182 0.303732 0 0 -5 
-0.390313 0.044557 0.303732 -0.557895 -0.290268 -0.0676943 
-0.384165 0.03858 0.303732 -2.63155 -0.172541 -4 
-0.385049 0.037696 0.303732 -0.463767 -0.424773 -0.0676961 
-0.377563 0.033515 0.303732 -1.37417 -2.64112 -3 
-0.378188 0.032432 0.303732 -0.338019 -0.53033 -0.0676949 
-0.369875 0.03033 0.303732 0.583201 -1.18263 -5 
-0.353376 0.03033 0.303732 -1.16637 -2.36537 -7 
-0.345063 0.032432 0.303732 0.33802 -0.530333 -0.0676958 
-0.353376 0.091908 0.303732 -0.583289 1.18273 -4.81611 
-0.345063 0.089806 0.303732 0.338027 0.530319 -0.0676939 
-0.345688 0.088724 0.303732 1.3741 2.6411 -3 
-0.338203 0.084542 0.303732 0.463753 0.424785 -0.0676947 
-0.339087 0.083658 0.303732 4.11784 -1.31358 -4 
-0.332938 0.077682 0.303732 0.557907 0.290269 -0.0676973 
-0.334021 0.077057 0.303732 0 0 -5 
-0.329629 0.069693 0.303732 0.404597 0.108398 -1.04513 
-0.330837 0.069369 0.303732 0.921301 4.22279 -6 
-0.328501 0.061119 0.303732 0.628297 0.0275631 -1.0677 
-0.329751 0.061119 0.303732 2.97434 -0.130507 -2 
-0.330837 0.052869 0.303732 0.73262 -1.09643 -6 
-0.329629 0.052546 0.303732 0.614024 -0.135963 -0.0676961 
-0.334021 0.045182 0.303732 0 0 -5 
-0.332938 0.044557 0.303732 0.557902 -0.29026 -0.0676954 
-0.339087 0.03858 0.303732 1.31586 -0.0862547 -4 
-0.338203 0.037696 0.303732 0.463751 -0.42478 -0.0676946 
-0.345688 0.033515 0.303732 1.60024 -2.51058 -3 
-0.361626 0.074244 0.303732 0 0 -3.63693 
-0.365023 0.073797 0.303732 1.34862 -0.665101 -4 
-0.358229 0.073797 0.303732 -2.69702 -1.33019 -2.63693 
-0.355063 0.072486 0.303732 -1.60026 -2.51051 -3 
-0.368188 0.072486 0.303732 1.37421 -2.64105 -3 
-0.352345 0.0704 0.303732 5.19154 -6.59368 -6 
-0.370906 0.0704 0.303732 -0.19648 -3.00085 -6 
-0.350259 0.067682 0.303732 0 0 -5 
-0.372992 0.067682 0.303732 0 0 -5 
-0.348948 0.064516 0.303732 -3.11464 7.79311 -4 
-0.374303 0.064516 0.303732 2.50049 1.67035 -4 
-0.348501 0.061119 0.303732 -2.97436 -0.130453 -3 
-0.374751 0.061119 0.303732 2.97425 0.130749 -3 
-0.348948 0.057722 0.303732 -2.50056 -1.67094 -4 
-0.374303 0.057722 0.303732 1.25024 -0.835175 -4 
-0.350259 0.054557 0.303732 0 0 -5 
-0.372992 0.054557 0.303732 0 0 -5 
-0.352345 0.051838 0.303732 0.19691 3.00109 -7 
-0.370906 0.051838 0.303732 -0.0984231 1.50057 -5 
-0.368188 0.049753 0.303732 1.60025 2.51064 -4 
-0.355063 0.049753 0.303732 -1.37432 2.64107 -2 
-0.358229 0.048441 0.303732 -1.34876 0.66499 -4 
-0.365023 0.048441 0.303732 2.69774 1.33 -4 
-0.361626 0.047994 0.303732 0 0 -3 
-0.384165 0.083658 0.281857 -2.6317 0.172425 -4 
-0.370906 0.0704 0.281857 -0.0982399 -1.50043 -1 
-0.377563 0.088724 0.281857 -1.37404 2.64115 -1 
-0.355063 0.049753 0.281857 -1.60014 2.51069 -2 
-0.358229 0.048441 0.281857 -2.69752 1.32998 -3 
-0.369875 0.091908 0.281857 0.583304 1.18268 -2 
-0.348948 0.064516 0.281857 -3.0445 3.70088 -2 
-0.330837 0.069369 0.281857 -1.13174 8.05407 -1 
-0.329751 0.061119 0.281857 2.97434 0.130507 -4 
-0.348501 0.061119 0.281857 -2.97436 0.130453 -2 
-0.348948 0.057722 0.281857 -1.25028 -0.83547 -2 
-0.330837 0.052869 0.281857 1.46524 -2.19286 -1 
-0.339087 0.083658 0.281857 6.4092 -5.00708 -4 
-0.345688 0.088724 0.281857 1.60029 2.51051 -1 
-0.352345 0.0704 0.281857 1.68252 -4.48679 -1 
-0.355063 0.072486 0.281857 -1.37401 -2.64114 -2 
-0.352345 0.051838 0.281857 0.0984549 1.50055 -1 
-0.339087 0.03858 0.281857 2.63171 -0.172509 -3 
-0.345688 0.033515 0.281857 1.37423 -2.64108 -2 
-0.353376 0.03033 0.281857 -0.583186 -1.18268 -1 
-0.365023 0.073797 0.281857 2.69725 -1.3302 -2 
-0.392414 0.069369 0.281857 -1.46521 2.1931 -2 
-0.393501 0.061119 0.281857 -2.97429 -0.130628 -3 
-0.368188 0.072486 0.281857 1.60037 -2.51046 -2 
-0.358229 0.073797 0.281857 -1.34851 -0.665093 -2 
-0.374303 0.064516 0.281857 1.25024 0.835175 -1 
-0.374751 0.061119 0.281857 2.97425 -0.130748 -3 
-0.374303 0.057722 0.281857 2.50049 -1.67035 -2 
-0.392414 0.052869 0.281857 -0.732604 -1.09655 -1 
-0.353376 0.091908 0.281857 -1.16658 2.36545 -2 
-0.370906 0.051838 0.281857 -0.196846 3.00113 -1 
-0.384165 0.03858 0.281857 -1.31577 -0.0862707 -3 
-0.377563 0.033515 0.281857 -1.60013 -2.51067 -2 
-0.368188 0.049753 0.281857 1.37452 2.64099 -2 
-0.365023 0.048441 0.281857 1.34887 0.664998 -3 
-0.369875 0.03033 0.281857 1.1664 -2.36527 -1 
-0.361626 0.116119 0.299045 -0.130522 3.3932 1.95487 
-0.375861 0.114245 0.299045 -1.03179 3.45325 2.9323 
-0.375861 0.114245 0.27092 -0.77969 3.52092 -2.93228 
-0.361626 0.116119 0.27092 0.13052 3.39329 -1.95485 
-0.361626 0.094244 0.266232 -2.27243e-006 0.837898 -3.9097 
-0.370199 0.093116 0.266232 -0.18928 0.59986 -2.93228 
-0.400516 0.10001 0.299045 -1.82693 1.86585 2.93231 
-0.409257 0.088619 0.299045 -3.04088 1.9383 2.9323 
-0.414752 0.075354 0.299045 -3.43892 1.08519 2.93231 
-0.389126 0.108751 0.299045 -1.89054 3.06841 2.93231 
-0.409257 0.088619 0.27092 -3.17151 1.7123 -2.93227 
-0.400516 0.10001 0.27092 -3.22917 3.26804 -2.93228 
-0.385049 0.084542 0.266232 -0.463862 0.424864 -2.93228 
-0.390313 0.077682 0.266232 -0.558013 0.290336 -2.93228 
-0.389126 0.108751 0.27092 -1.66444 3.1991 -2.93228 
-0.378188 0.089806 0.266232 -0.338095 0.530422 -2.93228 
-0.416626 0.061119 0.27092 -3.60274 -0.158102 -2.93228 
-0.394751 0.061119 0.266232 -0.628407 0.0275773 -2.93228 
-0.393622 0.052546 0.266232 -0.61413 -0.136014 -2.93228 
-0.414752 0.046884 0.27092 -3.43904 -1.08523 -2.93228 
-0.414752 0.046884 0.299045 -3.50649 -0.833004 2.93231 
-0.409257 0.033619 0.299045 -3.17141 -1.71222 2.9323 
-0.400516 0.022228 0.299045 -3.22899 -3.26802 2.9323 
-0.409257 0.033619 0.27092 -3.04099 -1.93836 -2.93228 
-0.390313 0.044557 0.266232 -0.558008 -0.290327 -2.93228 
-0.385049 0.037696 0.266232 -0.46386 -0.424859 -2.93228 
-0.400516 0.022228 0.27092 -1.82696 -1.86599 -2.93228 
-0.414752 0.075354 0.27092 -3.71609 0.860622 -3.9097 
-0.393622 0.069693 0.266232 -0.404665 0.108434 -1.95485 
-0.416626 0.061119 0.299045 -3.81204 0.13052 3.90974 
-0.353052 0.029123 0.266232 0.18929 -0.599862 -2.93228 
-0.345063 0.032432 0.266232 0.338088 -0.530441 -2.93228 
-0.334126 0.013488 0.27092 1.66448 -3.19913 -2.93228 
-0.347391 0.007993 0.27092 0.779765 -3.52089 -2.93228 
-0.334126 0.013488 0.299045 1.89045 -3.06852 2.9323 
-0.347391 0.007993 0.299045 1.03193 -3.45319 2.93231 
-0.389126 0.013488 0.299045 -1.66446 -3.19898 2.93231 
-0.375861 0.007993 0.299045 -0.779739 -3.52076 2.93231 
-0.389126 0.013488 0.27092 -1.89057 -3.06857 -2.93228 
-0.378188 0.032432 0.266232 -0.338087 -0.530437 -2.93228 
-0.370199 0.029123 0.266232 -0.189288 -0.599854 -2.93228 
-0.375861 0.007993 0.27092 -1.03196 -3.45331 -2.93228 
-0.361626 0.027994 0.266232 -2.30595e-006 -0.837875 -3.90971 
-0.361626 0.006119 0.27092 -0.130522 -3.39327 -1.95485 
-0.361626 0.006119 0.299045 0.13052 -3.39319 1.95487 
-0.313994 0.088619 0.299045 3.17145 1.71212 2.9323 
-0.322735 0.10001 0.299045 3.229 3.268 2.93231 
-0.329629 0.069693 0.266232 0.614153 0.135989 -2.93228 
-0.3085 0.075354 0.27092 3.43911 1.08509 -2.93227 
-0.306626 0.061119 0.27092 3.81223 0.13052 -3.9097 
-0.328501 0.061119 0.266232 0.418949 -1.11014e-006 -1.95485 
-0.338203 0.084542 0.266232 0.463846 0.424871 -2.93228 
-0.322735 0.10001 0.27092 1.82697 1.86598 -2.93228 
-0.313994 0.088619 0.27092 3.04101 1.93831 -2.93228 
-0.332938 0.077682 0.266232 0.55802 0.290327 -2.93227 
-0.313994 0.033619 0.299045 3.0409 -1.93823 2.93231 
-0.322735 0.022228 0.299045 1.82684 -1.86592 2.9323 
-0.3085 0.075354 0.299045 3.71598 0.86049 3.90974 
-0.306626 0.061119 0.299045 3.60263 -0.158088 2.9323 
-0.3085 0.046884 0.299045 3.43898 -1.08505 2.9323 
-0.338203 0.037696 0.266232 0.463845 -0.424866 -2.93228 
-0.332938 0.044557 0.266232 0.558015 -0.290319 -2.93228 
-0.313994 0.033619 0.27092 3.17156 -1.71217 -2.93228 
-0.322735 0.022228 0.27092 3.229 -3.26817 -2.93228 
-0.329629 0.052546 0.266232 0.614148 -0.13599 -2.93228 
-0.3085 0.046884 0.27092 3.50666 -0.832963 -2.93228 
-0.347391 0.114245 0.27092 1.03182 3.45338 -2.93228 
-0.353052 0.093116 0.266232 0.189282 0.599867 -2.93228 
-0.347391 0.114245 0.299045 0.779662 3.52081 2.9323 
-0.334126 0.108751 0.27092 1.89054 3.06858 -2.93228 
-0.345063 0.089806 0.266232 0.338096 0.530426 -2.93228 
-0.334126 0.108751 0.299045 1.66435 3.19902 2.93231 
3 0 1 2 
3 0 2 3 
3 4 5 6 
3 4 6 7 
3 4 7 8 
3 4 8 9 
3 9 8 10 
3 9 10 11 
3 11 10 12 
3 11 12 13 
3 13 12 14 
3 13 14 15 
3 15 14 16 
3 15 16 17 
3 18 15 17 
3 18 17 19 
3 20 18 19 
3 20 19 21 
3 22 20 21 
3 22 21 23 
3 24 22 23 
3 24 23 25 
3 26 24 25 
3 26 25 27 
3 2 26 27 
3 2 27 3 
3 0 3 28 
3 0 28 29 
3 30 7 6 
3 30 6 31 
3 32 30 31 
3 32 31 33 
3 34 32 33 
3 34 33 35 
3 36 34 35 
3 36 35 37 
3 38 36 37 
3 38 37 39 
3 40 38 39 
3 40 39 41 
3 41 39 42 
3 41 42 43 
3 43 42 44 
3 43 44 45 
3 45 44 46 
3 45 46 47 
3 47 46 29 
3 47 29 28 
3 48 49 8 
3 48 8 30 
3 8 7 30 
3 48 30 50 
3 49 48 50 
3 49 50 51 
3 52 49 51 
3 52 51 53 
3 54 52 53 
3 54 53 55 
3 56 54 55 
3 56 55 57 
3 58 56 57 
3 58 57 59 
3 60 58 59 
3 60 59 61 
3 62 60 61 
3 62 61 63 
3 64 62 63 
3 64 63 65 
3 66 64 65 
3 66 65 67 
3 67 65 68 
3 67 68 69 
3 70 67 69 
3 70 69 71 
3 72 73 54 
3 72 54 12 
3 10 74 72 
3 10 72 12 
3 68 75 76 
3 68 76 69 
3 8 77 74 
3 8 74 10 
3 78 79 80 
3 78 80 81 
3 82 81 80 
3 82 80 83 
3 34 84 85 
3 34 85 32 
3 86 53 51 
3 86 51 87 
3 84 34 53 
3 53 34 36 
3 53 36 38 
3 55 53 38 
3 55 38 57 
3 79 57 38 
3 75 88 89 
3 75 89 76 
3 76 89 90 
3 76 90 91 
3 78 81 59 
3 78 59 57 
3 92 77 8 
3 92 8 49 
3 93 94 17 
3 93 17 16 
3 92 49 52 
3 92 52 95 
3 87 51 50 
3 87 50 96 
3 84 53 86 
3 83 80 40 
3 83 40 41 
3 58 97 93 
3 58 93 16 
3 93 97 98 
3 93 98 94 
3 94 98 99 
3 94 99 100 
3 90 47 28 
3 90 28 91 
3 32 85 101 
3 32 101 30 
3 63 61 41 
3 63 41 65 
3 65 41 43 
3 65 43 45 
3 102 103 23 
3 102 23 66 
3 19 62 64 
3 19 64 66 
3 21 19 66 
3 21 66 23 
3 98 97 58 
3 98 58 60 
3 99 98 60 
3 99 60 62 
3 81 82 61 
3 81 61 59 
3 83 41 61 
3 83 61 82 
3 104 25 23 
3 104 23 103 
3 79 78 57 
3 71 69 28 
3 71 28 70 
3 27 70 28 
3 27 28 3 
3 103 102 105 
3 103 105 106 
3 104 103 106 
3 104 106 107 
3 76 91 28 
3 76 28 69 
3 99 62 19 
3 99 19 100 
3 89 45 47 
3 89 47 90 
3 72 74 77 
3 72 77 92 
3 72 92 95 
3 72 95 73 
3 94 100 19 
3 94 19 17 
3 89 88 65 
3 89 65 45 
3 80 79 38 
3 80 38 40 
3 65 88 75 
3 65 75 68 
3 107 106 70 
3 107 70 27 
3 107 27 25 
3 107 25 104 
3 70 106 105 
3 70 105 67 
3 67 105 102 
3 67 102 66 
3 95 52 54 
3 95 54 73 
3 101 96 50 
3 101 50 30 
3 101 85 84 
3 101 84 96 
3 87 96 84 
3 87 84 86 
3 14 12 54 
3 14 54 16 
3 16 54 56 
3 16 56 58 
3 5 108 109 
3 5 109 4 
3 110 111 112 
3 110 112 113 
3 11 114 115 
3 11 115 13 
3 13 115 116 
3 13 116 15 
3 9 117 114 
3 9 114 11 
3 4 109 117 
3 4 117 9 
3 118 119 120 
3 118 120 121 
3 119 122 123 
3 119 123 120 
3 122 110 113 
3 122 113 123 
3 124 125 126 
3 124 126 127 
3 22 20 128 
3 22 128 129 
3 24 22 129 
3 24 129 130 
3 131 132 133 
3 131 133 134 
3 135 118 121 
3 135 121 136 
3 20 18 137 
3 20 137 128 
3 135 136 125 
3 135 125 124 
3 127 126 132 
3 127 132 131 
3 15 116 137 
3 15 137 18 
3 138 139 140 
3 138 140 141 
3 142 29 0 
3 142 0 143 
3 2 26 144 
3 2 144 145 
3 146 147 148 
3 146 148 149 
3 26 24 130 
3 26 130 144 
3 150 138 141 
3 150 141 151 
3 149 148 150 
3 149 150 151 
3 143 0 1 
3 143 1 152 
3 134 133 147 
3 134 147 146 
3 1 2 145 
3 1 145 152 
3 153 154 33 
3 153 33 35 
3 155 156 157 
3 155 157 158 
3 159 160 161 
3 159 161 162 
3 163 44 46 
3 163 46 164 
3 165 37 39 
3 165 39 166 
3 166 39 42 
3 166 42 167 
3 167 42 44 
3 167 44 163 
3 168 169 170 
3 168 170 171 
3 169 172 173 
3 169 173 170 
3 172 158 157 
3 172 157 173 
3 162 161 156 
3 162 156 155 
3 164 46 29 
3 164 29 142 
3 139 168 171 
3 139 171 140 
3 165 153 35 
3 165 35 37 
3 112 111 174 
3 112 174 175 
3 176 108 5 
3 176 5 6 
3 175 174 177 
3 175 177 178 
3 179 176 6 
3 179 6 31 
3 178 177 160 
3 178 160 159 
3 154 179 31 
3 154 31 33 
3 108 111 110 
3 108 110 109 
3 117 122 119 
3 117 119 114 
3 119 118 115 
3 119 115 114 
3 109 110 122 
3 109 122 117 
3 131 134 130 
3 131 130 129 
3 124 127 128 
3 124 128 137 
3 118 135 116 
3 118 116 115 
3 127 131 129 
3 127 129 128 
3 135 124 137 
3 135 137 116 
3 146 144 130 
3 146 130 134 
3 149 145 144 
3 149 144 146 
3 151 152 145 
3 151 145 149 
3 141 143 152 
3 141 152 151 
3 140 142 143 
3 140 143 141 
3 173 157 166 
3 173 166 167 
3 171 170 163 
3 171 163 164 
3 156 161 153 
3 156 153 165 
3 170 173 167 
3 170 167 163 
3 157 156 165 
3 157 165 166 
3 161 160 154 
3 161 154 153 
3 171 164 142 
3 171 142 140 
3 176 174 111 
3 176 111 108 
3 179 177 174 
3 179 174 176 
3 154 160 177 
3 154 177 179 
