ply
format ascii 1.0
comment VCGLIB generated
element vertex 180
property float x
property float y
property float z
property float nx
property float ny
property float nz
element face 334
property list uchar int vertex_indices
end_header
0.151778 0.029123 0.303732 0.189255 -0.599734 -1.06769 
0.143204 0.027994 0.303732 -4.73857e-006 -0.837705 2.90974 
0.134631 0.029123 0.303732 -0.18925 -0.599733 -1.06769 
0.143204 0.029244 0.303732 0 0 -4 
0.134631 0.093116 0.303732 -0.189241 0.599739 -1.06769 
0.143204 0.094244 0.303732 -4.74975e-006 0.837727 2.90974 
0.151778 0.093116 0.303732 0.189247 0.599739 -1.0677 
0.143204 0.092994 0.303732 0 0 -3.17918 
0.134955 0.091908 0.303732 1.16658 2.36546 -5.17918 
0.126642 0.089806 0.303732 -0.338032 0.530304 -0.0676922 
0.127267 0.088724 0.303732 -1.60029 2.5105 -3 
0.119782 0.084542 0.303732 -0.463756 0.424779 -0.0676945 
0.120666 0.083658 0.303732 -1.31593 0.0861955 -4 
0.114517 0.077682 0.303732 -0.557907 0.290268 -0.0676975 
0.1156 0.077057 0.303732 0 0 -5 
0.111208 0.069693 0.303732 -0.614024 0.135998 -1.0677 
0.112416 0.069369 0.303732 -0.732604 1.09655 -5 
0.111329 0.061119 0.303732 -2.97429 0.130628 -3 
0.110079 0.061119 0.303732 -0.41886 -1.11014e-006 -1.04513 
0.112416 0.052869 0.303732 -1.46521 -2.1931 -6 
0.111208 0.052546 0.303732 -0.614019 -0.135999 -0.0676961 
0.1156 0.045182 0.303732 0 0 -5 
0.114517 0.044557 0.303732 -0.557902 -0.29026 -0.0676954 
0.120666 0.03858 0.303732 -2.63172 -0.172508 -4 
0.119782 0.037696 0.303732 -0.463754 -0.424775 -0.0676939 
0.127267 0.033515 0.303732 -1.37423 -2.64107 -3 
0.126642 0.032432 0.303732 -0.338025 -0.530319 -0.0676937 
0.134955 0.03033 0.303732 0.583186 -1.18268 -5 
0.151454 0.03033 0.303732 -1.16637 -2.36537 -7 
0.159767 0.032432 0.303732 0.338023 -0.53033 -0.0676954 
0.151454 0.091908 0.303732 -0.583289 1.18273 -4.8161 
0.159767 0.089806 0.303732 0.33803 0.530316 -0.0676938 
0.159142 0.088724 0.303732 1.37404 2.64115 -3 
0.166627 0.084542 0.303732 0.463753 0.424785 -0.0676951 
0.165744 0.083658 0.303732 4.11773 -1.31371 -4 
0.171892 0.077682 0.303732 0.557907 0.290268 -0.0676976 
0.170809 0.077057 0.303732 0 0 -5 
0.175201 0.069693 0.303732 0.404596 0.108398 -1.04513 
0.173993 0.069369 0.303732 0.9213 4.2228 -6 
0.176329 0.061119 0.303732 0.628297 0.0275634 -1.0677 
0.175079 0.061119 0.303732 2.97434 -0.130511 -2 
0.173993 0.052869 0.303732 0.732619 -1.09643 -6 
0.175201 0.052546 0.303732 0.614024 -0.135963 -0.0676961 
0.170809 0.045182 0.303732 0 0 -5 
0.171892 0.044557 0.303732 0.557902 -0.29026 -0.0676954 
0.165744 0.03858 0.303732 1.31577 -0.0862718 -4 
0.166627 0.037696 0.303732 0.463752 -0.42478 -0.0676945 
0.159142 0.033515 0.303732 1.60013 -2.51067 -3 
0.143204 0.074244 0.303732 0 0 -3.63692 
0.139808 0.073797 0.303732 1.34851 -0.665093 -4 
0.146601 0.073797 0.303732 -2.69702 -1.33019 -2.63692 
0.149767 0.072486 0.303732 -1.60026 -2.51051 -3 
0.136642 0.072486 0.303732 1.374 -2.64114 -3 
0.152485 0.0704 0.303732 5.19154 -6.59411 -6 
0.133924 0.0704 0.303732 -0.196542 -3.00081 -6 
0.154571 0.067682 0.303732 0 0 -5 
0.131838 0.067682 0.303732 0 0 -5 
0.155882 0.064516 0.303732 -3.11464 7.7931 -4 
0.130527 0.064516 0.303732 2.50049 1.67035 -4 
0.156329 0.061119 0.303732 -2.97436 -0.130464 -3 
0.130079 0.061119 0.303732 2.97425 0.130749 -3 
0.155882 0.057722 0.303732 -2.50056 -1.67092 -4 
0.130527 0.057722 0.303732 1.25024 -0.835175 -4 
0.154571 0.054557 0.303732 0 0 -5 
0.131838 0.054557 0.303732 0 0 -5 
0.152485 0.051838 0.303732 0.196855 3.00114 -7 
0.133924 0.051838 0.303732 -0.0984541 1.50054 -5 
0.136642 0.049753 0.303732 1.60014 2.51069 -4 
0.149767 0.049753 0.303732 -1.37432 2.64107 -2 
0.146601 0.048441 0.303732 -1.34876 0.66499 -4 
0.139808 0.048441 0.303732 2.69751 1.32998 -4 
0.143204 0.047994 0.303732 0 0 -3 
0.151454 0.091908 0.281857 -1.16658 2.36546 -2 
0.159142 0.088724 0.281857 1.60017 2.51059 -1 
0.165744 0.083658 0.281857 6.40914 -5.00747 -4 
0.146601 0.073797 0.281857 -1.34851 -0.665093 -2 
0.149767 0.072486 0.281857 -1.374 -2.64114 -2 
0.152485 0.0704 0.281857 1.68252 -4.487 -1 
0.155882 0.064516 0.281857 -3.0445 3.70085 -2 
0.173993 0.069369 0.281857 -1.13174 8.05407 -1 
0.175079 0.061119 0.281857 2.97434 0.130511 -4 
0.156329 0.061119 0.281857 -2.97436 0.130464 -2 
0.155882 0.057722 0.281857 -1.25028 -0.83546 -2 
0.173993 0.052869 0.281857 1.46524 -2.19287 -1 
0.149767 0.049753 0.281857 -1.60014 2.51069 -2 
0.152485 0.051838 0.281857 0.0984274 1.50057 -1 
0.165744 0.03858 0.281857 2.63155 -0.172544 -3 
0.146601 0.048441 0.281857 -2.69751 1.32998 -3 
0.159142 0.033515 0.281857 1.37417 -2.64112 -2 
0.151454 0.03033 0.281857 -0.583186 -1.18268 -1 
0.120666 0.03858 0.281857 -1.31586 -0.0862539 -3 
0.133924 0.051838 0.281857 -0.196908 3.00109 -1 
0.136642 0.049753 0.281857 1.37432 2.64107 -2 
0.139808 0.048441 0.281857 1.34876 0.66499 -3 
0.127267 0.033515 0.281857 -1.60024 -2.51058 -2 
0.134955 0.03033 0.281857 1.16637 -2.36537 -1 
0.112416 0.069369 0.281857 -1.46521 2.1931 -2 
0.130527 0.064516 0.281857 1.25024 0.835175 -1 
0.130079 0.061119 0.281857 2.97425 -0.130748 -3 
0.111329 0.061119 0.281857 -2.97429 -0.130628 -3 
0.130527 0.057722 0.281857 2.50049 -1.67035 -2 
0.112416 0.052869 0.281857 -0.732604 -1.09655 -1 
0.120666 0.083658 0.281857 -2.63187 0.172391 -4 
0.127267 0.088724 0.281857 -1.3741 2.6411 -1 
0.134955 0.091908 0.281857 0.583289 1.18273 -2 
0.139808 0.073797 0.281857 2.69702 -1.33019 -2 
0.136642 0.072486 0.281857 1.60026 -2.51051 -2 
0.133924 0.0704 0.281857 -0.0982709 -1.5004 -1 
0.190836 0.033619 0.299045 3.0409 -1.93823 2.93231 
0.182095 0.022228 0.299045 1.82684 -1.86592 2.9323 
0.166627 0.037696 0.266232 0.463846 -0.424866 -2.93228 
0.171892 0.044557 0.266232 0.558015 -0.290318 -2.93228 
0.190836 0.033619 0.27092 3.17156 -1.71217 -2.93228 
0.182095 0.022228 0.27092 3.229 -3.26817 -2.93228 
0.19633 0.046884 0.299045 3.43898 -1.08505 2.9323 
0.170704 0.013488 0.299045 1.89048 -3.0685 2.93231 
0.159767 0.032432 0.266232 0.338091 -0.530438 -2.93228 
0.170704 0.013488 0.27092 1.66454 -3.1991 -2.93228 
0.095573 0.088619 0.27092 -3.17156 1.71219 -2.93228 
0.104314 0.10001 0.27092 -3.22916 3.26803 -2.93228 
0.119782 0.084542 0.266232 -0.463849 0.424865 -2.93228 
0.114517 0.077682 0.266232 -0.55802 0.290327 -2.93227 
0.095573 0.088619 0.299045 -3.0409 1.93824 2.9323 
0.090079 0.075354 0.299045 -3.43898 1.08514 2.9323 
0.104314 0.10001 0.299045 -1.82693 1.86585 2.93231 
0.115704 0.108751 0.27092 -1.66445 3.1991 -2.93228 
0.126642 0.089806 0.266232 -0.3381 0.530411 -2.93228 
0.115704 0.108751 0.299045 -1.89055 3.0684 2.93231 
0.090079 0.075354 0.27092 -3.71612 0.860705 -3.9097 
0.111208 0.069693 0.266232 -0.404676 0.108437 -1.95485 
0.110079 0.061119 0.266232 -0.628417 0.0275869 -2.93228 
0.088204 0.061119 0.27092 -3.60273 -0.15818 -2.93228 
0.088204 0.061119 0.299045 -3.81203 0.130587 3.90974 
0.111208 0.052546 0.266232 -0.614144 -0.136026 -2.93228 
0.090079 0.046884 0.27092 -3.43909 -1.08518 -2.93228 
0.090079 0.046884 0.299045 -3.50652 -0.833077 2.9323 
0.095573 0.033619 0.299045 -3.17145 -1.7121 2.93231 
0.115704 0.013488 0.299045 -1.66446 -3.19897 2.93231 
0.128969 0.007993 0.299045 -0.779739 -3.52076 2.93231 
0.115704 0.013488 0.27092 -1.89057 -3.06857 -2.93228 
0.126642 0.032432 0.266232 -0.338093 -0.530426 -2.93228 
0.134631 0.029123 0.266232 -0.189288 -0.599854 -2.93228 
0.128969 0.007993 0.27092 -1.03196 -3.45331 -2.93228 
0.143204 0.006119 0.299045 0.130501 -3.39319 1.95487 
0.104314 0.022228 0.27092 -1.82696 -1.86598 -2.93228 
0.119782 0.037696 0.266232 -0.463848 -0.42486 -2.93228 
0.128969 0.114245 0.27092 -0.77969 3.52092 -2.93228 
0.143204 0.116119 0.27092 0.130501 3.39329 -1.95485 
0.143204 0.094244 0.266232 -4.75347e-006 0.837897 -3.9097 
0.134631 0.093116 0.266232 -0.18928 0.59986 -2.93228 
0.143204 0.116119 0.299045 -0.130532 3.3932 1.95487 
0.128969 0.114245 0.299045 -1.03179 3.45325 2.9323 
0.15744 0.007993 0.299045 1.03197 -3.45317 2.93231 
0.143204 0.027994 0.266232 -4.78327e-006 -0.837874 -3.90971 
0.143204 0.006119 0.27092 -0.130533 -3.39327 -1.95485 
0.151778 0.029123 0.266232 0.189294 -0.599855 -2.93228 
0.15744 0.007993 0.27092 0.779772 -3.52088 -2.93228 
0.104314 0.022228 0.299045 -3.22898 -3.26801 2.93231 
0.114517 0.044557 0.266232 -0.558015 -0.290318 -2.93228 
0.095573 0.033619 0.27092 -3.041 -1.9383 -2.93228 
0.15744 0.114245 0.27092 1.03186 3.45335 -2.93228 
0.151778 0.093116 0.266232 0.189285 0.599861 -2.93228 
0.15744 0.114245 0.299045 0.779668 3.52079 2.9323 
0.170704 0.108751 0.27092 1.89057 3.06856 -2.93228 
0.159767 0.089806 0.266232 0.338098 0.530423 -2.93228 
0.170704 0.108751 0.299045 1.66441 3.19899 2.93231 
0.182095 0.10001 0.27092 1.82697 1.86598 -2.93228 
0.166627 0.084542 0.266232 0.463847 0.424871 -2.93228 
0.182095 0.10001 0.299045 3.22901 3.268 2.93231 
0.190836 0.088619 0.27092 3.041 1.93831 -2.93228 
0.171892 0.077682 0.266232 0.55802 0.290327 -2.93227 
0.190836 0.088619 0.299045 3.17145 1.71212 2.9323 
0.19633 0.075354 0.27092 3.43911 1.08509 -2.93227 
0.175201 0.069693 0.266232 0.614153 0.13599 -2.93228 
0.19633 0.075354 0.299045 3.71598 0.86049 3.90974 
0.198204 0.061119 0.27092 3.81223 0.130519 -3.9097 
0.176329 0.061119 0.266232 0.418949 -1.11014e-006 -1.95485 
0.198204 0.061119 0.299045 3.60263 -0.158088 2.9323 
0.175201 0.052546 0.266232 0.614148 -0.135991 -2.93228 
0.19633 0.046884 0.27092 3.50666 -0.832963 -2.93228 
3 0 1 2 
3 0 2 3 
3 4 5 6 
3 4 6 7 
3 4 7 8 
3 4 8 9 
3 9 8 10 
3 9 10 11 
3 11 10 12 
3 11 12 13 
3 13 12 14 
3 13 14 15 
3 15 14 16 
3 15 16 17 
3 18 15 17 
3 18 17 19 
3 20 18 19 
3 20 19 21 
3 22 20 21 
3 22 21 23 
3 24 22 23 
3 24 23 25 
3 26 24 25 
3 26 25 27 
3 2 26 27 
3 2 27 3 
3 0 3 28 
3 0 28 29 
3 30 7 6 
3 30 6 31 
3 32 30 31 
3 32 31 33 
3 34 32 33 
3 34 33 35 
3 36 34 35 
3 36 35 37 
3 38 36 37 
3 38 37 39 
3 40 38 39 
3 40 39 41 
3 41 39 42 
3 41 42 43 
3 43 42 44 
3 43 44 45 
3 45 44 46 
3 45 46 47 
3 47 46 29 
3 47 29 28 
3 48 49 8 
3 48 8 30 
3 8 7 30 
3 48 30 50 
3 49 48 50 
3 49 50 51 
3 52 49 51 
3 52 51 53 
3 54 52 53 
3 54 53 55 
3 56 54 55 
3 56 55 57 
3 58 56 57 
3 58 57 59 
3 60 58 59 
3 60 59 61 
3 62 60 61 
3 62 61 63 
3 64 62 63 
3 64 63 65 
3 66 64 65 
3 66 65 67 
3 67 65 68 
3 67 68 69 
3 70 67 69 
3 70 69 71 
3 63 61 41 
3 63 41 65 
3 65 41 43 
3 65 43 45 
3 71 69 28 
3 71 28 70 
3 27 70 28 
3 27 28 3 
3 19 62 64 
3 19 64 66 
3 21 19 66 
3 21 66 23 
3 14 12 54 
3 14 54 16 
3 16 54 56 
3 16 56 58 
3 72 73 74 
3 72 74 75 
3 76 75 74 
3 76 74 77 
3 34 74 73 
3 34 73 32 
3 77 53 51 
3 77 51 76 
3 76 51 50 
3 76 50 75 
3 72 75 50 
3 72 50 30 
3 32 73 72 
3 32 72 30 
3 78 79 80 
3 78 80 81 
3 82 81 80 
3 82 80 83 
3 83 80 40 
3 83 40 41 
3 83 41 61 
3 83 61 82 
3 81 82 61 
3 81 61 59 
3 78 81 59 
3 78 59 57 
3 79 78 57 
3 80 79 38 
3 80 38 40 
3 84 85 86 
3 84 86 87 
3 87 86 88 
3 87 88 89 
3 88 47 28 
3 88 28 89 
3 87 89 28 
3 87 28 69 
3 68 84 87 
3 68 87 69 
3 65 85 84 
3 65 84 68 
3 86 85 65 
3 86 65 45 
3 86 45 47 
3 86 47 88 
3 90 91 92 
3 90 92 93 
3 94 90 93 
3 94 93 95 
3 94 25 23 
3 94 23 90 
3 91 90 23 
3 91 23 66 
3 67 92 91 
3 67 91 66 
3 70 93 92 
3 70 92 67 
3 95 93 70 
3 95 70 27 
3 95 27 25 
3 95 25 94 
3 96 97 98 
3 96 98 99 
3 99 98 100 
3 99 100 101 
3 96 99 17 
3 96 17 16 
3 58 97 96 
3 58 96 16 
3 98 97 58 
3 98 58 60 
3 100 98 60 
3 100 60 62 
3 100 62 19 
3 100 19 101 
3 99 101 19 
3 99 19 17 
3 102 103 104 
3 102 104 105 
3 102 105 106 
3 102 106 107 
3 106 52 54 
3 106 54 107 
3 102 107 54 
3 102 54 12 
3 10 103 102 
3 10 102 12 
3 8 104 103 
3 8 103 10 
3 105 104 8 
3 105 8 49 
3 105 49 52 
3 105 52 106 
3 74 53 77 
3 74 34 53 
3 79 57 38 
3 53 34 36 
3 53 36 38 
3 55 53 38 
3 55 38 57 
3 108 44 46 
3 108 46 109 
3 110 111 112 
3 110 112 113 
3 114 42 44 
3 114 44 108 
3 109 46 29 
3 109 29 115 
3 116 110 113 
3 116 113 117 
3 118 119 120 
3 118 120 121 
3 13 122 123 
3 13 123 15 
3 11 124 122 
3 11 122 13 
3 119 125 126 
3 119 126 120 
3 9 127 124 
3 9 124 11 
3 128 129 130 
3 128 130 131 
3 128 118 121 
3 128 121 129 
3 15 123 132 
3 15 132 18 
3 131 130 133 
3 131 133 134 
3 20 18 132 
3 20 132 135 
3 22 20 135 
3 22 135 136 
3 2 26 137 
3 2 137 138 
3 139 140 141 
3 139 141 142 
3 1 2 138 
3 1 138 143 
3 144 145 140 
3 144 140 139 
3 146 147 148 
3 146 148 149 
3 5 150 151 
3 5 151 4 
3 152 0 1 
3 152 1 143 
3 142 141 153 
3 142 153 154 
3 155 116 117 
3 155 117 156 
3 153 155 156 
3 153 156 154 
3 115 29 0 
3 115 0 152 
3 24 22 136 
3 24 136 157 
3 134 133 158 
3 134 158 159 
3 159 158 145 
3 159 145 144 
3 26 24 157 
3 26 157 137 
3 148 147 160 
3 148 160 161 
3 162 150 5 
3 162 5 6 
3 161 160 163 
3 161 163 164 
3 165 162 6 
3 165 6 31 
3 164 163 166 
3 164 166 167 
3 168 165 31 
3 168 31 33 
3 167 166 169 
3 167 169 170 
3 171 168 33 
3 171 33 35 
3 170 169 172 
3 170 172 173 
3 174 171 35 
3 174 35 37 
3 173 172 175 
3 173 175 176 
3 174 37 39 
3 174 39 177 
3 178 176 175 
3 178 175 179 
3 177 39 42 
3 177 42 114 
3 111 178 179 
3 111 179 112 
3 125 146 149 
3 125 149 126 
3 4 151 127 
3 4 127 9 
3 113 112 108 
3 113 108 109 
3 113 109 115 
3 113 115 117 
3 118 128 123 
3 118 123 122 
3 119 118 122 
3 119 122 124 
3 127 125 119 
3 127 119 124 
3 128 131 132 
3 128 132 123 
3 131 134 135 
3 131 135 132 
3 134 159 136 
3 134 136 135 
3 142 138 137 
3 142 137 139 
3 154 143 138 
3 154 138 142 
3 139 137 157 
3 139 157 144 
3 150 147 146 
3 150 146 151 
3 156 152 143 
3 156 143 154 
3 117 115 152 
3 117 152 156 
3 159 144 157 
3 159 157 136 
3 162 160 147 
3 162 147 150 
3 165 163 160 
3 165 160 162 
3 168 166 163 
3 168 163 165 
3 169 166 168 
3 169 168 171 
3 172 169 171 
3 172 171 174 
3 175 172 174 
3 175 174 177 
3 179 175 177 
3 179 177 114 
3 112 179 114 
3 112 114 108 
3 151 146 125 
3 151 125 127 
