ply
format ascii 1.0
comment VCGLIB generated
element vertex 180
property float x
property float y
property float z
element face 334
property list uchar int vertex_indices
end_header
0.134631 0.029123 0.008732 
0.143204 0.027994 0.008732 
0.151778 0.029123 0.008732 
0.143204 0.029244 0.008732 
0.151778 0.093116 0.008732 
0.143204 0.094244 0.008732 
0.134631 0.093116 0.008732 
0.143204 0.092994 0.008732 
0.151454 0.091908 0.008732 
0.159767 0.089806 0.008732 
0.159142 0.088724 0.008732 
0.166627 0.084542 0.008732 
0.165744 0.083658 0.008732 
0.171892 0.077682 0.008732 
0.170809 0.077057 0.008732 
0.175201 0.069693 0.008732 
0.173993 0.069369 0.008732 
0.175079 0.061119 0.008732 
0.176329 0.061119 0.008732 
0.173993 0.052869 0.008732 
0.175201 0.052546 0.008732 
0.170809 0.045182 0.008732 
0.171892 0.044557 0.008732 
0.165744 0.03858 0.008732 
0.166627 0.037696 0.008732 
0.159142 0.033515 0.008732 
0.159767 0.032432 0.008732 
0.151454 0.03033 0.008732 
0.134955 0.03033 0.008732 
0.126642 0.032432 0.008732 
0.134955 0.091908 0.008732 
0.126642 0.089806 0.008732 
0.127267 0.088724 0.008732 
0.119782 0.084542 0.008732 
0.120666 0.083658 0.008732 
0.114517 0.077682 0.008732 
0.1156 0.077057 0.008732 
0.111208 0.069693 0.008732 
0.112416 0.069369 0.008732 
0.110079 0.061119 0.008732 
0.111329 0.061119 0.008732 
0.112416 0.052869 0.008732 
0.111208 0.052546 0.008732 
0.1156 0.045182 0.008732 
0.114517 0.044557 0.008732 
0.120666 0.03858 0.008732 
0.119782 0.037696 0.008732 
0.127267 0.033515 0.008732 
0.143204 0.074244 0.008732 
0.146601 0.073797 0.008732 
0.139808 0.073797 0.008732 
0.136642 0.072486 0.008732 
0.149767 0.072486 0.008732 
0.133924 0.0704 0.008732 
0.152485 0.0704 0.008732 
0.131838 0.067682 0.008732 
0.154571 0.067682 0.008732 
0.130527 0.064516 0.008732 
0.155882 0.064516 0.008732 
0.130079 0.061119 0.008732 
0.156329 0.061119 0.008732 
0.130527 0.057722 0.008732 
0.155882 0.057722 0.008732 
0.131838 0.054557 0.008732 
0.154571 0.054557 0.008732 
0.133924 0.051838 0.008732 
0.152485 0.051838 0.008732 
0.149767 0.049753 0.008732 
0.136642 0.049753 0.008732 
0.139808 0.048441 0.008732 
0.146601 0.048441 0.008732 
0.143204 0.047994 0.008732 
0.134955 0.091908 0.030607 
0.127267 0.088724 0.030607 
0.120666 0.083658 0.030607 
0.139808 0.073797 0.030607 
0.136642 0.072486 0.030607 
0.133924 0.0704 0.030607 
0.130527 0.064516 0.030607 
0.112416 0.069369 0.030607 
0.111329 0.061119 0.030607 
0.130079 0.061119 0.030607 
0.130527 0.057722 0.030607 
0.112416 0.052869 0.030607 
0.136642 0.049753 0.030607 
0.133924 0.051838 0.030607 
0.120666 0.03858 0.030607 
0.139808 0.048441 0.030607 
0.127267 0.033515 0.030607 
0.134955 0.03033 0.030607 
0.165744 0.03858 0.030607 
0.152485 0.051838 0.030607 
0.149767 0.049753 0.030607 
0.146601 0.048441 0.030607 
0.159142 0.033515 0.030607 
0.151454 0.03033 0.030607 
0.173993 0.069369 0.030607 
0.155882 0.064516 0.030607 
0.156329 0.061119 0.030607 
0.175079 0.061119 0.030607 
0.155882 0.057722 0.030607 
0.173993 0.052869 0.030607 
0.165744 0.083658 0.030607 
0.159142 0.088724 0.030607 
0.151454 0.091908 0.030607 
0.146601 0.073797 0.030607 
0.149767 0.072486 0.030607 
0.152485 0.0704 0.030607 
0.134631 0.029123 0.046232 
0.126642 0.032432 0.046232 
0.115704 0.013488 0.041545 
0.128969 0.007993 0.041545 
0.128969 0.007993 0.01342 
0.143204 0.006119 0.01342 
0.115704 0.013488 0.01342 
0.143204 0.027994 0.046232 
0.143204 0.006119 0.041545 
0.15744 0.007993 0.041545 
0.151778 0.029123 0.046232 
0.182095 0.022228 0.01342 
0.170704 0.013488 0.01342 
0.190836 0.033619 0.041545 
0.171892 0.044557 0.046232 
0.166627 0.037696 0.046232 
0.182095 0.022228 0.041545 
0.190836 0.033619 0.01342 
0.19633 0.046884 0.041545 
0.175201 0.052546 0.046232 
0.19633 0.046884 0.01342 
0.198204 0.061119 0.041545 
0.176329 0.061119 0.046232 
0.198204 0.061119 0.01342 
0.19633 0.075354 0.041545 
0.175201 0.069693 0.046232 
0.19633 0.075354 0.01342 
0.190836 0.088619 0.041545 
0.171892 0.077682 0.046232 
0.190836 0.088619 0.01342 
0.182095 0.10001 0.041545 
0.166627 0.084542 0.046232 
0.182095 0.10001 0.01342 
0.170704 0.108751 0.041545 
0.159767 0.089806 0.046232 
0.170704 0.108751 0.01342 
0.15744 0.114245 0.041545 
0.151778 0.093116 0.046232 
0.15744 0.114245 0.01342 
0.143204 0.116119 0.041545 
0.143204 0.094244 0.046232 
0.143204 0.116119 0.01342 
0.088204 0.061119 0.01342 
0.090079 0.046884 0.01342 
0.114517 0.044557 0.046232 
0.111208 0.052546 0.046232 
0.090079 0.046884 0.041545 
0.095573 0.033619 0.041545 
0.119782 0.037696 0.046232 
0.104314 0.022228 0.041545 
0.095573 0.033619 0.01342 
0.104314 0.022228 0.01342 
0.110079 0.061119 0.046232 
0.088204 0.061119 0.041545 
0.090079 0.075354 0.01342 
0.111208 0.069693 0.046232 
0.090079 0.075354 0.041545 
0.095573 0.088619 0.01342 
0.114517 0.077682 0.046232 
0.095573 0.088619 0.041545 
0.128969 0.114245 0.041545 
0.134631 0.093116 0.046232 
0.128969 0.114245 0.01342 
0.115704 0.108751 0.041545 
0.126642 0.089806 0.046232 
0.115704 0.108751 0.01342 
0.104314 0.10001 0.041545 
0.119782 0.084542 0.046232 
0.104314 0.10001 0.01342 
0.15744 0.007993 0.01342 
0.159767 0.032432 0.046232 
0.170704 0.013488 0.041545 
3 0 1 2 
3 0 2 3 
3 4 5 6 
3 4 6 7 
3 4 7 8 
3 4 8 9 
3 9 8 10 
3 9 10 11 
3 11 10 12 
3 11 12 13 
3 13 12 14 
3 13 14 15 
3 15 14 16 
3 15 16 17 
3 18 15 17 
3 18 17 19 
3 20 18 19 
3 20 19 21 
3 22 20 21 
3 22 21 23 
3 24 22 23 
3 24 23 25 
3 26 24 25 
3 26 25 27 
3 2 26 27 
3 2 27 3 
3 0 3 28 
3 0 28 29 
3 30 7 6 
3 30 6 31 
3 32 30 31 
3 32 31 33 
3 34 32 33 
3 34 33 35 
3 36 34 35 
3 36 35 37 
3 38 36 37 
3 38 37 39 
3 40 38 39 
3 40 39 41 
3 41 39 42 
3 41 42 43 
3 43 42 44 
3 43 44 45 
3 45 44 46 
3 45 46 47 
3 47 46 29 
3 47 29 28 
3 48 49 8 
3 48 8 30 
3 8 7 30 
3 48 30 50 
3 49 48 50 
3 49 50 51 
3 52 49 51 
3 52 51 53 
3 54 52 53 
3 54 53 55 
3 56 54 55 
3 56 55 57 
3 58 56 57 
3 58 57 59 
3 60 58 59 
3 60 59 61 
3 62 60 61 
3 62 61 63 
3 64 62 63 
3 64 63 65 
3 66 64 65 
3 66 65 67 
3 67 65 68 
3 67 68 69 
3 70 67 69 
3 70 69 71 
3 63 61 41 
3 63 41 65 
3 65 41 43 
3 65 43 45 
3 71 69 28 
3 71 28 70 
3 27 70 28 
3 27 28 3 
3 19 62 64 
3 19 64 66 
3 21 19 66 
3 21 66 23 
3 14 12 54 
3 14 54 16 
3 16 54 56 
3 16 56 58 
3 72 73 74 
3 72 74 75 
3 76 75 74 
3 76 74 77 
3 73 32 34 
3 73 34 74 
3 51 76 77 
3 51 77 53 
3 50 75 76 
3 50 76 51 
3 50 30 72 
3 50 72 75 
3 72 30 32 
3 72 32 73 
3 78 79 80 
3 78 80 81 
3 82 81 80 
3 82 80 83 
3 40 41 83 
3 40 83 80 
3 61 82 83 
3 61 83 41 
3 61 59 81 
3 61 81 82 
3 59 57 78 
3 59 78 81 
3 57 79 78 
3 38 40 80 
3 38 80 79 
3 84 85 86 
3 84 86 87 
3 87 86 88 
3 87 88 89 
3 28 89 88 
3 28 88 47 
3 28 69 87 
3 28 87 89 
3 87 69 68 
3 87 68 84 
3 84 68 65 
3 84 65 85 
3 65 45 86 
3 65 86 85 
3 47 88 86 
3 47 86 45 
3 90 91 92 
3 90 92 93 
3 94 90 93 
3 94 93 95 
3 23 90 94 
3 23 94 25 
3 90 23 66 
3 90 66 91 
3 91 66 67 
3 91 67 92 
3 92 67 70 
3 92 70 93 
3 70 27 95 
3 70 95 93 
3 25 94 95 
3 25 95 27 
3 96 97 98 
3 96 98 99 
3 99 98 100 
3 99 100 101 
3 17 16 96 
3 17 96 99 
3 96 16 58 
3 96 58 97 
3 58 60 98 
3 58 98 97 
3 60 62 100 
3 60 100 98 
3 19 101 100 
3 19 100 62 
3 19 17 99 
3 19 99 101 
3 102 103 104 
3 102 104 105 
3 102 105 106 
3 102 106 107 
3 54 107 106 
3 54 106 52 
3 54 12 102 
3 54 102 107 
3 102 12 10 
3 102 10 103 
3 103 10 8 
3 103 8 104 
3 8 49 105 
3 8 105 104 
3 52 106 105 
3 52 105 49 
3 53 77 74 
3 53 74 34 
3 57 38 79 
3 53 34 36 
3 53 36 38 
3 55 53 38 
3 55 38 57 
3 108 109 110 
3 108 110 111 
3 112 0 1 
3 112 1 113 
3 114 29 0 
3 114 0 112 
3 115 108 111 
3 115 111 116 
3 117 118 115 
3 117 115 116 
3 26 24 119 
3 26 119 120 
3 121 122 123 
3 121 123 124 
3 24 22 125 
3 24 125 119 
3 126 127 122 
3 126 122 121 
3 22 20 128 
3 22 128 125 
3 129 130 127 
3 129 127 126 
3 20 18 131 
3 20 131 128 
3 132 133 130 
3 132 130 129 
3 15 134 131 
3 15 131 18 
3 132 135 136 
3 132 136 133 
3 13 137 134 
3 13 134 15 
3 135 138 139 
3 135 139 136 
3 11 140 137 
3 11 137 13 
3 138 141 142 
3 138 142 139 
3 9 143 140 
3 9 140 11 
3 141 144 145 
3 141 145 142 
3 4 146 143 
3 4 143 9 
3 144 147 148 
3 144 148 145 
3 5 149 146 
3 5 146 4 
3 150 39 42 
3 150 42 151 
3 152 153 154 
3 152 154 155 
3 156 152 155 
3 156 155 157 
3 151 42 44 
3 151 44 158 
3 158 44 46 
3 158 46 159 
3 109 156 157 
3 109 157 110 
3 153 160 161 
3 153 161 154 
3 162 37 39 
3 162 39 150 
3 163 164 161 
3 163 161 160 
3 162 165 35 
3 162 35 37 
3 166 167 164 
3 166 164 163 
3 159 46 29 
3 159 29 114 
3 148 147 168 
3 148 168 169 
3 170 149 5 
3 170 5 6 
3 169 168 171 
3 169 171 172 
3 173 170 6 
3 173 6 31 
3 172 171 174 
3 172 174 175 
3 176 173 31 
3 176 31 33 
3 175 174 167 
3 175 167 166 
3 165 176 33 
3 165 33 35 
3 1 2 177 
3 1 177 113 
3 124 123 178 
3 124 178 179 
3 2 26 120 
3 2 120 177 
3 179 178 118 
3 179 118 117 
3 112 111 110 
3 112 110 114 
3 177 117 116 
3 177 116 113 
3 113 116 111 
3 113 111 112 
3 119 124 179 
3 119 179 120 
3 119 125 121 
3 119 121 124 
3 125 128 126 
3 125 126 121 
3 128 131 129 
3 128 129 126 
3 131 134 132 
3 131 132 129 
3 134 137 135 
3 134 135 132 
3 137 140 138 
3 137 138 135 
3 138 140 143 
3 138 143 141 
3 141 143 146 
3 141 146 144 
3 144 146 149 
3 144 149 147 
3 158 159 157 
3 158 157 155 
3 151 158 155 
3 151 155 154 
3 150 151 154 
3 150 154 161 
3 162 150 161 
3 162 161 164 
3 165 162 164 
3 165 164 167 
3 114 110 157 
3 114 157 159 
3 147 149 170 
3 147 170 168 
3 168 170 173 
3 168 173 171 
3 171 173 176 
3 171 176 174 
3 176 165 167 
3 176 167 174 
3 120 179 117 
3 120 117 177 
