ply
format ascii 1.0
comment VCGLIB generated
element vertex 8
property float x
property float y
property float z
property float nx
property float ny
property float nz
element face 12
property list uchar int vertex_indices
end_header
-2.75308 0 2.87607 -1 -2 2 
-2.75308 0 -2.97995 -2 -1 -1 
3.14402 0 -2.97995 1 -2 -2 
3.14402 0 2.87607 2 -1 1 
-2.75308 0.52174 2.87607 -2 2 1 
3.14402 0.52174 2.87607 1 1 2 
3.14402 0.52174 -2.97995 2 2 -1 
-2.75308 0.52174 -2.97995 -1 1 -2 
3 0 1 2 
3 0 2 3 
3 4 5 6 
3 4 6 7 
3 0 3 5 
3 0 5 4 
3 3 2 6 
3 3 6 5 
3 2 1 7 
3 2 7 6 
3 1 0 4 
3 1 4 7 
