ply
format ascii 1.0
comment VCGLIB generated
element vertex 56
property float x
property float y
property float z
property float nx
property float ny
property float nz
property uchar red
property uchar green
property uchar blue
property uchar alpha
element face 108
property list uchar int vertex_indices
end_header
15.4444 12.9594 19.5285 2.81766 -0.246514 1 192 192 192 255 
5.20895 4.37083 19.5285 1.92836 -2.29813 3 192 192 192 255 
5.20895 4.37083 6.0343 3.85673 -4.59627 2.62268e-007 192 192 192 255 
15.4444 12.9594 6.0343 4.2265 -0.369771 1.31134e-007 192 192 192 255 
5.20895 4.37083 -7.4599 3.85673 -4.59627 2.62268e-007 192 192 192 255 
15.4444 12.9594 -7.4599 4.2265 -0.369771 1.31134e-007 192 192 192 255 
5.20895 4.37083 -20.9541 1.92836 -2.29813 -3 192 192 192 255 
15.4444 12.9594 -20.9541 1.40883 -0.123257 -2 192 192 192 255 
-5.0264 -4.21765 19.5285 1.92836 -2.29813 3 192 192 192 255 
-5.0264 -4.21765 6.0343 3.85673 -4.59627 2.62268e-007 192 192 192 255 
-5.0264 -4.21765 -7.4599 3.85673 -4.59627 2.62268e-007 192 192 192 255 
-5.0264 -4.21765 -20.9541 1.92836 -2.29813 -3 192 192 192 255 
-15.2618 -12.8062 19.5285 -0.123257 -1.40883 2 192 192 192 255 
-15.2618 -12.8062 6.0343 -0.369771 -4.2265 1.31134e-007 192 192 192 255 
-15.2618 -12.8062 -7.4599 -0.369771 -4.2265 1.31134e-007 192 192 192 255 
-15.2618 -12.8062 -20.9541 -0.246514 -2.81766 -1 192 192 192 255 
14.4141 14.1873 19.5285 -0.519531 2.17488 2 192 192 192 255 
14.4141 14.1873 6.0343 0.369771 4.2265 -1.31134e-007 192 192 192 255 
4.17862 5.59872 6.0343 -3.85673 4.59627 -2.62268e-007 192 192 192 255 
4.17862 5.59872 19.5285 -1.92836 2.29813 3 192 192 192 255 
14.4141 14.1873 -7.4599 0.369771 4.2265 -1.31134e-007 192 192 192 255 
4.17862 5.59872 -7.4599 -3.85673 4.59627 -2.62268e-007 192 192 192 255 
14.4141 14.1873 -20.9541 0.889301 2.05162 -1 192 192 192 255 
4.17862 5.59872 -20.9541 -1.92836 2.29813 -3 192 192 192 255 
-6.05673 -2.98976 6.0343 -3.85673 4.59627 -2.62268e-007 192 192 192 255 
-6.05673 -2.98976 19.5285 -1.92836 2.29813 3 192 192 192 255 
-6.05673 -2.98976 -7.4599 -3.85673 4.59627 -2.62268e-007 192 192 192 255 
-6.05673 -2.98976 -20.9541 -1.92836 2.29813 -3 192 192 192 255 
-16.2922 -11.5783 6.0343 -4.2265 0.369771 -1.31134e-007 192 192 192 255 
-16.2922 -11.5783 19.5285 -2.17488 -0.519531 1 192 192 192 255 
-16.2922 -11.5783 -7.4599 -4.2265 0.369771 -1.31134e-007 192 192 192 255 
-16.2922 -11.5783 -20.9541 -2.05162 0.889301 -2 192 192 192 255 
15.1009 13.3687 6.0343 4.59627 3.85673 0 192 192 192 255 
15.1009 13.3687 19.5285 2.29813 1.92836 3 192 192 192 255 
15.1009 13.3687 -7.4599 4.59627 3.85673 0 192 192 192 255 
15.1009 13.3687 -20.9541 2.29813 1.92836 -3 192 192 192 255 
14.7575 13.778 6.0343 4.59627 3.85673 0 192 192 192 255 
14.7575 13.778 19.5285 2.29813 1.92836 3 192 192 192 255 
14.7575 13.778 -7.4599 4.59627 3.85673 0 192 192 192 255 
14.7575 13.778 -20.9541 2.29813 1.92836 -3 192 192 192 255 
4.86551 4.78012 -20.9541 1.68583e-007 -2.00909e-007 -6 192 192 192 255 
-5.36984 -3.80835 -20.9541 1.68583e-007 -2.00909e-007 -6 192 192 192 255 
-15.6053 -12.3969 -20.9541 -2.29813 -1.92836 -3 192 192 192 255 
4.52207 5.18942 -20.9541 1.68583e-007 -2.00909e-007 -6 192 192 192 255 
-5.71328 -3.39906 -20.9541 1.68583e-007 -2.00909e-007 -6 192 192 192 255 
-15.9487 -11.9876 -20.9541 -2.29813 -1.92836 -3 192 192 192 255 
-15.6053 -12.3969 -7.4599 -4.59627 -3.85673 0 192 192 192 255 
-15.6053 -12.3969 6.0343 -4.59627 -3.85673 0 192 192 192 255 
-15.6053 -12.3969 19.5285 -2.29813 -1.92836 3 192 192 192 255 
-15.9487 -11.9876 -7.4599 -4.59627 -3.85673 0 192 192 192 255 
-15.9487 -11.9876 6.0343 -4.59627 -3.85673 0 192 192 192 255 
-15.9487 -11.9876 19.5285 -2.29813 -1.92836 3 192 192 192 255 
-5.36984 -3.80835 19.5285 -1.68583e-007 2.00909e-007 6 192 192 192 255 
4.86551 4.78013 19.5285 -1.68583e-007 2.00909e-007 6 192 192 192 255 
-5.71328 -3.39906 19.5285 -1.68583e-007 2.00909e-007 6 192 192 192 255 
4.52207 5.18942 19.5285 -1.68583e-007 2.00909e-007 6 192 192 192 255 
3 0 1 2 
3 0 2 3 
3 3 2 4 
3 3 4 5 
3 5 4 6 
3 5 6 7 
3 1 8 9 
3 1 9 2 
3 2 9 10 
3 2 10 4 
3 4 10 11 
3 4 11 6 
3 8 12 13 
3 8 13 9 
3 9 13 14 
3 9 14 10 
3 10 14 15 
3 10 15 11 
3 16 17 18 
3 16 18 19 
3 17 20 21 
3 17 21 18 
3 20 22 23 
3 20 23 21 
3 19 18 24 
3 19 24 25 
3 18 21 26 
3 18 26 24 
3 21 23 27 
3 21 27 26 
3 25 24 28 
3 25 28 29 
3 24 26 30 
3 24 30 28 
3 26 27 31 
3 26 31 30 
3 0 3 32 
3 0 32 33 
3 3 5 34 
3 3 34 32 
3 5 7 35 
3 5 35 34 
3 33 32 36 
3 33 36 37 
3 32 34 38 
3 32 38 36 
3 34 35 39 
3 34 39 38 
3 37 36 17 
3 37 17 16 
3 36 38 20 
3 36 20 17 
3 38 39 22 
3 38 22 20 
3 7 6 40 
3 7 40 35 
3 6 11 41 
3 6 41 40 
3 11 15 42 
3 11 42 41 
3 35 40 43 
3 35 43 39 
3 40 41 44 
3 40 44 43 
3 41 42 45 
3 41 45 44 
3 39 43 23 
3 39 23 22 
3 43 44 27 
3 43 27 23 
3 44 45 31 
3 44 31 27 
3 15 14 46 
3 15 46 42 
3 14 13 47 
3 14 47 46 
3 13 12 48 
3 13 48 47 
3 42 46 49 
3 42 49 45 
3 46 47 50 
3 46 50 49 
3 47 48 51 
3 47 51 50 
3 45 49 30 
3 45 30 31 
3 49 50 28 
3 49 28 30 
3 50 51 29 
3 50 29 28 
3 12 8 52 
3 12 52 48 
3 8 1 53 
3 8 53 52 
3 1 0 33 
3 1 33 53 
3 48 52 54 
3 48 54 51 
3 52 53 55 
3 52 55 54 
3 53 33 37 
3 53 37 55 
3 51 54 25 
3 51 25 29 
3 54 55 19 
3 54 19 25 
3 55 37 16 
3 55 16 19 
