ply
format ascii 1.0
comment VCGLIB generated
element vertex 25
property float x
property float y
property float z
property float nx
property float ny
property float nz
property float texture_u
property float texture_v
element face 32
property list uchar int vertex_indices
end_header
-0.423771 -0.25 0.0410047 0 -0.178212 2.9947 0 0.25
-0.423771 -0.5 0.026127 0 -0.0594058 0.998234 0 0
-0.246475 -0.5 0.026127 0 -0.178217 2.9947 0.25 0
-0.246475 -0.25 0.0410047 0 -0.356418 5.98941 0.25 0.25
-0.0691782 -0.5 0.026127 0 -0.178217 2.9947 0.5 0
-0.0691782 -0.25 0.0410047 0 -0.356418 5.98941 0.5 0.25
0.10812 -0.5 0.026127 0 -0.178217 2.9947 0.75 0
0.10812 -0.25 0.0410047 0 -0.356418 5.98941 0.75 0.25
0.285416 -0.5 0.026127 0 -0.118812 1.99647 1 0
0.285416 -0.25 0.0410047 0 -0.178206 2.9947 1 0.25
-0.423771 0 0.055881 0 -0.178206 2.9947 0 0.5
-0.246475 0 0.055881 0 -0.356418 5.9894 0.25 0.5
-0.0691782 0 0.055881 0 -0.356418 5.9894 0.5 0.5
0.10812 0 0.055881 0 -0.356418 5.9894 0.75 0.5
0.285416 0 0.055881 0 -0.178212 2.9947 1 0.5
-0.423771 0.25 0.0707588 0 -0.178212 2.9947 0 0.75
-0.246475 0.25 0.0707588 0 -0.356418 5.98941 0.25 0.75
-0.0691782 0.25 0.0707588 0 -0.356418 5.98941 0.5 0.75
0.10812 0.25 0.0707588 0 -0.356418 5.98941 0.75 0.75
0.285416 0.25 0.0707588 0 -0.178206 2.9947 1 0.75
-0.423771 0.5 0.0856351 0 -0.1188 1.99647 0 1
-0.246475 0.5 0.0856351 0 -0.178201 2.9947 0.25 1
-0.0691782 0.5 0.0856351 0 -0.178201 2.9947 0.5 1
0.10812 0.5 0.0856351 0 -0.178201 2.9947 0.75 1
0.285416 0.5 0.0856351 0 -0.0594002 0.998234 1 1
3 0 1 2 
3 0 2 3 
3 3 2 4 
3 3 4 5 
3 5 4 6 
3 5 6 7 
3 7 6 8 
3 7 8 9 
3 10 0 3 
3 10 3 11 
3 11 3 5 
3 11 5 12 
3 12 5 7 
3 12 7 13 
3 13 7 9 
3 13 9 14 
3 15 10 11 
3 15 11 16 
3 16 11 12 
3 16 12 17 
3 17 12 13 
3 17 13 18 
3 18 13 14 
3 18 14 19 
3 20 15 16 
3 20 16 21 
3 21 16 17 
3 21 17 22 
3 22 17 18 
3 22 18 23 
3 23 18 19 
3 23 19 24 
