ply
format ascii 1.0
comment VCGLIB generated
element vertex 122
property float x
property float y
property float z
property float nx
property float ny
property float nz
element face 240
property list uchar int vertex_indices
end_header
0 0 0 0 -24 0 
0.266274 0 -0.153735 2.40145 -1.12527 -1.53072 
0.296988 0 -0.0795789 2.71583 -1.12526 -0.856966 
0.30747 0 0 2.84508 -1.12524 -0.124863 
0.153735 0 -0.266274 1.31444 -1.12527 -2.52633 
0.217409 0 -0.217409 1.92353 -1.12527 -2.10005 
0 0 -0.30747 -0.124863 -1.12524 -2.84508 
0.0795789 0 -0.296988 0.615778 -1.12525 -2.78046 
-0.153735 0 -0.266274 -1.53072 -1.12527 -2.40145 
-0.0795789 0 -0.296988 -0.856966 -1.12526 -2.71583 
-0.266274 0 -0.153735 -2.52633 -1.12527 -1.31444 
-0.217409 0 -0.217409 -2.10005 -1.12527 -1.92353 
-0.30747 0 0 -2.84508 -1.12524 0.124863 
-0.296988 0 -0.0795789 -2.78046 -1.12525 -0.615778 
-0.266274 0 0.153735 -2.40145 -1.12527 1.53072 
-0.296988 0 0.0795789 -2.71583 -1.12526 0.856966 
-0.153735 0 0.266274 -1.31444 -1.12527 2.52633 
-0.217409 0 0.217409 -1.92353 -1.12527 2.10005 
0 0 0.30747 0.124863 -1.12524 2.84508 
-0.0795789 0 0.296988 -0.615778 -1.12525 2.78046 
0.153735 0 0.266274 1.53072 -1.12527 2.40145 
0.0795789 0 0.296988 0.856966 -1.12526 2.71583 
0.266274 0 0.153735 2.52633 -1.12527 1.31444 
0.217409 0 0.217409 2.10005 -1.12527 1.92353 
0.296988 0 0.0795789 2.78046 -1.12525 0.615778 
0.237596 0.2 -0.0636649 5.49627 1.74952 -1.47275 
0.245973 0.2 0 5.69017 1.74951 2.07722e-005 
0.213021 0.2 -0.122986 4.92774 1.74953 -2.8452 
0.173931 0.2 -0.173931 4.02359 1.74954 -4.02356 
0.122986 0.2 -0.213021 2.8452 1.74952 -4.92775 
0.0636649 0.2 -0.237596 1.47272 1.7495 -5.49628 
0 0.2 -0.245973 2.07722e-005 1.74951 -5.69017 
-0.0636649 0.2 -0.237596 -1.47275 1.74952 -5.49627 
-0.122986 0.2 -0.213021 -2.8452 1.74953 -4.92774 
-0.173931 0.2 -0.173931 -4.02356 1.74954 -4.02359 
-0.213021 0.2 -0.122986 -4.92775 1.74952 -2.8452 
-0.237596 0.2 -0.0636649 -5.49628 1.7495 -1.47272 
-0.245973 0.2 0 -5.69017 1.74951 -2.07722e-005 
-0.237596 0.2 0.0636649 -5.49627 1.74952 1.47275 
-0.213021 0.2 0.122986 -4.92774 1.74953 2.8452 
-0.173931 0.2 0.173931 -4.02359 1.74954 4.02356 
-0.122986 0.2 0.213021 -2.8452 1.74952 4.92775 
-0.0636649 0.2 0.237596 -1.47272 1.7495 5.49628 
0 0.2 0.245973 -2.07722e-005 1.74951 5.69017 
0.0636649 0.2 0.237596 1.47275 1.74952 5.49627 
0.122986 0.2 0.213021 2.8452 1.74953 4.92774 
0.173931 0.2 0.173931 4.02356 1.74954 4.02359 
0.213021 0.2 0.122986 4.92775 1.74952 2.8452 
0.237596 0.2 0.0636649 5.49628 1.7495 1.47272 
0.178195 0.4 -0.0477509 5.49627 1.74959 -1.47271 
0.184484 0.4 0 5.69013 1.74958 -7.88644e-005 
0.159768 0.4 -0.0922376 4.92771 1.74956 -2.84522 
0.130444 0.4 -0.130444 4.02359 1.74955 -4.02357 
0.0922376 0.4 -0.159768 2.84516 1.7496 -4.92772 
0.0477509 0.4 -0.178195 1.47284 1.7496 -5.49624 
0 0.4 -0.184484 -7.88718e-005 1.74958 -5.69013 
-0.0477509 0.4 -0.178195 -1.47271 1.74959 -5.49627 
-0.0922376 0.4 -0.159768 -2.84522 1.74956 -4.92771 
-0.130444 0.4 -0.130444 -4.02357 1.74955 -4.02359 
-0.159768 0.4 -0.0922376 -4.92772 1.7496 -2.84516 
-0.178195 0.4 -0.0477509 -5.49624 1.7496 -1.47284 
-0.184484 0.4 0 -5.69013 1.74958 7.88718e-005 
-0.178195 0.4 0.0477509 -5.49627 1.74959 1.47271 
-0.159768 0.4 0.0922376 -4.92771 1.74956 2.84522 
-0.130444 0.4 0.130444 -4.02359 1.74955 4.02357 
-0.0922376 0.4 0.159768 -2.84516 1.7496 4.92772 
-0.0477509 0.4 0.178195 -1.47284 1.7496 5.49624 
0 0.4 0.184484 7.88718e-005 1.74958 5.69013 
0.0477509 0.4 0.178195 1.47271 1.74959 5.49627 
0.0922376 0.4 0.159768 2.84522 1.74956 4.92771 
0.130444 0.4 0.130444 4.02357 1.74955 4.02359 
0.159768 0.4 0.0922376 4.92772 1.7496 2.84516 
0.178195 0.4 0.0477509 5.49624 1.7496 1.47284 
0.118793 0.6 -0.031828 5.49625 1.74954 -1.47294 
0.122986 0.6 0 5.69011 1.74952 -1.51321e-005 
0.106506 0.6 -0.0614976 4.92768 1.74958 -2.84523 
0.0869654 0.6 -0.0869654 4.02361 1.74955 -4.02357 
0.0614976 0.6 -0.106506 2.84526 1.74952 -4.92769 
0.031828 0.6 -0.118793 1.4729 1.74954 -5.49626 
0 0.6 -0.122986 -1.51396e-005 1.74952 -5.69011 
-0.031828 0.6 -0.118793 -1.47294 1.74954 -5.49624 
-0.0614976 0.6 -0.106506 -2.84523 1.74958 -4.92768 
-0.0869654 0.6 -0.0869654 -4.02357 1.74955 -4.02361 
-0.106506 0.6 -0.0614976 -4.92769 1.74952 -2.84526 
-0.118793 0.6 -0.031828 -5.49626 1.74954 -1.4729 
-0.122986 0.6 0 -5.69011 1.74952 1.51396e-005 
-0.118793 0.6 0.031828 -5.49625 1.74954 1.47294 
-0.106506 0.6 0.0614976 -4.92768 1.74958 2.84523 
-0.0869654 0.6 0.0869654 -4.02361 1.74955 4.02357 
-0.0614976 0.6 0.106506 -2.84526 1.74952 4.92769 
-0.031828 0.6 0.118793 -1.4729 1.74954 5.49626 
0 0.6 0.122986 1.51396e-005 1.74952 5.69011 
0.031828 0.6 0.118793 1.47294 1.74954 5.49624 
0.0614976 0.6 0.106506 2.84523 1.74958 4.92768 
0.0869654 0.6 0.0869654 4.02357 1.74955 4.02361 
0.106506 0.6 0.0614976 4.92769 1.74952 2.84526 
0.118793 0.6 0.031828 5.49626 1.74954 1.4729 
0.0594011 0.8 -0.015914 4.11543 1.29373 -0.773074 
0.0614976 0.8 0 4.75674 1.46251 0.124936 
0.0532531 0.8 -0.0307488 3.23077 1.1249 -1.72148 
0.0434783 0.8 -0.0434783 2.67518 1.12489 -2.49875 
0.0307488 0.8 -0.0532531 1.93779 1.12493 -3.10586 
0.015914 0.8 -0.0594011 1.06779 1.1249 -3.5017 
0 0.8 -0.0614976 0.124936 1.12483 -3.65854 
-0.015914 0.8 -0.0594011 -0.826657 1.12489 -3.56633 
-0.0307488 0.8 -0.0532531 -1.72148 1.1249 -3.23077 
-0.0434783 0.8 -0.0434783 -2.49875 1.12489 -2.67518 
-0.0532531 0.8 -0.0307488 -3.10586 1.12493 -1.93779 
-0.0594011 0.8 -0.015914 -3.5017 1.1249 -1.06779 
-0.0614976 0.8 0 -3.65854 1.12483 -0.124936 
-0.0594011 0.8 0.015914 -3.56633 1.12489 0.826657 
-0.0532531 0.8 0.0307488 -3.23077 1.1249 1.72148 
-0.0434783 0.8 0.0434783 -2.67518 1.12489 2.49875 
-0.0307488 0.8 0.0532531 -1.93779 1.12493 3.10586 
-0.015914 0.8 0.0594011 -1.06779 1.1249 3.5017 
0 0.8 0.0614976 -0.124936 1.12483 3.65854 
0.015914 0.8 0.0594011 0.826657 1.12489 3.56633 
0.0307488 0.8 0.0532531 1.72148 1.1249 3.23077 
0.0434783 0.8 0.0434783 2.49875 1.12489 2.67518 
0.0532531 0.8 0.0307488 3.10586 1.12493 1.93779 
0.0594011 0.8 0.015914 4.0508 1.29374 1.01421 
0 1 0 1.0982 3.33942 -2.5332e-007 
3 0 1 2 
3 0 2 3 
3 0 4 5 
3 0 5 1 
3 0 6 7 
3 0 7 4 
3 0 8 9 
3 0 9 6 
3 0 10 11 
3 0 11 8 
3 0 12 13 
3 0 13 10 
3 0 14 15 
3 0 15 12 
3 0 16 17 
3 0 17 14 
3 0 18 19 
3 0 19 16 
3 0 20 21 
3 0 21 18 
3 0 22 23 
3 0 23 20 
3 0 3 24 
3 0 24 22 
3 3 2 25 
3 3 25 26 
3 2 1 27 
3 2 27 25 
3 1 5 28 
3 1 28 27 
3 5 4 29 
3 5 29 28 
3 4 7 30 
3 4 30 29 
3 7 6 31 
3 7 31 30 
3 6 9 32 
3 6 32 31 
3 9 8 33 
3 9 33 32 
3 8 11 34 
3 8 34 33 
3 11 10 35 
3 11 35 34 
3 10 13 36 
3 10 36 35 
3 13 12 37 
3 13 37 36 
3 12 15 38 
3 12 38 37 
3 15 14 39 
3 15 39 38 
3 14 17 40 
3 14 40 39 
3 17 16 41 
3 17 41 40 
3 16 19 42 
3 16 42 41 
3 19 18 43 
3 19 43 42 
3 18 21 44 
3 18 44 43 
3 21 20 45 
3 21 45 44 
3 20 23 46 
3 20 46 45 
3 23 22 47 
3 23 47 46 
3 22 24 48 
3 22 48 47 
3 24 3 26 
3 24 26 48 
3 26 25 49 
3 26 49 50 
3 25 27 51 
3 25 51 49 
3 27 28 52 
3 27 52 51 
3 28 29 53 
3 28 53 52 
3 29 30 54 
3 29 54 53 
3 30 31 55 
3 30 55 54 
3 31 32 56 
3 31 56 55 
3 32 33 57 
3 32 57 56 
3 33 34 58 
3 33 58 57 
3 34 35 59 
3 34 59 58 
3 35 36 60 
3 35 60 59 
3 36 37 61 
3 36 61 60 
3 37 38 62 
3 37 62 61 
3 38 39 63 
3 38 63 62 
3 39 40 64 
3 39 64 63 
3 40 41 65 
3 40 65 64 
3 41 42 66 
3 41 66 65 
3 42 43 67 
3 42 67 66 
3 43 44 68 
3 43 68 67 
3 44 45 69 
3 44 69 68 
3 45 46 70 
3 45 70 69 
3 46 47 71 
3 46 71 70 
3 47 48 72 
3 47 72 71 
3 48 26 50 
3 48 50 72 
3 50 49 73 
3 50 73 74 
3 49 51 75 
3 49 75 73 
3 51 52 76 
3 51 76 75 
3 52 53 77 
3 52 77 76 
3 53 54 78 
3 53 78 77 
3 54 55 79 
3 54 79 78 
3 55 56 80 
3 55 80 79 
3 56 57 81 
3 56 81 80 
3 57 58 82 
3 57 82 81 
3 58 59 83 
3 58 83 82 
3 59 60 84 
3 59 84 83 
3 60 61 85 
3 60 85 84 
3 61 62 86 
3 61 86 85 
3 62 63 87 
3 62 87 86 
3 63 64 88 
3 63 88 87 
3 64 65 89 
3 64 89 88 
3 65 66 90 
3 65 90 89 
3 66 67 91 
3 66 91 90 
3 67 68 92 
3 67 92 91 
3 68 69 93 
3 68 93 92 
3 69 70 94 
3 69 94 93 
3 70 71 95 
3 70 95 94 
3 71 72 96 
3 71 96 95 
3 72 50 74 
3 72 74 96 
3 74 73 97 
3 74 97 98 
3 73 75 99 
3 73 99 97 
3 75 76 100 
3 75 100 99 
3 76 77 101 
3 76 101 100 
3 77 78 102 
3 77 102 101 
3 78 79 103 
3 78 103 102 
3 79 80 104 
3 79 104 103 
3 80 81 105 
3 80 105 104 
3 81 82 106 
3 81 106 105 
3 82 83 107 
3 82 107 106 
3 83 84 108 
3 83 108 107 
3 84 85 109 
3 84 109 108 
3 85 86 110 
3 85 110 109 
3 86 87 111 
3 86 111 110 
3 87 88 112 
3 87 112 111 
3 88 89 113 
3 88 113 112 
3 89 90 114 
3 89 114 113 
3 90 91 115 
3 90 115 114 
3 91 92 116 
3 91 116 115 
3 92 93 117 
3 92 117 116 
3 93 94 118 
3 93 118 117 
3 94 95 119 
3 94 119 118 
3 95 96 120 
3 95 120 119 
3 96 74 98 
3 96 98 120 
3 98 97 121 
3 97 99 121 
3 99 100 121 
3 100 101 121 
3 101 102 121 
3 102 103 121 
3 103 104 121 
3 104 105 121 
3 105 106 121 
3 106 107 121 
3 107 108 121 
3 108 109 121 
3 109 110 121 
3 110 111 121 
3 111 112 121 
3 112 113 121 
3 113 114 121 
3 114 115 121 
3 115 116 121 
3 116 117 121 
3 117 118 121 
3 118 119 121 
3 119 120 121 
3 120 98 121 
