ply
format ascii 1.0
comment VCGLIB generated
element vertex 169
property float x
property float y
property float z
property float nx
property float ny
property float nz
property float texture_u
property float texture_v
element face 288
property list uchar int vertex_indices
end_header
-2 0 1.45622 0 3 0 0 0.0833
-2 0 1.74746 0 1 0 0 0
-1.66666 0 1.74746 0 3 0 0.0833 0
-1.66666 0 1.45622 0 6 0 0.0833 0.0833
-1.33334 0 1.74746 0 3 0 0.1667 0
-1.33334 0 1.45622 0 6 0 0.1667 0.0833
-1 0 1.74746 0 3 0 0.25 0
-1 0 1.45622 0 6 0 0.25 0.0833
-0.666672 0 1.74746 0 3 0 0.3333 0
-0.666672 0 1.45622 0 6 0 0.3333 0.0833
-0.333335 0 1.74746 0 3 0 0.4167 0
-0.333335 0 1.45622 0 6 0 0.4167 0.0833
0 0 1.74746 0 3 0 0.5 0
0 0 1.45622 0 6 0 0.5 0.0833
0.333335 0 1.74746 0 3 0 0.5833 0
0.333335 0 1.45622 0 6 0 0.5833 0.0833
0.666672 0 1.74746 0 3 0 0.6667 0
0.666672 0 1.45622 0 6 0 0.6667 0.0833
1 0 1.74746 0 3 0 0.75 0
1 0 1.45622 0 6 0 0.75 0.0833
1.33334 0 1.74746 0 3 0 0.8333 0
1.33334 0 1.45622 0 6 0 0.8333 0.0833
1.66666 0 1.74746 0 3 0 0.9167 0
1.66666 0 1.45622 0 6 0 0.9167 0.0833
2 0 1.74746 0 2 0 1 0
2 0 1.45622 0 3 0 1 0.0833
-2 0 1.16498 0 3 0 0 0.1667
-1.66666 0 1.16498 0 6 0 0.0833 0.1667
-1.33334 0 1.16498 0 6 0 0.1667 0.1667
-1 0 1.16498 0 6 0 0.25 0.1667
-0.666672 0 1.16498 0 6 0 0.3333 0.1667
-0.333335 0 1.16498 0 6 0 0.4167 0.1667
0 0 1.16498 0 6 0 0.5 0.1667
0.333335 0 1.16498 0 6 0 0.5833 0.1667
0.666672 0 1.16498 0 6 0 0.6667 0.1667
1 0 1.16498 0 6 0 0.75 0.1667
1.33334 0 1.16498 0 6 0 0.8333 0.1667
1.66666 0 1.16498 0 6 0 0.9167 0.1667
2 0 1.16498 0 3 0 1 0.1667
-2 0 0.873732 0 3 0 0 0.25
-1.66666 0 0.873732 0 6 0 0.0833 0.25
-1.33334 0 0.873732 0 6 0 0.1667 0.25
-1 0 0.873732 0 6 0 0.25 0.25
-0.666672 0 0.873732 0 6 0 0.3333 0.25
-0.333335 0 0.873732 0 6 0 0.4167 0.25
0 0 0.873732 0 6 0 0.5 0.25
0.333335 0 0.873732 0 6 0 0.5833 0.25
0.666672 0 0.873732 0 6 0 0.6667 0.25
1 0 0.873732 0 6 0 0.75 0.25
1.33334 0 0.873732 0 6 0 0.8333 0.25
1.66666 0 0.873732 0 6 0 0.9167 0.25
2 0 0.873732 0 3 0 1 0.25
-2 0 0.582484 0 3 0 0 0.3333
-1.66666 0 0.582484 0 6 0 0.0833 0.3333
-1.33334 0 0.582484 0 6 0 0.1667 0.3333
-1 0 0.582484 0 6 0 0.25 0.3333
-0.666672 0 0.582484 0 6 0 0.3333 0.3333
-0.333335 0 0.582484 0 6 0 0.4167 0.3333
0 0 0.582484 0 6 0 0.5 0.3333
0.333335 0 0.582484 0 6 0 0.5833 0.3333
0.666672 0 0.582484 0 6 0 0.6667 0.3333
1 0 0.582484 0 6 0 0.75 0.3333
1.33334 0 0.582484 0 6 0 0.8333 0.3333
1.66666 0 0.582484 0 6 0 0.9167 0.3333
2 0 0.582484 0 3 0 1 0.3333
-2 0 0.291248 0 3 0 0 0.4167
-1.66666 0 0.291248 0 6 0 0.0833 0.4167
-1.33334 0 0.291248 0 6 0 0.1667 0.4167
-1 0 0.291248 0 6 0 0.25 0.4167
-0.666672 0 0.291248 0 6 0 0.3333 0.4167
-0.333335 0 0.291248 0 6 0 0.4167 0.4167
0 0 0.291248 0 6 0 0.5 0.4167
0.333335 0 0.291248 0 6 0 0.5833 0.4167
0.666672 0 0.291248 0 6 0 0.6667 0.4167
1 0 0.291248 0 6 0 0.75 0.4167
1.33334 0 0.291248 0 6 0 0.8333 0.4167
1.66666 0 0.291248 0 6 0 0.9167 0.4167
2 0 0.291248 0 3 0 1 0.4167
-2 0 0 0 3 0 0 0.5
-1.66666 0 0 0 6 0 0.0833 0.5
-1.33334 0 0 0 6 0 0.1667 0.5
-1 0 0 0 6 0 0.25 0.5
-0.666672 0 0 0 6 0 0.3333 0.5
-0.333335 0 0 0 6 0 0.4167 0.5
0 0 0 0 6 0 0.5 0.5
0.333335 0 0 0 6 0 0.5833 0.5
0.666672 0 0 0 6 0 0.6667 0.5
1 0 0 0 6 0 0.75 0.5
1.33334 0 0 0 6 0 0.8333 0.5
1.66666 0 0 0 6 0 0.9167 0.5
2 0 0 0 3 0 1 0.5
-2 0 -0.291248 0 3 0 0 0.5833
-1.66666 0 -0.291248 0 6 0 0.0833 0.5833
-1.33334 0 -0.291248 0 6 0 0.1667 0.5833
-1 0 -0.291248 0 6 0 0.25 0.5833
-0.666672 0 -0.291248 0 6 0 0.3333 0.5833
-0.333335 0 -0.291248 0 6 0 0.4167 0.5833
0 0 -0.291248 0 6 0 0.5 0.5833
0.333335 0 -0.291248 0 6 0 0.5833 0.5833
0.666672 0 -0.291248 0 6 0 0.6667 0.5833
1 0 -0.291248 0 6 0 0.75 0.5833
1.33334 0 -0.291248 0 6 0 0.8333 0.5833
1.66666 0 -0.291248 0 6 0 0.9167 0.5833
2 0 -0.291248 0 3 0 1 0.5833
-2 0 -0.582484 0 3 0 0 0.6667
-1.66666 0 -0.582484 0 6 0 0.0833 0.6667
-1.33334 0 -0.582484 0 6 0 0.1667 0.6667
-1 0 -0.582484 0 6 0 0.25 0.6667
-0.666672 0 -0.582484 0 6 0 0.3333 0.6667
-0.333335 0 -0.582484 0 6 0 0.4167 0.6667
0 0 -0.582484 0 6 0 0.5 0.6667
0.333335 0 -0.582484 0 6 0 0.5833 0.6667
0.666672 0 -0.582484 0 6 0 0.6667 0.6667
1 0 -0.582484 0 6 0 0.75 0.6667
1.33334 0 -0.582484 0 6 0 0.8333 0.6667
1.66666 0 -0.582484 0 6 0 0.9167 0.6667
2 0 -0.582484 0 3 0 1 0.6667
-2 0 -0.873732 0 3 0 0 0.75
-1.66666 0 -0.873732 0 6 0 0.0833 0.75
-1.33334 0 -0.873732 0 6 0 0.1667 0.75
-1 0 -0.873732 0 6 0 0.25 0.75
-0.666672 0 -0.873732 0 6 0 0.3333 0.75
-0.333335 0 -0.873732 0 6 0 0.4167 0.75
0 0 -0.873732 0 6 0 0.5 0.75
0.333335 0 -0.873732 0 6 0 0.5833 0.75
0.666672 0 -0.873732 0 6 0 0.6667 0.75
1 0 -0.873732 0 6 0 0.75 0.75
1.33334 0 -0.873732 0 6 0 0.8333 0.75
1.66666 0 -0.873732 0 6 0 0.9167 0.75
2 0 -0.873732 0 3 0 1 0.75
-2 0 -1.16498 0 3 0 0 0.8333
-1.66666 0 -1.16498 0 6 0 0.0833 0.8333
-1.33334 0 -1.16498 0 6 0 0.1667 0.8333
-1 0 -1.16498 0 6 0 0.25 0.8333
-0.666672 0 -1.16498 0 6 0 0.3333 0.8333
-0.333335 0 -1.16498 0 6 0 0.4167 0.8333
0 0 -1.16498 0 6 0 0.5 0.8333
0.333335 0 -1.16498 0 6 0 0.5833 0.8333
0.666672 0 -1.16498 0 6 0 0.6667 0.8333
1 0 -1.16498 0 6 0 0.75 0.8333
1.33334 0 -1.16498 0 6 0 0.8333 0.8333
1.66666 0 -1.16498 0 6 0 0.9167 0.8333
2 0 -1.16498 0 3 0 1 0.8333
-2 0 -1.45622 0 3 0 0 0.9167
-1.66666 0 -1.45622 0 6 0 0.0833 0.9167
-1.33334 0 -1.45622 0 6 0 0.1667 0.9167
-1 0 -1.45622 0 6 0 0.25 0.9167
-0.666672 0 -1.45622 0 6 0 0.3333 0.9167
-0.333335 0 -1.45622 0 6 0 0.4167 0.9167
0 0 -1.45622 0 6 0 0.5 0.9167
0.333335 0 -1.45622 0 6 0 0.5833 0.9167
0.666672 0 -1.45622 0 6 0 0.6667 0.9167
1 0 -1.45622 0 6 0 0.75 0.9167
1.33334 0 -1.45622 0 6 0 0.8333 0.9167
1.66666 0 -1.45622 0 6 0 0.9167 0.9167
2 0 -1.45622 0 3 0 1 0.9167
-2 0 -1.74746 0 2 0 0 1
-1.66666 0 -1.74746 0 3 0 0.0833 1
-1.33334 0 -1.74746 0 3 0 0.1667 1
-1 0 -1.74746 0 3 0 0.25 1
-0.666672 0 -1.74746 0 3 0 0.3333 1
-0.333335 0 -1.74746 0 3 0 0.4167 1
0 0 -1.74746 0 3 0 0.5 1
0.333335 0 -1.74746 0 3 0 0.5833 1
0.666672 0 -1.74746 0 3 0 0.6667 1
1 0 -1.74746 0 3 0 0.75 1
1.33334 0 -1.74746 0 3 0 0.8333 1
1.66666 0 -1.74746 0 3 0 0.9167 1
2 0 -1.74746 0 1 0 1 1
3 0 1 2 
3 0 2 3 
3 3 2 4 
3 3 4 5 
3 5 4 6 
3 5 6 7 
3 7 6 8 
3 7 8 9 
3 9 8 10 
3 9 10 11 
3 11 10 12 
3 11 12 13 
3 13 12 14 
3 13 14 15 
3 15 14 16 
3 15 16 17 
3 17 16 18 
3 17 18 19 
3 19 18 20 
3 19 20 21 
3 21 20 22 
3 21 22 23 
3 23 22 24 
3 23 24 25 
3 26 0 3 
3 26 3 27 
3 27 3 5 
3 27 5 28 
3 28 5 7 
3 28 7 29 
3 29 7 9 
3 29 9 30 
3 30 9 11 
3 30 11 31 
3 31 11 13 
3 31 13 32 
3 32 13 15 
3 32 15 33 
3 33 15 17 
3 33 17 34 
3 34 17 19 
3 34 19 35 
3 35 19 21 
3 35 21 36 
3 36 21 23 
3 36 23 37 
3 37 23 25 
3 37 25 38 
3 39 26 27 
3 39 27 40 
3 40 27 28 
3 40 28 41 
3 41 28 29 
3 41 29 42 
3 42 29 30 
3 42 30 43 
3 43 30 31 
3 43 31 44 
3 44 31 32 
3 44 32 45 
3 45 32 33 
3 45 33 46 
3 46 33 34 
3 46 34 47 
3 47 34 35 
3 47 35 48 
3 48 35 36 
3 48 36 49 
3 49 36 37 
3 49 37 50 
3 50 37 38 
3 50 38 51 
3 52 39 40 
3 52 40 53 
3 53 40 41 
3 53 41 54 
3 54 41 42 
3 54 42 55 
3 55 42 43 
3 55 43 56 
3 56 43 44 
3 56 44 57 
3 57 44 45 
3 57 45 58 
3 58 45 46 
3 58 46 59 
3 59 46 47 
3 59 47 60 
3 60 47 48 
3 60 48 61 
3 61 48 49 
3 61 49 62 
3 62 49 50 
3 62 50 63 
3 63 50 51 
3 63 51 64 
3 65 52 53 
3 65 53 66 
3 66 53 54 
3 66 54 67 
3 67 54 55 
3 67 55 68 
3 68 55 56 
3 68 56 69 
3 69 56 57 
3 69 57 70 
3 70 57 58 
3 70 58 71 
3 71 58 59 
3 71 59 72 
3 72 59 60 
3 72 60 73 
3 73 60 61 
3 73 61 74 
3 74 61 62 
3 74 62 75 
3 75 62 63 
3 75 63 76 
3 76 63 64 
3 76 64 77 
3 78 65 66 
3 78 66 79 
3 79 66 67 
3 79 67 80 
3 80 67 68 
3 80 68 81 
3 81 68 69 
3 81 69 82 
3 82 69 70 
3 82 70 83 
3 83 70 71 
3 83 71 84 
3 84 71 72 
3 84 72 85 
3 85 72 73 
3 85 73 86 
3 86 73 74 
3 86 74 87 
3 87 74 75 
3 87 75 88 
3 88 75 76 
3 88 76 89 
3 89 76 77 
3 89 77 90 
3 91 78 79 
3 91 79 92 
3 92 79 80 
3 92 80 93 
3 93 80 81 
3 93 81 94 
3 94 81 82 
3 94 82 95 
3 95 82 83 
3 95 83 96 
3 96 83 84 
3 96 84 97 
3 97 84 85 
3 97 85 98 
3 98 85 86 
3 98 86 99 
3 99 86 87 
3 99 87 100 
3 100 87 88 
3 100 88 101 
3 101 88 89 
3 101 89 102 
3 102 89 90 
3 102 90 103 
3 104 91 92 
3 104 92 105 
3 105 92 93 
3 105 93 106 
3 106 93 94 
3 106 94 107 
3 107 94 95 
3 107 95 108 
3 108 95 96 
3 108 96 109 
3 109 96 97 
3 109 97 110 
3 110 97 98 
3 110 98 111 
3 111 98 99 
3 111 99 112 
3 112 99 100 
3 112 100 113 
3 113 100 101 
3 113 101 114 
3 114 101 102 
3 114 102 115 
3 115 102 103 
3 115 103 116 
3 117 104 105 
3 117 105 118 
3 118 105 106 
3 118 106 119 
3 119 106 107 
3 119 107 120 
3 120 107 108 
3 120 108 121 
3 121 108 109 
3 121 109 122 
3 122 109 110 
3 122 110 123 
3 123 110 111 
3 123 111 124 
3 124 111 112 
3 124 112 125 
3 125 112 113 
3 125 113 126 
3 126 113 114 
3 126 114 127 
3 127 114 115 
3 127 115 128 
3 128 115 116 
3 128 116 129 
3 130 117 118 
3 130 118 131 
3 131 118 119 
3 131 119 132 
3 132 119 120 
3 132 120 133 
3 133 120 121 
3 133 121 134 
3 134 121 122 
3 134 122 135 
3 135 122 123 
3 135 123 136 
3 136 123 124 
3 136 124 137 
3 137 124 125 
3 137 125 138 
3 138 125 126 
3 138 126 139 
3 139 126 127 
3 139 127 140 
3 140 127 128 
3 140 128 141 
3 141 128 129 
3 141 129 142 
3 143 130 131 
3 143 131 144 
3 144 131 132 
3 144 132 145 
3 145 132 133 
3 145 133 146 
3 146 133 134 
3 146 134 147 
3 147 134 135 
3 147 135 148 
3 148 135 136 
3 148 136 149 
3 149 136 137 
3 149 137 150 
3 150 137 138 
3 150 138 151 
3 151 138 139 
3 151 139 152 
3 152 139 140 
3 152 140 153 
3 153 140 141 
3 153 141 154 
3 154 141 142 
3 154 142 155 
3 156 143 144 
3 156 144 157 
3 157 144 145 
3 157 145 158 
3 158 145 146 
3 158 146 159 
3 159 146 147 
3 159 147 160 
3 160 147 148 
3 160 148 161 
3 161 148 149 
3 161 149 162 
3 162 149 150 
3 162 150 163 
3 163 150 151 
3 163 151 164 
3 164 151 152 
3 164 152 165 
3 165 152 153 
3 165 153 166 
3 166 153 154 
3 166 154 167 
3 167 154 155 
3 167 155 168 
