ply
format ascii 1.0
comment VCGLIB generated
element vertex 8
property float x
property float y
property float z
element face 12
property list uchar int vertex_indices
end_header
-0.49177 -0.47797 0.50595 
-0.49177 -0.47797 -0.49405 
0.50823 -0.47797 -0.49405 
0.50823 -0.47797 0.50595 
-0.49177 0.52203 0.50595 
0.50823 0.52203 0.50595 
0.50823 0.52203 -0.49405 
-0.49177 0.52203 -0.49405 
3 0 1 2 
3 2 3 0 
3 4 5 6 
3 6 7 4 
3 0 3 5 
3 5 4 0 
3 3 2 6 
3 6 5 3 
3 2 1 7 
3 7 6 2 
3 1 0 4 
3 4 7 1 
