ply
format ascii 1.0
comment VCGLIB generated
element vertex 72
property float x
property float y
property float z
property float nx
property float ny
property float nz
property float texture_u
property float texture_v
element face 112
property list uchar int vertex_indices
end_header
1.666e-005 0.25366 0.375 3 0 0 0 0.125
1.666e-005 0.25366 0.5 1 0 0 0 0
1.666e-005 0.181189 0.5 3 0 0 0.1429 0
1.666e-005 0.181189 0.375 6 0 0 0.1429 0.125
1.666e-005 0.108712 0.5 3 0 0 0.2857 0
1.666e-005 0.108712 0.375 6 0 0 0.2857 0.125
1.666e-005 0.0362355 0.5 3 0 0 0.4286 0
1.666e-005 0.0362355 0.375 6 0 0 0.4286 0.125
1.666e-005 -0.0362355 0.5 3 0 0 0.5714 0
1.666e-005 -0.0362355 0.375 6 0 0 0.5714 0.125
1.666e-005 -0.108712 0.5 3 0 0 0.7143 0
1.666e-005 -0.108712 0.375 6 0 0 0.7143 0.125
1.666e-005 -0.181189 0.5 3 0 0 0.8571 0
1.666e-005 -0.181189 0.375 6 0 0 0.8571 0.125
1.666e-005 -0.25366 0.5 2 0 0 1 0
1.666e-005 -0.25366 0.375 3 0 0 1 0.125
1.666e-005 0.25366 0.25 3 0 0 0 0.25
1.666e-005 0.181189 0.25 6 0 0 0.1429 0.25
1.666e-005 0.108712 0.25 6 0 0 0.2857 0.25
1.666e-005 0.0362355 0.25 6 0 0 0.4286 0.25
1.666e-005 -0.0362355 0.25 6 0 0 0.5714 0.25
1.666e-005 -0.108712 0.25 6 0 0 0.7143 0.25
1.666e-005 -0.181189 0.25 6 0 0 0.8571 0.25
1.666e-005 -0.25366 0.25 3 0 0 1 0.25
1.666e-005 0.25366 0.125 3 0 0 0 0.375
1.666e-005 0.181189 0.125 6 0 0 0.1429 0.375
1.666e-005 0.108712 0.125 6 0 0 0.2857 0.375
1.666e-005 0.0362355 0.125 6 0 0 0.4286 0.375
1.666e-005 -0.0362355 0.125 6 0 0 0.5714 0.375
1.666e-005 -0.108712 0.125 6 0 0 0.7143 0.375
1.666e-005 -0.181189 0.125 6 0 0 0.8571 0.375
1.666e-005 -0.25366 0.125 3 0 0 1 0.375
1.666e-005 0.25366 0 3 0 0 0 0.5
1.666e-005 0.181189 0 6 0 0 0.1429 0.5
1.666e-005 0.108712 0 6 0 0 0.2857 0.5
1.666e-005 0.0362355 0 6 0 0 0.4286 0.5
1.666e-005 -0.0362355 0 6 0 0 0.5714 0.5
1.666e-005 -0.108712 0 6 0 0 0.7143 0.5
1.666e-005 -0.181189 0 6 0 0 0.8571 0.5
1.666e-005 -0.25366 0 3 0 0 1 0.5
1.666e-005 0.25366 -0.125 3 0 0 0 0.625
1.666e-005 0.181189 -0.125 6 0 0 0.1429 0.625
1.666e-005 0.108712 -0.125 6 0 0 0.2857 0.625
1.666e-005 0.0362355 -0.125 6 0 0 0.4286 0.625
1.666e-005 -0.0362355 -0.125 6 0 0 0.5714 0.625
1.666e-005 -0.108712 -0.125 6 0 0 0.7143 0.625
1.666e-005 -0.181189 -0.125 6 0 0 0.8571 0.625
1.666e-005 -0.25366 -0.125 3 0 0 1 0.625
1.666e-005 0.25366 -0.25 3 0 0 0 0.75
1.666e-005 0.181189 -0.25 6 0 0 0.1429 0.75
1.666e-005 0.108712 -0.25 6 0 0 0.2857 0.75
1.666e-005 0.0362355 -0.25 6 0 0 0.4286 0.75
1.666e-005 -0.0362355 -0.25 6 0 0 0.5714 0.75
1.666e-005 -0.108712 -0.25 6 0 0 0.7143 0.75
1.666e-005 -0.181189 -0.25 6 0 0 0.8571 0.75
1.666e-005 -0.25366 -0.25 3 0 0 1 0.75
1.666e-005 0.25366 -0.375 3 0 0 0 0.875
1.666e-005 0.181189 -0.375 6 0 0 0.1429 0.875
1.666e-005 0.108712 -0.375 6 0 0 0.2857 0.875
1.666e-005 0.0362355 -0.375 6 0 0 0.4286 0.875
1.666e-005 -0.0362355 -0.375 6 0 0 0.5714 0.875
1.666e-005 -0.108712 -0.375 6 0 0 0.7143 0.875
1.666e-005 -0.181189 -0.375 6 0 0 0.8571 0.875
1.666e-005 -0.25366 -0.375 3 0 0 1 0.875
1.666e-005 0.25366 -0.5 2 0 0 0 1
1.666e-005 0.181189 -0.5 3 0 0 0.1429 1
1.666e-005 0.108712 -0.5 3 0 0 0.2857 1
1.666e-005 0.0362355 -0.5 3 0 0 0.4286 1
1.666e-005 -0.0362355 -0.5 3 0 0 0.5714 1
1.666e-005 -0.108712 -0.5 3 0 0 0.7143 1
1.666e-005 -0.181189 -0.5 3 0 0 0.8571 1
1.666e-005 -0.25366 -0.5 1 0 0 1 1
3 0 1 2 
3 0 2 3 
3 3 2 4 
3 3 4 5 
3 5 4 6 
3 5 6 7 
3 7 6 8 
3 7 8 9 
3 9 8 10 
3 9 10 11 
3 11 10 12 
3 11 12 13 
3 13 12 14 
3 13 14 15 
3 16 0 3 
3 16 3 17 
3 17 3 5 
3 17 5 18 
3 18 5 7 
3 18 7 19 
3 19 7 9 
3 19 9 20 
3 20 9 11 
3 20 11 21 
3 21 11 13 
3 21 13 22 
3 22 13 15 
3 22 15 23 
3 24 16 17 
3 24 17 25 
3 25 17 18 
3 25 18 26 
3 26 18 19 
3 26 19 27 
3 27 19 20 
3 27 20 28 
3 28 20 21 
3 28 21 29 
3 29 21 22 
3 29 22 30 
3 30 22 23 
3 30 23 31 
3 32 24 25 
3 32 25 33 
3 33 25 26 
3 33 26 34 
3 34 26 27 
3 34 27 35 
3 35 27 28 
3 35 28 36 
3 36 28 29 
3 36 29 37 
3 37 29 30 
3 37 30 38 
3 38 30 31 
3 38 31 39 
3 40 32 33 
3 40 33 41 
3 41 33 34 
3 41 34 42 
3 42 34 35 
3 42 35 43 
3 43 35 36 
3 43 36 44 
3 44 36 37 
3 44 37 45 
3 45 37 38 
3 45 38 46 
3 46 38 39 
3 46 39 47 
3 48 40 41 
3 48 41 49 
3 49 41 42 
3 49 42 50 
3 50 42 43 
3 50 43 51 
3 51 43 44 
3 51 44 52 
3 52 44 45 
3 52 45 53 
3 53 45 46 
3 53 46 54 
3 54 46 47 
3 54 47 55 
3 56 48 49 
3 56 49 57 
3 57 49 50 
3 57 50 58 
3 58 50 51 
3 58 51 59 
3 59 51 52 
3 59 52 60 
3 60 52 53 
3 60 53 61 
3 61 53 54 
3 61 54 62 
3 62 54 55 
3 62 55 63 
3 64 56 57 
3 64 57 65 
3 65 57 58 
3 65 58 66 
3 66 58 59 
3 66 59 67 
3 67 59 60 
3 67 60 68 
3 68 60 61 
3 68 61 69 
3 69 61 62 
3 69 62 70 
3 70 62 63 
3 70 63 71 
