ply
format ascii 1.0
comment VCGLIB generated
element vertex 482
property float x
property float y
property float z
property float nx
property float ny
property float nz
element face 960
property list uchar int vertex_indices
end_header
0 0.36603 0 -7.45058e-009 5.65923 0 
0 0.358995 -0.0714075 -0.0285342 3.22328 -0.905264 
-0.0139275 0.358995 -0.070035 -0.204616 3.22342 -0.882267 
-0.02733 0.358995 -0.06597 -0.372782 3.22342 -0.825457 
-0.039675 0.358995 -0.0593775 -0.526812 3.22333 -0.736745 
-0.05049 0.358995 -0.05049 -0.660302 3.22337 -0.620006 
-0.0593775 0.358995 -0.039675 -0.768568 3.22333 -0.479195 
-0.06597 0.358995 -0.02733 -0.847288 3.22343 -0.320017 
-0.070035 0.358995 -0.0139275 -0.893438 3.22342 -0.14851 
-0.0714075 0.358995 0 -0.905264 3.22328 0.0285342 
-0.070035 0.358995 0.0139275 -0.882267 3.22342 0.204616 
-0.06597 0.358995 0.02733 -0.825457 3.22342 0.372782 
-0.0593775 0.358995 0.039675 -0.736745 3.22333 0.526812 
-0.05049 0.358995 0.05049 -0.620006 3.22337 0.660302 
-0.039675 0.358995 0.0593775 -0.479195 3.22333 0.768568 
-0.02733 0.358995 0.06597 -0.320017 3.22343 0.847288 
-0.0139275 0.358995 0.070035 -0.14851 3.22342 0.893438 
0 0.358995 0.0714075 0.0285342 3.22328 0.905264 
0.0139275 0.358995 0.070035 0.204616 3.22342 0.882267 
0.02733 0.358995 0.06597 0.372782 3.22342 0.825457 
0.039675 0.358995 0.0593775 0.526812 3.22333 0.736745 
0.05049 0.358995 0.05049 0.660302 3.22337 0.620006 
0.0593775 0.358995 0.039675 0.768568 3.22333 0.479195 
0.06597 0.358995 0.02733 0.847288 3.22343 0.320017 
0.070035 0.358995 0.0139275 0.893438 3.22342 0.14851 
0.0714075 0.358995 0 0.905278 3.22338 -0.0285242 
0.070035 0.358995 -0.013935 0.882269 3.22343 -0.204643 
0.06597 0.358995 -0.02733 0.825448 3.22333 -0.372798 
0.0593775 0.358995 -0.039675 0.736745 3.22333 -0.526812 
0.05049 0.358995 -0.05049 0.620006 3.22337 -0.660302 
0.039675 0.358995 -0.0593775 0.479195 3.22333 -0.768568 
0.02733 0.358995 -0.06597 0.320017 3.22343 -0.847288 
0.0139275 0.358995 -0.070035 0.14851 3.22342 -0.893438 
0 0.338167 -0.14007 -0.0177964 5.51259 -2.28312 
-0.02733 0.338167 -0.137385 -0.462811 5.51257 -2.23576 
-0.0536025 0.338167 -0.129413 -0.890209 5.51257 -2.1025 
-0.07782 0.338167 -0.116467 -1.28334 5.51256 -1.8884 
-0.099045 0.338167 -0.099045 -1.62708 5.51256 -1.60185 
-0.116467 0.338167 -0.07782 -1.90813 5.51256 -1.25381 
-0.129413 0.338167 -0.0536025 -2.11616 5.51256 -0.857292 
-0.137385 0.338167 -0.02733 -2.24268 5.51259 -0.427863 
-0.14007 0.338167 0 -2.28312 5.51259 0.0177964 
-0.137385 0.338167 0.02733 -2.23576 5.51257 0.462811 
-0.129413 0.338167 0.0536025 -2.1025 5.51257 0.890209 
-0.116467 0.338167 0.07782 -1.8884 5.51256 1.28334 
-0.099045 0.338167 0.099045 -1.60185 5.51256 1.62708 
-0.07782 0.338167 0.116467 -1.25381 5.51256 1.90813 
-0.0536025 0.338167 0.129413 -0.857292 5.51256 2.11616 
-0.02733 0.338167 0.137385 -0.427863 5.51259 2.24268 
0 0.338167 0.14007 0.0177964 5.51259 2.28312 
0.02733 0.338167 0.137385 0.462811 5.51257 2.23576 
0.0536025 0.338167 0.129413 0.890209 5.51257 2.1025 
0.07782 0.338167 0.116467 1.28327 5.51257 1.88842 
0.099045 0.338167 0.099045 1.62707 5.51258 1.60177 
0.116467 0.338167 0.07782 1.90815 5.51257 1.25377 
0.129413 0.338167 0.0536025 2.11616 5.51256 0.857292 
0.137385 0.338167 0.02733 2.24268 5.51259 0.427863 
0.14007 0.338167 0 2.28312 5.51259 -0.0177914 
0.137385 0.338167 -0.02733 2.23576 5.51257 -0.462817 
0.129413 0.338167 -0.0536025 2.1025 5.51257 -0.890241 
0.116467 0.338167 -0.07782 1.88842 5.51257 -1.28327 
0.099045 0.338167 -0.099045 1.60177 5.51258 -1.62707 
0.07782 0.338167 -0.116467 1.25377 5.51257 -1.90815 
0.0536025 0.338167 -0.129413 0.857292 5.51256 -2.11616 
0.02733 0.338167 -0.137385 0.427863 5.51259 -2.24268 
0 0.304343 -0.203355 -0.0160768 4.95748 -3.31209 
-0.039675 0.304343 -0.199447 -0.66175 4.95746 -3.24537 
-0.07782 0.304343 -0.187875 -1.2823 4.95749 -3.05384 
-0.11298 0.304343 -0.16908 -1.85346 4.95752 -2.74492 
-0.14379 0.304343 -0.14379 -2.3533 4.95753 -2.33067 
-0.16908 0.304343 -0.11298 -2.76267 4.95752 -1.82692 
-0.187875 0.304343 -0.07782 -3.06611 4.95747 -1.25273 
-0.199447 0.304343 -0.039675 -3.25159 4.95746 -0.630564 
-0.203355 0.304343 0 -3.31209 4.95748 0.0160768 
-0.199447 0.304343 0.039675 -3.24537 4.95746 0.66175 
-0.187875 0.304343 0.07782 -3.05384 4.95749 1.2823 
-0.16908 0.304343 0.11298 -2.74492 4.95752 1.85347 
-0.14379 0.304343 0.14379 -2.33067 4.95753 2.3533 
-0.11298 0.304343 0.16908 -1.82692 4.95752 2.76267 
-0.07782 0.304343 0.187875 -1.25273 4.95747 3.06611 
-0.039675 0.304343 0.199447 -0.630564 4.95746 3.25159 
0 0.304343 0.203355 0.016066 4.95749 3.31209 
0.039675 0.304343 0.199447 0.66177 4.95748 3.24535 
0.07782 0.304343 0.187875 1.28226 4.95751 3.05383 
0.11298 0.304343 0.16908 1.8534 4.95754 2.74494 
0.143797 0.304343 0.14379 2.35333 4.95752 2.33061 
0.16908 0.304343 0.11298 2.76273 4.95752 1.82682 
0.187875 0.304343 0.07782 3.06611 4.95747 1.25273 
0.199447 0.304343 0.039675 3.25159 4.95746 0.630564 
0.203355 0.304343 0 3.31209 4.95749 -0.016066 
0.199447 0.304343 -0.039675 3.24535 4.95748 -0.66177 
0.187875 0.304343 -0.07782 3.05383 4.95751 -1.28226 
0.16908 0.304343 -0.11298 2.74494 4.95754 -1.8534 
0.14379 0.304343 -0.143797 2.33061 4.95752 -2.35333 
0.11298 0.304343 -0.16908 1.82682 4.95752 -2.76273 
0.07782 0.304343 -0.187875 1.25273 4.95747 -3.06611 
0.039675 0.304343 -0.199447 0.630564 4.95746 -3.25159 
0 0.258825 -0.258825 -0.0135668 4.21218 -4.21178 
-0.05049 0.258825 -0.253845 -0.835015 4.2122 -4.12825 
-0.099045 0.258825 -0.239123 -1.62427 4.21217 -3.88603 
-0.14379 0.258825 -0.215205 -2.35118 4.21223 -3.49445 
-0.183015 0.258825 -0.183015 -2.98777 4.21226 -2.96849 
-0.215205 0.258825 -0.14379 -3.50947 4.21221 -2.3287 
-0.239123 0.258825 -0.099045 -3.89638 4.21221 -1.59917 
-0.253845 0.258825 -0.05049 -4.13355 4.21218 -0.808449 
-0.258825 0.258825 0 -4.21178 4.21219 0.0135722 
-0.253845 0.258825 0.05049 -4.12825 4.2122 0.835015 
-0.239123 0.258825 0.099045 -3.88603 4.21217 1.62427 
-0.215205 0.258825 0.14379 -3.49444 4.21223 2.35118 
-0.183015 0.258825 0.183015 -2.96849 4.21226 2.98777 
-0.14379 0.258825 0.215205 -2.3287 4.21221 3.50947 
-0.099045 0.258825 0.239123 -1.59917 4.21221 3.89638 
-0.05049 0.258825 0.253845 -0.808449 4.21218 4.13355 
0 0.258825 0.258825 0.013557 4.21218 4.21178 
0.0504975 0.258825 0.253845 0.835046 4.21219 4.12824 
0.099045 0.258825 0.239123 1.62425 4.21215 3.88606 
0.143797 0.258825 0.215205 2.35118 4.21219 3.49445 
0.183015 0.258825 0.183015 2.98785 4.21222 2.96846 
0.215205 0.258825 0.14379 3.50955 4.21218 2.32866 
0.239123 0.258825 0.099045 3.8964 4.21219 1.59915 
0.253845 0.258825 0.05049 4.13356 4.21217 0.808448 
0.258825 0.258825 0 4.21178 4.21218 -0.0135516 
0.253845 0.258825 -0.0504975 4.12824 4.21219 -0.835046 
0.239123 0.258825 -0.099045 3.88606 4.21218 -1.62419 
0.215205 0.258825 -0.143797 3.49439 4.21225 -2.35118 
0.183015 0.258825 -0.183015 2.96843 4.21224 -2.98787 
0.14379 0.258825 -0.215205 2.32866 4.21218 -3.50955 
0.099045 0.258825 -0.239123 1.59915 4.21219 -3.8964 
0.05049 0.258825 -0.253845 0.808448 4.21217 -4.13356 
0 0.203355 -0.304343 -0.0105358 3.30652 -4.94821 
-0.0593775 0.203355 -0.298492 -0.975829 3.30654 -4.85107 
-0.116467 0.203355 -0.281175 -1.90341 3.30653 -4.56748 
-0.16908 0.203355 -0.25305 -2.75786 3.30646 -4.10852 
-0.215205 0.203355 -0.215205 -3.50643 3.30649 -3.49138 
-0.25305 0.203355 -0.16908 -4.12028 3.30649 -2.74022 
-0.281175 0.203355 -0.116467 -4.57562 3.30651 -1.88383 
-0.298492 0.203355 -0.0593775 -4.85523 3.30654 -0.954891 
-0.304343 0.203355 0 -4.94821 3.30652 0.0105515 
-0.298492 0.203355 0.0593775 -4.85107 3.30654 0.975829 
-0.281175 0.203355 0.116467 -4.56748 3.30653 1.90341 
-0.25305 0.203355 0.16908 -4.10852 3.30646 2.75786 
-0.215205 0.203355 0.215205 -3.49138 3.30649 3.50643 
-0.16908 0.203355 0.25305 -2.74022 3.30649 4.12028 
-0.116467 0.203355 0.281175 -1.88383 3.30651 4.57562 
-0.0593775 0.203355 0.298492 -0.954891 3.30654 4.85523 
0 0.203355 0.304343 0.0105466 3.30652 4.94821 
0.0593775 0.203355 0.298492 0.975836 3.30653 4.85108 
0.116467 0.203355 0.281175 1.90343 3.30649 4.5675 
0.16908 0.203355 0.25305 2.75786 3.30641 4.10856 
0.215205 0.203355 0.215205 3.50651 3.30645 3.49137 
0.25305 0.203355 0.16908 4.12028 3.30649 2.74022 
0.281175 0.203355 0.116467 4.57562 3.30652 1.88378 
0.298492 0.203355 0.05937 4.85524 3.30654 0.954864 
0.304343 0.203355 0 4.94821 3.30652 -0.0105309 
0.298492 0.203355 -0.0593775 4.85108 3.30653 -0.975836 
0.281175 0.203355 -0.116467 4.56755 3.30647 -1.90337 
0.25305 0.203355 -0.169087 4.10853 3.30639 -2.75787 
0.215205 0.203355 -0.215205 3.49129 3.30646 -3.50657 
0.16908 0.203355 -0.25305 2.74022 3.30649 -4.12028 
0.116467 0.203355 -0.281175 1.88378 3.30652 -4.57562 
0.05937 0.203355 -0.298492 0.954864 3.30654 -4.85524 
0 0.14007 -0.338167 -0.00729271 2.2758 -5.49402 
-0.06597 0.14007 -0.331672 -1.07887 2.27584 -5.38705 
-0.129413 0.14007 -0.312428 -2.10929 2.27594 -5.07292 
-0.187875 0.14007 -0.281175 -3.05845 2.27581 -4.56403 
-0.239123 0.14007 -0.239123 -3.88998 2.27572 -3.87975 
-0.281175 0.14007 -0.187875 -4.57217 2.27587 -3.04627 
-0.312428 0.14007 -0.129413 -5.07854 2.2759 -2.09574 
-0.331672 0.14007 -0.06597 -5.38989 2.27582 -1.0646 
-0.338167 0.14007 0 -5.49402 2.27579 0.00730255 
-0.331672 0.14007 0.06597 -5.38705 2.27584 1.07887 
-0.312428 0.14007 0.129413 -5.07292 2.27594 2.10929 
-0.281175 0.14007 0.187875 -4.56403 2.27581 3.05845 
-0.239123 0.14007 0.239123 -3.87975 2.27572 3.88998 
-0.187875 0.14007 0.281175 -3.04627 2.27587 4.57217 
-0.129413 0.14007 0.312428 -2.09574 2.2759 5.07854 
-0.06597 0.14007 0.331672 -1.0646 2.27582 5.38989 
0 0.14007 0.338167 0.00730255 2.27579 5.49402 
0.06597 0.14007 0.331672 1.07887 2.27584 5.38705 
0.129413 0.14007 0.312428 2.10929 2.27594 5.07292 
0.187875 0.14007 0.281175 3.05839 2.27588 4.56406 
0.239123 0.14007 0.239123 3.88998 2.27583 3.87969 
0.281175 0.14007 0.187875 4.57219 2.2759 3.04623 
0.312428 0.14007 0.129413 5.07854 2.27591 2.09572 
0.331672 0.14007 0.06597 5.38988 2.27585 1.06457 
0.338167 0.14007 0 5.49402 2.2758 -0.00729272 
0.331672 0.14007 -0.06597 5.38705 2.27584 -1.07887 
0.312428 0.14007 -0.129413 5.07294 2.27592 -2.10927 
0.281175 0.14007 -0.187875 4.56409 2.27581 -3.05839 
0.239123 0.14007 -0.239123 3.87967 2.27578 -3.89005 
0.187875 0.14007 -0.281175 3.0462 2.27586 -4.57222 
0.129413 0.14007 -0.312428 2.09573 2.27586 -5.07855 
0.06597 0.14007 -0.331672 1.06459 2.27584 -5.38988 
0 0.0714075 -0.358995 -0.00374434 1.15962 -5.82949 
-0.070035 0.0714075 -0.352095 -1.14078 1.15956 -5.71681 
-0.137385 0.0714075 -0.331672 -2.23423 1.15958 -5.3843 
-0.199447 0.0714075 -0.298492 -3.2419 1.15978 -4.84489 
-0.253845 0.0714075 -0.253845 -4.1247 1.15975 -4.11945 
-0.298492 0.0714075 -0.199447 -4.84905 1.15961 -3.23571 
-0.331672 0.0714075 -0.137385 -5.38713 1.15962 -2.22739 
-0.352095 0.0714075 -0.070035 -5.71825 1.15962 -1.13353 
-0.358995 0.0714075 0 -5.82949 1.15962 0.00374433 
-0.352095 0.0714075 0.070035 -5.71681 1.15956 1.14078 
-0.331672 0.0714075 0.137385 -5.3843 1.15958 2.23423 
-0.298492 0.0714075 0.199447 -4.84489 1.15978 3.2419 
-0.253845 0.0714075 0.253845 -4.11945 1.15975 4.1247 
-0.199447 0.0714075 0.298492 -3.23571 1.15961 4.84905 
-0.137385 0.0714075 0.331672 -2.22739 1.15962 5.38713 
-0.070035 0.0714075 0.352095 -1.13353 1.15962 5.71825 
0 0.0714075 0.358995 0.00374433 1.15962 5.82949 
0.070035 0.0714075 0.352095 1.14078 1.15956 5.71681 
0.137385 0.0714075 0.331672 2.23423 1.15958 5.3843 
0.199447 0.0714075 0.298492 3.24182 1.15974 4.84495 
0.253853 0.0714075 0.253845 4.12469 1.15973 4.1194 
0.298492 0.0714075 0.199447 4.84912 1.15964 3.23561 
0.331672 0.0714075 0.137385 5.38713 1.15962 2.22739 
0.352095 0.0714075 0.070035 5.71825 1.15962 1.13353 
0.358995 0.0714075 0 5.82949 1.15962 -0.00374433 
0.352095 0.0714075 -0.070035 5.71682 1.15959 -1.14075 
0.331672 0.0714075 -0.137385 5.38428 1.15964 -2.23426 
0.298492 0.0714075 -0.199447 4.84489 1.15968 -3.24191 
0.253845 0.0714075 -0.253853 4.11943 1.15963 -4.12468 
0.199447 0.0714075 -0.298492 3.23557 1.15964 -4.84913 
0.137378 0.0714075 -0.331672 2.22737 1.15961 -5.38716 
0.070035 0.0714075 -0.352095 1.13358 1.15961 -5.71824 
0 0 -0.36603 0 -7.45058e-009 -5.9426 
-0.0714075 0 -0.358995 -1.15926 4.39137e-005 -5.82848 
-0.14007 0 -0.338167 -2.27407 7.19726e-006 -5.49029 
-0.203355 0 -0.304343 -3.30161 -0.000102595 -4.94107 
-0.258825 0 -0.258825 -4.20204 -1.49012e-008 -4.20204 
-0.304343 0 -0.203355 -4.94107 0.00010252 -3.30161 
-0.338167 0 -0.14007 -5.49029 -7.28667e-006 -2.27407 
-0.358995 0 -0.0714075 -5.82848 -4.39584e-005 -1.15926 
-0.36603 0 0 -5.9426 0 0 
-0.358995 0 0.0714075 -5.82848 4.39137e-005 1.15926 
-0.338167 0 0.14007 -5.49029 7.19726e-006 2.27407 
-0.304343 0 0.203355 -4.94107 -0.000102595 3.30161 
-0.258825 0 0.258825 -4.20204 -1.49012e-008 4.20204 
-0.203355 0 0.304343 -3.30161 0.00010252 4.94107 
-0.14007 0 0.338167 -2.27407 -7.28667e-006 5.49029 
-0.0714075 0 0.358995 -1.15926 -4.39584e-005 5.82848 
0 0 0.36603 0 0 5.9426 
0.0714075 0 0.358995 1.15926 4.39137e-005 5.82848 
0.14007 0 0.338167 2.27407 7.19726e-006 5.49029 
0.203355 0 0.304343 3.30154 -6.96927e-005 4.94114 
0.258825 0 0.258825 4.20205 7.16746e-006 4.20202 
0.304343 0 0.203355 4.94115 6.24359e-005 3.30153 
0.338167 0 0.14007 5.49029 -7.28667e-006 2.27407 
0.358995 0 0.0714075 5.82848 -4.39584e-005 1.15926 
0.36603 0 0 5.9426 0 0 
0.358995 0 -0.0714075 5.82849 2.88934e-005 -1.15922 
0.338167 0 -0.140078 5.49026 -2.16067e-006 -2.27408 
0.304343 0 -0.203355 4.94103 -5.27501e-006 -3.30171 
0.258817 0 -0.258825 4.20204 4.47035e-008 -4.2021 
0.203355 0 -0.304343 3.30154 5.28991e-006 -4.94113 
0.14007 0 -0.338167 2.27404 2.17557e-006 -5.4903 
0.0714075 0 -0.358995 1.15931 -2.89083e-005 -5.82847 
0 -0.0714075 -0.358995 0.00374433 -1.15962 -5.82949 
-0.070035 -0.0714075 -0.352095 -1.13353 -1.15962 -5.71825 
-0.137385 -0.0714075 -0.331672 -2.22739 -1.15962 -5.38713 
-0.199447 -0.0714075 -0.298492 -3.23571 -1.15961 -4.84905 
-0.253845 -0.0714075 -0.253845 -4.11944 -1.15975 -4.1247 
-0.298492 -0.0714075 -0.199447 -4.84489 -1.15978 -3.2419 
-0.331672 -0.0714075 -0.137385 -5.3843 -1.15958 -2.23423 
-0.352095 -0.0714075 -0.070035 -5.71681 -1.15956 -1.14078 
-0.358995 -0.0714075 0 -5.82949 -1.15962 -0.00374433 
-0.352095 -0.0714075 0.070035 -5.71825 -1.15962 1.13353 
-0.331672 -0.0714075 0.137385 -5.38713 -1.15962 2.22739 
-0.298492 -0.0714075 0.199447 -4.84905 -1.15961 3.23571 
-0.253845 -0.0714075 0.253845 -4.1247 -1.15975 4.11944 
-0.199447 -0.0714075 0.298492 -3.2419 -1.15978 4.84489 
-0.137385 -0.0714075 0.331672 -2.23423 -1.15958 5.3843 
-0.070035 -0.0714075 0.352095 -1.14078 -1.15956 5.71681 
0 -0.0714075 0.358995 -0.00374433 -1.15962 5.82949 
0.070035 -0.0714075 0.352095 1.13353 -1.15962 5.71825 
0.137385 -0.0714075 0.331672 2.22739 -1.15962 5.38713 
0.199447 -0.0714075 0.298492 3.23563 -1.15964 4.84911 
0.253853 -0.0714075 0.253845 4.11943 -1.15975 4.12465 
0.298492 -0.0714075 0.199447 4.84496 -1.15973 3.2418 
0.331672 -0.0714075 0.137385 5.3843 -1.15958 2.23423 
0.352095 -0.0714075 0.070035 5.71681 -1.15956 1.14078 
0.358995 -0.0714075 0 5.82949 -1.15962 0.00374433 
0.352095 -0.0714075 -0.070035 5.71825 -1.15964 -1.13351 
0.331672 -0.0714075 -0.137385 5.38712 -1.15967 -2.22738 
0.298492 -0.0714075 -0.199447 4.84906 -1.15965 -3.2357 
0.253845 -0.0714075 -0.253853 4.12464 -1.15964 -4.11948 
0.199447 -0.0714075 -0.298492 3.2418 -1.15965 -4.84497 
0.137378 -0.0714075 -0.331672 2.23422 -1.15959 -5.38433 
0.070035 -0.0714075 -0.352095 1.14082 -1.15957 -5.7168 
0 -0.14007 -0.338167 0.00730751 -2.27579 -5.49402 
-0.06597 -0.14007 -0.331672 -1.0646 -2.27582 -5.38989 
-0.129413 -0.14007 -0.312428 -2.09574 -2.2759 -5.07854 
-0.187875 -0.14007 -0.281175 -3.04627 -2.27587 -4.57217 
-0.239123 -0.14007 -0.239123 -3.87975 -2.27572 -3.88998 
-0.281175 -0.14007 -0.187875 -4.56403 -2.27581 -3.05845 
-0.312428 -0.14007 -0.129413 -5.07292 -2.27594 -2.10929 
-0.331672 -0.14007 -0.06597 -5.38705 -2.27584 -1.07887 
-0.338167 -0.14007 0 -5.49402 -2.27579 -0.00730258 
-0.331672 -0.14007 0.06597 -5.38989 -2.27582 1.0646 
-0.312428 -0.14007 0.129413 -5.07854 -2.2759 2.09574 
-0.281175 -0.14007 0.187875 -4.57217 -2.27587 3.04627 
-0.239123 -0.14007 0.239123 -3.88998 -2.27572 3.87975 
-0.187875 -0.14007 0.281175 -3.05845 -2.27581 4.56403 
-0.129413 -0.14007 0.312428 -2.10929 -2.27594 5.07292 
-0.06597 -0.14007 0.331672 -1.07887 -2.27584 5.38705 
0 -0.14007 0.338167 -0.00730258 -2.27579 5.49402 
0.06597 -0.14007 0.331672 1.0646 -2.27582 5.38989 
0.129413 -0.14007 0.312428 2.09574 -2.2759 5.07854 
0.187875 -0.14007 0.281175 3.04624 -2.2759 4.57218 
0.239123 -0.14007 0.239123 3.87971 -2.27582 3.88997 
0.281175 -0.14007 0.187875 4.56407 -2.27589 3.05837 
0.312428 -0.14007 0.129413 5.07291 -2.27596 2.10925 
0.331672 -0.14007 0.06597 5.38704 -2.27586 1.07886 
0.338167 -0.14007 0 5.49402 -2.27579 0.0073075 
0.331672 -0.14007 -0.06597 5.38989 -2.27582 -1.0646 
0.312428 -0.14007 -0.129413 5.07858 -2.27586 -2.0957 
0.281175 -0.14007 -0.187875 4.57218 -2.27583 -3.04629 
0.239123 -0.14007 -0.239123 3.88995 -2.2758 -3.87974 
0.187875 -0.14007 -0.281175 3.05836 -2.27587 -4.56409 
0.129413 -0.14007 -0.312428 2.10923 -2.2759 -5.07295 
0.06597 -0.14007 -0.331672 1.07889 -2.27584 -5.38704 
0 -0.203355 -0.304343 0.0105667 -3.30653 -4.94821 
-0.0593775 -0.203355 -0.298492 -0.95489 -3.30654 -4.85523 
-0.116467 -0.203355 -0.281175 -1.88383 -3.30651 -4.57562 
-0.16908 -0.203355 -0.25305 -2.74022 -3.30649 -4.12028 
-0.215205 -0.203355 -0.215205 -3.49138 -3.30649 -3.50643 
-0.25305 -0.203355 -0.16908 -4.10852 -3.30646 -2.75786 
-0.281175 -0.203355 -0.116467 -4.56748 -3.30653 -1.90341 
-0.298492 -0.203355 -0.0593775 -4.85107 -3.30654 -0.975829 
-0.304343 -0.203355 0 -4.94821 -3.30652 -0.0105515 
-0.298492 -0.203355 0.0593775 -4.85523 -3.30654 0.95489 
-0.281175 -0.203355 0.116467 -4.57562 -3.30651 1.88383 
-0.25305 -0.203355 0.16908 -4.12028 -3.30649 2.74022 
-0.215205 -0.203355 0.215205 -3.50643 -3.30649 3.49138 
-0.16908 -0.203355 0.25305 -2.75786 -3.30646 4.10852 
-0.116467 -0.203355 0.281175 -1.90341 -3.30653 4.56748 
-0.0593775 -0.203355 0.298492 -0.975829 -3.30654 4.85107 
0 -0.203355 0.304343 -0.0105612 -3.30652 4.94822 
0.0593775 -0.203355 0.298492 0.954919 -3.30652 4.85523 
0.116467 -0.203355 0.281175 1.88381 -3.30647 4.57566 
0.16908 -0.203355 0.25305 2.74027 -3.30644 4.12029 
0.215205 -0.203355 0.215205 3.49142 -3.30647 3.50642 
0.25305 -0.203355 0.16908 4.10852 -3.30646 2.75786 
0.281175 -0.203355 0.116467 4.5675 -3.30652 1.90337 
0.298492 -0.203355 0.05937 4.85108 -3.30655 0.975799 
0.304343 -0.203355 0 4.94821 -3.30652 0.0105765 
0.298492 -0.203355 -0.0593775 4.85523 -3.30652 -0.954919 
0.281175 -0.203355 -0.116467 4.57569 -3.30648 -1.88374 
0.25305 -0.203355 -0.169087 4.12025 -3.30643 -2.74028 
0.215205 -0.203355 -0.215205 3.50637 -3.30644 -3.4915 
0.16908 -0.203355 -0.25305 2.75786 -3.30646 -4.10852 
0.116467 -0.203355 -0.281175 1.90337 -3.30652 -4.5675 
0.05937 -0.203355 -0.298492 0.975799 -3.30655 -4.85108 
0 -0.258825 -0.258825 0.013583 -4.21218 -4.21178 
-0.05049 -0.258825 -0.253845 -0.808449 -4.21218 -4.13355 
-0.099045 -0.258825 -0.239123 -1.59917 -4.21221 -3.89638 
-0.14379 -0.258825 -0.215205 -2.3287 -4.21221 -3.50947 
-0.183015 -0.258825 -0.183015 -2.96849 -4.21226 -2.98777 
-0.215205 -0.258825 -0.14379 -3.49445 -4.21223 -2.35118 
-0.239123 -0.258825 -0.099045 -3.88603 -4.21217 -1.62427 
-0.253845 -0.258825 -0.05049 -4.12825 -4.2122 -0.835015 
-0.258825 -0.258825 0 -4.21178 -4.21219 -0.0135722 
-0.253845 -0.258825 0.05049 -4.13355 -4.21218 0.808449 
-0.239123 -0.258825 0.099045 -3.89638 -4.21221 1.59917 
-0.215205 -0.258825 0.14379 -3.50947 -4.21221 2.3287 
-0.183015 -0.258825 0.183015 -2.98777 -4.21226 2.96849 
-0.14379 -0.258825 0.215205 -2.35118 -4.21223 3.49445 
-0.099045 -0.258825 0.239123 -1.62427 -4.21217 3.88603 
-0.05049 -0.258825 0.253845 -0.835015 -4.2122 4.12825 
0 -0.258825 0.258825 -0.0135879 -4.21219 4.21178 
0.0504975 -0.258825 0.253845 0.808476 -4.21218 4.13353 
0.099045 -0.258825 0.239123 1.59915 -4.21221 3.8964 
0.143797 -0.258825 0.215205 2.32867 -4.21217 3.50951 
0.183015 -0.258825 0.183015 2.96865 -4.21219 2.98772 
0.215205 -0.258825 0.14379 3.49449 -4.21221 2.35116 
0.239123 -0.258825 0.099045 3.88605 -4.21216 1.62425 
0.253845 -0.258825 0.05049 4.12828 -4.21218 0.834996 
0.258825 -0.258825 0 4.21178 -4.21218 0.0135986 
0.253845 -0.258825 -0.0504975 4.13353 -4.21218 -0.808476 
0.239123 -0.258825 -0.099045 3.8964 -4.21222 -1.59912 
0.215205 -0.258825 -0.143797 3.50948 -4.21222 -2.32863 
0.183015 -0.258825 -0.183015 2.98765 -4.21223 -2.96868 
0.14379 -0.258825 -0.215205 2.35116 -4.21221 -3.49449 
0.099045 -0.258825 -0.239123 1.62425 -4.21216 -3.88605 
0.05049 -0.258825 -0.253845 0.834996 -4.21218 -4.12828 
0 -0.304343 -0.203355 0.0160768 -4.95748 -3.31209 
-0.039675 -0.304343 -0.199447 -0.630564 -4.95746 -3.25159 
-0.07782 -0.304343 -0.187875 -1.25273 -4.95747 -3.06611 
-0.11298 -0.304343 -0.16908 -1.82692 -4.95752 -2.76266 
-0.14379 -0.304343 -0.14379 -2.33067 -4.95753 -2.3533 
-0.16908 -0.304343 -0.11298 -2.74492 -4.95752 -1.85346 
-0.187875 -0.304343 -0.07782 -3.05384 -4.95749 -1.2823 
-0.199447 -0.304343 -0.039675 -3.24537 -4.95746 -0.66175 
-0.203355 -0.304343 0 -3.31209 -4.95748 -0.0160768 
-0.199447 -0.304343 0.039675 -3.25159 -4.95746 0.630564 
-0.187875 -0.304343 0.07782 -3.06611 -4.95747 1.25273 
-0.16908 -0.304343 0.11298 -2.76266 -4.95752 1.82692 
-0.14379 -0.304343 0.14379 -2.3533 -4.95753 2.33067 
-0.11298 -0.304343 0.16908 -1.85346 -4.95752 2.74492 
-0.07782 -0.304343 0.187875 -1.2823 -4.95749 3.05384 
-0.039675 -0.304343 0.199447 -0.66175 -4.95746 3.24537 
0 -0.304343 0.203355 -0.0160822 -4.95749 3.31209 
0.039675 -0.304343 0.199447 0.630566 -4.95747 3.25157 
0.07782 -0.304343 0.187875 1.25272 -4.95749 3.06609 
0.11298 -0.304343 0.16908 1.8268 -4.95755 2.76269 
0.143797 -0.304343 0.14379 2.3307 -4.95754 2.35321 
0.16908 -0.304343 0.11298 2.74502 -4.9575 1.85338 
0.187875 -0.304343 0.07782 3.05384 -4.95749 1.2823 
0.199447 -0.304343 0.039675 3.24537 -4.95746 0.66175 
0.203355 -0.304343 0 3.31209 -4.95749 0.0160822 
0.199447 -0.304343 -0.039675 3.25157 -4.95747 -0.630566 
0.187875 -0.304343 -0.07782 3.06609 -4.95749 -1.25272 
0.16908 -0.304343 -0.11298 2.76269 -4.95755 -1.8268 
0.14379 -0.304343 -0.143797 2.35321 -4.95754 -2.3307 
0.11298 -0.304343 -0.16908 1.85338 -4.9575 -2.74502 
0.07782 -0.304343 -0.187875 1.2823 -4.95749 -3.05384 
0.039675 -0.304343 -0.199447 0.66175 -4.95746 -3.24537 
0 -0.338167 -0.14007 0.0177963 -5.51259 -2.28312 
-0.02733 -0.338167 -0.137385 -0.427863 -5.51259 -2.24268 
-0.0536025 -0.338167 -0.129413 -0.857292 -5.51256 -2.11616 
-0.07782 -0.338167 -0.116467 -1.25381 -5.51256 -1.90813 
-0.099045 -0.338167 -0.099045 -1.60185 -5.51256 -1.62708 
-0.116467 -0.338167 -0.07782 -1.8884 -5.51256 -1.28334 
-0.129413 -0.338167 -0.0536025 -2.1025 -5.51257 -0.89021 
-0.137385 -0.338167 -0.02733 -2.23576 -5.51257 -0.462811 
-0.14007 -0.338167 0 -2.28312 -5.51259 -0.0177963 
-0.137385 -0.338167 0.02733 -2.24268 -5.51259 0.427863 
-0.129413 -0.338167 0.0536025 -2.11616 -5.51256 0.857292 
-0.116467 -0.338167 0.07782 -1.90813 -5.51256 1.25381 
-0.099045 -0.338167 0.099045 -1.62708 -5.51256 1.60185 
-0.07782 -0.338167 0.116467 -1.28334 -5.51256 1.8884 
-0.0536025 -0.338167 0.129413 -0.89021 -5.51257 2.1025 
-0.02733 -0.338167 0.137385 -0.462811 -5.51257 2.23576 
0 -0.338167 0.14007 -0.0177963 -5.51259 2.28312 
0.02733 -0.338167 0.137385 0.427863 -5.51259 2.24268 
0.0536025 -0.338167 0.129413 0.857292 -5.51256 2.11616 
0.07782 -0.338167 0.116467 1.25377 -5.51257 1.90814 
0.099045 -0.338167 0.099045 1.60179 -5.51258 1.62706 
0.116467 -0.338167 0.07782 1.88843 -5.51258 1.28326 
0.129413 -0.338167 0.0536025 2.1025 -5.51257 0.89021 
0.137385 -0.338167 0.02733 2.23576 -5.51257 0.462811 
0.14007 -0.338167 0 2.28312 -5.51259 0.0178063 
0.137385 -0.338167 -0.02733 2.24268 -5.51258 -0.427889 
0.129413 -0.338167 -0.0536025 2.11616 -5.51256 -0.857308 
0.116467 -0.338167 -0.07782 1.90814 -5.51257 -1.25377 
0.099045 -0.338167 -0.099045 1.62706 -5.51258 -1.60179 
0.07782 -0.338167 -0.116467 1.28326 -5.51258 -1.88843 
0.0536025 -0.338167 -0.129413 0.89021 -5.51257 -2.1025 
0.02733 -0.338167 -0.137385 0.462811 -5.51257 -2.23576 
0 -0.358995 -0.0714075 0.0285342 -3.22328 -0.905264 
-0.0139275 -0.358995 -0.070035 -0.14851 -3.22342 -0.893438 
-0.02733 -0.358995 -0.06597 -0.320017 -3.22343 -0.847288 
-0.039675 -0.358995 -0.0593775 -0.479195 -3.22333 -0.768568 
-0.05049 -0.358995 -0.05049 -0.620006 -3.22337 -0.660302 
-0.0593775 -0.358995 -0.039675 -0.736745 -3.22333 -0.526812 
-0.06597 -0.358995 -0.02733 -0.825457 -3.22342 -0.372782 
-0.070035 -0.358995 -0.0139275 -0.882267 -3.22342 -0.204616 
-0.0714075 -0.358995 0 -0.905264 -3.22328 -0.0285342 
-0.070035 -0.358995 0.0139275 -0.893438 -3.22342 0.14851 
-0.06597 -0.358995 0.02733 -0.847288 -3.22343 0.320017 
-0.0593775 -0.358995 0.039675 -0.768568 -3.22333 0.479195 
-0.05049 -0.358995 0.05049 -0.660302 -3.22337 0.620006 
-0.039675 -0.358995 0.0593775 -0.526812 -3.22333 0.736745 
-0.02733 -0.358995 0.06597 -0.372782 -3.22342 0.825457 
-0.0139275 -0.358995 0.070035 -0.204616 -3.22342 0.882267 
0 -0.358995 0.0714075 -0.0285342 -3.22328 0.905264 
0.0139275 -0.358995 0.070035 0.14851 -3.22342 0.893438 
0.02733 -0.358995 0.06597 0.320017 -3.22343 0.847288 
0.039675 -0.358995 0.0593775 0.479195 -3.22333 0.768568 
0.05049 -0.358995 0.05049 0.620006 -3.22337 0.660302 
0.0593775 -0.358995 0.039675 0.736745 -3.22333 0.526812 
0.06597 -0.358995 0.02733 0.825457 -3.22342 0.372782 
0.070035 -0.358995 0.0139275 0.882267 -3.22342 0.204616 
0.0714075 -0.358995 0 0.905276 -3.22338 0.0285392 
0.070035 -0.358995 -0.013935 0.893441 -3.22342 -0.148516 
0.06597 -0.358995 -0.02733 0.847278 -3.22334 -0.320048 
0.0593775 -0.358995 -0.039675 0.768568 -3.22333 -0.479195 
0.05049 -0.358995 -0.05049 0.660302 -3.22337 -0.620006 
0.039675 -0.358995 -0.0593775 0.526812 -3.22333 -0.736745 
0.02733 -0.358995 -0.06597 0.372782 -3.22342 -0.825457 
0.0139275 -0.358995 -0.070035 0.204616 -3.22342 -0.882267 
0 -0.36603 0 -7.45058e-009 -5.65923 0 
3 0 1 2 
3 0 2 3 
3 0 3 4 
3 0 4 5 
3 0 5 6 
3 0 6 7 
3 0 7 8 
3 0 8 9 
3 0 9 10 
3 0 10 11 
3 0 11 12 
3 0 12 13 
3 0 13 14 
3 0 14 15 
3 0 15 16 
3 0 16 17 
3 0 17 18 
3 0 18 19 
3 0 19 20 
3 0 20 21 
3 0 21 22 
3 0 22 23 
3 0 23 24 
3 0 24 25 
3 0 25 26 
3 0 26 27 
3 0 27 28 
3 0 28 29 
3 0 29 30 
3 0 30 31 
3 0 31 32 
3 0 32 1 
3 1 33 34 
3 1 34 2 
3 2 34 35 
3 2 35 3 
3 3 35 36 
3 3 36 4 
3 4 36 37 
3 4 37 5 
3 5 37 38 
3 5 38 6 
3 6 38 39 
3 6 39 7 
3 7 39 40 
3 7 40 8 
3 8 40 41 
3 8 41 9 
3 9 41 42 
3 9 42 10 
3 10 42 43 
3 10 43 11 
3 11 43 44 
3 11 44 12 
3 12 44 45 
3 12 45 13 
3 13 45 46 
3 13 46 14 
3 14 46 47 
3 14 47 15 
3 15 47 48 
3 15 48 16 
3 16 48 49 
3 16 49 17 
3 17 49 50 
3 17 50 18 
3 18 50 51 
3 18 51 19 
3 19 51 52 
3 19 52 20 
3 20 52 53 
3 20 53 21 
3 21 53 54 
3 21 54 22 
3 22 54 55 
3 22 55 23 
3 23 55 56 
3 23 56 24 
3 24 56 57 
3 24 57 25 
3 25 57 58 
3 25 58 26 
3 26 58 59 
3 26 59 27 
3 27 59 60 
3 27 60 28 
3 28 60 61 
3 28 61 29 
3 29 61 62 
3 29 62 30 
3 30 62 63 
3 30 63 31 
3 31 63 64 
3 31 64 32 
3 32 64 33 
3 32 33 1 
3 33 65 66 
3 33 66 34 
3 34 66 67 
3 34 67 35 
3 35 67 68 
3 35 68 36 
3 36 68 69 
3 36 69 37 
3 37 69 70 
3 37 70 38 
3 38 70 71 
3 38 71 39 
3 39 71 72 
3 39 72 40 
3 40 72 73 
3 40 73 41 
3 41 73 74 
3 41 74 42 
3 42 74 75 
3 42 75 43 
3 43 75 76 
3 43 76 44 
3 44 76 77 
3 44 77 45 
3 45 77 78 
3 45 78 46 
3 46 78 79 
3 46 79 47 
3 47 79 80 
3 47 80 48 
3 48 80 81 
3 48 81 49 
3 49 81 82 
3 49 82 50 
3 50 82 83 
3 50 83 51 
3 51 83 84 
3 51 84 52 
3 52 84 85 
3 52 85 53 
3 53 85 86 
3 53 86 54 
3 54 86 87 
3 54 87 55 
3 55 87 88 
3 55 88 56 
3 56 88 89 
3 56 89 57 
3 57 89 90 
3 57 90 58 
3 58 90 91 
3 58 91 59 
3 59 91 92 
3 59 92 60 
3 60 92 93 
3 60 93 61 
3 61 93 94 
3 61 94 62 
3 62 94 95 
3 62 95 63 
3 63 95 96 
3 63 96 64 
3 64 96 65 
3 64 65 33 
3 65 97 98 
3 65 98 66 
3 66 98 99 
3 66 99 67 
3 67 99 100 
3 67 100 68 
3 68 100 101 
3 68 101 69 
3 69 101 102 
3 69 102 70 
3 70 102 103 
3 70 103 71 
3 71 103 104 
3 71 104 72 
3 72 104 105 
3 72 105 73 
3 73 105 106 
3 73 106 74 
3 74 106 107 
3 74 107 75 
3 75 107 108 
3 75 108 76 
3 76 108 109 
3 76 109 77 
3 77 109 110 
3 77 110 78 
3 78 110 111 
3 78 111 79 
3 79 111 112 
3 79 112 80 
3 80 112 113 
3 80 113 81 
3 81 113 114 
3 81 114 82 
3 82 114 115 
3 82 115 83 
3 83 115 116 
3 83 116 84 
3 84 116 117 
3 84 117 85 
3 85 117 118 
3 85 118 86 
3 86 118 119 
3 86 119 87 
3 87 119 120 
3 87 120 88 
3 88 120 121 
3 88 121 89 
3 89 121 122 
3 89 122 90 
3 90 122 123 
3 90 123 91 
3 91 123 124 
3 91 124 92 
3 92 124 125 
3 92 125 93 
3 93 125 126 
3 93 126 94 
3 94 126 127 
3 94 127 95 
3 95 127 128 
3 95 128 96 
3 96 128 97 
3 96 97 65 
3 97 129 130 
3 97 130 98 
3 98 130 131 
3 98 131 99 
3 99 131 132 
3 99 132 100 
3 100 132 133 
3 100 133 101 
3 101 133 134 
3 101 134 102 
3 102 134 135 
3 102 135 103 
3 103 135 136 
3 103 136 104 
3 104 136 137 
3 104 137 105 
3 105 137 138 
3 105 138 106 
3 106 138 139 
3 106 139 107 
3 107 139 140 
3 107 140 108 
3 108 140 141 
3 108 141 109 
3 109 141 142 
3 109 142 110 
3 110 142 143 
3 110 143 111 
3 111 143 144 
3 111 144 112 
3 112 144 145 
3 112 145 113 
3 113 145 146 
3 113 146 114 
3 114 146 147 
3 114 147 115 
3 115 147 148 
3 115 148 116 
3 116 148 149 
3 116 149 117 
3 117 149 150 
3 117 150 118 
3 118 150 151 
3 118 151 119 
3 119 151 152 
3 119 152 120 
3 120 152 153 
3 120 153 121 
3 121 153 154 
3 121 154 122 
3 122 154 155 
3 122 155 123 
3 123 155 156 
3 123 156 124 
3 124 156 157 
3 124 157 125 
3 125 157 158 
3 125 158 126 
3 126 158 159 
3 126 159 127 
3 127 159 160 
3 127 160 128 
3 128 160 129 
3 128 129 97 
3 129 161 162 
3 129 162 130 
3 130 162 163 
3 130 163 131 
3 131 163 164 
3 131 164 132 
3 132 164 165 
3 132 165 133 
3 133 165 166 
3 133 166 134 
3 134 166 167 
3 134 167 135 
3 135 167 168 
3 135 168 136 
3 136 168 169 
3 136 169 137 
3 137 169 170 
3 137 170 138 
3 138 170 171 
3 138 171 139 
3 139 171 172 
3 139 172 140 
3 140 172 173 
3 140 173 141 
3 141 173 174 
3 141 174 142 
3 142 174 175 
3 142 175 143 
3 143 175 176 
3 143 176 144 
3 144 176 177 
3 144 177 145 
3 145 177 178 
3 145 178 146 
3 146 178 179 
3 146 179 147 
3 147 179 180 
3 147 180 148 
3 148 180 181 
3 148 181 149 
3 149 181 182 
3 149 182 150 
3 150 182 183 
3 150 183 151 
3 151 183 184 
3 151 184 152 
3 152 184 185 
3 152 185 153 
3 153 185 186 
3 153 186 154 
3 154 186 187 
3 154 187 155 
3 155 187 188 
3 155 188 156 
3 156 188 189 
3 156 189 157 
3 157 189 190 
3 157 190 158 
3 158 190 191 
3 158 191 159 
3 159 191 192 
3 159 192 160 
3 160 192 161 
3 160 161 129 
3 161 193 194 
3 161 194 162 
3 162 194 195 
3 162 195 163 
3 163 195 196 
3 163 196 164 
3 164 196 197 
3 164 197 165 
3 165 197 198 
3 165 198 166 
3 166 198 199 
3 166 199 167 
3 167 199 200 
3 167 200 168 
3 168 200 201 
3 168 201 169 
3 169 201 202 
3 169 202 170 
3 170 202 203 
3 170 203 171 
3 171 203 204 
3 171 204 172 
3 172 204 205 
3 172 205 173 
3 173 205 206 
3 173 206 174 
3 174 206 207 
3 174 207 175 
3 175 207 208 
3 175 208 176 
3 176 208 209 
3 176 209 177 
3 177 209 210 
3 177 210 178 
3 178 210 211 
3 178 211 179 
3 179 211 212 
3 179 212 180 
3 180 212 213 
3 180 213 181 
3 181 213 214 
3 181 214 182 
3 182 214 215 
3 182 215 183 
3 183 215 216 
3 183 216 184 
3 184 216 217 
3 184 217 185 
3 185 217 218 
3 185 218 186 
3 186 218 219 
3 186 219 187 
3 187 219 220 
3 187 220 188 
3 188 220 221 
3 188 221 189 
3 189 221 222 
3 189 222 190 
3 190 222 223 
3 190 223 191 
3 191 223 224 
3 191 224 192 
3 192 224 193 
3 192 193 161 
3 193 225 226 
3 193 226 194 
3 194 226 227 
3 194 227 195 
3 195 227 228 
3 195 228 196 
3 196 228 229 
3 196 229 197 
3 197 229 230 
3 197 230 198 
3 198 230 231 
3 198 231 199 
3 199 231 232 
3 199 232 200 
3 200 232 233 
3 200 233 201 
3 201 233 234 
3 201 234 202 
3 202 234 235 
3 202 235 203 
3 203 235 236 
3 203 236 204 
3 204 236 237 
3 204 237 205 
3 205 237 238 
3 205 238 206 
3 206 238 239 
3 206 239 207 
3 207 239 240 
3 207 240 208 
3 208 240 241 
3 208 241 209 
3 209 241 242 
3 209 242 210 
3 210 242 243 
3 210 243 211 
3 211 243 244 
3 211 244 212 
3 212 244 245 
3 212 245 213 
3 213 245 246 
3 213 246 214 
3 214 246 247 
3 214 247 215 
3 215 247 248 
3 215 248 216 
3 216 248 249 
3 216 249 217 
3 217 249 250 
3 217 250 218 
3 218 250 251 
3 218 251 219 
3 219 251 252 
3 219 252 220 
3 220 252 253 
3 220 253 221 
3 221 253 254 
3 221 254 222 
3 222 254 255 
3 222 255 223 
3 223 255 256 
3 223 256 224 
3 224 256 225 
3 224 225 193 
3 225 257 258 
3 225 258 226 
3 226 258 259 
3 226 259 227 
3 227 259 260 
3 227 260 228 
3 228 260 261 
3 228 261 229 
3 229 261 262 
3 229 262 230 
3 230 262 263 
3 230 263 231 
3 231 263 264 
3 231 264 232 
3 232 264 265 
3 232 265 233 
3 233 265 266 
3 233 266 234 
3 234 266 267 
3 234 267 235 
3 235 267 268 
3 235 268 236 
3 236 268 269 
3 236 269 237 
3 237 269 270 
3 237 270 238 
3 238 270 271 
3 238 271 239 
3 239 271 272 
3 239 272 240 
3 240 272 273 
3 240 273 241 
3 241 273 274 
3 241 274 242 
3 242 274 275 
3 242 275 243 
3 243 275 276 
3 243 276 244 
3 244 276 277 
3 244 277 245 
3 245 277 278 
3 245 278 246 
3 246 278 279 
3 246 279 247 
3 247 279 280 
3 247 280 248 
3 248 280 281 
3 248 281 249 
3 249 281 282 
3 249 282 250 
3 250 282 283 
3 250 283 251 
3 251 283 284 
3 251 284 252 
3 252 284 285 
3 252 285 253 
3 253 285 286 
3 253 286 254 
3 254 286 287 
3 254 287 255 
3 255 287 288 
3 255 288 256 
3 256 288 257 
3 256 257 225 
3 257 289 290 
3 257 290 258 
3 258 290 291 
3 258 291 259 
3 259 291 292 
3 259 292 260 
3 260 292 293 
3 260 293 261 
3 261 293 294 
3 261 294 262 
3 262 294 295 
3 262 295 263 
3 263 295 296 
3 263 296 264 
3 264 296 297 
3 264 297 265 
3 265 297 298 
3 265 298 266 
3 266 298 299 
3 266 299 267 
3 267 299 300 
3 267 300 268 
3 268 300 301 
3 268 301 269 
3 269 301 302 
3 269 302 270 
3 270 302 303 
3 270 303 271 
3 271 303 304 
3 271 304 272 
3 272 304 305 
3 272 305 273 
3 273 305 306 
3 273 306 274 
3 274 306 307 
3 274 307 275 
3 275 307 308 
3 275 308 276 
3 276 308 309 
3 276 309 277 
3 277 309 310 
3 277 310 278 
3 278 310 311 
3 278 311 279 
3 279 311 312 
3 279 312 280 
3 280 312 313 
3 280 313 281 
3 281 313 314 
3 281 314 282 
3 282 314 315 
3 282 315 283 
3 283 315 316 
3 283 316 284 
3 284 316 317 
3 284 317 285 
3 285 317 318 
3 285 318 286 
3 286 318 319 
3 286 319 287 
3 287 319 320 
3 287 320 288 
3 288 320 289 
3 288 289 257 
3 289 321 322 
3 289 322 290 
3 290 322 323 
3 290 323 291 
3 291 323 324 
3 291 324 292 
3 292 324 325 
3 292 325 293 
3 293 325 326 
3 293 326 294 
3 294 326 327 
3 294 327 295 
3 295 327 328 
3 295 328 296 
3 296 328 329 
3 296 329 297 
3 297 329 330 
3 297 330 298 
3 298 330 331 
3 298 331 299 
3 299 331 332 
3 299 332 300 
3 300 332 333 
3 300 333 301 
3 301 333 334 
3 301 334 302 
3 302 334 335 
3 302 335 303 
3 303 335 336 
3 303 336 304 
3 304 336 337 
3 304 337 305 
3 305 337 338 
3 305 338 306 
3 306 338 339 
3 306 339 307 
3 307 339 340 
3 307 340 308 
3 308 340 341 
3 308 341 309 
3 309 341 342 
3 309 342 310 
3 310 342 343 
3 310 343 311 
3 311 343 344 
3 311 344 312 
3 312 344 345 
3 312 345 313 
3 313 345 346 
3 313 346 314 
3 314 346 347 
3 314 347 315 
3 315 347 348 
3 315 348 316 
3 316 348 349 
3 316 349 317 
3 317 349 350 
3 317 350 318 
3 318 350 351 
3 318 351 319 
3 319 351 352 
3 319 352 320 
3 320 352 321 
3 320 321 289 
3 321 353 354 
3 321 354 322 
3 322 354 355 
3 322 355 323 
3 323 355 356 
3 323 356 324 
3 324 356 357 
3 324 357 325 
3 325 357 358 
3 325 358 326 
3 326 358 359 
3 326 359 327 
3 327 359 360 
3 327 360 328 
3 328 360 361 
3 328 361 329 
3 329 361 362 
3 329 362 330 
3 330 362 363 
3 330 363 331 
3 331 363 364 
3 331 364 332 
3 332 364 365 
3 332 365 333 
3 333 365 366 
3 333 366 334 
3 334 366 367 
3 334 367 335 
3 335 367 368 
3 335 368 336 
3 336 368 369 
3 336 369 337 
3 337 369 370 
3 337 370 338 
3 338 370 371 
3 338 371 339 
3 339 371 372 
3 339 372 340 
3 340 372 373 
3 340 373 341 
3 341 373 374 
3 341 374 342 
3 342 374 375 
3 342 375 343 
3 343 375 376 
3 343 376 344 
3 344 376 377 
3 344 377 345 
3 345 377 378 
3 345 378 346 
3 346 378 379 
3 346 379 347 
3 347 379 380 
3 347 380 348 
3 348 380 381 
3 348 381 349 
3 349 381 382 
3 349 382 350 
3 350 382 383 
3 350 383 351 
3 351 383 384 
3 351 384 352 
3 352 384 353 
3 352 353 321 
3 353 385 386 
3 353 386 354 
3 354 386 387 
3 354 387 355 
3 355 387 388 
3 355 388 356 
3 356 388 389 
3 356 389 357 
3 357 389 390 
3 357 390 358 
3 358 390 391 
3 358 391 359 
3 359 391 392 
3 359 392 360 
3 360 392 393 
3 360 393 361 
3 361 393 394 
3 361 394 362 
3 362 394 395 
3 362 395 363 
3 363 395 396 
3 363 396 364 
3 364 396 397 
3 364 397 365 
3 365 397 398 
3 365 398 366 
3 366 398 399 
3 366 399 367 
3 367 399 400 
3 367 400 368 
3 368 400 401 
3 368 401 369 
3 369 401 402 
3 369 402 370 
3 370 402 403 
3 370 403 371 
3 371 403 404 
3 371 404 372 
3 372 404 405 
3 372 405 373 
3 373 405 406 
3 373 406 374 
3 374 406 407 
3 374 407 375 
3 375 407 408 
3 375 408 376 
3 376 408 409 
3 376 409 377 
3 377 409 410 
3 377 410 378 
3 378 410 411 
3 378 411 379 
3 379 411 412 
3 379 412 380 
3 380 412 413 
3 380 413 381 
3 381 413 414 
3 381 414 382 
3 382 414 415 
3 382 415 383 
3 383 415 416 
3 383 416 384 
3 384 416 385 
3 384 385 353 
3 385 417 418 
3 385 418 386 
3 386 418 419 
3 386 419 387 
3 387 419 420 
3 387 420 388 
3 388 420 421 
3 388 421 389 
3 389 421 422 
3 389 422 390 
3 390 422 423 
3 390 423 391 
3 391 423 424 
3 391 424 392 
3 392 424 425 
3 392 425 393 
3 393 425 426 
3 393 426 394 
3 394 426 427 
3 394 427 395 
3 395 427 428 
3 395 428 396 
3 396 428 429 
3 396 429 397 
3 397 429 430 
3 397 430 398 
3 398 430 431 
3 398 431 399 
3 399 431 432 
3 399 432 400 
3 400 432 433 
3 400 433 401 
3 401 433 434 
3 401 434 402 
3 402 434 435 
3 402 435 403 
3 403 435 436 
3 403 436 404 
3 404 436 437 
3 404 437 405 
3 405 437 438 
3 405 438 406 
3 406 438 439 
3 406 439 407 
3 407 439 440 
3 407 440 408 
3 408 440 441 
3 408 441 409 
3 409 441 442 
3 409 442 410 
3 410 442 443 
3 410 443 411 
3 411 443 444 
3 411 444 412 
3 412 444 445 
3 412 445 413 
3 413 445 446 
3 413 446 414 
3 414 446 447 
3 414 447 415 
3 415 447 448 
3 415 448 416 
3 416 448 417 
3 416 417 385 
3 417 449 450 
3 417 450 418 
3 418 450 451 
3 418 451 419 
3 419 451 452 
3 419 452 420 
3 420 452 453 
3 420 453 421 
3 421 453 454 
3 421 454 422 
3 422 454 455 
3 422 455 423 
3 423 455 456 
3 423 456 424 
3 424 456 457 
3 424 457 425 
3 425 457 458 
3 425 458 426 
3 426 458 459 
3 426 459 427 
3 427 459 460 
3 427 460 428 
3 428 460 461 
3 428 461 429 
3 429 461 462 
3 429 462 430 
3 430 462 463 
3 430 463 431 
3 431 463 464 
3 431 464 432 
3 432 464 465 
3 432 465 433 
3 433 465 466 
3 433 466 434 
3 434 466 467 
3 434 467 435 
3 435 467 468 
3 435 468 436 
3 436 468 469 
3 436 469 437 
3 437 469 470 
3 437 470 438 
3 438 470 471 
3 438 471 439 
3 439 471 472 
3 439 472 440 
3 440 472 473 
3 440 473 441 
3 441 473 474 
3 441 474 442 
3 442 474 475 
3 442 475 443 
3 443 475 476 
3 443 476 444 
3 444 476 477 
3 444 477 445 
3 445 477 478 
3 445 478 446 
3 446 478 479 
3 446 479 447 
3 447 479 480 
3 447 480 448 
3 448 480 449 
3 448 449 417 
3 481 450 449 
3 481 451 450 
3 481 452 451 
3 481 453 452 
3 481 454 453 
3 481 455 454 
3 481 456 455 
3 481 457 456 
3 481 458 457 
3 481 459 458 
3 481 460 459 
3 481 461 460 
3 481 462 461 
3 481 463 462 
3 481 464 463 
3 481 465 464 
3 481 466 465 
3 481 467 466 
3 481 468 467 
3 481 469 468 
3 481 470 469 
3 481 471 470 
3 481 472 471 
3 481 473 472 
3 481 474 473 
3 481 475 474 
3 481 476 475 
3 481 477 476 
3 481 478 477 
3 481 479 478 
3 481 480 479 
3 481 449 480 
