ply
format ascii 1.0
comment VCGLIB generated
element vertex 222
property float x
property float y
property float z
property float nx
property float ny
property float nz
property uchar red
property uchar green
property uchar blue
property uchar alpha
element face 440
property list uchar int vertex_indices
end_header
-68.4004 2.97544e-006 -68.0701 -1 2 -2 192 192 192 255 
-68.4004 1.74541e-006 -39.9303 -3 3 1.31134e-007 192 192 192 255 
-54.2818 1.74541e-006 -39.9303 0 6 2.62268e-007 192 192 192 255 
-54.2818 2.97544e-006 -68.0701 0 3 -3 192 192 192 255 
-40.1633 1.74541e-006 -39.9303 0 6 2.62268e-007 192 192 192 255 
-40.1633 2.97544e-006 -68.0701 0 3 -3 192 192 192 255 
-26.0447 1.74541e-006 -39.9303 0 6 2.62268e-007 192 192 192 255 
-26.0447 2.97544e-006 -68.0701 0 3 -3 192 192 192 255 
-11.9261 1.74541e-006 -39.9303 0 6 2.62268e-007 192 192 192 255 
-11.9261 2.97544e-006 -68.0701 0 3 -3 192 192 192 255 
2.1924 1.74541e-006 -39.9303 0 6 2.62268e-007 192 192 192 255 
2.1924 2.97544e-006 -68.0701 0 3 -3 192 192 192 255 
16.311 1.74541e-006 -39.9303 0 6 2.62268e-007 192 192 192 255 
16.311 2.97544e-006 -68.0701 0 3 -3 192 192 192 255 
30.4296 1.74541e-006 -39.9303 0 6 2.62268e-007 192 192 192 255 
30.4296 2.97544e-006 -68.0701 0 3 -3 192 192 192 255 
44.5482 1.74541e-006 -39.9303 0 6 2.62268e-007 192 192 192 255 
44.5482 2.97544e-006 -68.0701 0 3 -3 192 192 192 255 
58.6667 1.74541e-006 -39.9303 0 6 2.62268e-007 192 192 192 255 
58.6667 2.97544e-006 -68.0701 0 3 -3 192 192 192 255 
72.7853 1.74541e-006 -39.9303 3 3 1.31134e-007 192 192 192 255 
72.7853 2.97544e-006 -68.0701 2 1 -1 192 192 192 255 
-68.4004 5.15375e-007 -11.7904 -3 3 1.31134e-007 192 192 192 255 
-54.2818 5.15375e-007 -11.7904 0 6 2.62268e-007 192 192 192 255 
-40.1633 5.15375e-007 -11.7904 0 6 2.62268e-007 192 192 192 255 
-26.0447 5.15375e-007 -11.7904 0 6 2.62268e-007 192 192 192 255 
-11.9261 5.15375e-007 -11.7904 0 6 2.62268e-007 192 192 192 255 
2.1924 5.15375e-007 -11.7904 0 6 2.62268e-007 192 192 192 255 
16.311 5.15375e-007 -11.7904 0 6 2.62268e-007 192 192 192 255 
30.4296 5.15375e-007 -11.7904 0 6 2.62268e-007 192 192 192 255 
44.5482 5.15375e-007 -11.7904 0 6 2.62268e-007 192 192 192 255 
58.6667 5.15375e-007 -11.7904 0 6 2.62268e-007 192 192 192 255 
72.7853 5.15375e-007 -11.7904 3 3 1.31134e-007 192 192 192 255 
-68.4004 -7.14655e-007 16.3494 -3 3 1.31134e-007 192 192 192 255 
-54.2818 -7.14655e-007 16.3494 0 6 2.62268e-007 192 192 192 255 
-40.1633 -7.14655e-007 16.3494 0 6 2.62268e-007 192 192 192 255 
-26.0447 -7.14655e-007 16.3494 0 6 2.62268e-007 192 192 192 255 
-11.9261 -7.14655e-007 16.3494 0 6 2.62268e-007 192 192 192 255 
2.1924 -7.14655e-007 16.3494 0 6 2.62268e-007 192 192 192 255 
16.311 -7.14655e-007 16.3494 0 6 2.62268e-007 192 192 192 255 
30.4296 -7.14655e-007 16.3494 0 6 2.62268e-007 192 192 192 255 
44.5482 -7.14655e-007 16.3494 0 6 2.62268e-007 192 192 192 255 
58.6667 -7.14655e-007 16.3494 0 6 2.62268e-007 192 192 192 255 
72.7853 -7.14655e-007 16.3494 3 3 1.31134e-007 192 192 192 255 
-68.4004 -1.94469e-006 44.4893 -3 3 1.31134e-007 192 192 192 255 
-54.2818 -1.94469e-006 44.4893 0 6 2.62268e-007 192 192 192 255 
-40.1633 -1.94469e-006 44.4893 0 6 2.62268e-007 192 192 192 255 
-26.0447 -1.94469e-006 44.4893 0 6 2.62268e-007 192 192 192 255 
-11.9261 -1.94469e-006 44.4893 0 6 2.62268e-007 192 192 192 255 
2.1924 -1.94469e-006 44.4893 0 6 2.62268e-007 192 192 192 255 
16.311 -1.94469e-006 44.4893 0 6 2.62268e-007 192 192 192 255 
30.4296 -1.94469e-006 44.4893 0 6 2.62268e-007 192 192 192 255 
44.5482 -1.94469e-006 44.4893 0 6 2.62268e-007 192 192 192 255 
58.6667 -1.94469e-006 44.4893 0 6 2.62268e-007 192 192 192 255 
72.7853 -1.94469e-006 44.4893 3 3 1.31134e-007 192 192 192 255 
-68.4004 -3.17472e-006 72.6291 -2 1 1 192 192 192 255 
-54.2818 -3.17472e-006 72.6291 0 3 3 192 192 192 255 
-40.1633 -3.17472e-006 72.6291 0 3 3 192 192 192 255 
-26.0447 -3.17472e-006 72.6291 0 3 3 192 192 192 255 
-11.9261 -3.17472e-006 72.6291 0 3 3 192 192 192 255 
2.1924 -3.17472e-006 72.6291 0 3 3 192 192 192 255 
16.311 -3.17472e-006 72.6291 0 3 3 192 192 192 255 
30.4296 -3.17472e-006 72.6291 0 3 3 192 192 192 255 
44.5482 -3.17472e-006 72.6291 0 3 3 192 192 192 255 
58.6667 -3.17472e-006 72.6291 0 3 3 192 192 192 255 
72.7853 -3.17472e-006 72.6291 1 2 2 192 192 192 255 
-68.4004 -8.4916 -68.0701 -2 -2 -1 192 192 192 255 
-54.2818 -8.4916 -68.0701 0 -3 -3 192 192 192 255 
-54.2818 -8.4916 -39.9303 0 -6 -2.62268e-007 192 192 192 255 
-68.4004 -8.4916 -39.9303 -3 -3 -1.31134e-007 192 192 192 255 
-40.1633 -8.4916 -68.0701 0 -3 -3 192 192 192 255 
-40.1633 -8.4916 -39.9303 0 -6 -2.62268e-007 192 192 192 255 
-26.0447 -8.4916 -68.0701 0 -3 -3 192 192 192 255 
-26.0447 -8.4916 -39.9303 0 -6 -2.62268e-007 192 192 192 255 
-11.9261 -8.4916 -68.0701 0 -3 -3 192 192 192 255 
-11.9261 -8.4916 -39.9303 0 -6 -2.62268e-007 192 192 192 255 
2.1924 -8.4916 -68.0701 0 -3 -3 192 192 192 255 
2.1924 -8.4916 -39.9303 0 -6 -2.62268e-007 192 192 192 255 
16.311 -8.4916 -68.0701 0 -3 -3 192 192 192 255 
16.311 -8.4916 -39.9303 0 -6 -2.62268e-007 192 192 192 255 
30.4296 -8.4916 -68.0701 0 -3 -3 192 192 192 255 
30.4296 -8.4916 -39.9303 0 -6 -2.62268e-007 192 192 192 255 
44.5482 -8.4916 -68.0701 0 -3 -3 192 192 192 255 
44.5482 -8.4916 -39.9303 0 -6 -2.62268e-007 192 192 192 255 
58.6667 -8.4916 -68.0701 0 -3 -3 192 192 192 255 
58.6667 -8.4916 -39.9303 0 -6 -2.62268e-007 192 192 192 255 
72.7853 -8.4916 -68.0701 1 -1 -2 192 192 192 255 
72.7853 -8.4916 -39.9303 3 -3 -1.31134e-007 192 192 192 255 
-54.2818 -8.4916 -11.7904 0 -6 -2.62268e-007 192 192 192 255 
-68.4004 -8.4916 -11.7904 -3 -3 -1.31134e-007 192 192 192 255 
-40.1633 -8.4916 -11.7904 0 -6 -2.62268e-007 192 192 192 255 
-26.0447 -8.4916 -11.7904 0 -6 -2.62268e-007 192 192 192 255 
-11.9261 -8.4916 -11.7904 0 -6 -2.62268e-007 192 192 192 255 
2.1924 -8.4916 -11.7904 0 -6 -2.62268e-007 192 192 192 255 
16.311 -8.4916 -11.7904 0 -6 -2.62268e-007 192 192 192 255 
30.4296 -8.4916 -11.7904 0 -6 -2.62268e-007 192 192 192 255 
44.5482 -8.4916 -11.7904 0 -6 -2.62268e-007 192 192 192 255 
58.6667 -8.4916 -11.7904 0 -6 -2.62268e-007 192 192 192 255 
72.7853 -8.4916 -11.7904 3 -3 -1.31134e-007 192 192 192 255 
-54.2818 -8.4916 16.3494 0 -6 -2.62268e-007 192 192 192 255 
-68.4004 -8.4916 16.3494 -3 -3 -1.31134e-007 192 192 192 255 
-40.1633 -8.4916 16.3494 0 -6 -2.62268e-007 192 192 192 255 
-26.0447 -8.4916 16.3494 0 -6 -2.62268e-007 192 192 192 255 
-11.9261 -8.4916 16.3494 0 -6 -2.62268e-007 192 192 192 255 
2.1924 -8.4916 16.3494 0 -6 -2.62268e-007 192 192 192 255 
16.311 -8.4916 16.3494 0 -6 -2.62268e-007 192 192 192 255 
30.4296 -8.4916 16.3494 0 -6 -2.62268e-007 192 192 192 255 
44.5482 -8.4916 16.3494 0 -6 -2.62268e-007 192 192 192 255 
58.6667 -8.4916 16.3494 0 -6 -2.62268e-007 192 192 192 255 
72.7853 -8.4916 16.3494 3 -3 -1.31134e-007 192 192 192 255 
-54.2818 -8.4916 44.4893 0 -6 -2.62268e-007 192 192 192 255 
-68.4004 -8.4916 44.4893 -3 -3 -1.31134e-007 192 192 192 255 
-40.1633 -8.4916 44.4893 0 -6 -2.62268e-007 192 192 192 255 
-26.0447 -8.4916 44.4893 0 -6 -2.62268e-007 192 192 192 255 
-11.9261 -8.4916 44.4893 0 -6 -2.62268e-007 192 192 192 255 
2.1924 -8.4916 44.4893 0 -6 -2.62268e-007 192 192 192 255 
16.311 -8.4916 44.4893 0 -6 -2.62268e-007 192 192 192 255 
30.4296 -8.4916 44.4893 0 -6 -2.62268e-007 192 192 192 255 
44.5482 -8.4916 44.4893 0 -6 -2.62268e-007 192 192 192 255 
58.6667 -8.4916 44.4893 0 -6 -2.62268e-007 192 192 192 255 
72.7853 -8.4916 44.4893 3 -3 -1.31134e-007 192 192 192 255 
-54.2818 -8.4916 72.6291 0 -3 3 192 192 192 255 
-68.4004 -8.4916 72.6291 -1 -1 2 192 192 192 255 
-40.1633 -8.4916 72.6291 0 -3 3 192 192 192 255 
-26.0447 -8.4916 72.6291 0 -3 3 192 192 192 255 
-11.9261 -8.4916 72.6291 0 -3 3 192 192 192 255 
2.1924 -8.4916 72.6291 0 -3 3 192 192 192 255 
16.311 -8.4916 72.6291 0 -3 3 192 192 192 255 
30.4296 -8.4916 72.6291 0 -3 3 192 192 192 255 
44.5482 -8.4916 72.6291 0 -3 3 192 192 192 255 
58.6667 -8.4916 72.6291 0 -3 3 192 192 192 255 
72.7853 -8.4916 72.6291 2 -2 1 192 192 192 255 
-54.2818 -2.1229 -68.0701 0 2.62268e-007 -6 192 192 192 255 
-68.4004 -2.1229 -68.0701 -3 1.31134e-007 -3 192 192 192 255 
-40.1633 -2.1229 -68.0701 0 2.62268e-007 -6 192 192 192 255 
-26.0447 -2.1229 -68.0701 0 2.62268e-007 -6 192 192 192 255 
-11.9261 -2.1229 -68.0701 0 2.62268e-007 -6 192 192 192 255 
2.1924 -2.1229 -68.0701 0 2.62268e-007 -6 192 192 192 255 
16.311 -2.1229 -68.0701 0 2.62268e-007 -6 192 192 192 255 
30.4296 -2.1229 -68.0701 0 2.62268e-007 -6 192 192 192 255 
44.5482 -2.1229 -68.0701 0 2.62268e-007 -6 192 192 192 255 
58.6667 -2.1229 -68.0701 0 2.62268e-007 -6 192 192 192 255 
72.7853 -2.1229 -68.0701 3 1.31134e-007 -3 192 192 192 255 
-54.2818 -4.2458 -68.0701 0 2.62268e-007 -6 192 192 192 255 
-68.4004 -4.2458 -68.0701 -3 1.31134e-007 -3 192 192 192 255 
-40.1633 -4.2458 -68.0701 0 2.62268e-007 -6 192 192 192 255 
-26.0447 -4.2458 -68.0701 0 2.62268e-007 -6 192 192 192 255 
-11.9261 -4.2458 -68.0701 0 2.62268e-007 -6 192 192 192 255 
2.1924 -4.2458 -68.0701 0 2.62268e-007 -6 192 192 192 255 
16.311 -4.2458 -68.0701 0 2.62268e-007 -6 192 192 192 255 
30.4296 -4.2458 -68.0701 0 2.62268e-007 -6 192 192 192 255 
44.5482 -4.2458 -68.0701 0 2.62268e-007 -6 192 192 192 255 
58.6667 -4.2458 -68.0701 0 2.62268e-007 -6 192 192 192 255 
72.7853 -4.2458 -68.0701 3 1.31134e-007 -3 192 192 192 255 
-54.2818 -6.3687 -68.0701 0 2.62268e-007 -6 192 192 192 255 
-68.4004 -6.3687 -68.0701 -3 1.31134e-007 -3 192 192 192 255 
-40.1633 -6.3687 -68.0701 0 2.62268e-007 -6 192 192 192 255 
-26.0447 -6.3687 -68.0701 0 2.62268e-007 -6 192 192 192 255 
-11.9261 -6.3687 -68.0701 0 2.62268e-007 -6 192 192 192 255 
2.1924 -6.3687 -68.0701 0 2.62268e-007 -6 192 192 192 255 
16.311 -6.3687 -68.0701 0 2.62268e-007 -6 192 192 192 255 
30.4296 -6.3687 -68.0701 0 2.62268e-007 -6 192 192 192 255 
44.5482 -6.3687 -68.0701 0 2.62268e-007 -6 192 192 192 255 
58.6667 -6.3687 -68.0701 0 2.62268e-007 -6 192 192 192 255 
72.7853 -6.3687 -68.0701 3 1.31134e-007 -3 192 192 192 255 
72.7853 -2.1229 -39.9303 6 0 0 192 192 192 255 
72.7853 -2.1229 -11.7904 6 0 0 192 192 192 255 
72.7853 -2.1229 16.3494 6 0 0 192 192 192 255 
72.7853 -2.1229 44.4893 6 0 0 192 192 192 255 
72.7853 -2.1229 72.6291 3 -1.31134e-007 3 192 192 192 255 
72.7853 -4.2458 -39.9303 6 0 0 192 192 192 255 
72.7853 -4.2458 -11.7904 6 0 0 192 192 192 255 
72.7853 -4.2458 16.3494 6 0 0 192 192 192 255 
72.7853 -4.2458 44.4893 6 0 0 192 192 192 255 
72.7853 -4.2458 72.6291 3 -1.31134e-007 3 192 192 192 255 
72.7853 -6.3687 -39.9303 6 0 0 192 192 192 255 
72.7853 -6.3687 -11.7904 6 0 0 192 192 192 255 
72.7853 -6.3687 16.3494 6 0 0 192 192 192 255 
72.7853 -6.3687 44.4893 6 0 0 192 192 192 255 
72.7853 -6.3687 72.6291 3 -1.31134e-007 3 192 192 192 255 
58.6667 -2.1229 72.6291 0 -2.62268e-007 6 192 192 192 255 
44.5482 -2.1229 72.6291 0 -2.62268e-007 6 192 192 192 255 
30.4296 -2.1229 72.6291 0 -2.62268e-007 6 192 192 192 255 
16.311 -2.1229 72.6291 0 -2.62268e-007 6 192 192 192 255 
2.1924 -2.1229 72.6291 0 -2.62268e-007 6 192 192 192 255 
-11.9261 -2.1229 72.6291 0 -2.62268e-007 6 192 192 192 255 
-26.0447 -2.1229 72.6291 0 -2.62268e-007 6 192 192 192 255 
-40.1633 -2.1229 72.6291 0 -2.62268e-007 6 192 192 192 255 
-54.2818 -2.1229 72.6291 0 -2.62268e-007 6 192 192 192 255 
-68.4004 -2.1229 72.6291 -3 -1.31134e-007 3 192 192 192 255 
58.6667 -4.2458 72.6291 0 -2.62268e-007 6 192 192 192 255 
44.5482 -4.2458 72.6291 0 -2.62268e-007 6 192 192 192 255 
30.4296 -4.2458 72.6291 0 -2.62268e-007 6 192 192 192 255 
16.311 -4.2458 72.6291 0 -2.62268e-007 6 192 192 192 255 
2.1924 -4.2458 72.6291 0 -2.62268e-007 6 192 192 192 255 
-11.9261 -4.2458 72.6291 0 -2.62268e-007 6 192 192 192 255 
-26.0447 -4.2458 72.6291 0 -2.62268e-007 6 192 192 192 255 
-40.1633 -4.2458 72.6291 0 -2.62268e-007 6 192 192 192 255 
-54.2818 -4.2458 72.6291 0 -2.62268e-007 6 192 192 192 255 
-68.4004 -4.2458 72.6291 -3 -1.31134e-007 3 192 192 192 255 
58.6667 -6.3687 72.6291 0 -2.62268e-007 6 192 192 192 255 
44.5482 -6.3687 72.6291 0 -2.62268e-007 6 192 192 192 255 
30.4296 -6.3687 72.6291 0 -2.62268e-007 6 192 192 192 255 
16.311 -6.3687 72.6291 0 -2.62268e-007 6 192 192 192 255 
2.1924 -6.3687 72.6291 0 -2.62268e-007 6 192 192 192 255 
-11.9261 -6.3687 72.6291 0 -2.62268e-007 6 192 192 192 255 
-26.0447 -6.3687 72.6291 0 -2.62268e-007 6 192 192 192 255 
-40.1633 -6.3687 72.6291 0 -2.62268e-007 6 192 192 192 255 
-54.2818 -6.3687 72.6291 0 -2.62268e-007 6 192 192 192 255 
-68.4004 -6.3687 72.6291 -3 -1.31134e-007 3 192 192 192 255 
-68.4004 -2.1229 44.4893 -6 -0 0 192 192 192 255 
-68.4004 -2.1229 16.3494 -6 -0 0 192 192 192 255 
-68.4004 -2.1229 -11.7904 -6 -0 0 192 192 192 255 
-68.4004 -2.1229 -39.9303 -6 -0 0 192 192 192 255 
-68.4004 -4.2458 44.4893 -6 -0 0 192 192 192 255 
-68.4004 -4.2458 16.3494 -6 -0 0 192 192 192 255 
-68.4004 -4.2458 -11.7904 -6 -0 0 192 192 192 255 
-68.4004 -4.2458 -39.9303 -6 -0 0 192 192 192 255 
-68.4004 -6.3687 44.4893 -6 -0 0 192 192 192 255 
-68.4004 -6.3687 16.3494 -6 -0 0 192 192 192 255 
-68.4004 -6.3687 -11.7904 -6 -0 0 192 192 192 255 
-68.4004 -6.3687 -39.9303 -6 -0 0 192 192 192 255 
3 0 1 2 
3 0 2 3 
3 3 2 4 
3 3 4 5 
3 5 4 6 
3 5 6 7 
3 7 6 8 
3 7 8 9 
3 9 8 10 
3 9 10 11 
3 11 10 12 
3 11 12 13 
3 13 12 14 
3 13 14 15 
3 15 14 16 
3 15 16 17 
3 17 16 18 
3 17 18 19 
3 19 18 20 
3 19 20 21 
3 1 22 23 
3 1 23 2 
3 2 23 24 
3 2 24 4 
3 4 24 25 
3 4 25 6 
3 6 25 26 
3 6 26 8 
3 8 26 27 
3 8 27 10 
3 10 27 28 
3 10 28 12 
3 12 28 29 
3 12 29 14 
3 14 29 30 
3 14 30 16 
3 16 30 31 
3 16 31 18 
3 18 31 32 
3 18 32 20 
3 22 33 34 
3 22 34 23 
3 23 34 35 
3 23 35 24 
3 24 35 36 
3 24 36 25 
3 25 36 37 
3 25 37 26 
3 26 37 38 
3 26 38 27 
3 27 38 39 
3 27 39 28 
3 28 39 40 
3 28 40 29 
3 29 40 41 
3 29 41 30 
3 30 41 42 
3 30 42 31 
3 31 42 43 
3 31 43 32 
3 33 44 45 
3 33 45 34 
3 34 45 46 
3 34 46 35 
3 35 46 47 
3 35 47 36 
3 36 47 48 
3 36 48 37 
3 37 48 49 
3 37 49 38 
3 38 49 50 
3 38 50 39 
3 39 50 51 
3 39 51 40 
3 40 51 52 
3 40 52 41 
3 41 52 53 
3 41 53 42 
3 42 53 54 
3 42 54 43 
3 44 55 56 
3 44 56 45 
3 45 56 57 
3 45 57 46 
3 46 57 58 
3 46 58 47 
3 47 58 59 
3 47 59 48 
3 48 59 60 
3 48 60 49 
3 49 60 61 
3 49 61 50 
3 50 61 62 
3 50 62 51 
3 51 62 63 
3 51 63 52 
3 52 63 64 
3 52 64 53 
3 53 64 65 
3 53 65 54 
3 66 67 68 
3 66 68 69 
3 67 70 71 
3 67 71 68 
3 70 72 73 
3 70 73 71 
3 72 74 75 
3 72 75 73 
3 74 76 77 
3 74 77 75 
3 76 78 79 
3 76 79 77 
3 78 80 81 
3 78 81 79 
3 80 82 83 
3 80 83 81 
3 82 84 85 
3 82 85 83 
3 84 86 87 
3 84 87 85 
3 69 68 88 
3 69 88 89 
3 68 71 90 
3 68 90 88 
3 71 73 91 
3 71 91 90 
3 73 75 92 
3 73 92 91 
3 75 77 93 
3 75 93 92 
3 77 79 94 
3 77 94 93 
3 79 81 95 
3 79 95 94 
3 81 83 96 
3 81 96 95 
3 83 85 97 
3 83 97 96 
3 85 87 98 
3 85 98 97 
3 89 88 99 
3 89 99 100 
3 88 90 101 
3 88 101 99 
3 90 91 102 
3 90 102 101 
3 91 92 103 
3 91 103 102 
3 92 93 104 
3 92 104 103 
3 93 94 105 
3 93 105 104 
3 94 95 106 
3 94 106 105 
3 95 96 107 
3 95 107 106 
3 96 97 108 
3 96 108 107 
3 97 98 109 
3 97 109 108 
3 100 99 110 
3 100 110 111 
3 99 101 112 
3 99 112 110 
3 101 102 113 
3 101 113 112 
3 102 103 114 
3 102 114 113 
3 103 104 115 
3 103 115 114 
3 104 105 116 
3 104 116 115 
3 105 106 117 
3 105 117 116 
3 106 107 118 
3 106 118 117 
3 107 108 119 
3 107 119 118 
3 108 109 120 
3 108 120 119 
3 111 110 121 
3 111 121 122 
3 110 112 123 
3 110 123 121 
3 112 113 124 
3 112 124 123 
3 113 114 125 
3 113 125 124 
3 114 115 126 
3 114 126 125 
3 115 116 127 
3 115 127 126 
3 116 117 128 
3 116 128 127 
3 117 118 129 
3 117 129 128 
3 118 119 130 
3 118 130 129 
3 119 120 131 
3 119 131 130 
3 0 3 132 
3 0 132 133 
3 3 5 134 
3 3 134 132 
3 5 7 135 
3 5 135 134 
3 7 9 136 
3 7 136 135 
3 9 11 137 
3 9 137 136 
3 11 13 138 
3 11 138 137 
3 13 15 139 
3 13 139 138 
3 15 17 140 
3 15 140 139 
3 17 19 141 
3 17 141 140 
3 19 21 142 
3 19 142 141 
3 133 132 143 
3 133 143 144 
3 132 134 145 
3 132 145 143 
3 134 135 146 
3 134 146 145 
3 135 136 147 
3 135 147 146 
3 136 137 148 
3 136 148 147 
3 137 138 149 
3 137 149 148 
3 138 139 150 
3 138 150 149 
3 139 140 151 
3 139 151 150 
3 140 141 152 
3 140 152 151 
3 141 142 153 
3 141 153 152 
3 144 143 154 
3 144 154 155 
3 143 145 156 
3 143 156 154 
3 145 146 157 
3 145 157 156 
3 146 147 158 
3 146 158 157 
3 147 148 159 
3 147 159 158 
3 148 149 160 
3 148 160 159 
3 149 150 161 
3 149 161 160 
3 150 151 162 
3 150 162 161 
3 151 152 163 
3 151 163 162 
3 152 153 164 
3 152 164 163 
3 155 154 67 
3 155 67 66 
3 154 156 70 
3 154 70 67 
3 156 157 72 
3 156 72 70 
3 157 158 74 
3 157 74 72 
3 158 159 76 
3 158 76 74 
3 159 160 78 
3 159 78 76 
3 160 161 80 
3 160 80 78 
3 161 162 82 
3 161 82 80 
3 162 163 84 
3 162 84 82 
3 163 164 86 
3 163 86 84 
3 21 20 165 
3 21 165 142 
3 20 32 166 
3 20 166 165 
3 32 43 167 
3 32 167 166 
3 43 54 168 
3 43 168 167 
3 54 65 169 
3 54 169 168 
3 142 165 170 
3 142 170 153 
3 165 166 171 
3 165 171 170 
3 166 167 172 
3 166 172 171 
3 167 168 173 
3 167 173 172 
3 168 169 174 
3 168 174 173 
3 153 170 175 
3 153 175 164 
3 170 171 176 
3 170 176 175 
3 171 172 177 
3 171 177 176 
3 172 173 178 
3 172 178 177 
3 173 174 179 
3 173 179 178 
3 164 175 87 
3 164 87 86 
3 175 176 98 
3 175 98 87 
3 176 177 109 
3 176 109 98 
3 177 178 120 
3 177 120 109 
3 178 179 131 
3 178 131 120 
3 65 64 180 
3 65 180 169 
3 64 63 181 
3 64 181 180 
3 63 62 182 
3 63 182 181 
3 62 61 183 
3 62 183 182 
3 61 60 184 
3 61 184 183 
3 60 59 185 
3 60 185 184 
3 59 58 186 
3 59 186 185 
3 58 57 187 
3 58 187 186 
3 57 56 188 
3 57 188 187 
3 56 55 189 
3 56 189 188 
3 169 180 190 
3 169 190 174 
3 180 181 191 
3 180 191 190 
3 181 182 192 
3 181 192 191 
3 182 183 193 
3 182 193 192 
3 183 184 194 
3 183 194 193 
3 184 185 195 
3 184 195 194 
3 185 186 196 
3 185 196 195 
3 186 187 197 
3 186 197 196 
3 187 188 198 
3 187 198 197 
3 188 189 199 
3 188 199 198 
3 174 190 200 
3 174 200 179 
3 190 191 201 
3 190 201 200 
3 191 192 202 
3 191 202 201 
3 192 193 203 
3 192 203 202 
3 193 194 204 
3 193 204 203 
3 194 195 205 
3 194 205 204 
3 195 196 206 
3 195 206 205 
3 196 197 207 
3 196 207 206 
3 197 198 208 
3 197 208 207 
3 198 199 209 
3 198 209 208 
3 179 200 130 
3 179 130 131 
3 200 201 129 
3 200 129 130 
3 201 202 128 
3 201 128 129 
3 202 203 127 
3 202 127 128 
3 203 204 126 
3 203 126 127 
3 204 205 125 
3 204 125 126 
3 205 206 124 
3 205 124 125 
3 206 207 123 
3 206 123 124 
3 207 208 121 
3 207 121 123 
3 208 209 122 
3 208 122 121 
3 55 44 210 
3 55 210 189 
3 44 33 211 
3 44 211 210 
3 33 22 212 
3 33 212 211 
3 22 1 213 
3 22 213 212 
3 1 0 133 
3 1 133 213 
3 189 210 214 
3 189 214 199 
3 210 211 215 
3 210 215 214 
3 211 212 216 
3 211 216 215 
3 212 213 217 
3 212 217 216 
3 213 133 144 
3 213 144 217 
3 199 214 218 
3 199 218 209 
3 214 215 219 
3 214 219 218 
3 215 216 220 
3 215 220 219 
3 216 217 221 
3 216 221 220 
3 217 144 155 
3 217 155 221 
3 209 218 111 
3 209 111 122 
3 218 219 100 
3 218 100 111 
3 219 220 89 
3 219 89 100 
3 220 221 69 
3 220 69 89 
3 221 155 66 
3 221 66 69 
