ply
format ascii 1.0
comment VCGLIB generated
element vertex 114
property float x
property float y
property float z
property float nx
property float ny
property float nz
element face 224
property list uchar int vertex_indices
end_header
-0.624775 0 0.690325 -1 -2 2 
-0.624775 0 0.345163 -3 -3 0 
-0.312387 0 0.345163 0 -6 0 
-0.312387 0 0.690325 0 -3 3 
0 0 0.345163 0 -6 0 
0 0 0.690325 0 -3 3 
0.312387 0 0.345163 0 -6 0 
0.312387 0 0.690325 0 -3 3 
0.624775 0 0.345163 3 -3 0 
0.624775 0 0.690325 2 -1 1 
-0.624775 0 0 -3 -3 0 
-0.312387 0 0 0 -6 0 
0 0 0 0 -6 0 
0.312387 0 0 0 -6 0 
0.624775 0 0 3 -3 0 
-0.624775 0 -0.345163 -3 -3 0 
-0.312387 0 -0.345163 0 -6 0 
0 0 -0.345163 0 -6 0 
0.312387 0 -0.345163 0 -6 0 
0.624775 0 -0.345163 3 -3 0 
-0.624775 0 -0.690325 -2 -1 -1 
-0.312387 0 -0.690325 0 -3 -3 
0 0 -0.690325 0 -3 -3 
0.312387 0 -0.690325 0 -3 -3 
0.624775 0 -0.690325 1 -2 -2 
-0.624775 1.16019 0.690325 -2 2 1 
-0.312387 1.16019 0.690325 0 3 3 
-0.312387 1.16019 0.345163 0 6 0 
-0.624775 1.16019 0.345163 -3 3 0 
0 1.16019 0.690325 0 3 3 
0 1.16019 0.345163 0 6 0 
0.312387 1.16019 0.690325 0 3 3 
0.312387 1.16019 0.345163 0 6 0 
0.624775 1.16019 0.690325 1 1 2 
0.624775 1.16019 0.345163 3 3 0 
-0.312387 1.16019 0 0 6 0 
-0.624775 1.16019 0 -3 3 0 
0 1.16019 0 0 6 0 
0.312387 1.16019 0 0 6 0 
0.624775 1.16019 0 3 3 0 
-0.312387 1.16019 -0.345163 0 6 0 
-0.624775 1.16019 -0.345163 -3 3 0 
0 1.16019 -0.345163 0 6 0 
0.312387 1.16019 -0.345163 0 6 0 
0.624775 1.16019 -0.345163 3 3 0 
-0.312387 1.16019 -0.690325 0 3 -3 
-0.624775 1.16019 -0.690325 -1 1 -2 
0 1.16019 -0.690325 0 3 -3 
0.312387 1.16019 -0.690325 0 3 -3 
0.624775 1.16019 -0.690325 2 2 -1 
-0.312387 0.232037 0.690325 0 0 6 
-0.624775 0.232037 0.690325 -3 0 3 
0 0.232037 0.690325 0 0 6 
0.312387 0.232037 0.690325 0 0 6 
0.624775 0.232037 0.690325 3 0 3 
-0.312387 0.464075 0.690325 0 0 6 
-0.624775 0.464075 0.690325 -3 0 3 
0 0.464075 0.690325 0 0 6 
0.312387 0.464075 0.690325 0 0 6 
0.624775 0.464075 0.690325 3 0 3 
-0.312387 0.696113 0.690325 0 0 6 
-0.624775 0.696113 0.690325 -3 0 3 
0 0.696113 0.690325 0 0 6 
0.312387 0.696113 0.690325 0 0 6 
0.624775 0.696113 0.690325 3 0 3 
-0.312387 0.92815 0.690325 0 0 6 
-0.624775 0.92815 0.690325 -3 0 3 
0 0.92815 0.690325 0 0 6 
0.312387 0.92815 0.690325 0 0 6 
0.624775 0.92815 0.690325 3 0 3 
0.624775 0.232037 0.345163 6 0 0 
0.624775 0.232037 0 6 0 0 
0.624775 0.232037 -0.345163 6 0 0 
0.624775 0.232037 -0.690325 3 0 -3 
0.624775 0.464075 0.345163 6 0 0 
0.624775 0.464075 0 6 0 0 
0.624775 0.464075 -0.345163 6 0 0 
0.624775 0.464075 -0.690325 3 0 -3 
0.624775 0.696113 0.345163 6 0 0 
0.624775 0.696113 0 6 0 0 
0.624775 0.696113 -0.345163 6 0 0 
0.624775 0.696113 -0.690325 3 0 -3 
0.624775 0.92815 0.345163 6 0 0 
0.624775 0.92815 0 6 0 0 
0.624775 0.92815 -0.345163 6 0 0 
0.624775 0.92815 -0.690325 3 0 -3 
0.312387 0.232037 -0.690325 0 0 -6 
0 0.232037 -0.690325 0 0 -6 
-0.312387 0.232037 -0.690325 0 0 -6 
-0.624775 0.232037 -0.690325 -3 0 -3 
0.312387 0.464075 -0.690325 0 0 -6 
0 0.464075 -0.690325 0 0 -6 
-0.312387 0.464075 -0.690325 0 0 -6 
-0.624775 0.464075 -0.690325 -3 0 -3 
0.312387 0.696113 -0.690325 0 0 -6 
0 0.696113 -0.690325 0 0 -6 
-0.312387 0.696113 -0.690325 0 0 -6 
-0.624775 0.696113 -0.690325 -3 0 -3 
0.312387 0.92815 -0.690325 0 0 -6 
0 0.92815 -0.690325 0 0 -6 
-0.312387 0.92815 -0.690325 0 0 -6 
-0.624775 0.92815 -0.690325 -3 0 -3 
-0.624775 0.232037 -0.345163 -6 0 0 
-0.624775 0.232037 0 -6 0 0 
-0.624775 0.232037 0.345163 -6 0 0 
-0.624775 0.464075 -0.345163 -6 0 0 
-0.624775 0.464075 0 -6 0 0 
-0.624775 0.464075 0.345163 -6 0 0 
-0.624775 0.696113 -0.345163 -6 0 0 
-0.624775 0.696113 0 -6 0 0 
-0.624775 0.696113 0.345163 -6 0 0 
-0.624775 0.92815 -0.345163 -6 0 0 
-0.624775 0.92815 0 -6 0 0 
-0.624775 0.92815 0.345163 -6 0 0 
3 0 1 2 
3 0 2 3 
3 3 2 4 
3 3 4 5 
3 5 4 6 
3 5 6 7 
3 7 6 8 
3 7 8 9 
3 1 10 11 
3 1 11 2 
3 2 11 12 
3 2 12 4 
3 4 12 13 
3 4 13 6 
3 6 13 14 
3 6 14 8 
3 10 15 16 
3 10 16 11 
3 11 16 17 
3 11 17 12 
3 12 17 18 
3 12 18 13 
3 13 18 19 
3 13 19 14 
3 15 20 21 
3 15 21 16 
3 16 21 22 
3 16 22 17 
3 17 22 23 
3 17 23 18 
3 18 23 24 
3 18 24 19 
3 25 26 27 
3 25 27 28 
3 26 29 30 
3 26 30 27 
3 29 31 32 
3 29 32 30 
3 31 33 34 
3 31 34 32 
3 28 27 35 
3 28 35 36 
3 27 30 37 
3 27 37 35 
3 30 32 38 
3 30 38 37 
3 32 34 39 
3 32 39 38 
3 36 35 40 
3 36 40 41 
3 35 37 42 
3 35 42 40 
3 37 38 43 
3 37 43 42 
3 38 39 44 
3 38 44 43 
3 41 40 45 
3 41 45 46 
3 40 42 47 
3 40 47 45 
3 42 43 48 
3 42 48 47 
3 43 44 49 
3 43 49 48 
3 0 3 50 
3 0 50 51 
3 3 5 52 
3 3 52 50 
3 5 7 53 
3 5 53 52 
3 7 9 54 
3 7 54 53 
3 51 50 55 
3 51 55 56 
3 50 52 57 
3 50 57 55 
3 52 53 58 
3 52 58 57 
3 53 54 59 
3 53 59 58 
3 56 55 60 
3 56 60 61 
3 55 57 62 
3 55 62 60 
3 57 58 63 
3 57 63 62 
3 58 59 64 
3 58 64 63 
3 61 60 65 
3 61 65 66 
3 60 62 67 
3 60 67 65 
3 62 63 68 
3 62 68 67 
3 63 64 69 
3 63 69 68 
3 66 65 26 
3 66 26 25 
3 65 67 29 
3 65 29 26 
3 67 68 31 
3 67 31 29 
3 68 69 33 
3 68 33 31 
3 9 8 70 
3 9 70 54 
3 8 14 71 
3 8 71 70 
3 14 19 72 
3 14 72 71 
3 19 24 73 
3 19 73 72 
3 54 70 74 
3 54 74 59 
3 70 71 75 
3 70 75 74 
3 71 72 76 
3 71 76 75 
3 72 73 77 
3 72 77 76 
3 59 74 78 
3 59 78 64 
3 74 75 79 
3 74 79 78 
3 75 76 80 
3 75 80 79 
3 76 77 81 
3 76 81 80 
3 64 78 82 
3 64 82 69 
3 78 79 83 
3 78 83 82 
3 79 80 84 
3 79 84 83 
3 80 81 85 
3 80 85 84 
3 69 82 34 
3 69 34 33 
3 82 83 39 
3 82 39 34 
3 83 84 44 
3 83 44 39 
3 84 85 49 
3 84 49 44 
3 24 23 86 
3 24 86 73 
3 23 22 87 
3 23 87 86 
3 22 21 88 
3 22 88 87 
3 21 20 89 
3 21 89 88 
3 73 86 90 
3 73 90 77 
3 86 87 91 
3 86 91 90 
3 87 88 92 
3 87 92 91 
3 88 89 93 
3 88 93 92 
3 77 90 94 
3 77 94 81 
3 90 91 95 
3 90 95 94 
3 91 92 96 
3 91 96 95 
3 92 93 97 
3 92 97 96 
3 81 94 98 
3 81 98 85 
3 94 95 99 
3 94 99 98 
3 95 96 100 
3 95 100 99 
3 96 97 101 
3 96 101 100 
3 85 98 48 
3 85 48 49 
3 98 99 47 
3 98 47 48 
3 99 100 45 
3 99 45 47 
3 100 101 46 
3 100 46 45 
3 20 15 102 
3 20 102 89 
3 15 10 103 
3 15 103 102 
3 10 1 104 
3 10 104 103 
3 1 0 51 
3 1 51 104 
3 89 102 105 
3 89 105 93 
3 102 103 106 
3 102 106 105 
3 103 104 107 
3 103 107 106 
3 104 51 56 
3 104 56 107 
3 93 105 108 
3 93 108 97 
3 105 106 109 
3 105 109 108 
3 106 107 110 
3 106 110 109 
3 107 56 61 
3 107 61 110 
3 97 108 111 
3 97 111 101 
3 108 109 112 
3 108 112 111 
3 109 110 113 
3 109 113 112 
3 110 61 66 
3 110 66 113 
3 101 111 41 
3 101 41 46 
3 111 112 36 
3 111 36 41 
3 112 113 28 
3 112 28 36 
3 113 66 25 
3 113 25 28 
