ply
format ascii 1.0
comment VCGLIB generated
element vertex 25
property float x
property float y
property float z
property float nx
property float ny
property float nz
element face 32
property list uchar int vertex_indices
end_header
-49.7659 0 25.4652 0 3 0 
-49.7659 0 50.4596 0 1 0 
-24.888 0 50.4596 0 3 0 
-24.888 0 25.4652 0 6 0 
-0.0102 0 50.4596 0 3 0 
-0.0102 0 25.4652 0 6 0 
24.8677 0 50.4596 0 3 0 
24.8677 0 25.4652 0 6 0 
49.7456 0 50.4596 0 2 0 
49.7456 0 25.4652 0 3 0 
-49.7659 0 0.4708 0 3 0 
-24.888 0 0.4708 0 6 0 
-0.0102 0 0.4708 0 6 0 
24.8677 0 0.4708 0 6 0 
49.7456 0 0.4708 0 3 0 
-49.7659 0 -24.5236 0 3 0 
-24.888 0 -24.5236 0 6 0 
-0.0102 0 -24.5236 0 6 0 
24.8677 0 -24.5236 0 6 0 
49.7456 0 -24.5236 0 3 0 
-49.7659 0 -49.518 0 2 0 
-24.888 0 -49.518 0 3 0 
-0.0102 0 -49.518 0 3 0 
24.8677 0 -49.518 0 3 0 
49.7456 0 -49.518 0 1 0 
3 0 1 2 
3 0 2 3 
3 3 2 4 
3 3 4 5 
3 5 4 6 
3 5 6 7 
3 7 6 8 
3 7 8 9 
3 10 0 3 
3 10 3 11 
3 11 3 5 
3 11 5 12 
3 12 5 7 
3 12 7 13 
3 13 7 9 
3 13 9 14 
3 15 10 11 
3 15 11 16 
3 16 11 12 
3 16 12 17 
3 17 12 13 
3 17 13 18 
3 18 13 14 
3 18 14 19 
3 20 15 16 
3 20 16 21 
3 21 16 17 
3 21 17 22 
3 22 17 18 
3 22 18 23 
3 23 18 19 
3 23 19 24 
