ply
format ascii 1.0
comment VCGLIB generated
element vertex 6
property float x
property float y
property float z
property float nx
property float ny
property float nz
element face 8
property list uchar int vertex_indices
end_header
0 0.621914 0 0 2.77687 0 
-0.49073 0 0.5 -0.791154 -0.307761 0.794514 
0.49073 0 0.5 0.791154 -0.307761 0.794514 
0.49073 0 -0.5 0.791154 -0.307761 -0.794514 
-0.49073 0 -0.5 -0.791154 -0.307761 -0.794514 
0 0 0 0 -6.28319 0 
3 0 1 2 
3 0 2 3 
3 0 3 4 
3 0 4 1 
3 1 5 2 
3 2 5 3 
3 3 5 4 
3 4 5 1 
