ply
format ascii 1.0
comment VCGLIB generated
element vertex 462
property float x
property float y
property float z
property float nx
property float ny
property float nz
element face 882
property list uchar int vertex_indices
end_header
3.19574 0.3 2.6834 0.100864 5.9983 -5.33206e-007 
3.19574 0.3 5.11552 -0.187945 6.9154 0.678378 
5.80777 0.21213 5.11552 3.00474 2.8026 0.604166 
5.80777 0.21213 2.6834 3.09721 3.14635 -5.4583e-007 
0.85996 0.3 2.6834 -4.58565e-014 6 -5.24537e-007 
0.85996 0.3 5.11552 0.000141483 4.92826 0.465099 
-1.47584 0.3 2.6834 -4.58565e-014 6 -5.24537e-007 
-1.47584 0.3 5.11552 0.256055 6.91492 0.700203 
-3.81163 0.3 2.6834 -0.00653464 4.99996 -0.00627626 
-3.81163 0.3 5.11552 -0.256056 5.92213 0.580385 
-6.14742 0.3 2.6834 -2.92362 3.41264 0.0574757 
-6.14742 0.3 5.11552 -2.12803 1.96466 0.230284 
3.19574 0.3 0.25128 0.100864 5.9983 -5.33206e-007 
5.80777 0.21213 0.25128 3.09721 3.14635 -5.4583e-007 
0.85996 0.3 0.25128 -4.58565e-014 6 -5.24537e-007 
-1.47584 0.3 0.25128 -4.58565e-014 6 -5.24537e-007 
-3.81163 0.3 0.25128 -0.0363977 5.99959 -0.0236151 
-6.32212 0.26833 0.251281 -2.00579 2.77594 1.02662 
3.19574 0.3 -2.18084 0.100864 5.9983 -5.33206e-007 
5.80777 0.21213 -2.18084 3.09721 3.14635 -5.4583e-007 
0.85996 0.3 -2.18084 -4.58565e-014 6 -5.24537e-007 
-1.47584 0.3 -2.18084 -4.58565e-014 6 -5.24537e-007 
-3.81163 0.3 -2.18084 -0.1139 6.9982 -0.0221265 
-6.42365 0.21213 -2.18084 -4.04917 2.23838 0.0289471 
3.19574 0.3 -4.61296 0.116597 6.99656 -0.115178 
5.80777 0.21213 -4.61296 3.05471 2.13371 -0.0560626 
0.85996 0.3 -4.61296 -8.71057e-009 5.99835 -0.0996373 
-1.47584 0.3 -4.61296 -8.71057e-009 5.99835 -0.0996373 
-3.81163 0.3 -4.61296 -0.0829756 5.99768 -0.0819652 
-6.42365 0.21213 -4.61296 -2.08954 3.0838 -0.0560622 
5.75707 0.173209 -7.21828 2.09645 2.12688 -2.11074 
3.19574 0.212129 -7.25721 0.0493795 2.06463 -2.05618 
0.859959 0.212129 -7.25721 -2.7079e-007 3.11209 -3.09748 
-1.47584 0.212129 -7.25721 -2.7079e-007 3.11209 -3.09748 
-3.81163 0.212129 -7.25721 -0.0493801 3.10199 -3.08867 
-6.37296 0.173209 -7.21828 -2.09645 2.12688 -2.11074 
-1.47584 -6.61106 2.6834 4.58565e-014 -6 5.24537e-007 
0.85996 -6.61106 2.6834 3 -3 -3.12639e-013 
0.85996 -6.61106 5.11552 2 -2 1 
-1.47584 -6.61106 5.11552 2.62268e-007 -3 3 
-3.81163 -6.61106 2.6834 -0.00653677 -4.99996 -0.00627742 
-3.81163 -6.61106 5.11552 2.62268e-007 -3 3 
-6.14742 -6.61106 2.6834 -2.96835 -3.70628 0.0224598 
-6.14742 -6.61106 5.11552 -1 -1 2 
-1.47584 -6.61106 0.251281 4.58565e-014 -6 5.24537e-007 
0.85996 -6.61106 0.251281 3 -3 -3.12639e-013 
-3.81163 -6.61106 0.251281 -0.036404 -5.99959 -0.023616 
-6.32212 -6.57938 0.251282 -2.96107 -2.4823 1.06164 
-1.47584 -6.61106 -2.18084 3.0571e-014 -4 3.49691e-007 
0.85996 -6.61106 -2.18084 3 -3 -3.12639e-013 
-3.81163 -6.61106 -2.18084 -0.113904 -5.9982 -0.022121 
-6.42365 -6.52319 -2.18084 -3.05039 -2.18903 0.0289499 
-1.47584 -6.61106 -4.61296 0.016099 -4.99764 -0.113835 
0.85996 -6.61106 -4.61296 3.0322 -2.99749 -0.0948199 
-6.42365 -6.52319 -4.61296 -3.08833 -3.13315 -0.0560635 
-3.81163 -6.61106 -4.61296 -0.0829797 -3.99768 -0.0819684 
-1.47584 -6.52319 -7.25721 0.0206103 -3.09901 -3.12618 
0.859959 -6.44522 -7.31341 1.04338 -3.00423 -2.58721 
-3.81163 -6.52319 -7.25721 -0.0493821 -3.06407 -2.08939 
-6.37296 -6.48426 -7.21828 -2.09645 -2.12688 -2.11074 
-6.53808 -2.10369 -2.18084 -4.99611 0.119641 0.0200053 
-6.53808 -2.10369 0.251281 -3.99465 0.140579 4.04001 
-6.53808 -2.10369 -4.61296 -6.99338 0.171063 -0.149839 
-6.42365 -2.10369 -7.25721 -2.08985 0.0640416 -3.0731 
-6.53808 -4.20737 -2.18084 -5.99489 -0.168993 0.0200056 
-6.53808 -4.20737 0.251281 -2.99465 -0.140579 3.04001 
-6.53808 -4.20737 -4.61296 -5.99553 -0.121711 -0.106605 
-6.42365 -4.20737 -7.25721 -3.0553 -0.0640422 -2.1169 
-3.81163 -2.10369 -7.34508 -0.0830277 0.0936403 -5.99733 
-1.47584 -2.10369 -7.34508 -5.24348e-007 0.113747 -5.99784 
0.859959 -2.10369 -7.34508 -5.24348e-007 0.113747 -5.99784 
3.19574 -2.10369 -7.34508 0.116648 0.131556 -6.99605 
5.80777 -2.10369 -7.25721 3.0553 0.0640417 -2.11689 
-3.81163 -4.20737 -7.34508 -0.11665 -0.131558 -6.99605 
-1.47584 -4.20737 -7.34508 -0.0231751 -0.0903975 -5.99846 
0.859959 -4.20737 -7.34508 -0.0247267 -0.0408294 -5.99949 
3.19574 -4.20737 -7.34508 0.0942946 -0.00729473 -5.99826 
5.80777 -4.20737 -7.25721 3.09806 -2.73458e-007 -3.128 
3.19574 -6.31106 -7.34508 0.0489937 -2.98744 -2.76968 
5.80777 -6.31106 -7.25721 1.06631 -2 -2.0421 
5.92219 -2.10369 -4.61296 3.99553 -1.87829 0.893398 
5.92219 -2.10369 -2.18084 4.99635 -0.851957 -2 
5.92219 -2.10369 0.25128 3.99635 -1.85196 1 
5.92219 -2.10369 2.6834 4.99635 -0.851957 -2 
5.92219 -2.10369 5.11552 3.95837 -0.021311 1.2499 
5.92219 -4.20737 -4.61296 4.9972 1 1.87031 
5.92219 -4.20737 0.25128 5 1 2 
5.92219 -4.20737 -2.18084 4 2 -1 
5.92219 -4.20737 5.11552 3 2.62268e-007 3 
5.92219 -4.20737 2.6834 4 2 -1 
5.92219 -6.31106 -4.61296 2.99813 -4 -0.0864616 
5.92219 -6.31106 -2.18084 3 -3 -3.12639e-013 
5.92219 -6.31106 0.25128 3 -3 -3.12639e-013 
5.92219 -6.31106 2.6834 3 -3 -3.12639e-013 
5.92219 -6.31106 5.11552 2 -1 2 
5.52233 -0.00706933 7.65977 -0.00246694 -0.129406 0.458646 
3.19574 -0.00999933 7.65977 -0.109524 -1.04202 0.33919 
3.19574 -0.00999999 0.13915 0.00125935 -4 3.49581e-007 
5.52233 -0.00706999 0.13915 -3.00126 1.00545 1.74479e-007 
0.85996 -0.00999955 5.11552 0.000282965 0.856511 0.930198 
0.85996 -0.00999977 2.6834 4.58565e-014 -6 5.24537e-007 
-1.42447 -0.00999933 7.68415 0.128027 -1.04254 0.350102 
-1.42447 -0.00999999 0.11477 1.52855e-014 -2 1.74846e-007 
-3.863 -0.00999933 7.68415 -0.128028 -0.0497434 0.469919 
-3.863 -0.00999999 0.11477 -0.000987196 -4 -0.000947746 
-6.14742 -0.00999955 5.11552 -1.25606 0.92933 0.460569 
-6.14742 -0.00999977 2.6834 -2.95577 -3.29364 0.0345402 
3.19574 -0.00999998 0.25128 -0.00125935 -2 1.74956e-007 
5.52233 -0.00706998 0.25128 -2.99874 -0.994547 3.49104e-007 
0.85996 -0.00999998 0.25128 4.58565e-014 -6 5.24537e-007 
-1.47584 -0.00999998 0.25128 3.0571e-014 -4 3.49691e-007 
-3.81163 -0.00999998 0.25128 -0.00220731 -2 -0.00124395 
-6.1416 -0.00893998 0.251281 0.0875996 -3.58202 2.07009 
3.19574 -0.0100002 -2.18084 0.00377806 -6 5.24207e-007 
5.52233 -0.00707019 -2.18084 -2.99622 -2.99455 5.2373e-007 
0.85996 -0.0100002 -2.18084 4.58565e-014 -6 5.24537e-007 
-1.47584 -0.0100002 -2.18084 4.58565e-014 -6 5.24537e-007 
-3.81163 -0.0100002 -2.18084 -0.00337556 -6 -0.000384509 
-6.13822 -0.00707019 -2.18084 2.99702 -2.99373 -7.41506e-005 
3.19574 -0.0100004 -4.61296 0.00342719 -6 -0.00328752 
5.52233 -0.0070704 -4.61296 -2.99692 -2.99505 -0.00287399 
0.85996 -0.0100004 -4.61296 -3.16833e-010 -6 -0.00362415 
-1.47584 -0.0100004 -4.61296 -3.16833e-010 -6 -0.00362415 
-3.81163 -0.0100004 -4.61296 -0.00307632 -6 -0.0029509 
-6.13822 -0.0070704 -4.61296 2.99657 -2.99555 -0.00313814 
3.19574 -0.00707061 -7.03801 0.00362975 -2.99659 2.99705 
5.52401 -0.00577062 -7.0393 -1.99818 -0.996377 0.996865 
0.859959 -0.00707061 -7.03801 2.61951e-007 -2.99581 2.99637 
-1.47584 -0.00707061 -7.03801 2.61951e-007 -2.99581 2.99637 
-3.81163 -0.00707061 -7.03801 -0.00181448 -2.9962 2.99671 
-6.1399 -0.00577062 -7.0393 0.996369 -1.99668 1.99712 
0.85996 -6.30106 5.11552 1 2 2 
0.85996 -6.30106 2.6834 3 3 -5.24536e-007 
-1.47584 -6.30106 2.6834 -4.58565e-014 6 -5.24537e-007 
-1.47584 -6.30106 5.11552 2.62268e-007 3 3 
-3.81163 -6.30106 2.6834 -0.000450004 6 -0.000432705 
-3.81163 -6.30106 5.11552 2.62268e-007 3 3 
-6.14742 -6.30106 2.6834 -2.91077 3.58728 0.0698137 
-6.14742 -6.30106 5.11552 -2 1 1 
0.85996 -6.30106 0.251281 3 3 -5.24536e-007 
-1.47584 -6.30106 0.251281 -4.58565e-014 6 -5.24537e-007 
-3.81163 -6.30106 0.251281 -0.00192994 6 -0.000986662 
-6.1416 -6.30211 0.251282 0.0434194 3.29101 2.03489 
0.85996 -6.30106 -2.18084 2.99976 3 -0.000230775 
-1.47584 -6.30106 -2.18084 -0.000119873 4 -0.000115475 
-3.81163 -6.30106 -2.18084 -0.00312169 5 -0.000615711 
-6.13822 -6.30398 -2.18084 2.99715 2.99292 0.000506138 
0.85996 -6.30106 -4.61296 3.00099 3 -0.00313535 
-1.47584 -6.30162 -4.61296 0.000317337 5 -0.00322505 
-3.81163 -6.30162 -4.61296 -0.00294725 4 -0.00213509 
-6.13822 -6.30398 -4.61296 2.99682 2.99504 -0.00200272 
0.859959 -6.30658 -7.03613 2.02803 0.0252996 3.22815 
-1.47584 -6.30342 -7.0377 0.000709357 2.997 2.99624 
-3.81163 -6.30342 -7.0377 -0.00271419 2.99719 2.99787 
-6.1399 -6.30528 -7.0393 1.99728 1.99652 0.996455 
-6.1344 -2.10369 0.251281 3 0.00262926 2.0007 
-6.1344 -2.10369 -2.18084 5.99999 0.00707999 0.00139131 
-6.1344 -2.10369 -4.61296 5.99999 0.00495442 -0.00428396 
-6.13822 -2.10369 -7.03801 2.99671 0.00347555 2.99616 
-6.1344 -4.20737 0.251281 2.99999 -0.00525794 3.00139 
-6.1344 -4.20737 -2.18084 5.99999 -0.00627274 0.000695393 
-6.1344 -4.20737 -4.61296 5.99999 -0.00444342 -0.00384214 
-6.13822 -4.20737 -7.03801 2.997 -0.00309797 2.99571 
-3.81163 -2.10369 -7.03508 -0.00300252 0.00302929 6 
-1.47584 -2.10369 -7.03508 -0.000136332 0.00388861 6 
0.859959 -2.10369 -7.03508 -6.79042e-005 0.00411655 6 
3.19574 -2.10369 -7.03508 0.00342522 0.00380086 6 
5.52233 -2.10369 -7.03801 -2.99692 0.00332011 2.99572 
-3.81163 -4.20737 -7.0354 -0.00328459 -0.00335397 6 
-1.47584 -4.20737 -7.0354 -0.000878043 -0.00307388 6 
0.859959 -4.20737 -7.03508 -0.000991326 -0.00144954 6 
3.19574 -4.20737 -7.03508 0.00355321 -0.000249256 6 
5.52233 -4.20737 -7.03801 -2.99622 2.61856e-007 2.99528 
3.19574 -6.31106 -7.03508 0.0578321 -2.9462 3.45933 
5.52233 -6.31106 -7.03801 -0.99748 -4 1.99843 
5.51852 -2.10369 -4.61296 -3.99999 -0.995566 1.99617 
5.51852 -2.10369 -2.18084 -5 -1.99455 -1 
5.51852 -2.10369 0.25128 -4 -0.994548 2 
5.51852 -2.10369 2.6834 -5 -1.99455 -1 
5.51852 -2.10369 5.11552 -1.07838 -0.236379 2.49979 
5.51852 -4.20737 -4.61296 -5 2 0.995287 
5.51852 -4.20737 -2.18084 -4 1 -2 
5.51852 -4.20737 0.25128 -5 2 1 
5.51852 -4.20737 2.6834 -4 1 -2 
5.51852 -4.20737 5.11552 -3 2.62268e-007 3 
5.51852 -6.31106 -4.61296 -3 -2 -0.00314187 
5.51852 -6.31106 -2.18084 -3 -3 5.24536e-007 
5.51852 -6.31106 0.251281 -3 -3 5.24536e-007 
5.51852 -6.31106 2.6834 -3 -3 5.24536e-007 
5.51852 -6.31106 5.11552 -2 -2 1 
2.21801 -5.40312 1.96725 4.91416 -0.922416 -0.0149119 
2.22716 -5.40312 4.98292 2.1853 0.61382 1.99317 
1.88826 -5.71367 4.98887 2.07948 -2.21187 2.99339 
1.87911 -5.71367 1.97321 3.37792 -3.6864 -0.0102514 
1.54937 -6.02423 4.99483 2.07945 -2.21182 2.99338 
1.54021 -6.02423 1.97917 4.72903 -5.16102 -0.0143541 
1.21046 -6.33478 5.00079 2.07939 -2.21184 2.99338 
1.2013 -6.33478 1.98512 4.05347 -4.42371 -0.0123033 
0.87155 -6.64534 5.00674 0.631419 -2.15011 0.997981 
0.8624 -6.64534 1.99108 -0.860742 -3.50123 0.00261091 
1.86996 -5.71367 -1.04245 4.05348 -4.42371 -0.0122966 
2.20886 -5.40312 -1.04841 4.23854 -0.185087 -0.0128539 
1.53106 -6.02423 -1.0365 3.37788 -3.68644 -0.0102501 
1.19215 -6.33478 -1.03054 4.72903 -5.16101 -0.0143508 
0.85325 -6.64534 -1.02459 -0.922428 -4.91409 0.00280175 
1.86082 -5.71367 -4.05812 5.4046 -5.89831 -0.0163962 
2.19972 -5.40312 -4.06407 3.56293 0.552237 -0.0108084 
1.5219 -6.02423 -4.05216 3.37786 -3.68645 -0.0102501 
1.183 -6.33478 -4.04621 3.37789 -3.68643 -0.0102479 
0.8441 -6.64534 -4.04025 0.4905 -4.97585 -0.00148664 
2.19057 -5.40312 -7.07974 2.05323 -0.798974 -2.00603 
1.85166 -5.71367 -7.07378 1.31599 -1.47456 -2.00379 
1.51276 -6.02423 -7.06783 2.63199 -2.94913 -4.00758 
1.17385 -6.33478 -7.06187 1.9916 -2.21183 -2.00584 
0.834949 -6.64534 -7.05592 -0.0968241 -1.41284 -1.9995 
1.74264 -5.56474 1.97561 -4.05345 4.42374 0.0123055 
1.7518 -5.56474 4.99127 -1.29843 1.47455 3.00364 
2.09071 -5.25419 4.98532 -0.596268 2.15015 1.00171 
2.08155 -5.25419 1.96965 0.185172 4.23862 -0.000562474 
1.41289 -5.8753 4.99723 -2.64959 2.94915 3.00774 
1.40374 -5.8753 1.98156 -4.05348 4.4237 0.0123 
1.06484 -6.18585 1.98752 -4.05345 4.42373 0.0122988 
1.07399 -6.18585 5.00318 -1.97405 2.2119 3.00569 
0.72594 -6.4964 1.99348 -4.23864 0.185192 0.0128611 
0.73509 -6.4964 5.00914 -2.11506 -0.613805 2.00622 
1.73349 -5.56474 -1.04006 -4.72903 5.16102 0.0143451 
2.0724 -5.25419 -1.04601 0.860694 3.50135 -0.00261176 
1.39459 -5.8753 -1.0341 -3.3779 3.68642 0.0102469 
1.05569 -6.18585 -1.02814 -4.05345 4.42373 0.0123 
0.71679 -6.4964 -1.02219 -4.17688 1.59803 0.0126771 
2.06325 -5.25419 -4.06168 -0.490489 4.97598 0.00149028 
1.72435 -5.56474 -4.05572 -4.05347 4.42372 0.0122989 
1.38544 -5.8753 -4.04976 -3.37789 3.68643 0.010249 
1.04654 -6.18585 -4.04381 -4.729 5.16105 0.0143506 
0.70763 -6.4964 -4.03785 -3.563 -0.552136 0.0108146 
1.71519 -5.56474 -7.07138 -2.09703 2.2119 -3.99323 
2.0541 -5.25419 -7.07734 0.781357 2.08852 -1.00227 
1.37629 -5.8753 -7.06543 -2.73747 2.94916 -1.99149 
1.03739 -6.18585 -7.05947 -1.42144 1.47461 -3.99528 
0.698479 -6.4964 -7.05352 -2.84325 0.12344 -0.991272 
-2.12179 0.145421 6.34389 3.69068e-007 -1.16206 4.22165 
-2.12179 -1.54103 3.58943 2.28245e-007 -4.26423 2.61082 
-1.6147 -1.54103 3.58943 3 -3.41138 2.08865 
-1.6147 0.145421 6.34389 2 0.0781385 2.29227 
-2.62887 0.145421 6.34389 3.69068e-007 -1.16206 4.22165 
-2.62887 -1.54103 3.58943 3.19542e-007 -5.96992 3.65514 
-3.13595 0.145421 6.34389 3.69068e-007 -1.16206 4.22165 
-3.13595 -1.54103 3.58943 2.73894e-007 -5.11707 3.13298 
-3.64303 0.145421 6.34389 -1 -1.2402 1.92938 
-3.64303 -1.54103 3.58943 -3 -1.70569 1.04433 
-2.12179 -3.22747 0.83497 2.73894e-007 -5.11707 3.13298 
-1.6147 -3.22747 0.83497 3 -2.55853 1.56649 
-2.62887 -3.22747 0.83497 2.28245e-007 -4.26423 2.61082 
-3.13595 -3.22747 0.83497 3.19543e-007 -5.96992 3.65515 
-3.64303 -3.22747 0.83497 -4 -2.55854 1.56649 
-2.12179 -4.91392 -1.91948 3.65193e-007 -6.82276 4.17732 
-1.6147 -4.91392 -1.91948 3 -1.70569 1.04433 
-2.62887 -4.91392 -1.91948 2.28246e-007 -4.26422 2.61083 
-3.13595 -4.91392 -1.91948 2.28245e-007 -4.26422 2.61082 
-3.64303 -4.91392 -1.91948 -3 -3.41138 2.08866 
-2.12179 -6.60037 -4.67394 -6.34458e-008 -2.63675 -0.725735 
-1.6147 -6.60037 -4.67394 1 -2.63675 -0.725735 
-2.62887 -6.60037 -4.67394 -1.26892e-007 -5.2735 -1.45147 
-3.13595 -6.60037 -4.67394 -1.77967e-008 -3.4896 -0.203571 
-3.64303 -6.60037 -4.67394 -1 -1.78391 -1.2479 
-1.6147 0.327701 6.24802 1 2.17118 -0.159276 
-1.6147 -1.35875 3.49356 3 2.55854 -1.56649 
-2.12179 -1.35875 3.49356 -2.73894e-007 5.11707 -3.13298 
-2.12179 0.327701 6.24802 1.40823e-007 3.10217 1.61083 
-2.62887 -1.35875 3.49356 -2.73894e-007 5.11708 -3.13298 
-2.62887 0.327701 6.24802 4.9525e-008 4.80786 0.5665 
-3.13595 -1.35875 3.49356 -2.73894e-007 5.11707 -3.13298 
-3.13595 0.327701 6.24802 9.51737e-008 3.95501 1.08866 
-3.64303 -1.35875 3.49356 -3 2.55854 -1.56649 
-3.64303 0.327701 6.24802 -2 1.78383 1.24794 
-1.6147 -3.04519 0.7391 3 1.70569 -1.04433 
-2.12179 -3.04519 0.7391 -3.19542e-007 5.96992 -3.65514 
-2.62887 -3.04519 0.7391 -2.28245e-007 4.26423 -2.61082 
-3.13595 -3.04519 0.7391 -2.73894e-007 5.11707 -3.13298 
-3.64303 -3.04519 0.7391 -2 3.41138 -2.08865 
-1.6147 -4.73164 -2.01536 3 3.41138 -2.08866 
-2.12179 -4.73164 -2.01536 -2.73895e-007 5.11707 -3.13299 
-2.62887 -4.73164 -2.01536 -2.28245e-007 4.26423 -2.61082 
-3.13595 -4.73164 -2.01536 -3.19543e-007 5.96991 -3.65515 
-3.64303 -4.73164 -2.01536 -3 1.70569 -1.04433 
-1.6147 -6.41809 -4.76982 2 0.387314 -1.4072 
-2.12179 -6.41809 -4.76982 -4.46435e-007 0.696411 -5.10662 
-2.62887 -6.41809 -4.76982 -3.3734e-007 2.48032 -3.85872 
-3.13595 -6.41809 -4.76982 -4.00786e-007 -0.156434 -4.58446 
-3.64303 -6.41809 -4.76982 -2 1.24016 -1.92936 
5.63267 -3.33755 -2.05353 2.65043 -0.355119 -3.257 
5.30213 -3.27468 -2.0177 -1.45208 2.14884 -17.1651 
4.79269 -2.93994 -1.91854 -1.25431 4.67422 -19.7717 
5.68039 -3.1088 -2.01477 2.86146 0.624853 -3.02993 
3.90499 -2.77109 -1.8223 -0.211533 2.04522 -5.53956 
3.01729 -2.60224 -1.72606 -0.211508 2.04519 -5.53958 
2.1296 -2.43338 -1.62983 -0.21152 2.04525 -5.53955 
1.2419 -2.26453 -1.53359 -3.97795 1.4251 -1.42298 
1.24808 -2.32433 -1.3716 -1.8127 -0.991813 3.9048 
2.13578 -2.49319 -1.46784 0.211535 -2.04523 5.53955 
3.02348 -2.66204 -1.56408 0.211495 -2.04522 5.53956 
3.91118 -2.8309 -1.66031 0.211516 -2.04523 5.53955 
4.79887 -2.99975 -1.75655 0.864571 -3.69162 14.4526 
5.32041 -3.27654 -1.84589 1.27794 -1.70979 14.7884 
5.65095 -3.33941 -1.88173 3.27533 -0.418505 2.61837 
5.68657 -3.1686 -1.85279 3.07298 -1.42036 2.50965 
4.84335 -2.73966 -1.80265 0.22737 3.78037 -4.5356 
5.73105 -2.90852 -1.89889 3.08081 1.4622 -2.4757 
3.95565 -2.57081 -1.70641 0.22738 3.78039 -4.53557 
3.06795 -2.40195 -1.61018 0.22738 3.78035 -4.53559 
2.18026 -2.2331 -1.51394 0.22736 3.78037 -4.53559 
1.29256 -2.06425 -1.4177 -2.85344 2.31817 -2.05989 
1.28591 -2.17479 -1.28507 -3.0808 -1.4622 2.47569 
2.17361 -2.34364 -1.38131 -0.227372 -3.78039 4.53557 
3.0613 -2.5125 -1.47755 -0.22738 -3.78037 4.53559 
3.949 -2.68135 -1.57378 -0.22739 -3.78036 4.53561 
4.8367 -2.85021 -1.67002 -0.227356 -3.78038 4.53559 
5.7244 -3.01906 -1.76626 2.85345 -2.31815 2.0599 
4.89084 -2.59201 -1.62362 0.638825 5.05951 -2.98458 
5.77854 -2.76086 -1.71985 3.28205 2.05604 -1.66121 
4.00315 -2.42316 -1.52738 0.638836 5.05951 -2.98459 
3.11545 -2.2543 -1.43114 0.638848 5.05953 -2.98456 
2.22775 -2.08545 -1.33491 0.638819 5.05953 -2.98456 
1.34005 -1.9166 -1.23867 -2.64323 3.00352 -1.32335 
1.32137 -2.06454 -1.1514 -3.28207 -2.05601 1.66121 
2.20907 -2.2334 -1.24763 -0.638834 -5.05951 2.98457 
3.09677 -2.40225 -1.34387 -0.638847 -5.05952 2.98456 
3.98447 -2.57111 -1.44011 -0.638839 -5.0595 2.98458 
4.87216 -2.73996 -1.53634 -0.638816 -5.0595 2.9846 
5.75986 -2.90881 -1.63258 2.64324 -3.00348 1.32336 
4.92944 -2.5148 -1.40303 0.97323 5.72842 -1.07359 
5.81714 -2.68365 -1.49927 3.4409 2.33457 -0.684729 
4.04175 -2.34595 -1.3068 0.973244 5.72841 -1.07357 
3.15405 -2.17709 -1.21056 0.973254 5.72841 -1.07355 
2.26635 -2.00824 -1.11432 0.973226 5.72842 -1.07358 
1.37865 -1.83939 -1.01809 -2.46766 3.39386 -0.388834 
1.35019 -2.00689 -0.98669 -3.44092 -2.33454 0.684717 
2.23789 -2.17575 -1.08293 -0.973255 -5.72841 1.07355 
3.12559 -2.3446 -1.17917 -0.973236 -5.72841 1.0736 
4.01329 -2.51346 -1.2754 -0.973255 -5.72842 1.07361 
4.90099 -2.68231 -1.37164 -0.973228 -5.72842 1.07357 
5.78868 -2.85116 -1.46788 2.46767 -3.39383 0.38882 
4.9545 -2.51734 -1.1675 1.19026 5.70638 0.966931 
5.84219 -2.6862 -1.26374 3.53822 2.26432 0.336059 
4.0668 -2.34849 -1.07127 1.19025 5.70638 0.966909 
3.1791 -2.17964 -0.97503 1.19028 5.70638 0.96695 
2.2914 -2.01078 -0.87879 1.19026 5.70638 0.966932 
1.4037 -1.84193 -0.78256 -2.34796 3.44206 0.630832 
1.3689 -2.00879 -0.81083 -3.53822 -2.2643 -0.336072 
2.2566 -2.17765 -0.90707 -1.19028 -5.70637 -0.966964 
3.14429 -2.3465 -1.0033 -1.19025 -5.70637 -0.966954 
4.03199 -2.51535 -1.09954 -1.19028 -5.70637 -0.966905 
4.91969 -2.68421 -1.19578 -1.19026 -5.70637 -0.966929 
5.80739 -2.85306 -1.29201 2.34795 -3.44205 -0.63088 
4.96297 -2.59933 -0.94543 1.26373 4.99607 2.89081 
5.85067 -2.76819 -1.04167 3.56223 1.85371 1.27802 
4.07528 -2.43048 -0.8492 1.26371 4.99608 2.8908 
3.18758 -2.26163 -0.75296 1.26373 4.99607 2.8908 
2.29988 -2.09277 -0.65672 1.26374 4.99609 2.89078 
1.41218 -1.92392 -0.56049 -2.2985 3.1424 1.61277 
1.37523 -2.07001 -0.64502 -3.56222 -1.85372 -1.27802 
2.26293 -2.23887 -0.74126 -1.26373 -4.99612 -2.89076 
3.15062 -2.40772 -0.83749 -1.26372 -4.99609 -2.89079 
4.03832 -2.57657 -0.93373 -1.26373 -4.99609 -2.89079 
4.92602 -2.74543 -1.02997 -1.26374 -4.9961 -2.89078 
5.81372 -2.91428 -1.1262 2.2985 -3.1424 -1.61279 
4.95386 -2.75088 -0.76361 1.18476 3.68313 4.46601 
5.84156 -2.91973 -0.859851 3.51003 1.15222 2.02747 
4.06616 -2.58203 -0.66737 1.18475 3.68315 4.466 
3.17846 -2.41317 -0.57114 1.18476 3.68318 4.46598 
2.29076 -2.24432 -0.4749 1.18477 3.68315 4.466 
1.40307 -2.07546 -0.37866 -2.32527 2.53094 2.43853 
1.36842 -2.18317 -0.50926 -3.51003 -1.15226 -2.02746 
2.25612 -2.35202 -0.60549 -1.18476 -3.68316 -4.46597 
3.14382 -2.52087 -0.70173 -1.18476 -3.68319 -4.46595 
4.03152 -2.68973 -0.79797 -1.18476 -3.68317 -4.46598 
4.91922 -2.85858 -0.8942 -1.18476 -3.68314 -4.46599 
5.80691 -3.02744 -0.990441 2.32527 -2.53093 -2.43854 
4.92825 -2.95371 -0.64397 0.962883 1.92602 5.50254 
5.81595 -3.12256 -0.740201 4.34513 1.36701 9.3523 
4.04055 -2.78485 -0.54773 0.962906 1.92601 5.50254 
3.15285 -2.616 -0.45149 0.962884 1.926 5.50253 
2.26516 -2.44714 -0.35526 0.9629 1.926 5.50253 
1.37746 -2.27829 -0.25902 -1.31177 1.65565 3.88019 
1.3493 -2.33461 -0.41992 -4.2284 0.101268 -1.41051 
2.237 -2.50346 -0.51616 -0.962896 -1.92605 -5.50252 
3.1247 -2.67232 -0.6124 -0.96291 -1.92603 -5.50254 
4.0124 -2.84117 -0.70863 -0.962888 -1.92598 -5.50254 
4.90009 -3.01003 -0.80487 -2.47545 -3.7002 -16.342 
5.78779 -3.17888 -0.90111 2.42507 -1.68139 -3.00847 
5.44639 -3.28932 -0.66133 1.58207 1.05904 12.7336 
5.77693 -3.3522 -0.69717 4.16795 0.36266 9.47979 
5.75866 -3.35034 -0.86897 2.58587 -0.696364 -3.25383 
5.42812 -3.28747 -0.83314 -1.72814 -1.23074 -13.7819 
5.39868 -3.51808 -0.70009 0.211521 -2.04524 5.53955 
5.72922 -3.58096 -0.735931 2.99973 -1.7397 2.39448 
5.72303 -3.52115 -0.89791 2.78825 0.305514 -3.14508 
5.39249 -3.45827 -0.86208 -0.21147 2.04521 -5.53957 
5.34802 -3.71836 -0.81598 -0.227412 -3.78037 4.53559 
5.67856 -3.78124 -0.85181 2.78033 -2.57711 1.84027 
5.68521 -3.67069 -0.984441 3.00777 1.20324 -2.69532 
5.35467 -3.60782 -0.94861 0.227416 3.78037 -4.53558 
5.30052 -3.86601 -0.99501 -0.638877 -5.05951 2.98457 
5.63106 -3.92889 -1.03085 2.57907 -3.17091 1.0258 
5.64974 -3.78094 -1.11812 3.218 1.88862 -1.95874 
5.3192 -3.71806 -1.08229 0.638889 5.05953 -2.98455 
5.26192 -3.94322 -1.2156 -0.973276 -5.72841 1.07359 
5.59246 -4.0061 -1.25143 2.42025 -3.44945 0.0493086 
5.62092 -3.83859 -1.28282 3.39355 2.27893 -1.02427 
5.29038 -3.77571 -1.24699 0.973262 5.72841 -1.07365 
5.23687 -3.94068 -1.45113 -1.19027 -5.70638 -0.966933 
5.56741 -4.00355 -1.48696 2.32298 -3.37925 -0.971496 
5.60222 -3.83669 -1.45869 3.51322 2.32712 -0.00460713 
5.27168 -3.77382 -1.42285 1.19025 5.70637 0.966852 
5.22839 -3.85869 -1.6732 -1.2637 -4.99607 -2.89082 
5.55893 -3.92156 -1.70903 2.29896 -2.96864 -1.91348 
5.59589 -3.77547 -1.6245 3.56267 2.02745 0.977356 
5.26535 -3.7126 -1.58866 1.26374 4.99606 2.89083 
5.23751 -3.70714 -1.85502 -1.18474 -3.68314 -4.46602 
5.56805 -3.77002 -1.89085 2.35113 -2.26713 -2.6629 
5.60269 -3.66232 -1.76026 3.53593 1.41607 1.80311 
5.27215 -3.59944 -1.72442 1.18477 3.68316 4.466 
5.26312 -3.50432 -1.97466 -0.962893 -1.92604 -5.50252 
5.59366 -3.56719 -2.0105 2.4732 -1.35944 -3.12948 
5.62181 -3.51087 -1.84959 3.43609 0.566527 2.37302 
5.29127 -3.448 -1.81376 0.962893 1.92604 5.5025 
4.74497 -3.1687 -1.9573 -1.31566 2.30884 -16.1874 
4.76325 -3.17055 -1.78549 1.00507 -2.02991 12.8331 
4.88923 -3.18334 -0.60093 0.481162 0.298989 3.91373 
4.87096 -3.18149 -0.77274 -1.65629 -1.41187 -12.8011 
3.85728 -2.99985 -1.86106 -0.215621 0.543533 -2.94246 
2.96958 -2.83099 -1.76482 -0.215607 0.543537 -2.94246 
2.08188 -2.66214 -1.66859 -0.215596 0.543539 -2.94246 
1.19418 -2.49328 -1.57235 -1.1206 0.548201 -1.85576 
1.21245 -2.49514 -1.40054 -1.88185 0.190498 1.19258 
2.10015 -2.66399 -1.49678 0.215619 -0.543528 2.94246 
2.98785 -2.83285 -1.59302 0.215609 -0.543526 2.94246 
3.87555 -3.0017 -1.68925 0.215599 -0.543527 2.94246 
4.00154 -3.01449 -0.50469 0.409288 0.480128 2.93291 
3.11384 -2.84564 -0.40846 0.409281 0.480102 2.93292 
2.22614 -2.67678 -0.31222 0.409295 0.480132 2.93291 
1.33844 -2.50793 -0.21598 -1.81729 0.531696 1.18945 
1.32017 -2.50607 -0.38779 -1.24972 -0.134268 -1.84937 
2.20787 -2.67493 -0.48402 -0.409304 -0.480188 -2.9329 
3.09557 -2.84378 -0.58026 -0.409295 -0.480154 -2.9329 
3.98326 -3.01264 -0.6765 -0.409286 -0.480069 -2.93292 
4.84152 -3.4121 -0.63969 0.142361 -0.862925 2.82733 
4.83533 -3.35229 -0.80168 -0.0691362 1.18229 -2.71223 
4.79086 -3.61238 -0.75558 -0.0771702 -1.76071 2.37755 
4.79751 -3.50184 -0.88821 0.150222 2.01969 -2.15801 
4.74336 -3.76003 -0.93461 -0.287374 -2.44606 1.64103 
4.76205 -3.61208 -1.02188 0.351461 2.61346 -1.34354 
4.70476 -3.83724 -1.15519 -0.462926 -2.83642 0.706559 
4.73322 -3.66973 -1.18659 0.510302 2.892 -0.367106 
4.67971 -3.8347 -1.39072 -0.582654 -2.88465 -0.313121 
4.71452 -3.66784 -1.36245 0.607605 2.82172 0.653757 
4.67123 -3.75271 -1.61279 -0.632108 -2.58495 -1.29508 
4.70819 -3.60662 -1.52826 0.631617 2.41109 1.59576 
4.68035 -3.60116 -1.79462 -0.605303 -1.97346 -2.12081 
4.71499 -3.49346 -1.66402 0.579453 1.70973 2.34519 
4.70596 -3.39834 -1.91426 -0.505489 -1.12397 -2.69072 
4.73412 -3.34202 -1.75336 0.457382 0.80202 2.81181 
3 0 1 2 
3 0 2 3 
3 4 5 1 
3 4 1 0 
3 6 7 5 
3 6 5 4 
3 8 9 7 
3 8 7 6 
3 10 11 9 
3 10 9 8 
3 12 0 3 
3 12 3 13 
3 14 4 0 
3 14 0 12 
3 15 6 4 
3 15 4 14 
3 16 8 6 
3 16 6 15 
3 16 17 10 
3 16 10 8 
3 18 12 13 
3 18 13 19 
3 20 14 12 
3 20 12 18 
3 21 15 14 
3 21 14 20 
3 22 16 15 
3 22 15 21 
3 22 23 17 
3 22 17 16 
3 24 18 19 
3 24 19 25 
3 26 20 18 
3 26 18 24 
3 27 21 20 
3 27 20 26 
3 28 22 21 
3 28 21 27 
3 29 23 22 
3 29 22 28 
3 30 31 24 
3 30 24 25 
3 32 26 24 
3 32 24 31 
3 33 27 26 
3 33 26 32 
3 34 28 27 
3 34 27 33 
3 28 34 35 
3 28 35 29 
3 36 37 38 
3 36 38 39 
3 40 36 39 
3 40 39 41 
3 42 40 41 
3 42 41 43 
3 44 45 37 
3 44 37 36 
3 46 44 36 
3 46 36 40 
3 42 47 46 
3 42 46 40 
3 48 49 45 
3 48 45 44 
3 50 48 44 
3 50 44 46 
3 47 51 50 
3 47 50 46 
3 52 53 49 
3 52 49 48 
3 54 55 50 
3 54 50 51 
3 53 52 56 
3 53 56 57 
3 58 56 52 
3 58 52 55 
3 55 54 59 
3 55 59 58 
3 23 60 61 
3 23 61 17 
3 62 60 23 
3 62 23 29 
3 35 63 62 
3 35 62 29 
3 64 65 61 
3 64 61 60 
3 66 64 60 
3 66 60 62 
3 67 66 62 
3 67 62 63 
3 65 64 51 
3 65 51 47 
3 54 51 64 
3 54 64 66 
3 66 67 59 
3 66 59 54 
3 35 34 68 
3 35 68 63 
3 69 68 34 
3 69 34 33 
3 70 69 33 
3 70 33 32 
3 71 70 32 
3 71 32 31 
3 30 72 71 
3 30 71 31 
3 73 67 63 
3 73 63 68 
3 74 73 68 
3 74 68 69 
3 75 74 69 
3 75 69 70 
3 76 75 70 
3 76 70 71 
3 77 76 71 
3 77 71 72 
3 73 58 59 
3 73 59 67 
3 56 58 73 
3 56 73 74 
3 74 75 57 
3 74 57 56 
3 75 76 78 
3 75 78 57 
3 79 78 76 
3 79 76 77 
3 30 25 80 
3 30 80 72 
3 81 80 25 
3 81 25 19 
3 82 81 19 
3 82 19 13 
3 83 82 13 
3 83 13 3 
3 84 83 3 
3 84 3 2 
3 85 77 72 
3 85 72 80 
3 86 87 81 
3 86 81 82 
3 88 89 83 
3 88 83 84 
3 90 79 77 
3 90 77 85 
3 91 90 85 
3 91 85 87 
3 92 91 87 
3 92 87 86 
3 93 92 86 
3 93 86 89 
3 94 93 89 
3 94 89 88 
3 95 96 97 
3 95 97 98 
3 96 99 100 
3 96 100 97 
3 99 101 102 
3 99 102 100 
3 101 103 104 
3 101 104 102 
3 103 105 106 
3 103 106 104 
3 98 97 107 
3 98 107 108 
3 109 107 97 
3 109 97 100 
3 110 109 100 
3 110 100 102 
3 102 104 111 
3 102 111 110 
3 104 106 112 
3 104 112 111 
3 108 107 113 
3 108 113 114 
3 107 109 115 
3 107 115 113 
3 109 110 116 
3 109 116 115 
3 110 111 117 
3 110 117 116 
3 111 112 118 
3 111 118 117 
3 114 113 119 
3 114 119 120 
3 113 115 121 
3 113 121 119 
3 115 116 122 
3 115 122 121 
3 116 117 123 
3 116 123 122 
3 117 118 124 
3 117 124 123 
3 120 119 125 
3 120 125 126 
3 119 121 127 
3 119 127 125 
3 121 122 128 
3 121 128 127 
3 122 123 129 
3 122 129 128 
3 123 124 130 
3 123 130 129 
3 131 132 133 
3 131 133 134 
3 134 133 135 
3 134 135 136 
3 136 135 137 
3 136 137 138 
3 132 139 140 
3 132 140 133 
3 133 140 141 
3 133 141 135 
3 135 141 142 
3 135 142 137 
3 139 143 144 
3 139 144 140 
3 140 144 145 
3 140 145 141 
3 141 145 146 
3 141 146 142 
3 143 147 148 
3 143 148 144 
3 145 149 150 
3 145 150 146 
3 147 151 152 
3 147 152 148 
3 148 152 153 
3 148 153 149 
3 149 153 154 
3 149 154 150 
3 112 155 156 
3 112 156 118 
3 118 156 157 
3 118 157 124 
3 124 157 158 
3 124 158 130 
3 155 159 160 
3 155 160 156 
3 156 160 161 
3 156 161 157 
3 157 161 162 
3 157 162 158 
3 159 142 146 
3 159 146 160 
3 160 146 150 
3 160 150 161 
3 161 150 154 
3 161 154 162 
3 130 158 163 
3 130 163 129 
3 129 163 164 
3 129 164 128 
3 128 164 165 
3 128 165 127 
3 127 165 166 
3 127 166 125 
3 125 166 167 
3 125 167 126 
3 158 162 168 
3 158 168 163 
3 163 168 169 
3 163 169 164 
3 164 169 170 
3 164 170 165 
3 165 170 171 
3 165 171 166 
3 166 171 172 
3 166 172 167 
3 162 154 153 
3 162 153 168 
3 168 153 152 
3 168 152 169 
3 169 152 151 
3 169 151 170 
3 170 151 173 
3 170 173 171 
3 171 173 174 
3 171 174 172 
3 126 167 175 
3 126 175 120 
3 120 175 176 
3 120 176 114 
3 114 176 177 
3 114 177 108 
3 178 98 108 
3 178 108 177 
3 98 178 179 
3 98 179 95 
3 167 172 180 
3 167 180 175 
3 176 181 182 
3 176 182 177 
3 178 183 184 
3 178 184 179 
3 172 174 185 
3 172 185 180 
3 180 185 186 
3 180 186 181 
3 181 186 187 
3 181 187 182 
3 182 187 188 
3 182 188 183 
3 183 188 189 
3 183 189 184 
3 1 96 95 
3 1 95 2 
3 99 96 1 
3 99 1 5 
3 7 101 99 
3 7 99 5 
3 103 101 7 
3 103 7 9 
3 106 105 11 
3 106 11 10 
3 105 103 9 
3 105 9 11 
3 112 106 10 
3 112 10 17 
3 131 134 39 
3 131 39 38 
3 132 131 38 
3 132 38 37 
3 134 136 41 
3 134 41 39 
3 136 138 43 
3 136 43 41 
3 138 137 42 
3 138 42 43 
3 139 132 37 
3 139 37 45 
3 137 142 47 
3 137 47 42 
3 143 139 45 
3 143 45 49 
3 147 143 49 
3 147 49 53 
3 53 57 151 
3 53 151 147 
3 61 155 112 
3 61 112 17 
3 159 155 61 
3 159 61 65 
3 65 47 142 
3 65 142 159 
3 173 151 57 
3 173 57 78 
3 78 79 174 
3 78 174 173 
3 176 175 80 
3 176 80 81 
3 178 177 82 
3 178 82 83 
3 2 95 179 
3 2 179 84 
3 175 180 85 
3 175 85 80 
3 177 182 86 
3 177 86 82 
3 181 176 81 
3 181 81 87 
3 179 184 88 
3 179 88 84 
3 183 178 83 
3 183 83 89 
3 90 185 174 
3 90 174 79 
3 180 181 87 
3 180 87 85 
3 186 185 90 
3 186 90 91 
3 187 186 91 
3 187 91 92 
3 182 183 89 
3 182 89 86 
3 188 187 92 
3 188 92 93 
3 184 189 94 
3 184 94 88 
3 189 188 93 
3 189 93 94 
3 190 191 192 
3 190 192 193 
3 193 192 194 
3 193 194 195 
3 195 194 196 
3 195 196 197 
3 197 196 198 
3 197 198 199 
3 200 201 190 
3 200 190 193 
3 195 202 200 
3 195 200 193 
3 203 202 195 
3 203 195 197 
3 204 203 197 
3 204 197 199 
3 205 206 201 
3 205 201 200 
3 202 207 205 
3 202 205 200 
3 207 202 203 
3 207 203 208 
3 209 208 203 
3 209 203 204 
3 210 206 205 
3 210 205 211 
3 212 211 205 
3 212 205 207 
3 208 213 212 
3 208 212 207 
3 213 208 209 
3 213 209 214 
3 215 216 217 
3 215 217 218 
3 219 216 215 
3 219 215 220 
3 221 222 219 
3 221 219 220 
3 223 224 222 
3 223 222 221 
3 225 215 218 
3 225 218 226 
3 220 215 225 
3 220 225 227 
3 220 227 228 
3 220 228 221 
3 221 228 229 
3 221 229 223 
3 225 226 230 
3 225 230 231 
3 231 232 227 
3 231 227 225 
3 228 227 232 
3 228 232 233 
3 229 228 233 
3 229 233 234 
3 235 231 230 
3 235 230 236 
3 231 235 237 
3 231 237 232 
3 233 232 237 
3 233 237 238 
3 233 238 239 
3 233 239 234 
3 216 192 191 
3 216 191 217 
3 191 190 218 
3 191 218 217 
3 192 216 219 
3 192 219 194 
3 222 196 194 
3 222 194 219 
3 224 198 196 
3 224 196 222 
3 199 198 224 
3 199 224 223 
3 226 218 190 
3 226 190 201 
3 204 199 223 
3 204 223 229 
3 230 226 201 
3 230 201 206 
3 234 209 204 
3 234 204 229 
3 235 236 210 
3 235 210 211 
3 236 230 206 
3 236 206 210 
3 235 211 212 
3 235 212 237 
3 212 213 238 
3 212 238 237 
3 239 214 209 
3 239 209 234 
3 214 239 238 
3 214 238 213 
3 240 241 242 
3 240 242 243 
3 244 245 241 
3 244 241 240 
3 246 247 245 
3 246 245 244 
3 248 249 247 
3 248 247 246 
3 242 241 250 
3 242 250 251 
3 250 241 245 
3 250 245 252 
3 245 247 253 
3 245 253 252 
3 247 249 254 
3 247 254 253 
3 251 250 255 
3 251 255 256 
3 255 250 252 
3 255 252 257 
3 253 258 257 
3 253 257 252 
3 253 254 259 
3 253 259 258 
3 255 260 261 
3 255 261 256 
3 255 257 262 
3 255 262 260 
3 262 257 258 
3 262 258 263 
3 259 264 263 
3 259 263 258 
3 265 266 267 
3 265 267 268 
3 267 269 270 
3 267 270 268 
3 270 269 271 
3 270 271 272 
3 272 271 273 
3 272 273 274 
3 266 275 276 
3 266 276 267 
3 276 277 269 
3 276 269 267 
3 278 271 269 
3 278 269 277 
3 279 273 271 
3 279 271 278 
3 280 281 276 
3 280 276 275 
3 277 276 281 
3 277 281 282 
3 282 283 278 
3 282 278 277 
3 283 284 279 
3 283 279 278 
3 280 285 286 
3 280 286 281 
3 287 282 281 
3 287 281 286 
3 287 288 283 
3 287 283 282 
3 289 284 283 
3 289 283 288 
3 243 265 268 
3 243 268 240 
3 266 265 243 
3 266 243 242 
3 270 244 240 
3 270 240 268 
3 244 270 272 
3 244 272 246 
3 246 272 274 
3 246 274 248 
3 274 273 249 
3 274 249 248 
3 242 251 275 
3 242 275 266 
3 273 279 254 
3 273 254 249 
3 251 256 280 
3 251 280 275 
3 254 279 284 
3 254 284 259 
3 261 260 286 
3 261 286 285 
3 256 261 285 
3 256 285 280 
3 262 287 286 
3 262 286 260 
3 288 287 262 
3 288 262 263 
3 259 284 289 
3 259 289 264 
3 288 263 264 
3 288 264 289 
3 290 291 292 
3 290 292 293 
3 303 304 305 
3 303 305 302 
3 304 290 293 
3 304 293 305 
3 293 292 306 
3 293 306 307 
3 292 294 308 
3 292 308 306 
3 294 295 309 
3 294 309 308 
3 295 296 310 
3 295 310 309 
3 296 297 311 
3 296 311 310 
3 297 298 312 
3 297 312 311 
3 298 299 313 
3 298 313 312 
3 299 300 314 
3 299 314 313 
3 300 301 315 
3 300 315 314 
3 301 302 316 
3 301 316 315 
3 302 305 317 
3 302 317 316 
3 305 293 307 
3 305 307 317 
3 307 306 318 
3 307 318 319 
3 306 308 320 
3 306 320 318 
3 308 309 321 
3 308 321 320 
3 309 310 322 
3 309 322 321 
3 310 311 323 
3 310 323 322 
3 311 312 324 
3 311 324 323 
3 312 313 325 
3 312 325 324 
3 313 314 326 
3 313 326 325 
3 314 315 327 
3 314 327 326 
3 315 316 328 
3 315 328 327 
3 316 317 329 
3 316 329 328 
3 317 307 319 
3 317 319 329 
3 319 318 330 
3 319 330 331 
3 318 320 332 
3 318 332 330 
3 320 321 333 
3 320 333 332 
3 321 322 334 
3 321 334 333 
3 322 323 335 
3 322 335 334 
3 323 324 336 
3 323 336 335 
3 324 325 337 
3 324 337 336 
3 325 326 338 
3 325 338 337 
3 326 327 339 
3 326 339 338 
3 327 328 340 
3 327 340 339 
3 328 329 341 
3 328 341 340 
3 329 319 331 
3 329 331 341 
3 331 330 342 
3 331 342 343 
3 330 332 344 
3 330 344 342 
3 332 333 345 
3 332 345 344 
3 333 334 346 
3 333 346 345 
3 334 335 347 
3 334 347 346 
3 335 336 348 
3 335 348 347 
3 336 337 349 
3 336 349 348 
3 337 338 350 
3 337 350 349 
3 338 339 351 
3 338 351 350 
3 339 340 352 
3 339 352 351 
3 340 341 353 
3 340 353 352 
3 341 331 343 
3 341 343 353 
3 343 342 354 
3 343 354 355 
3 342 344 356 
3 342 356 354 
3 344 345 357 
3 344 357 356 
3 345 346 358 
3 345 358 357 
3 346 347 359 
3 346 359 358 
3 347 348 360 
3 347 360 359 
3 348 349 361 
3 348 361 360 
3 349 350 362 
3 349 362 361 
3 350 351 363 
3 350 363 362 
3 351 352 364 
3 351 364 363 
3 352 353 365 
3 352 365 364 
3 353 343 355 
3 353 355 365 
3 355 354 366 
3 355 366 367 
3 354 356 368 
3 354 368 366 
3 356 357 369 
3 356 369 368 
3 357 358 370 
3 357 370 369 
3 358 359 371 
3 358 371 370 
3 359 360 372 
3 359 372 371 
3 360 361 373 
3 360 373 372 
3 361 362 374 
3 361 374 373 
3 362 363 375 
3 362 375 374 
3 363 364 376 
3 363 376 375 
3 364 365 377 
3 364 377 376 
3 365 355 367 
3 365 367 377 
3 367 366 378 
3 367 378 379 
3 366 368 380 
3 366 380 378 
3 368 369 381 
3 368 381 380 
3 369 370 382 
3 369 382 381 
3 370 371 383 
3 370 383 382 
3 371 372 384 
3 371 384 383 
3 372 373 385 
3 372 385 384 
3 373 374 386 
3 373 386 385 
3 374 375 387 
3 374 387 386 
3 375 376 388 
3 375 388 387 
3 376 377 389 
3 376 389 388 
3 377 367 379 
3 377 379 389 
3 378 390 379 
3 379 390 391 
3 388 389 392 
3 392 393 388 
3 389 379 391 
3 389 391 392 
3 391 390 394 
3 391 394 395 
3 393 392 396 
3 393 396 397 
3 392 391 395 
3 392 395 396 
3 395 394 398 
3 395 398 399 
3 397 396 400 
3 397 400 401 
3 396 395 399 
3 396 399 400 
3 399 398 402 
3 399 402 403 
3 401 400 404 
3 401 404 405 
3 400 399 403 
3 400 403 404 
3 403 402 406 
3 403 406 407 
3 405 404 408 
3 405 408 409 
3 404 403 407 
3 404 407 408 
3 407 406 410 
3 407 410 411 
3 409 408 412 
3 409 412 413 
3 408 407 411 
3 408 411 412 
3 411 410 414 
3 411 414 415 
3 413 412 416 
3 413 416 417 
3 412 411 415 
3 412 415 416 
3 415 414 418 
3 415 418 419 
3 417 416 420 
3 417 420 421 
3 416 415 419 
3 416 419 420 
3 419 418 422 
3 419 422 423 
3 421 420 424 
3 421 424 425 
3 420 419 423 
3 420 423 424 
3 423 422 291 
3 423 291 290 
3 425 424 304 
3 425 304 303 
3 424 423 290 
3 424 290 304 
3 292 291 426 
3 303 302 427 
3 390 378 428 
3 388 393 429 
3 292 426 430 
3 292 430 294 
3 294 430 431 
3 294 431 295 
3 295 431 432 
3 295 432 296 
3 296 432 433 
3 296 433 297 
3 297 433 434 
3 297 434 298 
3 298 434 435 
3 298 435 299 
3 299 435 436 
3 299 436 300 
3 300 436 437 
3 300 437 301 
3 301 437 427 
3 301 427 302 
3 380 438 428 
3 380 428 378 
3 381 439 438 
3 381 438 380 
3 382 440 439 
3 382 439 381 
3 383 441 440 
3 383 440 382 
3 384 442 441 
3 384 441 383 
3 385 443 442 
3 385 442 384 
3 386 444 443 
3 386 443 385 
3 387 445 444 
3 387 444 386 
3 388 429 445 
3 388 445 387 
3 390 428 446 
3 390 446 394 
3 397 447 429 
3 397 429 393 
3 394 446 448 
3 394 448 398 
3 401 449 447 
3 401 447 397 
3 398 448 450 
3 398 450 402 
3 405 451 449 
3 405 449 401 
3 402 450 452 
3 402 452 406 
3 409 453 451 
3 409 451 405 
3 406 452 454 
3 406 454 410 
3 413 455 453 
3 413 453 409 
3 410 454 456 
3 410 456 414 
3 417 457 455 
3 417 455 413 
3 414 456 458 
3 414 458 418 
3 421 459 457 
3 421 457 417 
3 418 458 460 
3 418 460 422 
3 425 461 459 
3 425 459 421 
3 422 460 426 
3 422 426 291 
3 303 427 461 
3 303 461 425 
