ply
format ascii 1.0
comment VCGLIB generated
element vertex 240
property float x
property float y
property float z
property float nx
property float ny
property float nz
element face 480
property list uchar int vertex_indices
end_header
-2.33284 -0.3 6.16847 -0.087528 -2.99808 3 
-4.33873 -0.21213 6.16847 -2.04233 -1.07487 2 
-4.33873 -0.21213 3.73635 -3.12913 -3.11087 0 
-2.33284 -0.3 3.73635 -0.131292 -5.99713 0 
-0.53909 -0.3 6.16847 0 -3 3 
-0.53909 -0.3 3.73635 0 -6 0 
1.25467 -0.3 6.16847 0 -3 3 
1.25467 -0.3 3.73635 0 -6 0 
3.04842 -0.3 6.16847 0 -3 3 
3.04842 -0.3 3.73635 0.00850912 -5.99994 -0.00627573 
4.84218 -0.3 6.16847 1 -2 2 
4.84218 -0.3 3.73635 2.9899 -2.77023 0.0148329 
-4.33873 -0.21213 1.30423 -3.12913 -3.11087 0 
-2.33284 -0.3 1.30423 -0.131292 -5.99713 0 
-0.53909 -0.3 1.30423 0 -6 0 
1.25467 -0.3 1.30423 0 -6 0 
3.04842 -0.3 1.30423 0.0473902 -5.99937 -0.0236123 
4.97634 -0.26833 1.30423 3.01345 -2.59362 1.04175 
-4.33873 -0.21213 -1.12789 -3.12913 -3.11087 0 
-2.33284 -0.3 -1.12789 -0.131292 -5.99713 0 
-0.53909 -0.3 -1.12789 0 -6 0 
1.25467 -0.3 -1.12789 0 -6 0 
3.04842 -0.3 -1.12789 0.104508 -5.998 -0.0221217 
5.05431 -0.21213 -1.12789 3.11402 -3.14355 0.0196983 
-4.33873 -0.21213 -3.56001 -2.11825 -3.06298 -0.048715 
-2.33284 -0.3 -3.56001 -0.108018 -5.99686 -0.0819544 
-0.53909 -0.3 -3.56001 0 -5.99834 -0.0996368 
1.25467 -0.3 -3.56001 0 -5.99834 -0.0996368 
3.04842 -0.3 -3.56001 0.151782 -6.99535 -0.115167 
5.05431 -0.21213 -3.56001 3.07377 -2.10186 -0.048715 
-4.2998 -0.17321 -6.16533 -2.12721 -2.10968 -2.09562 
-2.33284 -0.21213 -6.20426 -0.0642875 -3.10177 -3.08845 
-0.53909 -0.21213 -6.20426 0 -3.11209 -3.09748 
1.25467 -0.21213 -6.20426 0 -3.11209 -3.09748 
3.04842 -0.21213 -6.20426 0.0642875 -2.06441 -2.05596 
5.01538 -0.17321 -6.16533 2.12721 -2.10968 -2.09562 
-0.53909 6.61106 3.73635 -3 3 0 
-0.53909 6.61106 6.16847 -1 1 2 
1.25467 6.61106 6.16847 0 3 3 
1.25467 6.61106 3.73635 0 6 0 
3.04842 6.61106 6.16847 0 3 3 
3.04842 6.61106 3.73635 0.00851189 5.99994 -0.00627777 
4.84218 6.61106 6.16847 2 2 1 
4.84218 6.61106 3.73635 2.9628 2.54057 0.0422151 
-0.53909 6.61106 1.30423 -3 3 0 
1.25467 6.61106 1.30423 0 6 0 
3.04842 6.61106 1.30423 0.0473984 5.99937 -0.0236142 
4.97634 6.57938 1.30423 2.04057 2.82328 1.01437 
-0.53909 6.61106 -1.12789 -3 3 0 
1.25467 6.61106 -1.12789 0 6 0 
3.04842 6.61106 -1.12789 0.104513 5.998 -0.0221174 
5.05431 6.52319 -1.12789 4.11331 3.18146 0.0197006 
-0.53909 6.61106 -3.56001 -4.04192 3.99731 -0.0948114 
1.25467 6.61106 -3.56001 -0.0209619 4.9981 -0.080618 
3.04842 6.61106 -3.56001 0.151787 6.99535 -0.115171 
5.05431 6.52319 -3.56001 2.07449 2.06394 -0.048717 
1.25467 6.52319 -6.20426 -0.0268358 4.06036 -2.16006 
-0.53909 6.44522 -6.26046 -1.01935 2.03101 -2.81683 
3.04842 6.52319 -6.20426 0.0642903 2.10232 -3.05524 
5.01538 6.48426 -6.16533 2.12721 2.10968 -2.09562 
5.14218 2.10369 1.30423 2.99684 -0.108071 3.03076 
5.14218 2.10369 -1.12789 5.99698 -0.129868 0.0153795 
5.14218 2.10369 -3.56001 5.99736 -0.0935088 -0.0819001 
5.05431 2.10369 -6.20426 3.07414 -0.0556528 -2.0889 
5.14218 4.20737 1.30423 3.99684 0.108071 4.03076 
5.14218 4.20737 -1.12789 4.9977 0.0919516 0.0153797 
5.14218 4.20737 -3.56001 6.99609 0.131425 -0.115112 
5.05431 4.20737 -6.20426 2.11845 0.0556529 -3.05473 
3.04842 2.10369 -6.29213 0.151849 -0.131545 -6.99483 
1.25467 2.10369 -6.29213 0 -0.113748 -5.99784 
-0.53909 2.10369 -6.29213 0 -0.113748 -5.99784 
-2.33284 2.10369 -6.29213 -0.108085 -0.093629 -5.99651 
-4.33873 2.10369 -6.20426 -2.11845 -0.0556528 -3.05473 
3.04842 4.20737 -6.29213 0.108085 0.0936291 -5.99651 
1.25467 4.20737 -6.29213 0.0301759 0.128311 -6.99765 
-0.53909 4.20737 -6.29213 0.032197 0.0408277 -5.99941 
-2.33284 4.20737 -6.29213 -0.122738 0.00729418 -4.99706 
-4.33873 4.20737 -6.20426 -3.12964 0 -3.09676 
-2.33284 6.31106 -6.29213 -0.144651 3.95974 -3.53876 
-4.33873 6.31106 -6.20426 -2.04266 2 -1.06547 
-4.4266 2.10369 -3.56001 -5.99609 0.868575 1.88489 
-4.4266 2.10369 -1.12789 -3.99784 1.88625 -1 
-4.4266 2.10369 1.30423 -4.99784 0.886252 2 
-4.4266 2.10369 3.73635 -3.99784 1.88625 -1 
-4.4266 2.10369 6.16847 -2.99928 -0.0379161 4 
-4.4266 4.20737 -3.56001 -3.99834 -2 0.900363 
-4.4266 4.20737 -1.12789 -5 -1 -2 
-4.4266 4.20737 1.30423 -4 -2 1 
-4.4266 4.20737 3.73635 -5 -1 -2 
-4.4266 4.20737 6.16847 -3 0 3 
-4.4266 6.31106 -3.56001 -2.99945 3 -0.0332123 
-4.4266 6.31106 -1.12789 -3 3 0 
-4.4266 6.31106 1.30423 -3 3 0 
-4.4266 6.31106 3.73635 -3 3 0 
-4.4266 6.31106 6.16847 -1 2 1 
-2.33284 0.01 6.16847 -0.0032798 3 3 
-2.33284 0.01 3.73635 -0.00491971 6 0 
-4.11953 0.00707 3.73635 2.99508 2.9958 0 
-4.11953 0.00707 6.16847 1.99836 0.997204 4 
-0.53909 0.01 6.16847 0 3 3 
-0.53909 0.01 3.73635 0 6 0 
1.25467 0.01 6.16847 0 3 3 
1.25467 0.01 3.73635 0 6 0 
3.04842 0.01 6.16847 0 3 3 
3.04842 0.01 3.73635 0.000295837 6 -0.000218189 
4.84218 0.01 6.16847 2 2 1 
4.84218 0.01 3.73635 2.94636 3.45932 0.0543323 
-2.33284 0.01 1.30423 -0.00491971 6 0 
-4.11953 0.00707 1.30423 2.99508 2.9958 0 
-0.53909 0.01 1.30423 0 6 0 
1.25467 0.01 1.30423 0 6 0 
3.04842 0.01 1.30423 0.00170745 6 -0.000821412 
4.83771 0.00894 1.30423 -0.0245843 3.22764 2.02693 
-2.33284 0.01 -1.12789 -0.00491971 6 0 
-4.11953 0.00707 -1.12789 2.99508 2.9958 0 
-0.53909 0.01 -1.12789 0 6 0 
1.25467 0.01 -1.12789 0 6 0 
3.04842 0.01 -1.12789 0.00387146 6 -0.000770069 
4.83511 0.00707 -1.12789 -2.9956 2.99456 0.000685581 
-2.33284 0.01 -3.56001 -0.00400592 6 -0.00295142 
-4.11953 0.00707 -3.56001 2.99553 2.99659 -0.00261069 
-0.53909 0.01 -3.56001 0 6 -0.00362467 
1.25467 0.01 -3.56001 0 6 -0.00362467 
3.04842 0.01 -3.56001 0.00446281 5.99999 -0.00328804 
4.83511 0.00707 -3.56001 -2.99599 2.9962 -0.00261275 
-2.33284 0.00707 -5.98506 -0.00236312 2.9962 2.99671 
-4.12082 0.00577 -5.98635 0.995273 1.99698 1.99738 
-0.53909 0.00707 -5.98506 0 2.9958 2.99637 
1.25467 0.00707 -5.98506 0 2.9958 2.99637 
3.04842 0.00707 -5.98506 0.00472624 2.99659 2.99705 
4.8364 0.00577 -5.98635 -1.99764 0.996982 0.997388 
-0.53909 6.30106 3.73635 -3 -3 0 
1.25467 6.30106 3.73635 0 -6 0 
1.25467 6.30106 6.16847 0 -3 3 
-0.53909 6.30106 6.16847 -2 -1 1 
3.04842 6.30106 3.73635 0.000292992 -6 -0.00021609 
3.04842 6.30106 6.16847 0 -3 3 
4.84218 6.30106 3.73635 2.97347 -3.22966 0.0269531 
4.84218 6.30106 6.16847 1 -2 2 
-0.53909 6.30106 1.30423 -3 -3 0 
1.25467 6.30106 1.30423 0 -6 0 
3.04842 6.30106 1.30423 0.00169605 -6 -0.000817204 
4.83771 6.30211 1.30423 -0.0517103 -3.45528 2.05486 
-0.53909 6.30106 -1.12789 -3 -3 0 
1.25467 6.30106 -1.12789 0 -6 0 
3.04842 6.30106 -1.12789 0.00385431 -6 -0.000770048 
4.83511 6.30398 -1.12789 -2.99562 -2.99518 0.000150284 
-0.53909 6.30106 -3.56001 -2.00073 -3 -0.00174077 
1.25467 6.30106 -3.56001 -0.00145135 -6 -0.00468554 
3.04842 6.30106 -3.56001 0.00444851 -5.99999 -0.00327751 
4.83511 6.30398 -3.56001 -2.996 -2.99659 -0.0034781 
-0.53909 6.30658 -5.98318 -2.07457 -0.0533934 3.45571 
1.25467 6.30398 -5.98506 0.000323926 -2.9967 2.99585 
3.04842 6.30398 -5.98506 0.00354044 -2.9962 2.99705 
4.8364 6.30528 -5.98635 -0.996459 -0.996982 1.99826 
4.83218 2.10369 1.30423 -3 -0.00403697 3.00107 
4.83218 2.10369 -1.12789 -6 -0.00481352 0.000535308 
4.83218 2.10369 -3.56001 -6 -0.00340904 -0.00294734 
4.83511 2.10369 -5.98506 -2.996 -0.00301708 2.99671 
4.83218 4.20737 1.30423 -3 0.00201849 2.00054 
4.83218 4.20737 -1.12789 -5.99999 0.00543451 0.00107062 
4.83218 4.20737 -3.56001 -6 0.00380081 -0.00328605 
4.83511 4.20737 -5.98506 -2.99554 0.00301719 2.99705 
3.04842 2.10369 -5.98213 0.00445999 -0.0038007 5.99999 
1.25467 2.10369 -5.98213 0 -0.00419256 6 
-0.53909 2.10369 -5.98213 0 -0.00419256 6 
-2.33284 2.10369 -5.98213 -0.00400016 -0.00340884 6 
-4.11953 2.10369 -5.98506 2.99554 -0.00301718 2.99705 
3.04842 4.20737 -5.98213 0.00400016 0.00340886 6 
1.25467 4.20737 -5.98213 0.0005248 0.00374358 6 
-0.53909 4.20737 -5.98213 0.00134254 0.00214685 6 
-2.33284 4.20737 -5.98213 -0.00433394 0.000499562 6 
-4.11953 4.20737 -5.98506 2.99508 0 2.99637 
-2.33284 6.31106 -5.98213 -0.0401032 1.97283 3.2296 
-4.11953 6.31106 -5.98506 1.99836 4 0.997582 
-4.1166 2.10369 -3.56001 5 1.9962 0.996714 
-4.1166 2.10369 -1.12789 4 0.995807 -2 
-4.1166 2.10369 1.30423 5 1.99581 1 
-4.1166 2.10369 3.73635 4 0.995807 -2 
-4.1166 2.10369 6.16847 3 -0.00139752 2 
-4.1166 4.20737 -3.56001 4 -1 1.99638 
-4.1166 4.20737 -1.12789 5 -2 -1 
-4.1166 4.20737 1.30423 4 -1 2 
-4.1166 4.20737 3.73635 5 -2 -1 
-4.1166 4.20737 6.16847 3 0 3 
-4.1166 6.31106 -3.56001 3 3 -0.00120825 
-4.1166 6.31106 -1.12789 3 3 0 
-4.1166 6.31106 1.30423 3 3 0 
-4.1166 6.31106 3.73635 3 3 0 
-4.1166 6.31106 6.16847 1 1 2 
-1.86938 5.31892 6.03587 -2.84328 0.123425 0.991272 
-1.53048 5.62947 6.04182 -2.07947 2.21187 2.99339 
-1.52133 5.62947 3.02616 -4.05349 4.4237 -0.0122989 
-1.86023 5.31892 3.0202 -4.23857 0.185114 -0.0128605 
-1.19158 5.94003 6.04778 -2.07945 2.21185 2.99339 
-1.18243 5.94003 3.03212 -4.05346 4.42372 -0.0123 
-0.85268 6.25058 6.05374 -2.07941 2.21183 2.99338 
-0.84352 6.25058 3.03807 -4.05346 4.42372 -0.0123022 
-0.51377 6.56114 6.05969 0.0266024 1.41282 1.99988 
-0.50462 6.56114 3.04403 0.185155 4.23852 0.000559545 
-1.51218 5.62947 0.0105 -4.05348 4.42371 -0.0123011 
-1.85108 5.31892 0.00454 -4.23854 0.185087 -0.0128628 
-1.17328 5.94003 0.01645 -4.05346 4.42372 -0.0123022 
-0.83437 6.25058 0.02241 -4.05346 4.42372 -0.0122999 
-0.49547 6.56114 0.02836 0.185131 4.23852 0.000562949 
-1.50303 5.62947 -3.00517 -4.05346 4.42372 -0.0123 
-1.84193 5.31892 -3.01112 -4.23851 0.185047 -0.0128615 
-1.16412 5.94003 -2.99921 -4.05346 4.42372 -0.0123022 
-0.82522 6.25058 -2.99326 -4.05348 4.42371 -0.0123011 
-0.48632 6.56114 -2.9873 0.185094 4.23857 0.000564043 
-1.49388 5.62947 -6.02083 -1.97401 2.21183 -3.00569 
-1.83278 5.31892 -6.02679 -1.37766 0.0616773 -2.00398 
-1.15497 5.94003 -6.01488 -1.97399 2.21185 -3.00569 
-0.81607 6.25058 -6.00892 -1.97402 2.21182 -3.00569 
-0.47717 6.56114 -6.00297 0.140948 2.82571 -0.999471 
-1.38486 5.48054 3.02856 4.05346 -4.42372 0.0123022 
-1.39402 5.48054 6.04422 1.974 -2.21184 3.00569 
-1.73292 5.16999 6.03827 0.578724 -2.15014 2.00156 
-1.72377 5.16999 3.0226 -0.185141 -4.23864 -0.000560643 
-1.04596 5.7911 3.03451 4.05348 -4.42371 0.0123011 
-1.05511 5.7911 6.05018 1.97403 -2.21188 3.00569 
-0.70706 6.10165 3.04047 4.05345 -4.42373 0.0122988 
-0.71621 6.10165 6.05613 1.97405 -2.2119 3.00569 
-0.36816 6.4122 3.04643 4.23863 -0.185183 0.0128607 
-0.37731 6.4122 6.06209 2.13262 0.613821 1.00637 
-1.37571 5.48054 0.01289 4.05346 -4.42372 0.0123 
-1.71462 5.16999 0.00694 -0.185123 -4.23865 -0.000560682 
-1.03681 5.7911 0.01885 4.05349 -4.4237 0.012299 
-0.69791 6.10165 0.02481 4.05344 -4.42374 0.012301 
-0.35901 6.4122 0.03076 4.2386 -0.185161 0.0128641 
-1.36656 5.48054 -3.00277 4.05348 -4.42371 0.0123012 
-1.70546 5.16999 -3.00873 -0.185071 -4.23867 -0.000562831 
-1.02766 5.7911 -2.99681 4.05349 -4.4237 0.012299 
-0.68876 6.10165 -2.99086 4.05343 -4.42375 0.0122999 
-0.34985 6.4122 -2.9849 4.23855 -0.185136 0.0128639 
-1.35741 5.48054 -6.01843 2.07947 -2.21187 -2.99339 
-1.69631 5.16999 -6.02439 -0.781352 -2.08851 -1.00227 
-1.01851 5.7911 -6.01248 2.07947 -2.21187 -2.99339 
-0.67961 6.10165 -6.00652 2.07945 -2.21189 -2.99339 
-0.3407 6.4122 -6.00057 2.12354 -0.799039 -1.99335 
3 0 1 2 
3 0 2 3 
3 4 0 3 
3 4 3 5 
3 6 4 5 
3 6 5 7 
3 8 6 7 
3 8 7 9 
3 10 8 9 
3 10 9 11 
3 3 2 12 
3 3 12 13 
3 5 3 13 
3 5 13 14 
3 7 5 14 
3 7 14 15 
3 9 7 15 
3 9 15 16 
3 11 9 16 
3 11 16 17 
3 13 12 18 
3 13 18 19 
3 14 13 19 
3 14 19 20 
3 15 14 20 
3 15 20 21 
3 16 15 21 
3 16 21 22 
3 17 16 22 
3 17 22 23 
3 19 18 24 
3 19 24 25 
3 20 19 25 
3 20 25 26 
3 21 20 26 
3 21 26 27 
3 22 21 27 
3 22 27 28 
3 23 22 28 
3 23 28 29 
3 25 24 30 
3 25 30 31 
3 26 25 31 
3 26 31 32 
3 27 26 32 
3 27 32 33 
3 28 27 33 
3 28 33 34 
3 35 29 28 
3 35 28 34 
3 36 37 38 
3 36 38 39 
3 39 38 40 
3 39 40 41 
3 41 40 42 
3 41 42 43 
3 44 36 39 
3 44 39 45 
3 45 39 41 
3 45 41 46 
3 46 41 43 
3 46 43 47 
3 48 44 45 
3 48 45 49 
3 49 45 46 
3 49 46 50 
3 50 46 47 
3 50 47 51 
3 52 48 49 
3 52 49 53 
3 53 49 50 
3 53 50 54 
3 54 50 51 
3 54 51 55 
3 56 57 52 
3 56 52 53 
3 56 53 54 
3 56 54 58 
3 59 58 54 
3 59 54 55 
3 60 17 23 
3 60 23 61 
3 61 23 29 
3 61 29 62 
3 62 29 35 
3 62 35 63 
3 64 60 61 
3 64 61 65 
3 65 61 62 
3 65 62 66 
3 66 62 63 
3 66 63 67 
3 51 47 64 
3 51 64 65 
3 51 65 66 
3 51 66 55 
3 59 55 66 
3 59 66 67 
3 68 63 35 
3 68 35 34 
3 68 34 33 
3 68 33 69 
3 69 33 32 
3 69 32 70 
3 70 32 31 
3 70 31 71 
3 71 31 30 
3 71 30 72 
3 67 63 68 
3 67 68 73 
3 73 68 69 
3 73 69 74 
3 74 69 70 
3 74 70 75 
3 75 70 71 
3 75 71 76 
3 76 71 72 
3 76 72 77 
3 59 67 73 
3 59 73 58 
3 58 73 74 
3 58 74 56 
3 57 56 74 
3 57 74 75 
3 78 57 75 
3 78 75 76 
3 78 76 77 
3 78 77 79 
3 80 72 30 
3 80 30 24 
3 80 24 18 
3 80 18 81 
3 81 18 12 
3 81 12 82 
3 82 12 2 
3 82 2 83 
3 83 2 1 
3 83 1 84 
3 77 72 80 
3 77 80 85 
3 86 81 82 
3 86 82 87 
3 88 83 84 
3 88 84 89 
3 79 77 85 
3 79 85 90 
3 90 85 86 
3 90 86 91 
3 91 86 87 
3 91 87 92 
3 92 87 88 
3 92 88 93 
3 93 88 89 
3 93 89 94 
3 95 96 97 
3 95 97 98 
3 99 100 96 
3 99 96 95 
3 101 102 100 
3 101 100 99 
3 103 104 102 
3 103 102 101 
3 105 106 104 
3 105 104 103 
3 96 107 108 
3 96 108 97 
3 100 109 107 
3 100 107 96 
3 102 110 109 
3 102 109 100 
3 104 111 110 
3 104 110 102 
3 106 112 111 
3 106 111 104 
3 107 113 114 
3 107 114 108 
3 109 115 113 
3 109 113 107 
3 110 116 115 
3 110 115 109 
3 111 117 116 
3 111 116 110 
3 112 118 117 
3 112 117 111 
3 113 119 120 
3 113 120 114 
3 115 121 119 
3 115 119 113 
3 116 122 121 
3 116 121 115 
3 117 123 122 
3 117 122 116 
3 118 124 123 
3 118 123 117 
3 119 125 126 
3 119 126 120 
3 121 127 125 
3 121 125 119 
3 122 128 127 
3 122 127 121 
3 123 129 128 
3 123 128 122 
3 124 130 129 
3 124 129 123 
3 131 132 133 
3 131 133 134 
3 132 135 136 
3 132 136 133 
3 135 137 138 
3 135 138 136 
3 139 140 132 
3 139 132 131 
3 140 141 135 
3 140 135 132 
3 141 142 137 
3 141 137 135 
3 143 144 140 
3 143 140 139 
3 144 145 141 
3 144 141 140 
3 145 146 142 
3 145 142 141 
3 147 148 144 
3 147 144 143 
3 148 149 145 
3 148 145 144 
3 149 150 146 
3 149 146 145 
3 151 152 148 
3 151 148 147 
3 152 153 149 
3 152 149 148 
3 153 154 150 
3 153 150 149 
3 155 156 118 
3 155 118 112 
3 156 157 124 
3 156 124 118 
3 157 158 130 
3 157 130 124 
3 159 160 156 
3 159 156 155 
3 160 161 157 
3 160 157 156 
3 161 162 158 
3 161 158 157 
3 142 146 160 
3 142 160 159 
3 146 150 161 
3 146 161 160 
3 150 154 162 
3 150 162 161 
3 158 163 129 
3 158 129 130 
3 163 164 128 
3 163 128 129 
3 164 165 127 
3 164 127 128 
3 165 166 125 
3 165 125 127 
3 166 167 126 
3 166 126 125 
3 162 168 163 
3 162 163 158 
3 168 169 164 
3 168 164 163 
3 169 170 165 
3 169 165 164 
3 170 171 166 
3 170 166 165 
3 171 172 167 
3 171 167 166 
3 154 153 168 
3 154 168 162 
3 153 152 169 
3 153 169 168 
3 152 151 170 
3 152 170 169 
3 151 173 171 
3 151 171 170 
3 173 174 172 
3 173 172 171 
3 167 175 120 
3 167 120 126 
3 175 176 114 
3 175 114 120 
3 176 177 108 
3 176 108 114 
3 177 178 97 
3 177 97 108 
3 178 179 98 
3 178 98 97 
3 172 180 175 
3 172 175 167 
3 181 182 177 
3 181 177 176 
3 183 184 179 
3 183 179 178 
3 174 185 180 
3 174 180 172 
3 185 186 181 
3 185 181 180 
3 186 187 182 
3 186 182 181 
3 187 188 183 
3 187 183 182 
3 188 189 184 
3 188 184 183 
3 98 1 0 
3 98 0 95 
3 95 0 4 
3 95 4 99 
3 99 4 6 
3 99 6 101 
3 101 6 8 
3 101 8 103 
3 105 10 11 
3 105 11 106 
3 103 8 10 
3 103 10 105 
3 106 11 17 
3 106 17 112 
3 133 38 37 
3 133 37 134 
3 134 37 36 
3 134 36 131 
3 136 40 38 
3 136 38 133 
3 138 42 40 
3 138 40 136 
3 137 43 42 
3 137 42 138 
3 131 36 44 
3 131 44 139 
3 142 47 43 
3 142 43 137 
3 139 44 48 
3 139 48 143 
3 143 48 52 
3 143 52 147 
3 151 147 52 
3 151 52 57 
3 112 17 60 
3 112 60 155 
3 155 60 64 
3 155 64 159 
3 142 159 64 
3 142 64 47 
3 151 57 78 
3 151 78 173 
3 174 173 78 
3 174 78 79 
3 175 80 81 
3 175 81 176 
3 177 82 83 
3 177 83 178 
3 98 179 84 
3 98 84 1 
3 180 85 80 
3 180 80 175 
3 182 87 82 
3 182 82 177 
3 176 81 86 
3 176 86 181 
3 184 89 84 
3 184 84 179 
3 178 83 88 
3 178 88 183 
3 174 79 90 
3 174 90 185 
3 181 86 85 
3 181 85 180 
3 185 90 91 
3 185 91 186 
3 186 91 92 
3 186 92 187 
3 183 88 87 
3 183 87 182 
3 187 92 93 
3 187 93 188 
3 189 94 89 
3 189 89 184 
3 188 93 94 
3 188 94 189 
3 190 191 192 
3 190 192 193 
3 191 194 195 
3 191 195 192 
3 194 196 197 
3 194 197 195 
3 196 198 199 
3 196 199 197 
3 193 192 200 
3 193 200 201 
3 192 195 202 
3 192 202 200 
3 195 197 203 
3 195 203 202 
3 197 199 204 
3 197 204 203 
3 201 200 205 
3 201 205 206 
3 200 202 207 
3 200 207 205 
3 202 203 208 
3 202 208 207 
3 203 204 209 
3 203 209 208 
3 206 205 210 
3 206 210 211 
3 205 207 212 
3 205 212 210 
3 207 208 213 
3 207 213 212 
3 208 209 214 
3 208 214 213 
3 215 216 217 
3 215 217 218 
3 219 220 216 
3 219 216 215 
3 221 222 220 
3 221 220 219 
3 223 224 222 
3 223 222 221 
3 225 215 218 
3 225 218 226 
3 227 219 215 
3 227 215 225 
3 228 221 219 
3 228 219 227 
3 229 223 221 
3 229 221 228 
3 230 225 226 
3 230 226 231 
3 232 227 225 
3 232 225 230 
3 233 228 227 
3 233 227 232 
3 234 229 228 
3 234 228 233 
3 235 230 231 
3 235 231 236 
3 237 232 230 
3 237 230 235 
3 238 233 232 
3 238 232 237 
3 239 234 233 
3 239 233 238 
3 191 190 217 
3 191 217 216 
3 190 193 218 
3 190 218 217 
3 194 191 216 
3 194 216 220 
3 196 194 220 
3 196 220 222 
3 198 196 222 
3 198 222 224 
3 199 198 224 
3 199 224 223 
3 193 201 226 
3 193 226 218 
3 204 199 223 
3 204 223 229 
3 201 206 231 
3 201 231 226 
3 209 204 229 
3 209 229 234 
3 211 210 235 
3 211 235 236 
3 206 211 236 
3 206 236 231 
3 210 212 237 
3 210 237 235 
3 212 213 238 
3 212 238 237 
3 214 209 234 
3 214 234 239 
3 213 214 239 
3 213 239 238 
