ply
format ascii 1.0
comment VCGLIB generated
element vertex 190
property float x
property float y
property float z
property float nx
property float ny
property float nz
element face 384
property list uchar int vertex_indices
end_header
-4.69652 -0.21213 6.0803 -1.08681 -2.036 3 
-4.69652 -0.21213 3.64818 -3.12914 -3.11087 0 
-2.69063 -0.3 3.64818 -0.131292 -5.99713 0 
-2.69063 -0.3 6.0803 -0.043764 -2.99904 3 
-0.89688 -0.3 3.64818 0 -6 0 
-0.89688 -0.3 6.0803 0 -3 3 
0.89688 -0.3 3.64818 0 -6 0 
0.89688 -0.3 6.0803 0 -3 3 
2.69063 -0.3 3.64818 0.0170182 -5.99989 -0.0125515 
2.69063 -0.3 6.0803 0 -3 3 
4.48439 -0.3 3.64818 2.95428 -2.54063 0.0484928 
4.48439 -0.3 6.0803 2 -1 1 
-4.69652 -0.21213 1.21606 -3.12914 -3.11087 0 
-2.69063 -0.3 1.21606 -0.131292 -5.99713 0 
-0.89688 -0.3 1.21606 0 -6 0 
0.89688 -0.3 1.21606 0 -6 0 
2.69063 -0.3 1.21606 0.0692531 -5.9989 -0.0283974 
4.61855 -0.26833 1.21606 3.01712 -2.87778 2.03453 
-4.69652 -0.21213 -1.21606 -3.12914 -3.11087 0 
-2.69063 -0.3 -1.21606 -0.131292 -5.99713 0 
-0.89688 -0.3 -1.21606 0 -6 0 
0.89688 -0.3 -1.21606 0 -6 0 
2.69063 -0.3 -1.21606 0.1179 -5.99756 -0.0110608 
4.69652 -0.21213 -1.21606 3.10149 -3.12787 -0.00674212 
-4.69652 -0.21213 -3.64818 -3.1059 -3.10104 -0.073086 
-2.69063 -0.3 -3.64818 -0.119655 -5.99617 -0.0907956 
-0.89688 -0.3 -3.64818 0 -5.99835 -0.0996368 
0.89688 -0.3 -3.64818 0 -5.99835 -0.0996368 
2.69063 -0.3 -3.64818 0.108018 -5.99686 -0.0819544 
4.69652 -0.21213 -3.64818 3.11757 -3.09078 -0.0730589 
-4.65759 -0.17321 -6.2535 -2.06292 -1.08264 -1.07215 
-2.69063 -0.21213 -6.29243 -0.128575 -3.09145 -3.07942 
-0.89688 -0.21213 -6.29243 0 -3.11209 -3.09748 
0.89688 -0.21213 -6.29243 0 -3.11209 -3.09748 
2.69063 -0.21213 -6.29243 0.0642876 -3.10177 -3.08845 
4.65759 -0.17321 -6.2535 1.12789 -2.08188 -2.07128 
-0.89688 6.61106 6.0803 -2 2 1 
0.89688 6.61106 6.0803 0 3 3 
0.89688 6.61106 3.64818 0 6 0 
-0.89688 6.61106 3.64818 -3 3 0 
2.69063 6.61106 6.0803 0 3 3 
2.69063 6.61106 3.64818 0.0170238 5.99989 -0.0125555 
4.48439 6.61106 6.0803 1 1 2 
4.48439 6.61106 3.64818 2.9814 2.77029 0.0211075 
0.89688 6.61106 1.21606 0 6 0 
-0.89688 6.61106 1.21606 -3 3 0 
2.69063 6.61106 1.21606 0.0692611 5.9989 -0.0283951 
4.61855 6.57938 1.21606 2.99159 2.59408 1.04654 
0.89688 6.61106 -1.21606 0 6 0 
-0.89688 6.61106 -1.21606 -3 3 0 
2.69063 6.61106 -1.21606 0.117903 5.99756 -0.0110587 
4.69652 6.52319 -1.21606 3.10064 3.14398 0.00864197 
0.89688 6.61106 -3.64818 -0.0209619 5.99755 -0.11383 
-0.89688 6.61106 -3.64818 -3.04192 2.99731 -0.0948114 
2.69063 6.61106 -3.64818 0.108023 5.99686 -0.0819584 
4.69652 6.52319 -3.64818 3.11754 3.1009 -0.048717 
0.89688 6.52319 -6.29243 -0.0268358 3.09883 -3.12613 
-0.89688 6.44522 -6.34863 -1.05646 3.00358 -2.58723 
2.69063 6.52319 -6.29243 0.0964511 3.09171 -3.08827 
4.65759 6.48426 -6.2535 2.09505 2.08182 -1.09653 
4.78439 2.10369 -1.21606 5.99612 -0.145987 0.0307591 
4.78439 2.10369 1.21606 2.99842 -0.0540354 3.01538 
4.78439 2.10369 -3.64818 5.99678 -0.103629 -0.0907685 
4.69652 2.10369 -6.29243 3.11777 -0.0834493 -3.07908 
4.78439 4.20737 -1.21606 5.99698 0.129868 0.0153797 
4.78439 4.20737 1.21606 2.99684 0.108071 3.03076 
4.78439 4.20737 -3.64818 5.99736 0.0935089 -0.0819002 
4.69652 4.20737 -6.29243 3.1063 0.0835097 -3.088 
2.69063 2.10369 -6.3803 0.108085 -0.0936292 -5.99651 
0.89688 2.10369 -6.3803 0 -0.113748 -5.99784 
-0.89688 2.10369 -6.3803 0 -0.113748 -5.99784 
-2.69063 2.10369 -6.3803 -0.119689 -0.103689 -5.99574 
-4.69652 2.10369 -6.29243 -3.1063 -0.0835095 -3.088 
2.69063 4.20737 -6.3803 0.119689 0.103689 -5.99574 
0.89688 4.20737 -6.3803 0.0301759 0.0903948 -5.99836 
-0.89688 4.20737 -6.3803 0.0321971 0.0408277 -5.99942 
-2.69063 4.20737 -6.3803 -0.122738 0.00729419 -5.99706 
-4.69652 4.20737 -6.29243 -3.12964 0 -3.09676 
-2.69063 6.31106 -6.3803 -0.0637712 2.98717 -2.76932 
-4.69652 6.31106 -6.29243 -1.08698 3 -2.0313 
-4.78439 2.10369 -3.64818 -3.99736 1.90649 0.9181 
-4.78439 2.10369 -1.21606 -4.99784 0.886252 -2 
-4.78439 2.10369 1.21606 -3.99784 1.88625 1 
-4.78439 2.10369 3.64818 -4.99784 0.886252 -2 
-4.78439 2.10369 6.0803 -2.99856 -0.0758322 3 
-4.78439 4.20737 -3.64818 -4.99835 -1 1.90036 
-4.78439 4.20737 1.21606 -5 -1 2 
-4.78439 4.20737 -1.21606 -4 -2 -1 
-4.78439 4.20737 6.0803 -3 0 3 
-4.78439 4.20737 3.64818 -4 -2 -1 
-4.78439 6.31106 -3.64818 -2.9989 3 -0.0664245 
-4.78439 6.31106 -1.21606 -3 3 0 
-4.78439 6.31106 1.21606 -3 3 0 
-4.78439 6.31106 3.64818 -3 3 0 
-4.78439 6.31106 6.0803 -2 1 2 
-2.69063 0.01 3.64818 -0.00491971 6 0 
-4.47732 0.00707 3.64818 2.99508 2.9958 0 
-4.47732 0.00707 6.0803 0.996719 1.9986 3 
-2.69063 0.01 6.0803 -0.0016399 3 3 
-0.89688 0.01 3.64818 0 6 0 
-0.89688 0.01 6.0803 0 3 3 
0.89688 0.01 3.64818 0 6 0 
0.89688 0.01 6.0803 0 3 3 
2.69063 0.01 3.64818 0.000591675 6 -0.000436378 
2.69063 0.01 6.0803 0 3 3 
4.48439 0.01 3.64818 2.97318 3.22966 0.0271661 
4.48439 0.01 6.0803 1 1 2 
-2.69063 0.01 1.21606 -0.00491971 6 0 
-4.47732 0.00707 1.21606 2.99508 2.9958 0 
-0.89688 0.01 1.21606 0 6 0 
0.89688 0.01 1.21606 0 6 0 
2.69063 0.01 1.21606 0.00252739 6 -0.000988258 
4.47992 0.00894 1.21606 -0.0525161 3.45528 1.05502 
-2.69063 0.01 -1.21606 -0.00491971 6 0 
-4.47732 0.00707 -1.21606 2.99508 2.9958 0 
-0.89688 0.01 -1.21606 0 6 0 
0.89688 0.01 -1.21606 0 6 0 
2.69063 0.01 -1.21606 0.00439558 6 -0.000385034 
4.47732 0.00707 -1.21606 -2.99612 2.99518 -0.000234839 
-2.69063 0.01 -3.64818 -0.00446281 5.99999 -0.00328804 
-4.47732 0.00707 -3.64818 2.99599 2.9962 -0.00261275 
-0.89688 0.01 -3.64818 0 6 -0.00362467 
0.89688 0.01 -3.64818 0 6 -0.00362467 
2.69063 0.01 -3.64818 0.00400592 6 -0.00295142 
4.47732 0.00707 -3.64818 -2.99553 2.99659 -0.00261069 
-2.69063 0.00707 -6.07323 -0.00472646 2.99659 2.99705 
-4.47861 0.00577 -6.07452 1.99764 0.996982 0.997388 
-0.89688 0.00707 -6.07323 0 2.99581 2.99637 
0.89688 0.00707 -6.07323 0 2.99581 2.99637 
2.69063 0.00707 -6.07323 0.00236323 2.9962 2.99671 
4.47861 0.00577 -6.07452 -0.995273 1.99698 1.99739 
0.89688 6.30106 3.64818 0 -6 0 
0.89688 6.30106 6.0803 0 -3 3 
-0.89688 6.30106 6.0803 -1 -2 2 
-0.89688 6.30106 3.64818 -3 -3 0 
2.69063 6.30106 3.64818 0.000585984 -6 -0.00043218 
2.69063 6.30106 6.0803 0 -3 3 
4.48439 6.30106 3.64818 2.94606 -3.45932 0.0545544 
4.48439 6.30106 6.0803 2 -1 1 
0.89688 6.30106 1.21606 0 -6 0 
-0.89688 6.30106 1.21606 -3 -3 0 
2.69063 6.30106 1.21606 0.00251312 -6 -0.000986138 
4.47992 6.30211 1.21606 -0.0254158 -3.22764 2.0271 
0.89688 6.30106 -1.21606 0 -6 0 
-0.89688 6.30106 -1.21606 -3 -3 0 
2.69063 6.30106 -1.21606 0.00437842 -6 -0.000385024 
4.47732 6.30398 -1.21606 -2.99614 -2.99456 0.000300411 
0.89688 6.30106 -3.64818 -0.000725673 -6 -0.00414877 
-0.89688 6.30106 -3.64818 -3.00145 -3 -0.00348153 
2.69063 6.30106 -3.64818 0.0039945 -6 -0.00294301 
4.47732 6.30398 -3.64818 -2.99555 -2.9962 -0.00173905 
0.89688 6.30398 -6.07323 -0.000926652 -2.99625 2.99531 
-0.89688 6.30658 -6.07135 -2.0365 -0.0252735 3.22786 
2.69063 6.30398 -6.07323 0.0035406 -2.99659 2.99672 
4.47861 6.30528 -6.07452 -1.99646 -1.99698 0.996521 
4.47439 2.10369 -1.21606 -5.99999 -0.00543431 0.00107046 
4.47439 2.10369 1.21606 -3 -0.00201839 3.00054 
4.47439 2.10369 -3.64818 -6 -0.0038008 -0.00328605 
4.47732 2.10369 -6.07323 -2.99554 -0.00301727 2.99705 
4.47439 4.20737 -1.21606 -6 0.00481346 0.00053523 
4.47439 4.20737 1.21606 -3 0.00403681 3.00107 
4.47439 4.20737 -3.64818 -6 0.00340905 -0.00294734 
4.47732 4.20737 -6.07323 -2.996 0.00301728 2.99671 
2.69063 2.10369 -6.0703 0.00400038 -0.00340903 6 
0.89688 2.10369 -6.0703 0 -0.00419256 6 
-0.89688 2.10369 -6.0703 0 -0.00419256 6 
-2.69063 2.10369 -6.0703 -0.0044601 -0.00380079 5.99999 
-4.47732 2.10369 -6.07323 2.996 -0.00301727 2.99671 
2.69063 4.20737 -6.0703 0.0044601 0.00380081 5.99999 
0.89688 4.20737 -6.0703 0.00104939 0.00329477 6 
-0.89688 4.20737 -6.0703 0.00111079 0.00144837 6 
-2.69063 4.20737 -6.0703 -0.00462677 0.000249872 6 
-4.47732 4.20737 -6.07323 2.99508 0 2.99637 
-2.69063 6.31106 -6.0703 -0.0752862 2.94566 3.4592 
-4.47732 6.31106 -6.07323 0.99672 3 1.99879 
-4.47439 2.10369 -3.64818 4 0.996591 1.99705 
-4.47439 2.10369 -1.21606 5 1.99581 -1 
-4.47439 2.10369 1.21606 4 0.995808 2 
-4.47439 2.10369 3.64818 5 1.99581 -1 
-4.47439 2.10369 6.0803 3 -0.00279504 3 
-4.47439 4.20737 -3.64818 5 -2 0.996375 
-4.47439 4.20737 1.21606 5 -2 1 
-4.47439 4.20737 -1.21606 4 -1 -2 
-4.47439 4.20737 6.0803 3 0 3 
-4.47439 4.20737 3.64818 4 -1 -2 
-4.47439 6.31106 -3.64818 3 3 -0.0024165 
-4.47439 6.31106 -1.21606 3 3 0 
-4.47439 6.31106 1.21606 3 3 0 
-4.47439 6.31106 3.64818 3 3 0 
-4.47439 6.31106 6.0803 2 2 1 
3 0 1 2 
3 0 2 3 
3 3 2 4 
3 3 4 5 
3 5 4 6 
3 5 6 7 
3 7 6 8 
3 7 8 9 
3 9 8 10 
3 9 10 11 
3 1 12 13 
3 1 13 2 
3 2 13 14 
3 2 14 4 
3 4 14 15 
3 4 15 6 
3 6 15 16 
3 6 16 8 
3 8 16 17 
3 8 17 10 
3 12 18 19 
3 12 19 13 
3 13 19 20 
3 13 20 14 
3 14 20 21 
3 14 21 15 
3 15 21 22 
3 15 22 16 
3 16 22 23 
3 16 23 17 
3 18 24 25 
3 18 25 19 
3 19 25 26 
3 19 26 20 
3 20 26 27 
3 20 27 21 
3 21 27 28 
3 21 28 22 
3 22 28 29 
3 22 29 23 
3 24 30 31 
3 24 31 25 
3 25 31 32 
3 25 32 26 
3 26 32 33 
3 26 33 27 
3 27 33 34 
3 27 34 28 
3 28 34 35 
3 28 35 29 
3 36 37 38 
3 36 38 39 
3 37 40 41 
3 37 41 38 
3 40 42 43 
3 40 43 41 
3 39 38 44 
3 39 44 45 
3 38 41 46 
3 38 46 44 
3 41 43 47 
3 41 47 46 
3 45 44 48 
3 45 48 49 
3 44 46 50 
3 44 50 48 
3 46 47 51 
3 46 51 50 
3 49 48 52 
3 49 52 53 
3 48 50 54 
3 48 54 52 
3 50 51 55 
3 50 55 54 
3 53 52 56 
3 53 56 57 
3 52 54 58 
3 52 58 56 
3 54 55 59 
3 54 59 58 
3 17 23 60 
3 17 60 61 
3 23 29 62 
3 23 62 60 
3 29 35 63 
3 29 63 62 
3 61 60 64 
3 61 64 65 
3 60 62 66 
3 60 66 64 
3 62 63 67 
3 62 67 66 
3 65 64 51 
3 65 51 47 
3 64 66 55 
3 64 55 51 
3 66 67 59 
3 66 59 55 
3 35 34 68 
3 35 68 63 
3 34 33 69 
3 34 69 68 
3 33 32 70 
3 33 70 69 
3 32 31 71 
3 32 71 70 
3 31 30 72 
3 31 72 71 
3 63 68 73 
3 63 73 67 
3 68 69 74 
3 68 74 73 
3 69 70 75 
3 69 75 74 
3 70 71 76 
3 70 76 75 
3 71 72 77 
3 71 77 76 
3 67 73 58 
3 67 58 59 
3 73 74 56 
3 73 56 58 
3 74 75 57 
3 74 57 56 
3 75 76 78 
3 75 78 57 
3 76 77 79 
3 76 79 78 
3 30 24 80 
3 30 80 72 
3 24 18 81 
3 24 81 80 
3 18 12 82 
3 18 82 81 
3 12 1 83 
3 12 83 82 
3 1 0 84 
3 1 84 83 
3 72 80 85 
3 72 85 77 
3 81 82 86 
3 81 86 87 
3 83 84 88 
3 83 88 89 
3 77 85 90 
3 77 90 79 
3 85 87 91 
3 85 91 90 
3 87 86 92 
3 87 92 91 
3 86 89 93 
3 86 93 92 
3 89 88 94 
3 89 94 93 
3 95 96 97 
3 95 97 98 
3 99 95 98 
3 99 98 100 
3 101 99 100 
3 101 100 102 
3 103 101 102 
3 103 102 104 
3 105 103 104 
3 105 104 106 
3 107 108 96 
3 107 96 95 
3 109 107 95 
3 109 95 99 
3 110 109 99 
3 110 99 101 
3 111 110 101 
3 111 101 103 
3 112 111 103 
3 112 103 105 
3 113 114 108 
3 113 108 107 
3 115 113 107 
3 115 107 109 
3 116 115 109 
3 116 109 110 
3 117 116 110 
3 117 110 111 
3 118 117 111 
3 118 111 112 
3 119 120 114 
3 119 114 113 
3 121 119 113 
3 121 113 115 
3 122 121 115 
3 122 115 116 
3 123 122 116 
3 123 116 117 
3 124 123 117 
3 124 117 118 
3 125 126 120 
3 125 120 119 
3 127 125 119 
3 127 119 121 
3 128 127 121 
3 128 121 122 
3 129 128 122 
3 129 122 123 
3 130 129 123 
3 130 123 124 
3 131 132 133 
3 131 133 134 
3 135 136 132 
3 135 132 131 
3 137 138 136 
3 137 136 135 
3 139 131 134 
3 139 134 140 
3 141 135 131 
3 141 131 139 
3 142 137 135 
3 142 135 141 
3 143 139 140 
3 143 140 144 
3 145 141 139 
3 145 139 143 
3 146 142 141 
3 146 141 145 
3 147 143 144 
3 147 144 148 
3 149 145 143 
3 149 143 147 
3 150 146 145 
3 150 145 149 
3 151 147 148 
3 151 148 152 
3 153 149 147 
3 153 147 151 
3 154 150 149 
3 154 149 153 
3 155 118 112 
3 155 112 156 
3 157 124 118 
3 157 118 155 
3 158 130 124 
3 158 124 157 
3 159 155 156 
3 159 156 160 
3 161 157 155 
3 161 155 159 
3 162 158 157 
3 162 157 161 
3 146 159 160 
3 146 160 142 
3 150 161 159 
3 150 159 146 
3 154 162 161 
3 154 161 150 
3 163 129 130 
3 163 130 158 
3 164 128 129 
3 164 129 163 
3 165 127 128 
3 165 128 164 
3 166 125 127 
3 166 127 165 
3 167 126 125 
3 167 125 166 
3 168 163 158 
3 168 158 162 
3 169 164 163 
3 169 163 168 
3 170 165 164 
3 170 164 169 
3 171 166 165 
3 171 165 170 
3 172 167 166 
3 172 166 171 
3 153 168 162 
3 153 162 154 
3 151 169 168 
3 151 168 153 
3 152 170 169 
3 152 169 151 
3 173 171 170 
3 173 170 152 
3 174 172 171 
3 174 171 173 
3 175 120 126 
3 175 126 167 
3 176 114 120 
3 176 120 175 
3 177 108 114 
3 177 114 176 
3 178 96 108 
3 178 108 177 
3 179 97 96 
3 179 96 178 
3 180 175 167 
3 180 167 172 
3 181 177 176 
3 181 176 182 
3 183 179 178 
3 183 178 184 
3 185 180 172 
3 185 172 174 
3 186 182 180 
3 186 180 185 
3 187 181 182 
3 187 182 186 
3 188 184 181 
3 188 181 187 
3 189 183 184 
3 189 184 188 
3 0 3 98 
3 0 98 97 
3 3 5 100 
3 3 100 98 
3 5 7 102 
3 5 102 100 
3 7 9 104 
3 7 104 102 
3 11 10 105 
3 11 105 106 
3 9 11 106 
3 9 106 104 
3 10 17 112 
3 10 112 105 
3 37 36 133 
3 37 133 132 
3 36 39 134 
3 36 134 133 
3 40 37 132 
3 40 132 136 
3 42 40 136 
3 42 136 138 
3 43 42 138 
3 43 138 137 
3 39 45 140 
3 39 140 134 
3 47 43 137 
3 47 137 142 
3 45 49 144 
3 45 144 140 
3 49 53 148 
3 49 148 144 
3 53 57 152 
3 53 152 148 
3 17 61 156 
3 17 156 112 
3 61 65 160 
3 61 160 156 
3 65 47 142 
3 65 142 160 
3 57 78 173 
3 57 173 152 
3 78 79 174 
3 78 174 173 
3 80 81 176 
3 80 176 175 
3 82 83 178 
3 82 178 177 
3 84 0 97 
3 84 97 179 
3 85 80 175 
3 85 175 180 
3 86 82 177 
3 86 177 181 
3 81 87 182 
3 81 182 176 
3 88 84 179 
3 88 179 183 
3 83 89 184 
3 83 184 178 
3 79 90 185 
3 79 185 174 
3 87 85 180 
3 87 180 182 
3 90 91 186 
3 90 186 185 
3 91 92 187 
3 91 187 186 
3 89 86 181 
3 89 181 184 
3 92 93 188 
3 92 188 187 
3 94 88 183 
3 94 183 189 
3 93 94 189 
3 93 189 188 
