ply
format ascii 1.0
comment VCGLIB generated
element vertex 110
property float x
property float y
property float z
property float nx
property float ny
property float nz
element face 216
property list uchar int vertex_indices
end_header
0 0 0 0 18 7.86805e-007 
10.0252 -3.37509e-007 7.7213 2.06685 2 2.11695 
12.2978 -1.79584e-007 4.1084 2.67497 2 1.25354 
13.087 0 0 2.94614 2 0.188645 
2.2725 -5.17093e-007 11.8297 0.316854 2 2.94847 
6.5435 -4.54725e-007 10.4029 1.2439 2 2.6892 
-6.5435 -4.54725e-007 10.4029 -1.53724 2 2.53298 
-2.2725 -5.17093e-007 11.8297 -0.633708 2 2.89695 
-12.2978 -1.79584e-007 4.1084 -2.81055 2 0.909736 
-10.0252 -3.37509e-007 7.7213 -2.30312 2 1.85715 
-12.2978 1.79584e-007 -4.1084 -2.67497 2 -1.25354 
-13.087 0 0 -2.94614 2 -0.188645 
-6.5435 4.54725e-007 -10.4029 -1.2439 2 -2.6892 
-10.0252 3.37509e-007 -7.7213 -2.06685 2 -2.11695 
2.2725 5.17093e-007 -11.8297 0.633708 2 -2.89695 
-2.2725 5.17093e-007 -11.8297 -0.316854 2 -2.94847 
10.0252 3.37509e-007 -7.7213 2.30312 2 -1.85715 
6.5435 4.54725e-007 -10.4029 1.53724 2 -2.53298 
12.2978 1.79584e-007 -4.1084 2.81055 2 -0.909736 
12.2978 -0.0294002 4.1084 5.48553 -9.45597e-008 2.16327 
13.087 -0.0294 -1.28511e-009 5.89227 0 0 
10.0252 -0.0294003 7.7213 4.36997 -1.73713e-007 3.9741 
6.5435 -0.0294005 10.4029 2.78114 -2.28269e-007 5.22218 
2.2725 -0.0294005 11.8297 0.950562 -2.55512e-007 5.84542 
-2.2725 -0.0294005 11.8297 -0.950562 -2.55512e-007 5.84542 
-6.5435 -0.0294005 10.4029 -2.78114 -2.28269e-007 5.22218 
-10.0252 -0.0294003 7.7213 -4.36997 -1.73713e-007 3.9741 
-12.2978 -0.0294002 4.1084 -5.48553 -9.45597e-008 2.16327 
-13.087 -0.0294 -1.28511e-009 -5.89227 -0 0 
-12.2978 -0.0293998 -4.1084 -5.48553 9.45597e-008 -2.16327 
-10.0252 -0.0293997 -7.7213 -4.36997 1.73713e-007 -3.9741 
-6.5435 -0.0293995 -10.4029 -2.78114 2.28269e-007 -5.22218 
-2.2725 -0.0293995 -11.8297 -0.950562 2.55512e-007 -5.84542 
2.2725 -0.0293995 -11.8297 0.950562 2.55512e-007 -5.84542 
6.5435 -0.0293995 -10.4029 2.78114 2.28269e-007 -5.22218 
10.0252 -0.0293997 -7.7213 4.36997 1.73713e-007 -3.9741 
12.2978 -0.0293998 -4.1084 5.48553 9.45597e-008 -2.16327 
12.2978 -0.0588002 4.1084 5.48553 -9.45597e-008 2.16327 
13.087 -0.0588 -2.57023e-009 5.89227 0 0 
10.0252 -0.0588003 7.7213 4.36997 -1.73713e-007 3.9741 
6.5435 -0.0588005 10.4029 2.78114 -2.28269e-007 5.22218 
2.2725 -0.0588005 11.8297 0.950562 -2.55512e-007 5.84542 
-2.2725 -0.0588005 11.8297 -0.950562 -2.55512e-007 5.84542 
-6.5435 -0.0588005 10.4029 -2.78114 -2.28269e-007 5.22218 
-10.0252 -0.0588003 7.7213 -4.36997 -1.73713e-007 3.9741 
-12.2978 -0.0588002 4.1084 -5.48553 -9.45597e-008 2.16327 
-13.087 -0.0588 -2.57023e-009 -5.89227 -0 0 
-12.2978 -0.0587998 -4.1084 -5.48553 9.45597e-008 -2.16327 
-10.0252 -0.0587997 -7.7213 -4.36997 1.73713e-007 -3.9741 
-6.5435 -0.0587995 -10.4029 -2.78114 2.28269e-007 -5.22218 
-2.2725 -0.0587995 -11.8297 -0.950562 2.55512e-007 -5.84542 
2.2725 -0.0587995 -11.8297 0.950562 2.55512e-007 -5.84542 
6.5435 -0.0587995 -10.4029 2.78114 2.28269e-007 -5.22218 
10.0252 -0.0587997 -7.7213 4.36997 1.73713e-007 -3.9741 
12.2978 -0.0587998 -4.1084 5.48553 9.45597e-008 -2.16327 
12.2978 -0.0883002 4.1084 5.48553 -9.45597e-008 2.16327 
13.087 -0.0883 -3.85972e-009 5.89227 -6.5135e-016 1.49012e-008 
10.0252 -0.0883003 7.7213 4.36997 -1.73713e-007 3.9741 
6.5435 -0.0883005 10.4029 2.78114 -2.28269e-007 5.22218 
2.2725 -0.0883005 11.8297 0.950562 -2.55512e-007 5.84542 
-2.2725 -0.0883005 11.8297 -0.950562 -2.55512e-007 5.84542 
-6.5435 -0.0883005 10.4029 -2.78114 -2.28269e-007 5.22218 
-10.0252 -0.0883003 7.7213 -4.36997 -1.73713e-007 3.9741 
-12.2978 -0.0883002 4.1084 -5.48553 -9.45597e-008 2.16327 
-13.087 -0.0883 -3.85972e-009 -5.89227 1.3027e-015 -2.98023e-008 
-12.2978 -0.0882998 -4.1084 -5.48553 9.45597e-008 -2.16327 
-10.0252 -0.0882997 -7.7213 -4.36997 1.73713e-007 -3.9741 
-6.5435 -0.0882995 -10.4029 -2.78114 2.28269e-007 -5.22218 
-2.2725 -0.0882995 -11.8297 -0.950562 2.55512e-007 -5.84542 
2.2725 -0.0882995 -11.8297 0.950562 2.55512e-007 -5.84542 
6.5435 -0.0882995 -10.4029 2.78114 2.28269e-007 -5.22218 
10.0252 -0.0882997 -7.7213 4.36997 1.73713e-007 -3.9741 
12.2978 -0.0882998 -4.1084 5.48553 9.45597e-008 -2.16327 
12.2978 -0.1177 4.1084 5.48553 -9.45597e-008 2.16327 
13.087 -0.1177 -5.14483e-009 5.89227 6.5135e-016 -1.49012e-008 
10.0252 -0.1177 7.7213 4.36997 -1.73713e-007 3.9741 
6.5435 -0.1177 10.4029 2.78114 -2.28269e-007 5.22218 
2.2725 -0.117701 11.8297 0.950562 -2.55512e-007 5.84542 
-2.2725 -0.117701 11.8297 -0.950562 -2.55512e-007 5.84542 
-6.5435 -0.1177 10.4029 -2.78114 -2.28269e-007 5.22218 
-10.0252 -0.1177 7.7213 -4.36997 -1.73713e-007 3.9741 
-12.2978 -0.1177 4.1084 -5.48553 -9.45597e-008 2.16327 
-13.087 -0.1177 -5.14483e-009 -5.89227 -0 0 
-12.2978 -0.1177 -4.1084 -5.48553 9.45597e-008 -2.16327 
-10.0252 -0.1177 -7.7213 -4.36997 1.73713e-007 -3.9741 
-6.5435 -0.1177 -10.4029 -2.78114 2.28269e-007 -5.22218 
-2.2725 -0.117699 -11.8297 -0.950562 2.55512e-007 -5.84542 
2.2725 -0.117699 -11.8297 0.950562 2.55512e-007 -5.84542 
6.5435 -0.1177 -10.4029 2.78114 2.28269e-007 -5.22218 
10.0252 -0.1177 -7.7213 4.36997 1.73713e-007 -3.9741 
12.2978 -0.1177 -4.1084 5.48553 9.45597e-008 -2.16327 
12.2978 -0.1471 4.1084 2.81055 -2 0.909736 
13.087 -0.1471 -6.42995e-009 2.94614 -2 -0.188645 
10.0252 -0.1471 7.7213 2.30312 -2 1.85715 
6.5435 -0.1471 10.4029 1.53724 -2 2.53298 
2.2725 -0.147101 11.8297 0.633708 -2 2.89695 
-2.2725 -0.147101 11.8297 -0.316854 -2 2.94847 
-6.5435 -0.1471 10.4029 -1.2439 -2 2.6892 
-10.0252 -0.1471 7.7213 -2.06685 -2 2.11695 
-12.2978 -0.1471 4.1084 -2.67497 -2 1.25354 
-13.087 -0.1471 -6.42995e-009 -2.94614 -2 0.188645 
-12.2978 -0.1471 -4.1084 -2.81055 -2 -0.909736 
-10.0252 -0.1471 -7.7213 -2.30312 -2 -1.85715 
-6.5435 -0.1471 -10.4029 -1.53724 -2 -2.53298 
-2.2725 -0.147099 -11.8297 -0.633708 -2 -2.89695 
2.2725 -0.147099 -11.8297 0.316854 -2 -2.94847 
6.5435 -0.1471 -10.4029 1.2439 -2 -2.6892 
10.0252 -0.1471 -7.7213 2.06685 -2 -2.11695 
12.2978 -0.1471 -4.1084 2.67497 -2 -1.25354 
0 -0.1471 -6.42995e-009 0 -18 -7.86805e-007 
3 0 1 2 
3 0 2 3 
3 0 4 5 
3 0 5 1 
3 0 6 7 
3 0 7 4 
3 0 8 9 
3 0 9 6 
3 0 10 11 
3 0 11 8 
3 0 12 13 
3 0 13 10 
3 0 14 15 
3 0 15 12 
3 0 16 17 
3 0 17 14 
3 0 3 18 
3 0 18 16 
3 3 2 19 
3 3 19 20 
3 2 1 21 
3 2 21 19 
3 1 5 22 
3 1 22 21 
3 5 4 23 
3 5 23 22 
3 4 7 24 
3 4 24 23 
3 7 6 25 
3 7 25 24 
3 6 9 26 
3 6 26 25 
3 9 8 27 
3 9 27 26 
3 8 11 28 
3 8 28 27 
3 11 10 29 
3 11 29 28 
3 10 13 30 
3 10 30 29 
3 13 12 31 
3 13 31 30 
3 12 15 32 
3 12 32 31 
3 15 14 33 
3 15 33 32 
3 14 17 34 
3 14 34 33 
3 17 16 35 
3 17 35 34 
3 16 18 36 
3 16 36 35 
3 18 3 20 
3 18 20 36 
3 20 19 37 
3 20 37 38 
3 19 21 39 
3 19 39 37 
3 21 22 40 
3 21 40 39 
3 22 23 41 
3 22 41 40 
3 23 24 42 
3 23 42 41 
3 24 25 43 
3 24 43 42 
3 25 26 44 
3 25 44 43 
3 26 27 45 
3 26 45 44 
3 27 28 46 
3 27 46 45 
3 28 29 47 
3 28 47 46 
3 29 30 48 
3 29 48 47 
3 30 31 49 
3 30 49 48 
3 31 32 50 
3 31 50 49 
3 32 33 51 
3 32 51 50 
3 33 34 52 
3 33 52 51 
3 34 35 53 
3 34 53 52 
3 35 36 54 
3 35 54 53 
3 36 20 38 
3 36 38 54 
3 38 37 55 
3 38 55 56 
3 37 39 57 
3 37 57 55 
3 39 40 58 
3 39 58 57 
3 40 41 59 
3 40 59 58 
3 41 42 60 
3 41 60 59 
3 42 43 61 
3 42 61 60 
3 43 44 62 
3 43 62 61 
3 44 45 63 
3 44 63 62 
3 45 46 64 
3 45 64 63 
3 46 47 65 
3 46 65 64 
3 47 48 66 
3 47 66 65 
3 48 49 67 
3 48 67 66 
3 49 50 68 
3 49 68 67 
3 50 51 69 
3 50 69 68 
3 51 52 70 
3 51 70 69 
3 52 53 71 
3 52 71 70 
3 53 54 72 
3 53 72 71 
3 54 38 56 
3 54 56 72 
3 56 55 73 
3 56 73 74 
3 55 57 75 
3 55 75 73 
3 57 58 76 
3 57 76 75 
3 58 59 77 
3 58 77 76 
3 59 60 78 
3 59 78 77 
3 60 61 79 
3 60 79 78 
3 61 62 80 
3 61 80 79 
3 62 63 81 
3 62 81 80 
3 63 64 82 
3 63 82 81 
3 64 65 83 
3 64 83 82 
3 65 66 84 
3 65 84 83 
3 66 67 85 
3 66 85 84 
3 67 68 86 
3 67 86 85 
3 68 69 87 
3 68 87 86 
3 69 70 88 
3 69 88 87 
3 70 71 89 
3 70 89 88 
3 71 72 90 
3 71 90 89 
3 72 56 74 
3 72 74 90 
3 74 73 91 
3 74 91 92 
3 73 75 93 
3 73 93 91 
3 75 76 94 
3 75 94 93 
3 76 77 95 
3 76 95 94 
3 77 78 96 
3 77 96 95 
3 78 79 97 
3 78 97 96 
3 79 80 98 
3 79 98 97 
3 80 81 99 
3 80 99 98 
3 81 82 100 
3 81 100 99 
3 82 83 101 
3 82 101 100 
3 83 84 102 
3 83 102 101 
3 84 85 103 
3 84 103 102 
3 85 86 104 
3 85 104 103 
3 86 87 105 
3 86 105 104 
3 87 88 106 
3 87 106 105 
3 88 89 107 
3 88 107 106 
3 89 90 108 
3 89 108 107 
3 90 74 92 
3 90 92 108 
3 109 108 92 
3 109 92 91 
3 109 91 93 
3 109 93 94 
3 109 94 95 
3 109 95 96 
3 109 96 97 
3 109 97 98 
3 109 98 99 
3 109 99 100 
3 109 100 101 
3 109 101 102 
3 109 102 103 
3 109 103 104 
3 109 104 105 
3 109 105 106 
3 109 106 107 
3 109 107 108 
