ply
format ascii 1.0
comment VCGLIB generated
element vertex 504
property float x
property float y
property float z
property float nx
property float ny
property float nz
element face 1008
property list uchar int vertex_indices
end_header
0 -2.97 48.1954 -1.78814e-007 -1.6583e-005 5.74927 
0 -7.3956 47.0096 -0.0334555 -2.8824 4.98684 
12.167 -7.3956 45.4078 1.25837 -2.88241 4.82557 
12.4739 -2.97 46.5532 1.48801 -2.28925e-005 5.55337 
0 -10.6355 43.7698 -0.0586404 -5.00828 2.88818 
11.3285 -10.6355 42.2783 0.69088 -5.00828 2.80494 
0 -11.8213 39.3441 -0.0681062 -5.79221 7.61463e-006 
10.183 -11.8213 38.0035 -0.0657813 -5.79221 0.017637 
0 -10.6355 34.9184 -0.0586406 -5.00826 -2.88819 
9.0375 -10.6355 33.7286 -0.804161 -5.00826 -2.7746 
0 -7.3956 31.6786 -0.0334576 -2.88245 -4.98684 
8.199 -7.3956 30.5992 -1.323 -2.88244 -4.80827 
0 -2.97 30.4927 -1.63913e-007 -1.614e-005 -5.74924 
7.8921 -2.97 29.4537 -1.488 -2.07977e-005 -5.55335 
0 1.4557 31.6786 0.0334573 2.88247 -4.98681 
8.199 1.4557 30.5992 -1.25836 2.88245 -4.82556 
0 4.6955 34.9184 0.0586342 5.00828 -2.88822 
9.0375 4.6955 33.7286 -0.690887 5.00827 -2.80498 
0 5.8814 39.3441 0.0681115 5.79218 8.44882e-006 
10.183 5.8814 38.0035 0.0657948 5.79218 -0.0176154 
0 4.6955 43.7698 0.0586371 5.00829 2.88821 
11.3284 4.6955 42.2783 0.804162 5.0083 2.77462 
0 1.4557 47.0096 0.0334574 2.88242 4.98681 
12.167 1.4557 45.4078 1.323 2.88244 4.80822 
23.5048 -7.3956 40.7115 2.46444 -2.88242 4.33545 
24.0977 -2.97 41.7385 2.87463 -1.73242e-005 4.979 
21.8849 -10.6355 37.9057 1.39331 -5.00828 2.53056 
19.672 -11.8213 34.073 -0.0589745 -5.79221 0.0340649 
17.4592 -10.6355 30.2402 -1.49489 -5.00826 -2.47192 
15.8393 -7.3956 27.4345 -2.52242 -2.88241 -4.302 
15.2464 -2.97 26.4075 -2.87464 -2.47567e-005 -4.97899 
15.8393 1.4557 27.4345 -2.46444 2.88244 -4.33543 
17.4592 4.6955 30.2402 -1.39333 5.00827 -2.53059 
19.672 5.8814 34.073 0.05899 5.79218 -0.0340426 
21.8849 4.6955 37.9057 1.49488 5.00829 2.47195 
23.5048 1.4557 40.7115 2.52238 2.88245 4.30196 
33.2408 -7.3956 33.2408 3.50257 -2.88242 3.54988 
34.0793 -2.97 34.0793 4.06534 -1.63902e-005 4.06534 
30.9499 -10.6355 30.9499 2.00079 -5.00827 2.08372 
27.8205 -11.8213 27.8205 -0.0481492 -5.79221 0.0481675 
24.691 -10.6355 24.691 -2.08372 -5.00826 -2.0008 
22.4001 -7.3956 22.4001 -3.5499 -2.88241 -3.50259 
21.5616 -2.97 21.5616 -4.06535 -1.60944e-005 -4.06535 
22.4001 1.4557 22.4001 -3.50256 2.88242 -3.54988 
24.691 4.6955 24.691 -2.00082 5.00828 -2.08374 
27.8205 5.8814 27.8205 0.0481716 5.79218 -0.0481527 
30.9499 4.6955 30.9499 2.08374 5.00829 2.00082 
33.2408 1.4557 33.2408 3.54987 2.88244 3.50255 
40.7115 -7.3956 23.5048 4.30199 -2.88243 2.52239 
41.7385 -2.97 24.0977 4.979 -1.56825e-005 2.87463 
37.9057 -10.6355 21.8849 2.47192 -5.00828 1.49487 
34.073 -11.8213 19.672 -0.0340402 -5.79221 0.0589851 
30.2402 -10.6355 17.4592 -2.53056 -5.00826 -1.39332 
27.4345 -7.3956 15.8393 -4.33546 -2.88242 -2.46446 
26.4075 -2.97 15.2464 -4.97899 -7.56335e-006 -2.87464 
27.4345 1.4557 15.8393 -4.30197 2.88243 -2.5224 
30.2402 4.6955 17.4592 -2.47195 5.00827 -1.4949 
34.073 5.8814 19.672 0.0340702 5.79218 -0.0589789 
37.9057 4.6955 21.8849 2.53058 5.0083 1.39332 
40.7115 1.4557 23.5048 4.33543 2.88244 2.46443 
45.4078 -7.3956 12.167 4.80825 -2.88242 1.32301 
46.5532 -2.97 12.4739 5.55336 -1.01084e-005 1.48801 
42.2783 -10.6355 11.3284 2.77459 -5.00828 0.804158 
38.0035 -11.8213 10.183 -0.0176143 -5.79221 0.0657894 
33.7286 -10.6355 9.0375 -2.80495 -5.00826 -0.690875 
30.5992 -7.3956 8.199 -4.82558 -2.88244 -1.25837 
29.4537 -2.97 7.8921 -5.55335 -1.16175e-005 -1.488 
30.5992 1.4557 8.199 -4.80824 2.88245 -1.32299 
33.7286 4.6955 9.0375 -2.77463 5.00827 -0.804165 
38.0035 5.8814 10.183 0.0176405 5.79218 -0.0657858 
42.2783 4.6955 11.3284 2.80497 5.0083 0.690891 
45.4078 1.4557 12.167 4.82554 2.88244 1.25836 
47.0096 -7.3956 -3.23272e-007 4.98684 -2.88241 0.0334551 
48.1954 -2.97 -1.29823e-007 5.74927 -1.63317e-005 1.78813e-007 
43.7698 -10.6355 -4.64892e-007 2.88818 -5.00828 0.0586403 
39.3441 -11.8213 -5.16725e-007 9.29832e-006 -5.79221 0.068106 
34.9184 -10.6355 -4.64892e-007 -2.88819 -5.00826 0.0586394 
31.6786 -7.3956 -3.23272e-007 -4.98684 -2.88245 0.0334562 
30.4927 -2.97 -1.29823e-007 -5.74924 -1.63913e-005 1.78813e-007 
31.6786 1.4557 6.36307e-008 -4.98681 2.88246 -0.0334578 
34.9184 4.6955 2.05247e-007 -2.88822 5.00828 -0.0586353 
39.3441 5.8814 2.57084e-007 9.23872e-006 5.79218 -0.0681114 
43.7698 4.6955 2.05247e-007 2.88821 5.00829 -0.0586362 
47.0096 1.4557 6.36307e-008 4.98681 2.88242 -0.0334567 
45.4078 -7.3956 -12.167 4.82557 -2.88242 -1.25837 
46.5532 -2.97 -12.4739 5.55336 -2.25847e-005 -1.48801 
42.2783 -10.6355 -11.3284 2.80494 -5.00828 -0.690879 
38.0035 -11.8213 -10.183 0.0176392 -5.79221 0.0657806 
33.7286 -10.6355 -9.0375 -2.7746 -5.00826 0.804161 
30.5992 -7.3956 -8.199 -4.80826 -2.88244 1.323 
29.4537 -2.97 -7.8921 -5.55335 -2.11055e-005 1.488 
30.5992 1.4557 -8.199 -4.82556 2.88245 1.25836 
33.7286 4.6955 -9.0375 -2.80498 5.00827 0.690887 
38.0035 5.8814 -10.183 -0.0176157 5.79218 -0.0657946 
42.2783 4.6955 -11.3284 2.77462 5.0083 -0.804162 
45.4078 1.4557 -12.167 4.80822 2.88244 -1.323 
40.7115 -7.3956 -23.5048 4.33545 -2.88242 -2.46444 
41.7385 -2.97 -24.0977 4.979 -1.69809e-005 -2.87463 
37.9057 -10.6355 -21.8849 2.53056 -5.00828 -1.3933 
34.073 -11.8213 -19.672 0.0340675 -5.79221 0.0589743 
30.2402 -10.6355 -17.4592 -2.47192 -5.00826 1.49489 
27.4345 -7.3956 -15.8393 -4.302 -2.88241 2.52242 
26.4075 -2.97 -15.2464 -4.97899 -2.51e-005 2.87464 
27.4345 1.4557 -15.8393 -4.33543 2.88244 2.46444 
30.2402 4.6955 -17.4592 -2.53059 5.00827 1.39333 
34.073 5.8814 -19.672 -0.0340429 5.79218 -0.0589898 
37.9057 4.6955 -21.8849 2.47195 5.00829 -1.49488 
40.7115 1.4557 -23.5048 4.30196 2.88245 -2.52238 
33.2408 -7.3956 -33.2408 3.54988 -2.88242 -3.50257 
34.0793 -2.97 -34.0793 4.06534 -1.60348e-005 -4.06534 
30.9499 -10.6355 -30.9499 2.08372 -5.00827 -2.00079 
27.8205 -11.8213 -27.8205 0.0481678 -5.79221 0.048149 
24.691 -10.6355 -24.691 -2.0008 -5.00826 2.08372 
22.4001 -7.3956 -22.4001 -3.50258 -2.88241 3.5499 
21.5616 -2.97 -21.5616 -4.06534 -1.64498e-005 4.06535 
22.4001 1.4557 -22.4001 -3.54988 2.88242 3.50256 
24.691 4.6955 -24.691 -2.08374 5.00828 2.00082 
27.8205 5.8814 -27.8205 -0.048153 5.79218 -0.0481714 
30.9499 4.6955 -30.9499 2.00081 5.00829 -2.08374 
33.2408 1.4557 -33.2408 3.50255 2.88244 -3.54987 
23.5048 -7.3956 -40.7115 2.5224 -2.88243 -4.30199 
24.0977 -2.97 -41.7385 2.87463 -1.53392e-005 -4.979 
21.8849 -10.6355 -37.9057 1.49488 -5.00827 -2.47192 
19.672 -11.8213 -34.073 0.0589853 -5.79221 0.0340412 
17.4592 -10.6355 -30.2402 -1.39331 -5.00826 2.53056 
15.8393 -7.3956 -27.4345 -2.46446 -2.88242 4.33546 
15.2464 -2.97 -26.4075 -2.87464 -7.90664e-006 4.97899 
15.8393 1.4557 -27.4345 -2.5224 2.88243 4.30197 
17.4592 4.6955 -30.2402 -1.4949 5.00827 2.47195 
19.672 5.8814 -34.073 -0.0589792 5.79218 -0.03407 
21.8849 4.6955 -37.9057 1.39332 5.0083 -2.53058 
23.5048 1.4557 -40.7115 2.46443 2.88244 -4.33543 
12.167 -7.3956 -45.4078 1.32301 -2.88242 -4.80825 
12.4739 -2.97 -46.5532 1.48801 -9.80064e-006 -5.55336 
11.3285 -10.6355 -42.2783 0.804161 -5.00828 -2.77459 
10.183 -11.8213 -38.0035 0.0657895 -5.79221 0.0176167 
9.0375 -10.6355 -33.7286 -0.690875 -5.00826 2.80495 
8.199 -7.3956 -30.5992 -1.25837 -2.88244 4.82558 
7.8921 -2.97 -29.4537 -1.488 -1.19253e-005 5.55335 
8.199 1.4557 -30.5992 -1.32299 2.88245 4.80824 
9.0375 4.6955 -33.7286 -0.804165 5.00827 2.77463 
10.183 5.8814 -38.0035 -0.0657861 5.79218 -0.0176402 
11.3284 4.6955 -42.2783 0.690891 5.0083 -2.80497 
12.167 1.4557 -45.4078 1.25836 2.88244 -4.82554 
0 -7.3956 -47.0096 0.0334594 -2.88239 -4.98685 
0 -2.97 -48.1954 1.78814e-007 -1.60804e-005 -5.74927 
0 -10.6355 -43.7698 0.058645 -5.00827 -2.88818 
0 -11.8213 -39.3441 0.0681074 -5.79221 -6.33286e-006 
0 -10.6355 -34.9184 0.0586397 -5.00826 2.88819 
0 -7.3956 -31.6786 0.0334563 -2.88245 4.98684 
0 -2.97 -30.4927 1.78814e-007 -1.66426e-005 5.74924 
0 1.4557 -31.6786 -0.0334579 2.88246 4.98681 
0 4.6955 -34.9184 -0.0586356 5.00828 2.88822 
0 5.8814 -39.3441 -0.0681116 5.79218 -8.98554e-006 
0 4.6955 -43.7698 -0.0586364 5.00829 -2.88821 
0 1.4557 -47.0096 -0.0334568 2.88242 -4.98681 
-12.167 -7.3956 -45.4078 -1.25837 -2.8824 -4.82558 
-12.4739 -2.97 -46.5532 -1.48801 -2.2407e-005 -5.55337 
-11.3284 -10.6355 -42.2784 -0.690878 -5.00827 -2.80495 
-10.183 -11.8213 -38.0035 0.0657839 -5.79221 -0.0176315 
-9.0375 -10.6355 -33.7286 0.804161 -5.00826 2.7746 
-8.199 -7.3956 -30.5992 1.323 -2.88244 4.80827 
-7.8921 -2.97 -29.4537 1.488 -2.12832e-005 5.55335 
-8.199 1.4557 -30.5992 1.25836 2.88245 4.82556 
-9.0375 4.6955 -33.7286 0.690887 5.00827 2.80498 
-10.183 5.8814 -38.0035 -0.0657948 5.79218 0.0176159 
-11.3284 4.6955 -42.2783 -0.804162 5.0083 -2.77462 
-12.167 1.4557 -45.4078 -1.323 2.88244 -4.80822 
-23.5048 -7.3956 -40.7115 -2.46445 -2.88242 -4.33546 
-24.0977 -2.97 -41.7385 -2.87463 -1.68889e-005 -4.979 
-21.8849 -10.6355 -37.9057 -1.39331 -5.00827 -2.53056 
-19.672 -11.8213 -34.073 0.0589744 -5.79221 -0.0340622 
-17.4592 -10.6355 -30.2402 1.49489 -5.00826 2.47192 
-15.8393 -7.3956 -27.4345 2.52242 -2.88241 4.302 
-15.2464 -2.97 -26.4075 2.87464 -2.5192e-005 4.97899 
-15.8393 1.4557 -27.4345 2.46444 2.88244 4.33543 
-17.4592 4.6955 -30.2402 1.39333 5.00827 2.53059 
-19.672 5.8814 -34.073 -0.05899 5.79218 0.0340432 
-21.8849 4.6955 -37.9057 -1.49488 5.00829 -2.47195 
-23.5048 1.4557 -40.7115 -2.52238 2.88245 -4.30196 
-33.2408 -7.3956 -33.2408 -3.50257 -2.88242 -3.54988 
-34.0793 -2.97 -34.0793 -4.06534 -1.60348e-005 -4.06534 
-30.9499 -10.6355 -30.9499 -2.00079 -5.00827 -2.08372 
-27.8205 -11.8213 -27.8205 0.0481447 -5.79222 -0.0481704 
-24.691 -10.6355 -24.691 2.08371 -5.00827 2.00078 
-22.4001 -7.3956 -22.4001 3.5499 -2.8824 3.50257 
-21.5616 -2.97 -21.5616 4.06536 -2.44964e-005 4.06534 
-22.4001 1.4557 -22.4001 3.50257 2.88242 3.54986 
-24.691 4.6955 -24.691 2.00082 5.00828 2.08373 
-27.8205 5.8814 -27.8205 -0.0481716 5.79218 0.0481532 
-30.9499 4.6955 -30.9499 -2.08374 5.00829 -2.00081 
-33.2408 1.4557 -33.2408 -3.54987 2.88244 -3.50255 
-40.7115 -7.3956 -23.5048 -4.30199 -2.88243 -2.5224 
-41.7385 -2.97 -24.0977 -4.979 -1.54312e-005 -2.87463 
-37.9057 -10.6355 -21.8849 -2.47192 -5.00827 -1.49488 
-34.073 -11.8213 -19.6721 0.0340367 -5.79221 -0.0589891 
-30.2402 -10.6355 -17.4592 2.53054 -5.00828 1.39331 
-27.4344 -7.3956 -15.8393 4.33545 -2.88241 2.46446 
-26.4075 -2.97 -15.2464 4.979 -9.12596e-006 2.87465 
-27.4344 1.4557 -15.8393 4.30196 2.88242 2.5224 
-30.2402 4.6955 -17.4592 2.47194 5.00829 1.49489 
-34.073 5.8814 -19.672 -0.0340672 5.79218 0.0589803 
-37.9057 4.6955 -21.8849 -2.53058 5.00829 -1.39333 
-40.7115 1.4557 -23.5048 -4.33543 2.88244 -2.46443 
-45.4078 -7.3956 -12.167 -4.80825 -2.88242 -1.32301 
-46.5532 -2.97 -12.4739 -5.55336 -9.97834e-006 -1.48801 
-42.2783 -10.6355 -11.3285 -2.77459 -5.00828 -0.804161 
-38.0035 -11.8213 -10.183 0.0176154 -5.79221 -0.0657899 
-33.7286 -10.6355 -9.0376 2.80495 -5.00827 0.690876 
-30.5992 -7.3956 -8.199 4.82557 -2.88244 1.25838 
-29.4537 -2.97 -7.8921 5.55335 -2.38962e-006 1.48802 
-30.5992 1.4557 -8.199 4.80823 2.88244 1.323 
-33.7286 4.6955 -9.0376 2.77462 5.00829 0.80417 
-38.0035 5.8814 -10.183 -0.0176369 5.79218 0.0657884 
-42.2783 4.6955 -11.3285 -2.80497 5.00829 -0.690892 
-45.4078 1.4557 -12.167 -4.82554 2.88243 -1.25836 
-47.0096 -7.3956 -3.23272e-007 -4.98685 -2.88239 -0.0334595 
-48.1954 -2.97 -1.29823e-007 -5.74927 -1.63317e-005 -1.78815e-007 
-43.7698 -10.6355 -4.64892e-007 -2.88818 -5.00827 -0.0586452 
-39.3441 -11.8213 -5.16725e-007 -5.72205e-006 -5.79221 -0.0681077 
-34.9184 -10.6355 -4.64892e-007 2.88819 -5.00826 -0.0586408 
-31.6786 -7.3956 -3.23272e-007 4.98684 -2.88245 -0.0334577 
-30.4927 -2.97 -1.29823e-007 5.74924 -1.63913e-005 -1.78815e-007 
-31.6786 1.4557 6.36307e-008 4.98681 2.88246 0.0334574 
-34.9184 4.6955 2.05247e-007 2.88822 5.00828 0.0586344 
-39.3441 5.8814 2.57084e-007 -8.16584e-006 5.79218 0.0681118 
-43.7698 4.6955 2.05247e-007 -2.88821 5.00829 0.0586373 
-47.0096 1.4557 6.36307e-008 -4.98681 2.88242 0.0334575 
-45.4078 -7.3956 12.167 -4.82558 -2.8824 1.25837 
-46.5532 -2.97 12.4739 -5.55336 -2.27148e-005 1.48801 
-42.2784 -10.6355 11.3284 -2.80495 -5.00827 0.690878 
-38.0035 -11.8213 10.183 -0.0176313 -5.79221 -0.0657841 
-33.7286 -10.6355 9.0375 2.7746 -5.00826 -0.804162 
-30.5992 -7.3956 8.199 4.80826 -2.88244 -1.323 
-29.4537 -2.97 7.8921 5.55334 -1.70415e-005 -1.488 
-30.5992 1.4557 8.199 4.82556 2.88246 -1.25836 
-33.7286 4.6955 9.0375 2.80498 5.00827 -0.690886 
-38.0035 5.8814 10.183 0.0176157 5.79218 0.0657951 
-42.2783 4.6955 11.3284 -2.77462 5.0083 0.804162 
-45.4078 1.4557 12.167 -4.80822 2.88244 1.323 
-40.7115 -7.3956 23.5048 -4.33546 -2.88242 2.46445 
-41.7385 -2.97 24.0977 -4.979 -1.72322e-005 2.87463 
-37.9057 -10.6355 21.8849 -2.53056 -5.00827 1.39331 
-34.073 -11.8213 19.672 -0.0340572 -5.79221 -0.0589757 
-30.2402 -10.6355 17.4592 2.47192 -5.00827 -1.49488 
-27.4345 -7.3956 15.8393 4.302 -2.88243 -2.52241 
-26.4075 -2.97 15.2463 4.97898 -2.24645e-005 -2.87463 
-27.4345 1.4557 15.8393 4.33543 2.88246 -2.46443 
-30.2402 4.6955 17.4592 2.53059 5.00828 -1.39333 
-34.073 5.8814 19.672 0.0340453 5.79218 0.0589898 
-37.9057 4.6955 21.8849 -2.47195 5.00829 1.49489 
-40.7115 1.4557 23.5048 -4.30196 2.88245 2.52238 
-33.2408 -7.3956 33.2408 -3.54988 -2.88242 3.50257 
-34.0793 -2.97 34.0793 -4.06534 -1.63902e-005 4.06534 
-30.9499 -10.6355 30.9499 -2.08372 -5.00827 2.00079 
-27.8205 -11.8213 27.8205 -0.048167 -5.79221 -0.048149 
-24.6911 -10.6355 24.691 2.00078 -5.00828 -2.08371 
-22.4001 -7.3956 22.4001 3.50257 -2.88241 -3.54989 
-21.5616 -2.97 21.5616 4.06534 -3.03399e-005 -4.06535 
-22.4001 1.4557 22.4001 3.54986 2.88245 -3.50255 
-24.6911 4.6955 24.691 2.08373 5.00829 -2.00081 
-27.8205 5.8814 27.8205 0.0481546 5.79218 0.0481726 
-30.9499 4.6955 30.9499 -2.00082 5.00829 2.08374 
-33.2408 1.4557 33.2408 -3.50255 2.88244 3.54987 
-23.5048 -7.3956 40.7115 -2.5224 -2.88243 4.30199 
-24.0977 -2.97 41.7385 -2.87463 -1.57745e-005 4.979 
-21.8849 -10.6355 37.9057 -1.49488 -5.00827 2.47192 
-19.6721 -11.8213 34.073 -0.0589885 -5.79221 -0.0340387 
-17.4592 -10.6355 30.2402 1.39331 -5.00828 -2.53054 
-15.8393 -7.3956 27.4344 2.46445 -2.88242 -4.33545 
-15.2464 -2.97 26.4075 2.87465 -8.78266e-006 -4.979 
-15.8393 1.4557 27.4344 2.5224 2.88242 -4.30196 
-17.4592 4.6955 30.2402 1.49488 5.0083 -2.47193 
-19.6721 5.8814 34.073 0.0589775 5.79218 0.0340713 
-21.8849 4.6955 37.9057 -1.39333 5.00829 2.53058 
-23.5048 1.4557 40.7115 -2.46443 2.88244 4.33543 
-12.167 -7.3956 45.4078 -1.32301 -2.88242 4.80825 
-12.4739 -2.97 46.5532 -1.48801 -1.02861e-005 5.55336 
-11.3285 -10.6355 42.2783 -0.804161 -5.00828 2.77459 
-10.183 -11.8213 38.0035 -0.0657897 -5.79221 -0.0176157 
-9.0376 -10.6355 33.7286 0.690876 -5.00827 -2.80495 
-8.199 -7.3956 30.5992 1.25838 -2.88244 -4.82557 
-7.8921 -2.97 29.4537 1.48802 -2.08184e-006 -5.55335 
-8.199 1.4557 30.5992 1.323 2.88244 -4.80823 
-9.0376 4.6955 33.7286 0.804168 5.00829 -2.77462 
-10.183 5.8814 38.0035 0.0657863 5.79218 0.0176398 
-11.3285 4.6955 42.2783 -0.690892 5.00829 2.80497 
-12.167 1.4557 45.4078 -1.25836 2.88243 4.82554 
0 -2.9559 11.9751 -0.178494 -3 -2.95182 
0 -2.4327 11.9751 -1.49012e-008 2.58057e-007 -5.90365 
3.9811 -2.4327 11.2529 -2.0675 2.41774e-007 -5.53115 
3.9811 -2.9559 11.2529 -1.19984 -3 -2.70349 
0 -1.9095 11.9751 -1.49012e-008 2.58057e-007 -5.90365 
3.9811 -1.9095 11.2529 -2.0675 2.41774e-007 -5.53115 
0 -1.3863 11.9751 0 2.58057e-007 -5.90365 
3.9811 -1.3863 11.2529 -2.0675 2.41774e-007 -5.53115 
0 -0.863101 11.9751 0 2.58057e-007 -5.90365 
3.9811 -0.863101 11.2529 -2.0675 2.41774e-007 -5.53115 
0 -0.339901 11.9751 0.178494 3 -2.95182 
3.9811 -0.339901 11.2529 -0.867661 3 -2.82766 
0 -0.339901 32.0317 0.178488 3 2.95183 
10.6488 -0.339901 30.1 1.19986 3 2.70348 
0 -0.863101 32.0317 7.45058e-008 -2.58057e-007 5.90365 
10.6488 -0.863101 30.1 2.06752 -2.41773e-007 5.53113 
0 -1.3863 32.0317 -1.49012e-008 -2.58057e-007 5.90365 
10.6488 -1.3863 30.1 2.06752 -2.41773e-007 5.53113 
0 -1.9095 32.0317 2.98023e-008 -2.58057e-007 5.90365 
10.6488 -1.9095 30.1 2.06752 -2.41773e-007 5.53113 
0 -2.4327 32.0317 2.98023e-008 -2.58057e-007 5.90365 
10.6488 -2.4327 30.1 2.06752 -2.41773e-007 5.53113 
0 -2.9559 32.0317 -0.178488 -3 2.95183 
10.6488 -2.9559 30.1 0.867663 -3 2.82765 
7.482 -2.4327 9.1735 -3.85684 1.95627e-007 -4.47543 
7.482 -2.9559 9.1735 -2.06055 -3 -2.12385 
7.482 -1.9095 9.1735 -3.85684 1.95627e-007 -4.47543 
7.482 -1.3863 9.1735 -3.85684 1.95627e-007 -4.47543 
7.482 -0.8631 9.1735 -3.85684 1.95627e-007 -4.47543 
7.482 -0.3399 9.1735 -1.79629 3 -2.35159 
20.0132 -0.339901 24.5377 2.06055 3 2.12386 
20.0132 -0.863101 24.5377 3.85686 -1.95627e-007 4.47544 
20.0132 -1.3863 24.5377 3.85686 -1.95628e-007 4.47544 
20.0132 -1.9095 24.5377 3.85686 -1.95627e-007 4.47544 
20.0132 -2.4327 24.5377 3.85686 -1.95628e-007 4.47544 
20.0132 -2.9559 24.5377 1.79631 -3 2.35158 
10.0804 -2.4327 5.9876 -5.15304 1.26618e-007 -2.89667 
10.0804 -2.9559 5.9876 -2.66042 -3 -1.29908 
10.0804 -1.9095 5.9876 -5.15304 1.26618e-007 -2.89667 
10.0804 -1.3863 5.9876 -5.15304 1.26618e-007 -2.89667 
10.0804 -0.8631 5.9876 -5.15304 1.26618e-007 -2.89667 
10.0804 -0.3399 5.9876 -2.49262 3 -1.59759 
26.9637 -0.339901 16.0159 2.66042 3 1.29909 
26.9637 -0.863101 16.0159 5.15302 -1.26619e-007 2.8967 
26.9637 -1.3863 16.0159 5.15302 -1.26619e-007 2.8967 
26.9637 -1.9095 16.0159 5.15302 -1.26619e-007 2.8967 
26.9637 -2.4327 16.0159 5.15302 -1.26619e-007 2.8967 
26.9637 -2.9559 16.0159 2.49261 -3 1.59761 
11.463 -2.4327 2.0795 -5.82823 4.37361e-008 -1.00056 
11.463 -2.9559 2.0795 -2.94274 -3 -0.333522 
11.463 -1.9095 2.0795 -5.82823 4.37361e-008 -1.00056 
11.463 -1.3863 2.0795 -5.82823 4.37361e-008 -1.00056 
11.463 -0.8631 2.0795 -5.82823 4.37361e-008 -1.00056 
11.463 -0.3399 2.0795 -2.88548 3 -0.667043 
30.662 -0.3399 5.5622 2.94274 3 0.333523 
30.662 -0.8631 5.5622 5.82823 -4.37362e-008 1.00057 
30.662 -1.3863 5.5622 5.82823 -4.37362e-008 1.00057 
30.662 -1.9095 5.5622 5.82823 -4.37362e-008 1.00057 
30.662 -2.4327 5.5622 5.82823 -4.37362e-008 1.00057 
30.662 -2.9559 5.5622 2.88548 -3 0.667045 
11.463 -2.4327 -2.0795 -5.82823 -4.37361e-008 1.00056 
11.463 -2.9559 -2.0795 -2.88548 -3 0.667043 
11.463 -1.9095 -2.0795 -5.82823 -4.37361e-008 1.00056 
11.463 -1.3863 -2.0795 -5.82823 -4.37361e-008 1.00056 
11.463 -0.8631 -2.0795 -5.82823 -4.37361e-008 1.00056 
11.463 -0.3399 -2.0795 -2.94274 3 0.333522 
30.662 -0.3399 -5.5623 2.88548 3 -0.667051 
30.662 -0.8631 -5.5623 5.82822 4.37366e-008 -1.00058 
30.662 -1.3863 -5.5623 5.82822 4.37366e-008 -1.00058 
30.662 -1.9095 -5.5623 5.82822 4.37366e-008 -1.00058 
30.662 -2.4327 -5.5623 5.82822 4.37366e-008 -1.00058 
30.662 -2.9559 -5.5623 2.94274 -3 -0.333526 
10.0804 -2.4327 -5.9876 -5.15304 -1.26618e-007 2.89667 
10.0804 -2.9559 -5.9876 -2.49262 -3 1.59759 
10.0804 -1.9095 -5.9876 -5.15304 -1.26618e-007 2.89667 
10.0804 -1.3863 -5.9876 -5.15304 -1.26618e-007 2.89667 
10.0804 -0.8631 -5.9876 -5.15304 -1.26618e-007 2.89667 
10.0804 -0.3399 -5.9876 -2.66042 3 1.29908 
26.9637 -0.339899 -16.0159 2.4926 3 -1.59762 
26.9637 -0.863099 -16.0159 5.15302 1.26619e-007 -2.89671 
26.9637 -1.3863 -16.0159 5.15302 1.26619e-007 -2.89671 
26.9637 -1.9095 -16.0159 5.15302 1.26619e-007 -2.89671 
26.9637 -2.4327 -16.0159 5.15302 1.26619e-007 -2.89671 
26.9637 -2.9559 -16.0159 2.66041 -3 -1.2991 
7.482 -2.4327 -9.1735 -3.85684 -1.95627e-007 4.47543 
7.482 -2.9559 -9.1735 -1.79629 -3 2.35159 
7.482 -1.9095 -9.1735 -3.85684 -1.95627e-007 4.47543 
7.482 -1.3863 -9.1735 -3.85684 -1.95627e-007 4.47543 
7.482 -0.8631 -9.1735 -3.85684 -1.95627e-007 4.47543 
7.482 -0.3399 -9.1735 -2.06055 3 2.12385 
20.0132 -0.339899 -24.5377 1.79631 3 -2.35158 
20.0132 -0.863099 -24.5377 3.85686 1.95628e-007 -4.47544 
20.0132 -1.3863 -24.5377 3.85686 1.95627e-007 -4.47544 
20.0132 -1.9095 -24.5377 3.85686 1.95627e-007 -4.47544 
20.0132 -2.4327 -24.5377 3.85686 1.95627e-007 -4.47544 
20.0132 -2.9559 -24.5377 2.06055 -3 -2.12386 
3.9811 -2.4327 -11.2529 -2.0675 -2.41774e-007 5.53115 
3.9811 -2.9559 -11.2529 -0.867661 -3 2.82766 
3.9811 -1.9095 -11.2529 -2.0675 -2.41774e-007 5.53115 
3.9811 -1.3863 -11.2529 -2.0675 -2.41774e-007 5.53115 
3.9811 -0.8631 -11.2529 -2.0675 -2.41774e-007 5.53115 
3.9811 -0.339899 -11.2529 -1.19984 3 2.70349 
10.6488 -0.339899 -30.1 0.867663 3 -2.82765 
10.6488 -0.863099 -30.1 2.06752 2.41773e-007 -5.53113 
10.6488 -1.3863 -30.1 2.06752 2.41773e-007 -5.53113 
10.6488 -1.9095 -30.1 2.06752 2.41773e-007 -5.53113 
10.6488 -2.4327 -30.1 2.06752 2.41773e-007 -5.53113 
10.6488 -2.9559 -30.1 1.19986 -3 -2.70348 
0 -2.4327 -11.9751 5.96046e-008 -2.58057e-007 5.90365 
0 -2.9559 -11.9751 0.178494 -3 2.95182 
0 -1.9095 -11.9751 -2.98023e-008 -2.58057e-007 5.90365 
0 -1.3863 -11.9751 2.98023e-008 -2.58057e-007 5.90365 
0 -0.863099 -11.9751 -2.98023e-008 -2.58057e-007 5.90365 
0 -0.339899 -11.9751 -0.178494 3 2.95182 
0 -0.339899 -32.0317 -0.178488 3 -2.95183 
0 -0.863099 -32.0317 0 2.58057e-007 -5.90365 
0 -1.3863 -32.0317 0 2.58057e-007 -5.90365 
0 -1.9095 -32.0317 2.98023e-008 2.58057e-007 -5.90365 
0 -2.4327 -32.0317 2.98023e-008 2.58057e-007 -5.90365 
0 -2.9559 -32.0317 0.178488 -3 -2.95183 
-3.9811 -2.4327 -11.2529 2.0675 -2.41774e-007 5.53115 
-3.9811 -2.9559 -11.2529 1.19984 -3 2.70349 
-3.9811 -1.9095 -11.2529 2.0675 -2.41774e-007 5.53115 
-3.9811 -1.3863 -11.2529 2.0675 -2.41774e-007 5.53115 
-3.9811 -0.8631 -11.2529 2.0675 -2.41774e-007 5.53115 
-3.9811 -0.339899 -11.2529 0.867661 3 2.82766 
-10.6488 -0.339899 -30.1 -1.19986 3 -2.70348 
-10.6488 -0.863099 -30.1 -2.06752 2.41773e-007 -5.53113 
-10.6488 -1.3863 -30.1 -2.06752 2.41773e-007 -5.53113 
-10.6488 -1.9095 -30.1 -2.06752 2.41773e-007 -5.53113 
-10.6488 -2.4327 -30.1 -2.06752 2.41773e-007 -5.53113 
-10.6488 -2.9559 -30.1 -0.867663 -3 -2.82765 
-7.482 -2.4327 -9.1735 3.85684 -1.95627e-007 4.47543 
-7.482 -2.9559 -9.1735 2.06055 -3 2.12385 
-7.482 -1.9095 -9.1735 3.85684 -1.95627e-007 4.47543 
-7.482 -1.3863 -9.1735 3.85684 -1.95627e-007 4.47543 
-7.482 -0.8631 -9.1735 3.85684 -1.95627e-007 4.47543 
-7.482 -0.3399 -9.1735 1.79629 3 2.35159 
-20.0132 -0.339899 -24.5377 -2.06055 3 -2.12386 
-20.0132 -0.863099 -24.5377 -3.85686 1.95627e-007 -4.47544 
-20.0132 -1.3863 -24.5377 -3.85686 1.95628e-007 -4.47544 
-20.0132 -1.9095 -24.5377 -3.85686 1.95627e-007 -4.47544 
-20.0132 -2.4327 -24.5377 -3.85686 1.95628e-007 -4.47544 
-20.0132 -2.9559 -24.5377 -1.79631 -3 -2.35158 
-10.0804 -2.4327 -5.9876 5.15304 -1.26618e-007 2.89667 
-10.0804 -2.9559 -5.9876 2.66042 -3 1.29908 
-10.0804 -1.9095 -5.9876 5.15304 -1.26618e-007 2.89667 
-10.0804 -1.3863 -5.9876 5.15304 -1.26618e-007 2.89667 
-10.0804 -0.8631 -5.9876 5.15304 -1.26618e-007 2.89667 
-10.0804 -0.3399 -5.9876 2.49262 3 1.59759 
-26.9637 -0.339899 -16.0159 -2.66042 3 -1.29909 
-26.9637 -0.863099 -16.0159 -5.15302 1.26619e-007 -2.8967 
-26.9637 -1.3863 -16.0159 -5.15302 1.26619e-007 -2.8967 
-26.9637 -1.9095 -16.0159 -5.15302 1.26619e-007 -2.8967 
-26.9637 -2.4327 -16.0159 -5.15302 1.26619e-007 -2.8967 
-26.9637 -2.9559 -16.0159 -2.49261 -3 -1.59761 
-11.463 -2.4327 -2.0795 5.82823 -4.37361e-008 1.00056 
-11.463 -2.9559 -2.0795 2.94274 -3 0.333521 
-11.463 -1.9095 -2.0795 5.82823 -4.37361e-008 1.00056 
-11.463 -1.3863 -2.0795 5.82823 -4.37361e-008 1.00056 
-11.463 -0.8631 -2.0795 5.82823 -4.37361e-008 1.00056 
-11.463 -0.3399 -2.0795 2.88548 3 0.667043 
-30.662 -0.3399 -5.5622 -2.94274 3 -0.333522 
-30.662 -0.8631 -5.5622 -5.82823 4.37362e-008 -1.00057 
-30.662 -1.3863 -5.5622 -5.82823 4.37362e-008 -1.00057 
-30.662 -1.9095 -5.5622 -5.82823 4.37362e-008 -1.00057 
-30.662 -2.4327 -5.5622 -5.82823 4.37362e-008 -1.00057 
-30.662 -2.9559 -5.5622 -2.88548 -3 -0.667045 
-11.463 -2.4327 2.0795 5.82823 4.37361e-008 -1.00056 
-11.463 -2.9559 2.0795 2.88548 -3 -0.667043 
-11.463 -1.9095 2.0795 5.82823 4.37361e-008 -1.00056 
-11.463 -1.3863 2.0795 5.82823 4.37361e-008 -1.00056 
-11.463 -0.8631 2.0795 5.82823 4.37361e-008 -1.00056 
-11.463 -0.3399 2.0795 2.94274 3 -0.333521 
-30.662 -0.3399 5.5622 -2.88548 3 0.667045 
-30.662 -0.8631 5.5622 -5.82823 -4.37362e-008 1.00057 
-30.662 -1.3863 5.5622 -5.82823 -4.37362e-008 1.00057 
-30.662 -1.9095 5.5622 -5.82823 -4.37362e-008 1.00057 
-30.662 -2.4327 5.5622 -5.82823 -4.37362e-008 1.00057 
-30.662 -2.9559 5.5622 -2.94274 -3 0.333522 
-10.0804 -2.4327 5.9876 5.15304 1.26618e-007 -2.89667 
-10.0804 -2.9559 5.9876 2.49262 -3 -1.59759 
-10.0804 -1.9095 5.9876 5.15304 1.26618e-007 -2.89667 
-10.0804 -1.3863 5.9876 5.15304 1.26618e-007 -2.89667 
-10.0804 -0.8631 5.9876 5.15304 1.26618e-007 -2.89667 
-10.0804 -0.3399 5.9876 2.66042 3 -1.29908 
-26.9637 -0.339901 16.0159 -2.49261 3 1.59761 
-26.9637 -0.863101 16.0159 -5.15302 -1.26619e-007 2.8967 
-26.9637 -1.3863 16.0159 -5.15302 -1.26619e-007 2.8967 
-26.9637 -1.9095 16.0159 -5.15302 -1.26619e-007 2.8967 
-26.9637 -2.4327 16.0159 -5.15302 -1.26619e-007 2.8967 
-26.9637 -2.9559 16.0159 -2.66042 -3 1.29909 
-7.482 -2.4327 9.1735 3.85684 1.95627e-007 -4.47543 
-7.482 -2.9559 9.1735 1.79629 -3 -2.35159 
-7.482 -1.9095 9.1735 3.85684 1.95627e-007 -4.47543 
-7.482 -1.3863 9.1735 3.85684 1.95627e-007 -4.47543 
-7.482 -0.8631 9.1735 3.85684 1.95627e-007 -4.47543 
-7.482 -0.3399 9.1735 2.06055 3 -2.12385 
-20.0132 -0.339901 24.5377 -1.79631 3 2.35158 
-20.0132 -0.863101 24.5377 -3.85686 -1.95628e-007 4.47544 
-20.0132 -1.3863 24.5377 -3.85686 -1.95627e-007 4.47544 
-20.0132 -1.9095 24.5377 -3.85686 -1.95627e-007 4.47544 
-20.0132 -2.4327 24.5377 -3.85686 -1.95627e-007 4.47544 
-20.0132 -2.9559 24.5377 -2.06055 -3 2.12386 
-3.9811 -2.4327 11.2529 2.0675 2.41774e-007 -5.53115 
-3.9811 -2.9559 11.2529 0.867661 -3 -2.82766 
-3.9811 -1.9095 11.2529 2.0675 2.41774e-007 -5.53115 
-3.9811 -1.3863 11.2529 2.0675 2.41774e-007 -5.53115 
-3.9811 -0.863101 11.2529 2.0675 2.41774e-007 -5.53115 
-3.9811 -0.339901 11.2529 1.19984 3 -2.70349 
-10.6488 -0.339901 30.1 -0.867663 3 2.82765 
-10.6488 -0.863101 30.1 -2.06752 -2.41773e-007 5.53113 
-10.6488 -1.3863 30.1 -2.06752 -2.41773e-007 5.53113 
-10.6488 -1.9095 30.1 -2.06752 -2.41773e-007 5.53113 
-10.6488 -2.4327 30.1 -2.06752 -2.41773e-007 5.53113 
-10.6488 -2.9559 30.1 -1.19986 -3 2.70348 
3 0 1 2 
3 0 2 3 
3 1 4 5 
3 1 5 2 
3 4 6 7 
3 4 7 5 
3 6 8 9 
3 6 9 7 
3 8 10 11 
3 8 11 9 
3 10 12 13 
3 10 13 11 
3 12 14 15 
3 12 15 13 
3 14 16 17 
3 14 17 15 
3 16 18 19 
3 16 19 17 
3 18 20 21 
3 18 21 19 
3 20 22 23 
3 20 23 21 
3 22 0 3 
3 22 3 23 
3 3 2 24 
3 3 24 25 
3 2 5 26 
3 2 26 24 
3 5 7 27 
3 5 27 26 
3 7 9 28 
3 7 28 27 
3 9 11 29 
3 9 29 28 
3 11 13 30 
3 11 30 29 
3 13 15 31 
3 13 31 30 
3 15 17 32 
3 15 32 31 
3 17 19 33 
3 17 33 32 
3 19 21 34 
3 19 34 33 
3 21 23 35 
3 21 35 34 
3 23 3 25 
3 23 25 35 
3 25 24 36 
3 25 36 37 
3 24 26 38 
3 24 38 36 
3 26 27 39 
3 26 39 38 
3 27 28 40 
3 27 40 39 
3 28 29 41 
3 28 41 40 
3 29 30 42 
3 29 42 41 
3 30 31 43 
3 30 43 42 
3 31 32 44 
3 31 44 43 
3 32 33 45 
3 32 45 44 
3 33 34 46 
3 33 46 45 
3 34 35 47 
3 34 47 46 
3 35 25 37 
3 35 37 47 
3 37 36 48 
3 37 48 49 
3 36 38 50 
3 36 50 48 
3 38 39 51 
3 38 51 50 
3 39 40 52 
3 39 52 51 
3 40 41 53 
3 40 53 52 
3 41 42 54 
3 41 54 53 
3 42 43 55 
3 42 55 54 
3 43 44 56 
3 43 56 55 
3 44 45 57 
3 44 57 56 
3 45 46 58 
3 45 58 57 
3 46 47 59 
3 46 59 58 
3 47 37 49 
3 47 49 59 
3 49 48 60 
3 49 60 61 
3 48 50 62 
3 48 62 60 
3 50 51 63 
3 50 63 62 
3 51 52 64 
3 51 64 63 
3 52 53 65 
3 52 65 64 
3 53 54 66 
3 53 66 65 
3 54 55 67 
3 54 67 66 
3 55 56 68 
3 55 68 67 
3 56 57 69 
3 56 69 68 
3 57 58 70 
3 57 70 69 
3 58 59 71 
3 58 71 70 
3 59 49 61 
3 59 61 71 
3 61 60 72 
3 61 72 73 
3 60 62 74 
3 60 74 72 
3 62 63 75 
3 62 75 74 
3 63 64 76 
3 63 76 75 
3 64 65 77 
3 64 77 76 
3 65 66 78 
3 65 78 77 
3 66 67 79 
3 66 79 78 
3 67 68 80 
3 67 80 79 
3 68 69 81 
3 68 81 80 
3 69 70 82 
3 69 82 81 
3 70 71 83 
3 70 83 82 
3 71 61 73 
3 71 73 83 
3 73 72 84 
3 73 84 85 
3 72 74 86 
3 72 86 84 
3 74 75 87 
3 74 87 86 
3 75 76 88 
3 75 88 87 
3 76 77 89 
3 76 89 88 
3 77 78 90 
3 77 90 89 
3 78 79 91 
3 78 91 90 
3 79 80 92 
3 79 92 91 
3 80 81 93 
3 80 93 92 
3 81 82 94 
3 81 94 93 
3 82 83 95 
3 82 95 94 
3 83 73 85 
3 83 85 95 
3 85 84 96 
3 85 96 97 
3 84 86 98 
3 84 98 96 
3 86 87 99 
3 86 99 98 
3 87 88 100 
3 87 100 99 
3 88 89 101 
3 88 101 100 
3 89 90 102 
3 89 102 101 
3 90 91 103 
3 90 103 102 
3 91 92 104 
3 91 104 103 
3 92 93 105 
3 92 105 104 
3 93 94 106 
3 93 106 105 
3 94 95 107 
3 94 107 106 
3 95 85 97 
3 95 97 107 
3 97 96 108 
3 97 108 109 
3 96 98 110 
3 96 110 108 
3 98 99 111 
3 98 111 110 
3 99 100 112 
3 99 112 111 
3 100 101 113 
3 100 113 112 
3 101 102 114 
3 101 114 113 
3 102 103 115 
3 102 115 114 
3 103 104 116 
3 103 116 115 
3 104 105 117 
3 104 117 116 
3 105 106 118 
3 105 118 117 
3 106 107 119 
3 106 119 118 
3 107 97 109 
3 107 109 119 
3 109 108 120 
3 109 120 121 
3 108 110 122 
3 108 122 120 
3 110 111 123 
3 110 123 122 
3 111 112 124 
3 111 124 123 
3 112 113 125 
3 112 125 124 
3 113 114 126 
3 113 126 125 
3 114 115 127 
3 114 127 126 
3 115 116 128 
3 115 128 127 
3 116 117 129 
3 116 129 128 
3 117 118 130 
3 117 130 129 
3 118 119 131 
3 118 131 130 
3 119 109 121 
3 119 121 131 
3 121 120 132 
3 121 132 133 
3 120 122 134 
3 120 134 132 
3 122 123 135 
3 122 135 134 
3 123 124 136 
3 123 136 135 
3 124 125 137 
3 124 137 136 
3 125 126 138 
3 125 138 137 
3 126 127 139 
3 126 139 138 
3 127 128 140 
3 127 140 139 
3 128 129 141 
3 128 141 140 
3 129 130 142 
3 129 142 141 
3 130 131 143 
3 130 143 142 
3 131 121 133 
3 131 133 143 
3 133 132 144 
3 133 144 145 
3 132 134 146 
3 132 146 144 
3 134 135 147 
3 134 147 146 
3 135 136 148 
3 135 148 147 
3 136 137 149 
3 136 149 148 
3 137 138 150 
3 137 150 149 
3 138 139 151 
3 138 151 150 
3 139 140 152 
3 139 152 151 
3 140 141 153 
3 140 153 152 
3 141 142 154 
3 141 154 153 
3 142 143 155 
3 142 155 154 
3 143 133 145 
3 143 145 155 
3 145 144 156 
3 145 156 157 
3 144 146 158 
3 144 158 156 
3 146 147 159 
3 146 159 158 
3 147 148 160 
3 147 160 159 
3 148 149 161 
3 148 161 160 
3 149 150 162 
3 149 162 161 
3 150 151 163 
3 150 163 162 
3 151 152 164 
3 151 164 163 
3 152 153 165 
3 152 165 164 
3 153 154 166 
3 153 166 165 
3 154 155 167 
3 154 167 166 
3 155 145 157 
3 155 157 167 
3 157 156 168 
3 157 168 169 
3 156 158 170 
3 156 170 168 
3 158 159 171 
3 158 171 170 
3 159 160 172 
3 159 172 171 
3 160 161 173 
3 160 173 172 
3 161 162 174 
3 161 174 173 
3 162 163 175 
3 162 175 174 
3 163 164 176 
3 163 176 175 
3 164 165 177 
3 164 177 176 
3 165 166 178 
3 165 178 177 
3 166 167 179 
3 166 179 178 
3 167 157 169 
3 167 169 179 
3 169 168 180 
3 169 180 181 
3 168 170 182 
3 168 182 180 
3 170 171 183 
3 170 183 182 
3 171 172 184 
3 171 184 183 
3 172 173 185 
3 172 185 184 
3 173 174 186 
3 173 186 185 
3 174 175 187 
3 174 187 186 
3 175 176 188 
3 175 188 187 
3 176 177 189 
3 176 189 188 
3 177 178 190 
3 177 190 189 
3 178 179 191 
3 178 191 190 
3 179 169 181 
3 179 181 191 
3 181 180 192 
3 181 192 193 
3 180 182 194 
3 180 194 192 
3 182 183 195 
3 182 195 194 
3 183 184 196 
3 183 196 195 
3 184 185 197 
3 184 197 196 
3 185 186 198 
3 185 198 197 
3 186 187 199 
3 186 199 198 
3 187 188 200 
3 187 200 199 
3 188 189 201 
3 188 201 200 
3 189 190 202 
3 189 202 201 
3 190 191 203 
3 190 203 202 
3 191 181 193 
3 191 193 203 
3 193 192 204 
3 193 204 205 
3 192 194 206 
3 192 206 204 
3 194 195 207 
3 194 207 206 
3 195 196 208 
3 195 208 207 
3 196 197 209 
3 196 209 208 
3 197 198 210 
3 197 210 209 
3 198 199 211 
3 198 211 210 
3 199 200 212 
3 199 212 211 
3 200 201 213 
3 200 213 212 
3 201 202 214 
3 201 214 213 
3 202 203 215 
3 202 215 214 
3 203 193 205 
3 203 205 215 
3 205 204 216 
3 205 216 217 
3 204 206 218 
3 204 218 216 
3 206 207 219 
3 206 219 218 
3 207 208 220 
3 207 220 219 
3 208 209 221 
3 208 221 220 
3 209 210 222 
3 209 222 221 
3 210 211 223 
3 210 223 222 
3 211 212 224 
3 211 224 223 
3 212 213 225 
3 212 225 224 
3 213 214 226 
3 213 226 225 
3 214 215 227 
3 214 227 226 
3 215 205 217 
3 215 217 227 
3 217 216 228 
3 217 228 229 
3 216 218 230 
3 216 230 228 
3 218 219 231 
3 218 231 230 
3 219 220 232 
3 219 232 231 
3 220 221 233 
3 220 233 232 
3 221 222 234 
3 221 234 233 
3 222 223 235 
3 222 235 234 
3 223 224 236 
3 223 236 235 
3 224 225 237 
3 224 237 236 
3 225 226 238 
3 225 238 237 
3 226 227 239 
3 226 239 238 
3 227 217 229 
3 227 229 239 
3 229 228 240 
3 229 240 241 
3 228 230 242 
3 228 242 240 
3 230 231 243 
3 230 243 242 
3 231 232 244 
3 231 244 243 
3 232 233 245 
3 232 245 244 
3 233 234 246 
3 233 246 245 
3 234 235 247 
3 234 247 246 
3 235 236 248 
3 235 248 247 
3 236 237 249 
3 236 249 248 
3 237 238 250 
3 237 250 249 
3 238 239 251 
3 238 251 250 
3 239 229 241 
3 239 241 251 
3 241 240 252 
3 241 252 253 
3 240 242 254 
3 240 254 252 
3 242 243 255 
3 242 255 254 
3 243 244 256 
3 243 256 255 
3 244 245 257 
3 244 257 256 
3 245 246 258 
3 245 258 257 
3 246 247 259 
3 246 259 258 
3 247 248 260 
3 247 260 259 
3 248 249 261 
3 248 261 260 
3 249 250 262 
3 249 262 261 
3 250 251 263 
3 250 263 262 
3 251 241 253 
3 251 253 263 
3 253 252 264 
3 253 264 265 
3 252 254 266 
3 252 266 264 
3 254 255 267 
3 254 267 266 
3 255 256 268 
3 255 268 267 
3 256 257 269 
3 256 269 268 
3 257 258 270 
3 257 270 269 
3 258 259 271 
3 258 271 270 
3 259 260 272 
3 259 272 271 
3 260 261 273 
3 260 273 272 
3 261 262 274 
3 261 274 273 
3 262 263 275 
3 262 275 274 
3 263 253 265 
3 263 265 275 
3 265 264 276 
3 265 276 277 
3 264 266 278 
3 264 278 276 
3 266 267 279 
3 266 279 278 
3 267 268 280 
3 267 280 279 
3 268 269 281 
3 268 281 280 
3 269 270 282 
3 269 282 281 
3 270 271 283 
3 270 283 282 
3 271 272 284 
3 271 284 283 
3 272 273 285 
3 272 285 284 
3 273 274 286 
3 273 286 285 
3 274 275 287 
3 274 287 286 
3 275 265 277 
3 275 277 287 
3 277 276 1 
3 277 1 0 
3 276 278 4 
3 276 4 1 
3 278 279 6 
3 278 6 4 
3 279 280 8 
3 279 8 6 
3 280 281 10 
3 280 10 8 
3 281 282 12 
3 281 12 10 
3 282 283 14 
3 282 14 12 
3 283 284 16 
3 283 16 14 
3 284 285 18 
3 284 18 16 
3 285 286 20 
3 285 20 18 
3 286 287 22 
3 286 22 20 
3 287 277 0 
3 287 0 22 
3 288 289 290 
3 288 290 291 
3 289 292 293 
3 289 293 290 
3 292 294 295 
3 292 295 293 
3 294 296 297 
3 294 297 295 
3 296 298 299 
3 296 299 297 
3 298 300 301 
3 298 301 299 
3 300 302 303 
3 300 303 301 
3 302 304 305 
3 302 305 303 
3 304 306 307 
3 304 307 305 
3 306 308 309 
3 306 309 307 
3 308 310 311 
3 308 311 309 
3 310 288 291 
3 310 291 311 
3 291 290 312 
3 291 312 313 
3 290 293 314 
3 290 314 312 
3 293 295 315 
3 293 315 314 
3 295 297 316 
3 295 316 315 
3 297 299 317 
3 297 317 316 
3 299 301 318 
3 299 318 317 
3 301 303 319 
3 301 319 318 
3 303 305 320 
3 303 320 319 
3 305 307 321 
3 305 321 320 
3 307 309 322 
3 307 322 321 
3 309 311 323 
3 309 323 322 
3 311 291 313 
3 311 313 323 
3 313 312 324 
3 313 324 325 
3 312 314 326 
3 312 326 324 
3 314 315 327 
3 314 327 326 
3 315 316 328 
3 315 328 327 
3 316 317 329 
3 316 329 328 
3 317 318 330 
3 317 330 329 
3 318 319 331 
3 318 331 330 
3 319 320 332 
3 319 332 331 
3 320 321 333 
3 320 333 332 
3 321 322 334 
3 321 334 333 
3 322 323 335 
3 322 335 334 
3 323 313 325 
3 323 325 335 
3 325 324 336 
3 325 336 337 
3 324 326 338 
3 324 338 336 
3 326 327 339 
3 326 339 338 
3 327 328 340 
3 327 340 339 
3 328 329 341 
3 328 341 340 
3 329 330 342 
3 329 342 341 
3 330 331 343 
3 330 343 342 
3 331 332 344 
3 331 344 343 
3 332 333 345 
3 332 345 344 
3 333 334 346 
3 333 346 345 
3 334 335 347 
3 334 347 346 
3 335 325 337 
3 335 337 347 
3 337 336 348 
3 337 348 349 
3 336 338 350 
3 336 350 348 
3 338 339 351 
3 338 351 350 
3 339 340 352 
3 339 352 351 
3 340 341 353 
3 340 353 352 
3 341 342 354 
3 341 354 353 
3 342 343 355 
3 342 355 354 
3 343 344 356 
3 343 356 355 
3 344 345 357 
3 344 357 356 
3 345 346 358 
3 345 358 357 
3 346 347 359 
3 346 359 358 
3 347 337 349 
3 347 349 359 
3 349 348 360 
3 349 360 361 
3 348 350 362 
3 348 362 360 
3 350 351 363 
3 350 363 362 
3 351 352 364 
3 351 364 363 
3 352 353 365 
3 352 365 364 
3 353 354 366 
3 353 366 365 
3 354 355 367 
3 354 367 366 
3 355 356 368 
3 355 368 367 
3 356 357 369 
3 356 369 368 
3 357 358 370 
3 357 370 369 
3 358 359 371 
3 358 371 370 
3 359 349 361 
3 359 361 371 
3 361 360 372 
3 361 372 373 
3 360 362 374 
3 360 374 372 
3 362 363 375 
3 362 375 374 
3 363 364 376 
3 363 376 375 
3 364 365 377 
3 364 377 376 
3 365 366 378 
3 365 378 377 
3 366 367 379 
3 366 379 378 
3 367 368 380 
3 367 380 379 
3 368 369 381 
3 368 381 380 
3 369 370 382 
3 369 382 381 
3 370 371 383 
3 370 383 382 
3 371 361 373 
3 371 373 383 
3 373 372 384 
3 373 384 385 
3 372 374 386 
3 372 386 384 
3 374 375 387 
3 374 387 386 
3 375 376 388 
3 375 388 387 
3 376 377 389 
3 376 389 388 
3 377 378 390 
3 377 390 389 
3 378 379 391 
3 378 391 390 
3 379 380 392 
3 379 392 391 
3 380 381 393 
3 380 393 392 
3 381 382 394 
3 381 394 393 
3 382 383 395 
3 382 395 394 
3 383 373 385 
3 383 385 395 
3 385 384 396 
3 385 396 397 
3 384 386 398 
3 384 398 396 
3 386 387 399 
3 386 399 398 
3 387 388 400 
3 387 400 399 
3 388 389 401 
3 388 401 400 
3 389 390 402 
3 389 402 401 
3 390 391 403 
3 390 403 402 
3 391 392 404 
3 391 404 403 
3 392 393 405 
3 392 405 404 
3 393 394 406 
3 393 406 405 
3 394 395 407 
3 394 407 406 
3 395 385 397 
3 395 397 407 
3 397 396 408 
3 397 408 409 
3 396 398 410 
3 396 410 408 
3 398 399 411 
3 398 411 410 
3 399 400 412 
3 399 412 411 
3 400 401 413 
3 400 413 412 
3 401 402 414 
3 401 414 413 
3 402 403 415 
3 402 415 414 
3 403 404 416 
3 403 416 415 
3 404 405 417 
3 404 417 416 
3 405 406 418 
3 405 418 417 
3 406 407 419 
3 406 419 418 
3 407 397 409 
3 407 409 419 
3 409 408 420 
3 409 420 421 
3 408 410 422 
3 408 422 420 
3 410 411 423 
3 410 423 422 
3 411 412 424 
3 411 424 423 
3 412 413 425 
3 412 425 424 
3 413 414 426 
3 413 426 425 
3 414 415 427 
3 414 427 426 
3 415 416 428 
3 415 428 427 
3 416 417 429 
3 416 429 428 
3 417 418 430 
3 417 430 429 
3 418 419 431 
3 418 431 430 
3 419 409 421 
3 419 421 431 
3 421 420 432 
3 421 432 433 
3 420 422 434 
3 420 434 432 
3 422 423 435 
3 422 435 434 
3 423 424 436 
3 423 436 435 
3 424 425 437 
3 424 437 436 
3 425 426 438 
3 425 438 437 
3 426 427 439 
3 426 439 438 
3 427 428 440 
3 427 440 439 
3 428 429 441 
3 428 441 440 
3 429 430 442 
3 429 442 441 
3 430 431 443 
3 430 443 442 
3 431 421 433 
3 431 433 443 
3 433 432 444 
3 433 444 445 
3 432 434 446 
3 432 446 444 
3 434 435 447 
3 434 447 446 
3 435 436 448 
3 435 448 447 
3 436 437 449 
3 436 449 448 
3 437 438 450 
3 437 450 449 
3 438 439 451 
3 438 451 450 
3 439 440 452 
3 439 452 451 
3 440 441 453 
3 440 453 452 
3 441 442 454 
3 441 454 453 
3 442 443 455 
3 442 455 454 
3 443 433 445 
3 443 445 455 
3 445 444 456 
3 445 456 457 
3 444 446 458 
3 444 458 456 
3 446 447 459 
3 446 459 458 
3 447 448 460 
3 447 460 459 
3 448 449 461 
3 448 461 460 
3 449 450 462 
3 449 462 461 
3 450 451 463 
3 450 463 462 
3 451 452 464 
3 451 464 463 
3 452 453 465 
3 452 465 464 
3 453 454 466 
3 453 466 465 
3 454 455 467 
3 454 467 466 
3 455 445 457 
3 455 457 467 
3 457 456 468 
3 457 468 469 
3 456 458 470 
3 456 470 468 
3 458 459 471 
3 458 471 470 
3 459 460 472 
3 459 472 471 
3 460 461 473 
3 460 473 472 
3 461 462 474 
3 461 474 473 
3 462 463 475 
3 462 475 474 
3 463 464 476 
3 463 476 475 
3 464 465 477 
3 464 477 476 
3 465 466 478 
3 465 478 477 
3 466 467 479 
3 466 479 478 
3 467 457 469 
3 467 469 479 
3 469 468 480 
3 469 480 481 
3 468 470 482 
3 468 482 480 
3 470 471 483 
3 470 483 482 
3 471 472 484 
3 471 484 483 
3 472 473 485 
3 472 485 484 
3 473 474 486 
3 473 486 485 
3 474 475 487 
3 474 487 486 
3 475 476 488 
3 475 488 487 
3 476 477 489 
3 476 489 488 
3 477 478 490 
3 477 490 489 
3 478 479 491 
3 478 491 490 
3 479 469 481 
3 479 481 491 
3 481 480 492 
3 481 492 493 
3 480 482 494 
3 480 494 492 
3 482 483 495 
3 482 495 494 
3 483 484 496 
3 483 496 495 
3 484 485 497 
3 484 497 496 
3 485 486 498 
3 485 498 497 
3 486 487 499 
3 486 499 498 
3 487 488 500 
3 487 500 499 
3 488 489 501 
3 488 501 500 
3 489 490 502 
3 489 502 501 
3 490 491 503 
3 490 503 502 
3 491 481 493 
3 491 493 503 
3 493 492 289 
3 493 289 288 
3 492 494 292 
3 492 292 289 
3 494 495 294 
3 494 294 292 
3 495 496 296 
3 495 296 294 
3 496 497 298 
3 496 298 296 
3 497 498 300 
3 497 300 298 
3 498 499 302 
3 498 302 300 
3 499 500 304 
3 499 304 302 
3 500 501 306 
3 500 306 304 
3 501 502 308 
3 501 308 306 
3 502 503 310 
3 502 310 308 
3 503 493 288 
3 503 288 310 
