ply
format ascii 1.0
comment VCGLIB generated
element vertex 48
property float x
property float y
property float z
property float nx
property float ny
property float nz
property uchar red
property uchar green
property uchar blue
property uchar alpha
element face 72
property list uchar int vertex_indices
end_header
-59.1348 2.59396e-006 -59.343 -1 2 -2 192 192 192 255 
-59.1348 -2.68078e-006 61.3292 -2 1 1 192 192 192 255 
62.0602 -2.68078e-006 61.3292 1 2 2 192 192 192 255 
62.0602 2.59396e-006 -59.343 2 1 -1 192 192 192 255 
-59.1348 -2.9285 -59.343 -2 -2 -1 192 192 192 255 
62.0602 -2.9285 -59.343 1 -1 -2 192 192 192 255 
62.0602 -2.9285 61.3292 2 -2 1 192 192 192 255 
-59.1348 -2.9285 61.3292 -1 -1 2 192 192 192 255 
17.5369 2.36726e-006 -54.1566 -1 2 -2 134 5 5 0 
17.5369 1.22892e-006 -28.1145 -2 1 1 134 5 5 0 
39.475 1.22892e-006 -28.1145 1 2 2 134 5 5 0 
39.475 2.36726e-006 -54.1566 2 1 -1 134 5 5 0 
17.5369 -28.7251 -54.1566 -2 -2 -1 134 5 5 0 
39.475 -28.7251 -54.1566 1 -1 -2 134 5 5 0 
39.475 -28.7251 -28.1145 2 -2 1 134 5 5 0 
17.5369 -28.7251 -28.1145 -1 -1 2 134 5 5 0 
-26.4754 1.67315e-006 -38.2773 -1 2 -2 8 60 138 0 
-26.4754 1.44862e-006 -33.1406 -2 1 1 8 60 138 0 
-13.1773 1.44862e-006 -33.1406 1 2 2 8 60 138 0 
-13.1773 1.67315e-006 -38.2773 2 1 -1 8 60 138 0 
-26.4754 -6.5844 -38.2773 -2 -2 -1 8 60 138 0 
-13.1773 -6.5844 -38.2773 1 -1 -2 8 60 138 0 
-13.1773 -6.5844 -33.1406 2 -2 1 8 60 138 0 
-26.4754 -6.5844 -33.1406 -1 -1 2 8 60 138 0 
-40.2567 1.63096e-006 -37.312 -1 2 -2 153 227 213 0 
-40.2567 1.45239e-006 -33.2269 -2 1 1 153 227 213 0 
-32.6204 1.45239e-006 -33.2269 1 2 2 153 227 213 0 
-32.6204 1.63096e-006 -37.312 2 1 -1 153 227 213 0 
-40.2567 -6.8399 -37.312 -2 -2 -1 153 227 213 0 
-32.6204 -6.8399 -37.312 1 -1 -2 153 227 213 0 
-32.6204 -6.8399 -33.2269 2 -2 1 153 227 213 0 
-40.2567 -6.8399 -33.2269 -1 -1 2 153 227 213 0 
-19.7396 -1.88868e-007 4.3208 -1 2 -2 87 225 143 0 
-19.7396 -2.85671e-007 6.5354 -2 1 1 87 225 143 0 
-15.0997 -2.85671e-007 6.5354 1 2 2 87 225 143 0 
-15.0997 -1.88868e-007 4.3208 2 1 -1 87 225 143 0 
-19.7396 -49.0807 4.3208 -2 -2 -1 87 225 143 0 
-15.0997 -49.0807 4.3208 1 -1 -2 87 225 143 0 
-15.0997 -49.0807 6.5354 2 -2 1 87 225 143 0 
-19.7396 -49.0807 6.5354 -1 -1 2 87 225 143 0 
24.3706 -2.08853e-008 0.4778 -1 2 -2 107 8 135 0 
24.3706 -3.66878e-007 8.3932 -2 1 1 107 8 135 0 
30.8206 -3.66878e-007 8.3932 1 2 2 107 8 135 0 
30.8206 -2.08853e-008 0.4778 2 1 -1 107 8 135 0 
24.3706 -41.8893 0.477798 -2 -2 -1 107 8 135 0 
30.8206 -41.8893 0.477798 1 -1 -2 107 8 135 0 
30.8206 -41.8893 8.3932 2 -2 1 107 8 135 0 
24.3706 -41.8893 8.3932 -1 -1 2 107 8 135 0 
3 0 1 2 
3 0 2 3 
3 4 5 6 
3 4 6 7 
3 0 3 5 
3 0 5 4 
3 3 2 6 
3 3 6 5 
3 2 1 7 
3 2 7 6 
3 1 0 4 
3 1 4 7 
3 8 9 10 
3 8 10 11 
3 12 13 14 
3 12 14 15 
3 8 11 13 
3 8 13 12 
3 11 10 14 
3 11 14 13 
3 10 9 15 
3 10 15 14 
3 9 8 12 
3 9 12 15 
3 16 17 18 
3 16 18 19 
3 20 21 22 
3 20 22 23 
3 16 19 21 
3 16 21 20 
3 19 18 22 
3 19 22 21 
3 18 17 23 
3 18 23 22 
3 17 16 20 
3 17 20 23 
3 24 25 26 
3 24 26 27 
3 28 29 30 
3 28 30 31 
3 24 27 29 
3 24 29 28 
3 27 26 30 
3 27 30 29 
3 26 25 31 
3 26 31 30 
3 25 24 28 
3 25 28 31 
3 32 33 34 
3 32 34 35 
3 36 37 38 
3 36 38 39 
3 32 35 37 
3 32 37 36 
3 35 34 38 
3 35 38 37 
3 34 33 39 
3 34 39 38 
3 33 32 36 
3 33 36 39 
3 40 41 42 
3 40 42 43 
3 44 45 46 
3 44 46 47 
3 40 43 45 
3 40 45 44 
3 43 42 46 
3 43 46 45 
3 42 41 47 
3 42 47 46 
3 41 40 44 
3 41 44 47 
