ply
format ascii 1.0
comment VCGLIB generated
element vertex 313
property float x
property float y
property float z
property float nx
property float ny
property float nz
element face 608
property list uchar int vertex_indices
end_header
0 -2.10669e-006 48.1954 0 -2.51309e-007 5.74928 
0 -4.4257 47.0096 -0.0334571 -2.88242 4.98681 
12.167 -4.4257 45.4078 1.25836 -2.88243 4.82554 
12.4739 -2.03491e-006 46.5532 1.48802 -6.59064e-006 5.55337 
0 -7.6655 43.7698 -0.0586363 -5.00829 2.88821 
11.3285 -7.6655 42.2783 0.690892 -5.00829 2.80497 
0 -8.8514 39.3441 -0.0681115 -5.79218 7.67423e-006 
10.183 -8.8514 38.0035 -0.0657865 -5.79218 0.0176384 
0 -7.6655 34.9184 -0.0586364 -5.00828 -2.88822 
9.0375 -7.6655 33.7286 -0.804165 -5.00827 -2.77463 
0 -4.4257 31.6786 -0.0334591 -2.88247 -4.98681 
8.199 -4.4257 30.5992 -1.32299 -2.88245 -4.80824 
0 -1.33288e-006 30.4927 0 2.21505e-007 -5.74924 
7.8921 -1.28746e-006 29.4537 -1.488 -4.46602e-006 -5.55335 
0 4.4257 31.6786 0.0334573 2.88246 -4.98681 
8.199 4.4257 30.5992 -1.25836 2.88245 -4.82556 
0 7.6655 34.9184 0.0586342 5.00828 -2.88822 
9.0375 7.6655 33.7286 -0.690887 5.00827 -2.80498 
0 8.8514 39.3441 0.0681115 5.79218 8.44882e-006 
10.183 8.8514 38.0035 0.0657948 5.79218 -0.0176154 
0 7.6655 43.7698 0.0586371 5.00829 2.88821 
11.3284 7.6655 42.2783 0.804162 5.0083 2.77462 
0 4.4257 47.0096 0.0334574 2.88242 4.98681 
12.167 4.4257 45.4078 1.323 2.88244 4.80822 
23.5048 -4.4257 40.7115 2.46443 -2.88244 4.33543 
24.0977 -1.82445e-006 41.7385 2.87463 -1.11171e-006 4.97901 
21.8849 -7.6655 37.9057 1.39333 -5.00829 2.53058 
19.672 -8.8514 34.073 -0.0589791 -5.79218 0.0340677 
17.4592 -7.6655 30.2402 -1.4949 -5.00827 -2.47195 
15.8393 -4.4257 27.4345 -2.5224 -2.88243 -4.30197 
15.2464 -1.15431e-006 26.4075 -2.87464 -8.42504e-006 -4.97899 
15.8393 4.4257 27.4345 -2.46444 2.88244 -4.33543 
17.4592 7.6655 30.2402 -1.39333 5.00827 -2.53059 
19.672 8.8514 34.073 0.05899 5.79218 -0.0340426 
21.8849 7.6655 37.9057 1.49488 5.00829 2.47195 
23.5048 4.4257 40.7115 2.52238 2.88245 4.30196 
33.2408 -4.4257 33.2408 3.50255 -2.88244 3.54987 
34.0793 -1.48965e-006 34.0793 4.06534 -1.479e-007 4.06534 
30.9499 -7.6655 30.9499 2.00081 -5.00829 2.08374 
27.8205 -8.8514 27.8205 -0.048153 -5.79218 0.0481713 
24.691 -7.6655 24.691 -2.08374 -5.00828 -2.00082 
22.4001 -4.4257 22.4001 -3.54988 -2.88242 -3.50256 
21.5616 -9.42487e-007 21.5616 -4.06535 2.37307e-007 -4.06535 
22.4001 4.4257 22.4001 -3.50256 2.88242 -3.54988 
24.691 7.6655 24.691 -2.00082 5.00828 -2.08374 
27.8205 8.8514 27.8205 0.0481716 5.79218 -0.0481527 
30.9499 7.6655 30.9499 2.08374 5.00829 2.00081 
33.2408 4.4257 33.2408 3.54987 2.88244 3.50255 
40.7115 -4.4257 23.5048 4.30196 -2.88245 2.52238 
41.7385 -1.05334e-006 24.0977 4.97901 6.49206e-007 2.87464 
37.9057 -7.6655 21.8849 2.47195 -5.00829 1.49488 
34.073 -8.8514 19.672 -0.0340429 -5.79218 0.0589897 
30.2402 -7.6655 17.4592 -2.53059 -5.00827 -1.39333 
27.4345 -4.4257 15.8393 -4.33543 -2.88244 -2.46444 
26.4075 -6.66441e-007 15.2464 -4.97899 8.70872e-006 -2.87464 
27.4345 4.4257 15.8393 -4.30197 2.88243 -2.5224 
30.2402 7.6655 17.4592 -2.47195 5.00827 -1.4949 
34.073 8.8514 19.672 0.0340702 5.79218 -0.0589789 
37.9057 7.6655 21.8849 2.53058 5.0083 1.39332 
40.7115 4.4257 23.5048 4.33543 2.88244 2.46443 
45.4078 -4.4257 12.167 4.80822 -2.88244 1.323 
46.5532 -5.45251e-007 12.4739 5.55337 6.25305e-006 1.48802 
42.2783 -7.6655 11.3284 2.77462 -5.0083 0.804161 
38.0035 -8.8514 10.183 -0.0176156 -5.79218 0.0657946 
33.7286 -7.6655 9.0375 -2.80498 -5.00827 -0.690887 
30.5992 -4.4257 8.199 -4.82556 -2.88245 -1.25836 
29.4537 -3.44975e-007 7.8921 -5.55335 4.7142e-006 -1.488 
30.5992 4.4257 8.199 -4.80824 2.88245 -1.32299 
33.7286 7.6655 9.0375 -2.77463 5.00827 -0.804164 
38.0035 8.8514 10.183 0.0176405 5.79218 -0.0657858 
42.2783 7.6655 11.3284 2.80497 5.0083 0.690891 
45.4078 4.4257 12.167 4.82554 2.88243 1.25836 
47.0096 -4.4257 -1.93454e-007 4.98681 -2.88242 0.0334567 
48.1954 0 0 5.74927 2.98023e-008 1.3027e-015 
43.7698 -7.6655 -3.3507e-007 2.88821 -5.00829 0.0586362 
39.3441 -8.8514 -3.86907e-007 9.29832e-006 -5.79218 0.0681114 
34.9184 -7.6655 -3.3507e-007 -2.88822 -5.00828 0.0586353 
31.6786 -4.4257 -1.93454e-007 -4.98681 -2.88246 0.0334578 
30.4927 0 0 -5.74924 -0 0 
31.6786 4.4257 1.93454e-007 -4.98681 2.88246 -0.0334578 
34.9184 7.6655 3.3507e-007 -2.88822 5.00828 -0.0586353 
39.3441 8.8514 3.86907e-007 9.23872e-006 5.79218 -0.0681113 
43.7698 7.6655 3.3507e-007 2.88821 5.00829 -0.0586362 
47.0096 4.4257 1.93454e-007 4.98681 2.88242 -0.0334567 
45.4078 -4.4257 -12.167 4.82554 -2.88243 -1.25836 
46.5532 5.45251e-007 -12.4739 5.55337 -6.28285e-006 -1.48802 
42.2783 -7.6655 -11.3284 2.80497 -5.0083 -0.690891 
38.0035 -8.8514 -10.183 0.0176405 -5.79218 0.0657858 
33.7286 -7.6655 -9.0375 -2.77463 -5.00827 0.804164 
30.5992 -4.4257 -8.199 -4.80824 -2.88245 1.32299 
29.4537 3.44975e-007 -7.8921 -5.55335 -4.77381e-006 1.488 
30.5992 4.4257 -8.199 -4.82556 2.88245 1.25836 
33.7286 7.6655 -9.0375 -2.80498 5.00827 0.690887 
38.0035 8.8514 -10.183 -0.0176157 5.79218 -0.0657946 
42.2783 7.6655 -11.3284 2.77462 5.0083 -0.804161 
45.4078 4.4257 -12.167 4.80822 2.88244 -1.323 
40.7115 -4.4257 -23.5048 4.33543 -2.88244 -2.46443 
41.7385 1.05334e-006 -24.0977 4.97901 -7.68415e-007 -2.87464 
37.9057 -7.6655 -21.8849 2.53058 -5.0083 -1.39332 
34.073 -8.8514 -19.672 0.0340702 -5.79218 0.0589789 
30.2402 -7.6655 -17.4592 -2.47195 -5.00827 1.4949 
27.4345 -4.4257 -15.8393 -4.30197 -2.88243 2.5224 
26.4075 6.66441e-007 -15.2464 -4.97899 -8.76833e-006 2.87464 
27.4345 4.4257 -15.8393 -4.33543 2.88244 2.46444 
30.2402 7.6655 -17.4592 -2.53059 5.00827 1.39333 
34.073 8.8514 -19.672 -0.0340429 5.79218 -0.0589897 
37.9057 7.6655 -21.8849 2.47195 5.00829 -1.49488 
40.7115 4.4257 -23.5048 4.30196 2.88245 -2.52238 
33.2408 -4.4257 -33.2408 3.54987 -2.88244 -3.50255 
34.0793 1.48965e-006 -34.0793 4.06534 2.07504e-007 -4.06534 
30.9499 -7.6655 -30.9499 2.08374 -5.00829 -2.00081 
27.8205 -8.8514 -27.8205 0.0481716 -5.79218 0.0481528 
24.691 -7.6655 -24.691 -2.00082 -5.00828 2.08374 
22.4001 -4.4257 -22.4001 -3.50256 -2.88242 3.54988 
21.5616 9.42487e-007 -21.5616 -4.06535 -1.18097e-007 4.06535 
22.4001 4.4257 -22.4001 -3.54988 2.88242 3.50256 
24.691 7.6655 -24.691 -2.08374 5.00828 2.00082 
27.8205 8.8514 -27.8205 -0.048153 5.79218 -0.0481714 
30.9499 7.6655 -30.9499 2.00081 5.00829 -2.08374 
33.2408 4.4257 -33.2408 3.50255 2.88244 -3.54987 
23.5048 -4.4257 -40.7115 2.52238 -2.88244 -4.30197 
24.0977 1.82445e-006 -41.7385 2.87463 9.925e-007 -4.97901 
21.8849 -7.6655 -37.9057 1.49489 -5.00829 -2.47195 
19.672 -8.8514 -34.073 0.05899 -5.79218 0.0340438 
17.4592 -7.6655 -30.2402 -1.39333 -5.00827 2.53059 
15.8393 -4.4257 -27.4345 -2.46444 -2.88244 4.33543 
15.2464 1.15431e-006 -26.4075 -2.87464 8.36543e-006 4.97899 
15.8393 4.4257 -27.4345 -2.5224 2.88243 4.30197 
17.4592 7.6655 -30.2402 -1.4949 5.00827 2.47195 
19.672 8.8514 -34.073 -0.0589792 5.79218 -0.03407 
21.8849 7.6655 -37.9057 1.39332 5.0083 -2.53058 
23.5048 4.4257 -40.7115 2.46443 2.88244 -4.33543 
12.167 -4.4257 -45.4078 1.323 -2.88243 -4.80822 
12.4739 2.03491e-006 -46.5532 1.48802 6.56084e-006 -5.55337 
11.3285 -7.6655 -42.2783 0.804165 -5.00829 -2.77462 
10.183 -8.8514 -38.0035 0.0657947 -5.79218 0.017618 
9.0375 -7.6655 -33.7286 -0.690887 -5.00827 2.80498 
8.199 -4.4257 -30.5992 -1.25836 -2.88245 4.82556 
7.8921 1.28746e-006 -29.4537 -1.488 4.40642e-006 5.55335 
8.199 4.4257 -30.5992 -1.32299 2.88245 4.80824 
9.0375 7.6655 -33.7286 -0.804165 5.00827 2.77463 
10.183 8.8514 -38.0035 -0.0657861 5.79218 -0.0176402 
11.3284 7.6655 -42.2783 0.690891 5.0083 -2.80497 
12.167 4.4257 -45.4078 1.25836 2.88244 -4.82554 
0 -4.4257 -47.0096 0.033461 -2.88241 -4.98682 
0 2.10669e-006 -48.1954 0 2.81111e-007 -5.74928 
0 -7.6655 -43.7698 0.0586409 -5.00829 -2.88821 
0 -8.8514 -39.3441 0.0681127 -5.79218 -6.33286e-006 
0 -7.6655 -34.9184 0.0586355 -5.00828 2.88822 
0 -4.4257 -31.6786 0.0334579 -2.88246 4.98681 
0 1.33288e-006 -30.4927 0 -2.51307e-007 5.74924 
0 4.4257 -31.6786 -0.0334579 2.88246 4.98681 
0 7.6655 -34.9184 -0.0586355 5.00828 2.88822 
0 8.8514 -39.3441 -0.0681116 5.79218 -8.98554e-006 
0 7.6655 -43.7698 -0.0586364 5.00829 -2.88821 
0 4.4257 -47.0096 -0.0334568 2.88242 -4.98681 
-12.167 -4.4257 -45.4078 -1.25836 -2.88242 -4.82555 
-12.4739 2.03491e-006 -46.5532 -1.48802 -6.10515e-006 -5.55337 
-11.3284 -7.6655 -42.2784 -0.690889 -5.00828 -2.80498 
-10.183 -8.8514 -38.0035 0.0657891 -5.79218 -0.0176329 
-9.0375 -7.6655 -33.7286 0.804165 -5.00827 2.77463 
-8.199 -4.4257 -30.5992 1.32299 -2.88245 4.80824 
-7.8921 1.28746e-006 -29.4537 1.488 -4.95151e-006 5.55335 
-8.199 4.4257 -30.5992 1.25836 2.88245 4.82556 
-9.0375 7.6655 -33.7286 0.690887 5.00827 2.80498 
-10.183 8.8514 -38.0035 -0.0657948 5.79218 0.0176159 
-11.3284 7.6655 -42.2783 -0.804162 5.0083 -2.77462 
-12.167 4.4257 -45.4078 -1.323 2.88244 -4.80822 
-23.5048 -4.4257 -40.7115 -2.46443 -2.88243 -4.33543 
-24.0977 1.82445e-006 -41.7385 -2.87463 -6.7643e-007 -4.97901 
-21.8849 -7.6655 -37.9057 -1.39333 -5.00829 -2.53058 
-19.672 -8.8514 -34.073 0.0589791 -5.79218 -0.0340649 
-17.4592 -7.6655 -30.2402 1.4949 -5.00827 2.47195 
-15.8393 -4.4257 -27.4345 2.5224 -2.88243 4.30197 
-15.2464 1.15431e-006 -26.4075 2.87464 -8.86031e-006 4.97899 
-15.8393 4.4257 -27.4345 2.46444 2.88244 4.33543 
-17.4592 7.6655 -30.2402 1.39333 5.00827 2.53059 
-19.672 8.8514 -34.073 -0.05899 5.79218 0.0340431 
-21.8849 7.6655 -37.9057 -1.49488 5.00829 -2.47195 
-23.5048 4.4257 -40.7115 -2.52238 2.88245 -4.30196 
-33.2408 -4.4257 -33.2408 -3.50255 -2.88244 -3.54987 
-34.0793 1.48965e-006 -34.0793 -4.06534 2.07504e-007 -4.06534 
-30.9499 -7.6655 -30.9499 -2.00082 -5.00829 -2.08374 
-27.8205 -8.8514 -27.8205 0.0481485 -5.79218 -0.0481742 
-24.691 -7.6655 -24.691 2.08373 -5.00829 2.00081 
-22.4001 -4.4257 -22.4001 3.54988 -2.88241 3.50255 
-21.5616 9.42487e-007 -21.5616 4.06536 -8.16472e-006 4.06534 
-22.4001 4.4257 -22.4001 3.50257 2.88242 3.54986 
-24.691 7.6655 -24.691 2.00082 5.00828 2.08373 
-27.8205 8.8514 -27.8205 -0.0481716 5.79218 0.0481532 
-30.9499 7.6655 -30.9499 -2.08374 5.00829 -2.00081 
-33.2408 4.4257 -33.2408 -3.54987 2.88244 -3.50255 
-40.7115 -4.4257 -23.5048 -4.30197 -2.88244 -2.52238 
-41.7385 1.05334e-006 -24.0977 -4.97901 9.00515e-007 -2.87464 
-37.9057 -7.6655 -21.8849 -2.47195 -5.00829 -1.49489 
-34.073 -8.8514 -19.6721 0.0340394 -5.79218 -0.0589938 
-30.2402 -7.6655 -17.4592 2.53056 -5.00829 1.39333 
-27.4344 -4.4257 -15.8393 4.33543 -2.88243 2.46444 
-26.4075 6.66441e-007 -15.2464 4.979 7.08651e-006 2.87465 
-27.4344 4.4257 -15.8393 4.30196 2.88242 2.5224 
-30.2402 7.6655 -17.4592 2.47194 5.00829 1.49489 
-34.073 8.8514 -19.672 -0.0340672 5.79218 0.0589803 
-37.9057 7.6655 -21.8849 -2.53058 5.00829 -1.39333 
-40.7115 4.4257 -23.5048 -4.33543 2.88244 -2.46443 
-45.4078 -4.4257 -12.167 -4.80822 -2.88243 -1.323 
-46.5532 5.45251e-007 -12.4739 -5.55337 6.38314e-006 -1.48802 
-42.2783 -7.6655 -11.3285 -2.77462 -5.00829 -0.804165 
-38.0035 -8.8514 -10.183 0.0176168 -5.79218 -0.0657952 
-33.7286 -7.6655 -9.0376 2.80497 -5.00828 0.690887 
-30.5992 -4.4257 -8.199 4.82554 -2.88246 1.25837 
-29.4537 3.44975e-007 -7.8921 5.55335 1.38824e-005 1.48802 
-30.5992 4.4257 -8.199 4.80823 2.88244 1.323 
-33.7286 7.6655 -9.0376 2.77462 5.00829 0.804169 
-38.0035 8.8514 -10.183 -0.0176369 5.79218 0.0657883 
-42.2783 7.6655 -11.3285 -2.80497 5.00829 -0.690892 
-45.4078 4.4257 -12.167 -4.82554 2.88243 -1.25836 
-47.0096 -4.4257 -1.93454e-007 -4.98682 -2.88241 -0.0334611 
-48.1954 0 0 -5.74927 2.98023e-008 1.3027e-015 
-43.7698 -7.6655 -3.3507e-007 -2.88821 -5.00829 -0.0586411 
-39.3441 -8.8514 -3.86907e-007 -5.72205e-006 -5.79218 -0.0681131 
-34.9184 -7.6655 -3.3507e-007 2.88822 -5.00828 -0.0586366 
-31.6786 -4.4257 -1.93454e-007 4.98681 -2.88247 -0.0334593 
-30.4927 0 0 5.74924 0 0 
-31.6786 4.4257 1.93454e-007 4.98681 2.88246 0.0334574 
-34.9184 7.6655 3.3507e-007 2.88822 5.00828 0.0586344 
-39.3441 8.8514 3.86907e-007 -8.16584e-006 5.79218 0.0681118 
-43.7698 7.6655 3.3507e-007 -2.88821 5.00829 0.0586373 
-47.0096 4.4257 1.93454e-007 -4.98681 2.88242 0.0334575 
-45.4078 -4.4257 12.167 -4.82555 -2.88242 1.25836 
-46.5532 -5.45251e-007 12.4739 -5.55337 -6.41294e-006 1.48802 
-42.2784 -7.6655 11.3284 -2.80498 -5.00828 0.690889 
-38.0035 -8.8514 10.183 -0.0176327 -5.79218 -0.0657893 
-33.7286 -7.6655 9.0375 2.77463 -5.00827 -0.804165 
-30.5992 -4.4257 8.199 4.80823 -2.88246 -1.32299 
-29.4537 -3.44975e-007 7.8921 5.55334 -7.09818e-007 -1.488 
-30.5992 4.4257 8.199 4.82555 2.88246 -1.25836 
-33.7286 7.6655 9.0375 2.80498 5.00827 -0.690886 
-38.0035 8.8514 10.183 0.0176157 5.79218 0.0657951 
-42.2783 7.6655 11.3284 -2.77462 5.0083 0.804162 
-45.4078 4.4257 12.167 -4.80822 2.88244 1.323 
-40.7115 -4.4257 23.5048 -4.33543 -2.88243 2.46443 
-41.7385 -1.05334e-006 24.0977 -4.97901 -1.01972e-006 2.87464 
-37.9057 -7.6655 21.8849 -2.53058 -5.00829 1.39333 
-34.073 -8.8514 19.672 -0.0340599 -5.79218 -0.0589803 
-30.2402 -7.6655 17.4592 2.47195 -5.00828 -1.49489 
-27.4345 -4.4257 15.8393 4.30197 -2.88245 -2.52239 
-26.4075 -6.66437e-007 15.2463 4.97899 -6.25204e-006 -2.87463 
-27.4345 4.4257 15.8393 4.33543 2.88246 -2.46443 
-30.2402 7.6655 17.4592 2.53059 5.00828 -1.39333 
-34.073 8.8514 19.672 0.0340453 5.79218 0.0589897 
-37.9057 7.6655 21.8849 -2.47195 5.00829 1.49488 
-40.7115 4.4257 23.5048 -4.30196 2.88245 2.52238 
-33.2408 -4.4257 33.2408 -3.54987 -2.88244 3.50255 
-34.0793 -1.48965e-006 34.0793 -4.06534 -1.479e-007 4.06534 
-30.9499 -7.6655 30.9499 -2.08374 -5.00829 2.00082 
-27.8205 -8.8514 27.8205 -0.0481708 -5.79218 -0.0481529 
-24.6911 -7.6655 24.691 2.0008 -5.0083 -2.08373 
-22.4001 -4.4257 22.4001 3.50255 -2.88243 -3.54987 
-21.5616 -9.42487e-007 21.5616 4.06534 -1.41274e-005 -4.06535 
-22.4001 4.4257 22.4001 3.54986 2.88245 -3.50255 
-24.6911 7.6655 24.691 2.08373 5.00829 -2.00081 
-27.8205 8.8514 27.8205 0.0481546 5.79218 0.0481726 
-30.9499 7.6655 30.9499 -2.00082 5.00829 2.08374 
-33.2408 4.4257 33.2408 -3.50255 2.88244 3.54987 
-23.5048 -4.4257 40.7115 -2.52238 -2.88244 4.30197 
-24.0977 -1.82445e-006 41.7385 -2.87463 5.57221e-007 4.97901 
-21.8849 -7.6655 37.9057 -1.49489 -5.00829 2.47195 
-19.6721 -8.8514 34.073 -0.0589932 -5.79218 -0.0340414 
-17.4592 -7.6655 30.2402 1.39333 -5.00829 -2.53057 
-15.8393 -4.4257 27.4344 2.46444 -2.88243 -4.33542 
-15.2464 -1.15431e-006 26.4075 2.87465 7.4298e-006 -4.979 
-15.8393 4.4257 27.4344 2.5224 2.88242 -4.30196 
-17.4592 7.6655 30.2402 1.49488 5.0083 -2.47193 
-19.6721 8.8514 34.073 0.0589775 5.79218 0.0340713 
-21.8849 7.6655 37.9057 -1.39333 5.00829 2.53058 
-23.5048 4.4257 40.7115 -2.46443 2.88244 4.33543 
-12.167 -4.4257 45.4078 -1.323 -2.88243 4.80822 
-12.4739 -2.03491e-006 46.5532 -1.48802 6.07535e-006 5.55337 
-11.3285 -7.6655 42.2783 -0.804165 -5.00829 2.77462 
-10.183 -8.8514 38.0035 -0.0657949 -5.79218 -0.0176171 
-9.0376 -7.6655 33.7286 0.690887 -5.00828 -2.80497 
-8.199 -4.4257 30.5992 1.25837 -2.88246 -4.82554 
-7.8921 -1.28746e-006 29.4537 1.48802 1.41902e-005 -5.55335 
-8.199 4.4257 30.5992 1.323 2.88244 -4.80823 
-9.0376 7.6655 33.7286 0.804168 5.00829 -2.77462 
-10.183 8.8514 38.0035 0.0657863 5.79218 0.0176398 
-11.3285 7.6655 42.2783 -0.690892 5.00829 2.80497 
-12.167 4.4257 45.4078 -1.25836 2.88243 4.82554 
-39.642 8.14841e-007 -18.6414 0 -3 -1.31134e-007 
-39.642 1.62968e-006 -37.2828 0 -1 -4.37114e-008 
-19.821 1.62968e-006 -37.2828 0 -3 -1.31134e-007 
-19.821 8.14841e-007 -18.6414 0 -6 -2.62268e-007 
0 1.62968e-006 -37.2828 0 -3 -1.31134e-007 
0 8.14841e-007 -18.6414 0 -6 -2.62268e-007 
19.821 1.62968e-006 -37.2828 0 -3 -1.31134e-007 
19.821 8.14841e-007 -18.6414 0 -6 -2.62268e-007 
39.642 1.62968e-006 -37.2828 0 -2 -8.74228e-008 
39.642 8.14841e-007 -18.6414 0 -3 -1.31134e-007 
-39.642 0 0 0 -3 -1.31134e-007 
-19.821 0 0 0 -6 -2.62268e-007 
0 0 0 0 -6 -2.62268e-007 
19.821 0 0 0 -6 -2.62268e-007 
39.642 0 0 0 -3 -1.31134e-007 
-39.642 -8.14841e-007 18.6414 0 -3 -1.31134e-007 
-19.821 -8.14841e-007 18.6414 0 -6 -2.62268e-007 
0 -8.14841e-007 18.6414 0 -6 -2.62268e-007 
19.821 -8.14841e-007 18.6414 0 -6 -2.62268e-007 
39.642 -8.14841e-007 18.6414 0 -3 -1.31134e-007 
-39.642 -1.62968e-006 37.2828 0 -2 -8.74228e-008 
-19.821 -1.62968e-006 37.2828 0 -3 -1.31134e-007 
0 -1.62968e-006 37.2828 0 -3 -1.31134e-007 
19.821 -1.62968e-006 37.2828 0 -3 -1.31134e-007 
39.642 -1.62968e-006 37.2828 0 -1 -4.37114e-008 
3 0 1 2 
3 0 2 3 
3 1 4 5 
3 1 5 2 
3 4 6 7 
3 4 7 5 
3 6 8 9 
3 6 9 7 
3 8 10 11 
3 8 11 9 
3 10 12 13 
3 10 13 11 
3 12 14 15 
3 12 15 13 
3 14 16 17 
3 14 17 15 
3 16 18 19 
3 16 19 17 
3 18 20 21 
3 18 21 19 
3 20 22 23 
3 20 23 21 
3 22 0 3 
3 22 3 23 
3 3 2 24 
3 3 24 25 
3 2 5 26 
3 2 26 24 
3 5 7 27 
3 5 27 26 
3 7 9 28 
3 7 28 27 
3 9 11 29 
3 9 29 28 
3 11 13 30 
3 11 30 29 
3 13 15 31 
3 13 31 30 
3 15 17 32 
3 15 32 31 
3 17 19 33 
3 17 33 32 
3 19 21 34 
3 19 34 33 
3 21 23 35 
3 21 35 34 
3 23 3 25 
3 23 25 35 
3 25 24 36 
3 25 36 37 
3 24 26 38 
3 24 38 36 
3 26 27 39 
3 26 39 38 
3 27 28 40 
3 27 40 39 
3 28 29 41 
3 28 41 40 
3 29 30 42 
3 29 42 41 
3 30 31 43 
3 30 43 42 
3 31 32 44 
3 31 44 43 
3 32 33 45 
3 32 45 44 
3 33 34 46 
3 33 46 45 
3 34 35 47 
3 34 47 46 
3 35 25 37 
3 35 37 47 
3 37 36 48 
3 37 48 49 
3 36 38 50 
3 36 50 48 
3 38 39 51 
3 38 51 50 
3 39 40 52 
3 39 52 51 
3 40 41 53 
3 40 53 52 
3 41 42 54 
3 41 54 53 
3 42 43 55 
3 42 55 54 
3 43 44 56 
3 43 56 55 
3 44 45 57 
3 44 57 56 
3 45 46 58 
3 45 58 57 
3 46 47 59 
3 46 59 58 
3 47 37 49 
3 47 49 59 
3 49 48 60 
3 49 60 61 
3 48 50 62 
3 48 62 60 
3 50 51 63 
3 50 63 62 
3 51 52 64 
3 51 64 63 
3 52 53 65 
3 52 65 64 
3 53 54 66 
3 53 66 65 
3 54 55 67 
3 54 67 66 
3 55 56 68 
3 55 68 67 
3 56 57 69 
3 56 69 68 
3 57 58 70 
3 57 70 69 
3 58 59 71 
3 58 71 70 
3 59 49 61 
3 59 61 71 
3 61 60 72 
3 61 72 73 
3 60 62 74 
3 60 74 72 
3 62 63 75 
3 62 75 74 
3 63 64 76 
3 63 76 75 
3 64 65 77 
3 64 77 76 
3 65 66 78 
3 65 78 77 
3 66 67 79 
3 66 79 78 
3 67 68 80 
3 67 80 79 
3 68 69 81 
3 68 81 80 
3 69 70 82 
3 69 82 81 
3 70 71 83 
3 70 83 82 
3 71 61 73 
3 71 73 83 
3 73 72 84 
3 73 84 85 
3 72 74 86 
3 72 86 84 
3 74 75 87 
3 74 87 86 
3 75 76 88 
3 75 88 87 
3 76 77 89 
3 76 89 88 
3 77 78 90 
3 77 90 89 
3 78 79 91 
3 78 91 90 
3 79 80 92 
3 79 92 91 
3 80 81 93 
3 80 93 92 
3 81 82 94 
3 81 94 93 
3 82 83 95 
3 82 95 94 
3 83 73 85 
3 83 85 95 
3 85 84 96 
3 85 96 97 
3 84 86 98 
3 84 98 96 
3 86 87 99 
3 86 99 98 
3 87 88 100 
3 87 100 99 
3 88 89 101 
3 88 101 100 
3 89 90 102 
3 89 102 101 
3 90 91 103 
3 90 103 102 
3 91 92 104 
3 91 104 103 
3 92 93 105 
3 92 105 104 
3 93 94 106 
3 93 106 105 
3 94 95 107 
3 94 107 106 
3 95 85 97 
3 95 97 107 
3 97 96 108 
3 97 108 109 
3 96 98 110 
3 96 110 108 
3 98 99 111 
3 98 111 110 
3 99 100 112 
3 99 112 111 
3 100 101 113 
3 100 113 112 
3 101 102 114 
3 101 114 113 
3 102 103 115 
3 102 115 114 
3 103 104 116 
3 103 116 115 
3 104 105 117 
3 104 117 116 
3 105 106 118 
3 105 118 117 
3 106 107 119 
3 106 119 118 
3 107 97 109 
3 107 109 119 
3 109 108 120 
3 109 120 121 
3 108 110 122 
3 108 122 120 
3 110 111 123 
3 110 123 122 
3 111 112 124 
3 111 124 123 
3 112 113 125 
3 112 125 124 
3 113 114 126 
3 113 126 125 
3 114 115 127 
3 114 127 126 
3 115 116 128 
3 115 128 127 
3 116 117 129 
3 116 129 128 
3 117 118 130 
3 117 130 129 
3 118 119 131 
3 118 131 130 
3 119 109 121 
3 119 121 131 
3 121 120 132 
3 121 132 133 
3 120 122 134 
3 120 134 132 
3 122 123 135 
3 122 135 134 
3 123 124 136 
3 123 136 135 
3 124 125 137 
3 124 137 136 
3 125 126 138 
3 125 138 137 
3 126 127 139 
3 126 139 138 
3 127 128 140 
3 127 140 139 
3 128 129 141 
3 128 141 140 
3 129 130 142 
3 129 142 141 
3 130 131 143 
3 130 143 142 
3 131 121 133 
3 131 133 143 
3 133 132 144 
3 133 144 145 
3 132 134 146 
3 132 146 144 
3 134 135 147 
3 134 147 146 
3 135 136 148 
3 135 148 147 
3 136 137 149 
3 136 149 148 
3 137 138 150 
3 137 150 149 
3 138 139 151 
3 138 151 150 
3 139 140 152 
3 139 152 151 
3 140 141 153 
3 140 153 152 
3 141 142 154 
3 141 154 153 
3 142 143 155 
3 142 155 154 
3 143 133 145 
3 143 145 155 
3 145 144 156 
3 145 156 157 
3 144 146 158 
3 144 158 156 
3 146 147 159 
3 146 159 158 
3 147 148 160 
3 147 160 159 
3 148 149 161 
3 148 161 160 
3 149 150 162 
3 149 162 161 
3 150 151 163 
3 150 163 162 
3 151 152 164 
3 151 164 163 
3 152 153 165 
3 152 165 164 
3 153 154 166 
3 153 166 165 
3 154 155 167 
3 154 167 166 
3 155 145 157 
3 155 157 167 
3 157 156 168 
3 157 168 169 
3 156 158 170 
3 156 170 168 
3 158 159 171 
3 158 171 170 
3 159 160 172 
3 159 172 171 
3 160 161 173 
3 160 173 172 
3 161 162 174 
3 161 174 173 
3 162 163 175 
3 162 175 174 
3 163 164 176 
3 163 176 175 
3 164 165 177 
3 164 177 176 
3 165 166 178 
3 165 178 177 
3 166 167 179 
3 166 179 178 
3 167 157 169 
3 167 169 179 
3 169 168 180 
3 169 180 181 
3 168 170 182 
3 168 182 180 
3 170 171 183 
3 170 183 182 
3 171 172 184 
3 171 184 183 
3 172 173 185 
3 172 185 184 
3 173 174 186 
3 173 186 185 
3 174 175 187 
3 174 187 186 
3 175 176 188 
3 175 188 187 
3 176 177 189 
3 176 189 188 
3 177 178 190 
3 177 190 189 
3 178 179 191 
3 178 191 190 
3 179 169 181 
3 179 181 191 
3 181 180 192 
3 181 192 193 
3 180 182 194 
3 180 194 192 
3 182 183 195 
3 182 195 194 
3 183 184 196 
3 183 196 195 
3 184 185 197 
3 184 197 196 
3 185 186 198 
3 185 198 197 
3 186 187 199 
3 186 199 198 
3 187 188 200 
3 187 200 199 
3 188 189 201 
3 188 201 200 
3 189 190 202 
3 189 202 201 
3 190 191 203 
3 190 203 202 
3 191 181 193 
3 191 193 203 
3 193 192 204 
3 193 204 205 
3 192 194 206 
3 192 206 204 
3 194 195 207 
3 194 207 206 
3 195 196 208 
3 195 208 207 
3 196 197 209 
3 196 209 208 
3 197 198 210 
3 197 210 209 
3 198 199 211 
3 198 211 210 
3 199 200 212 
3 199 212 211 
3 200 201 213 
3 200 213 212 
3 201 202 214 
3 201 214 213 
3 202 203 215 
3 202 215 214 
3 203 193 205 
3 203 205 215 
3 205 204 216 
3 205 216 217 
3 204 206 218 
3 204 218 216 
3 206 207 219 
3 206 219 218 
3 207 208 220 
3 207 220 219 
3 208 209 221 
3 208 221 220 
3 209 210 222 
3 209 222 221 
3 210 211 223 
3 210 223 222 
3 211 212 224 
3 211 224 223 
3 212 213 225 
3 212 225 224 
3 213 214 226 
3 213 226 225 
3 214 215 227 
3 214 227 226 
3 215 205 217 
3 215 217 227 
3 217 216 228 
3 217 228 229 
3 216 218 230 
3 216 230 228 
3 218 219 231 
3 218 231 230 
3 219 220 232 
3 219 232 231 
3 220 221 233 
3 220 233 232 
3 221 222 234 
3 221 234 233 
3 222 223 235 
3 222 235 234 
3 223 224 236 
3 223 236 235 
3 224 225 237 
3 224 237 236 
3 225 226 238 
3 225 238 237 
3 226 227 239 
3 226 239 238 
3 227 217 229 
3 227 229 239 
3 229 228 240 
3 229 240 241 
3 228 230 242 
3 228 242 240 
3 230 231 243 
3 230 243 242 
3 231 232 244 
3 231 244 243 
3 232 233 245 
3 232 245 244 
3 233 234 246 
3 233 246 245 
3 234 235 247 
3 234 247 246 
3 235 236 248 
3 235 248 247 
3 236 237 249 
3 236 249 248 
3 237 238 250 
3 237 250 249 
3 238 239 251 
3 238 251 250 
3 239 229 241 
3 239 241 251 
3 241 240 252 
3 241 252 253 
3 240 242 254 
3 240 254 252 
3 242 243 255 
3 242 255 254 
3 243 244 256 
3 243 256 255 
3 244 245 257 
3 244 257 256 
3 245 246 258 
3 245 258 257 
3 246 247 259 
3 246 259 258 
3 247 248 260 
3 247 260 259 
3 248 249 261 
3 248 261 260 
3 249 250 262 
3 249 262 261 
3 250 251 263 
3 250 263 262 
3 251 241 253 
3 251 253 263 
3 253 252 264 
3 253 264 265 
3 252 254 266 
3 252 266 264 
3 254 255 267 
3 254 267 266 
3 255 256 268 
3 255 268 267 
3 256 257 269 
3 256 269 268 
3 257 258 270 
3 257 270 269 
3 258 259 271 
3 258 271 270 
3 259 260 272 
3 259 272 271 
3 260 261 273 
3 260 273 272 
3 261 262 274 
3 261 274 273 
3 262 263 275 
3 262 275 274 
3 263 253 265 
3 263 265 275 
3 265 264 276 
3 265 276 277 
3 264 266 278 
3 264 278 276 
3 266 267 279 
3 266 279 278 
3 267 268 280 
3 267 280 279 
3 268 269 281 
3 268 281 280 
3 269 270 282 
3 269 282 281 
3 270 271 283 
3 270 283 282 
3 271 272 284 
3 271 284 283 
3 272 273 285 
3 272 285 284 
3 273 274 286 
3 273 286 285 
3 274 275 287 
3 274 287 286 
3 275 265 277 
3 275 277 287 
3 277 276 1 
3 277 1 0 
3 276 278 4 
3 276 4 1 
3 278 279 6 
3 278 6 4 
3 279 280 8 
3 279 8 6 
3 280 281 10 
3 280 10 8 
3 281 282 12 
3 281 12 10 
3 282 283 14 
3 282 14 12 
3 283 284 16 
3 283 16 14 
3 284 285 18 
3 284 18 16 
3 285 286 20 
3 285 20 18 
3 286 287 22 
3 286 22 20 
3 287 277 0 
3 287 0 22 
3 288 289 290 
3 288 290 291 
3 291 290 292 
3 291 292 293 
3 293 292 294 
3 293 294 295 
3 295 294 296 
3 295 296 297 
3 298 288 291 
3 298 291 299 
3 299 291 293 
3 299 293 300 
3 300 293 295 
3 300 295 301 
3 301 295 297 
3 301 297 302 
3 303 298 299 
3 303 299 304 
3 304 299 300 
3 304 300 305 
3 305 300 301 
3 305 301 306 
3 306 301 302 
3 306 302 307 
3 308 303 304 
3 308 304 309 
3 309 304 305 
3 309 305 310 
3 310 305 306 
3 310 306 311 
3 311 306 307 
3 311 307 312 
