ply
format ascii 1.0
comment VCGLIB generated
element vertex 4
property float x
property float y
property float z
property float nx
property float ny
property float nz
property uchar red
property uchar green
property uchar blue
property uchar alpha
property float texture_u
property float texture_v
element face 2
property list uchar int vertex_indices
end_header
-7.19585 7.19585 9.8534 1.41421 1.41421 -8.74228e-008 192 192 192 255 0 1
6.84205 -6.84205 9.8534 0.707107 0.707107 -4.37114e-008 192 192 192 255 0 0
6.84205 -6.84205 -10.0848 1.41421 1.41421 -8.74228e-008 192 192 192 255 1 0
-7.19585 7.19585 -10.0848 0.707107 0.707107 -4.37114e-008 192 192 192 255 1 1
3 0 1 2 
3 0 2 3 
