ply
format ascii 1.0
comment VCGLIB generated
element vertex 130
property float x
property float y
property float z
property float nx
property float ny
property float nz
property uchar red
property uchar green
property uchar blue
property uchar alpha
element face 240
property list uchar int vertex_indices
end_header
-5.1551 -0.339702 5.39942 0 -1.99605 -0.125581 192 192 192 255 
-5.1551 0.339702 -5.39942 0 -0.998027 -0.0627905 192 192 192 255 
5.1551 0.339702 -5.39942 0 -1.99605 -0.125581 192 192 192 255 
5.1551 -0.339702 5.39942 0 -0.998027 -0.0627905 192 192 192 255 
-4.5438 0.477573 5.47329 0 -0.236969 1.98591 148 176 27 255 
-4.5438 -8.65045 4.38409 0 -0.118484 0.992956 148 176 27 255 
4.6452 -8.65045 4.38409 0 -0.236969 1.98591 148 176 27 255 
4.6452 0.477573 5.47329 0 -0.118484 0.992956 148 176 27 255 
0.8826 -5.70755 -3.30009 -1.49012e-008 -1.36703 -0.0860061 184 227 153 255 
1.4193 -5.3765 -3.27926 1.22515 -0.6114 -0.038466 184 227 153 255 
1.0484 -5.40856 -2.76977 0.378637 -0.684602 1.12444 184 227 153 255 
0.4484 -5.39631 -2.96439 -0.991197 -0.656597 0.680163 184 227 153 255 
0.4484 -5.3567 -3.59404 -0.991144 -0.566139 -0.757091 184 227 153 255 
1.0484 -5.34445 -3.78866 0.37855 -0.538134 -1.20136 184 227 153 255 
1.3168 -4.82106 -3.56034 0.991144 0.656572 -0.680305 184 227 153 255 
1.3168 -4.86067 -2.93069 0.991197 0.566164 0.757233 184 227 153 255 
0.7167 -4.87292 -2.73607 -0.378637 0.538278 1.20132 184 227 153 255 
0.3459 -4.84086 -3.24556 -1.22515 0.611337 0.0384621 184 227 153 255 
0.7167 -4.80881 -3.75496 -0.37855 0.684458 -1.12439 184 227 153 255 
0.8826 -4.50982 -3.22474 0 1.36709 0.08601 184 227 153 255 
-0.4889 0.0148248 -0.235634 0 17.9645 1.13023 27 176 148 255 
-0.1139 -0.00493533 0.0784449 2.15136 1.86845 2.15376 27 176 148 255 
-0.0289 0.00431371 -0.0685644 2.717 1.92235 1.297 27 176 148 255 
0.0007 0.0148248 -0.235634 2.95417 1.98512 0.299358 27 176 148 255 
-0.4039 -0.0154464 0.245515 0.342215 1.81147 3.0594 27 176 148 255 
-0.2441 -0.011792 0.187429 1.32704 1.82995 2.7658 27 176 148 255 
-0.7336 -0.011792 0.187429 -1.62705 1.84081 2.59312 27 176 148 255 
-0.5739 -0.0154464 0.245515 -0.684809 1.81527 2.99901 27 176 148 255 
-0.9489 0.00431371 -0.0685644 -2.83579 1.94288 0.970818 27 176 148 255 
-0.8639 -0.00493533 0.0784449 -2.3746 1.88516 1.88814 27 176 148 255 
-0.9489 0.0253359 -0.402704 -2.7171 2.06972 -1.04527 27 176 148 255 
-0.9784 0.0148248 -0.235634 -2.95447 2.00695 -0.0476271 27 176 148 255 
-0.7336 0.041448 -0.658797 -1.32644 2.16217 -2.51483 27 176 148 255 
-0.8639 0.0345849 -0.549713 -2.15147 2.12365 -1.90251 27 176 148 255 
-0.4039 0.0450962 -0.716783 0.683392 2.17687 -2.74836 27 176 148 255 
-0.5739 0.0450962 -0.716783 -0.341885 2.18064 -2.80836 27 176 148 255 
-0.1139 0.0345849 -0.549713 2.37523 2.10691 -1.63645 27 176 148 255 
-0.2441 0.041448 -0.658797 1.62761 2.15125 -2.34116 27 176 148 255 
-0.0289 0.0253359 -0.402704 2.83559 2.0493 -0.720795 27 176 148 255 
-0.0289 -1.43943 -0.159397 5.55258 -0.126949 2.0178 27 176 148 255 
0.0007 -1.42892 -0.326467 5.90835 5.61391e-009 -8.92305e-008 27 176 148 255 
-0.1139 -1.44868 -0.0123878 4.52625 -0.238478 3.7905 27 176 148 255 
-0.2441 -1.45554 0.0965968 2.95448 -0.321326 5.10734 27 176 148 255 
-0.4039 -1.45919 0.154682 1.02665 -0.365369 5.80738 27 176 148 255 
-0.5739 -1.45919 0.154682 -1.02721 -0.365357 5.80718 27 176 148 255 
-0.7336 -1.45554 0.0965968 -2.95418 -0.321359 5.10786 27 176 148 255 
-0.8639 -1.44868 -0.0123878 -4.52538 -0.238523 3.79123 27 176 148 255 
-0.9489 -1.43943 -0.159397 -5.55289 -0.126841 2.01609 27 176 148 255 
-0.9784 -1.42892 -0.326467 -5.90895 3.74261e-009 -5.9487e-008 27 176 148 255 
-0.9489 -1.41841 -0.493536 -5.55289 0.126841 -2.01609 27 176 148 255 
-0.8639 -1.40916 -0.640546 -4.52641 0.238469 -3.79036 27 176 148 255 
-0.7336 -1.4023 -0.74963 -2.95366 0.32134 -5.10756 27 176 148 255 
-0.5739 -1.39865 -0.807615 -1.02566 0.365391 -5.80774 27 176 148 255 
-0.4039 -1.39865 -0.807615 1.02509 0.365405 -5.80795 27 176 148 255 
-0.2441 -1.4023 -0.74963 2.95396 0.321307 -5.10704 27 176 148 255 
-0.1139 -1.40916 -0.640546 4.52728 0.238423 -3.78963 27 176 148 255 
-0.0289 -1.41841 -0.493536 5.55258 0.126949 -2.0178 27 176 148 255 
-0.0289 -2.88318 -0.25023 5.55258 -0.126949 2.0178 27 176 148 255 
0.0007 -2.87267 -0.417299 5.90835 5.61391e-009 -8.92305e-008 27 176 148 255 
-0.1139 -2.89243 -0.10322 4.52625 -0.238478 3.7905 27 176 148 255 
-0.2441 -2.89928 0.00576406 2.95448 -0.321326 5.10734 27 176 148 255 
-0.4039 -2.90294 0.0638492 1.02665 -0.365369 5.80738 27 176 148 255 
-0.5739 -2.90294 0.0638492 -1.02721 -0.365357 5.80718 27 176 148 255 
-0.7336 -2.89928 0.00576406 -2.95418 -0.321359 5.10786 27 176 148 255 
-0.8639 -2.89243 -0.10322 -4.52538 -0.238523 3.79123 27 176 148 255 
-0.9489 -2.88318 -0.25023 -5.55289 -0.126841 2.01609 27 176 148 255 
-0.9784 -2.87267 -0.417299 -5.90895 3.74261e-009 -5.9487e-008 27 176 148 255 
-0.9489 -2.86215 -0.584369 -5.55289 0.126841 -2.01609 27 176 148 255 
-0.8639 -2.85291 -0.731378 -4.52641 0.238469 -3.79036 27 176 148 255 
-0.7336 -2.84604 -0.840463 -2.95366 0.32134 -5.10756 27 176 148 255 
-0.5739 -2.84239 -0.898448 -1.02566 0.365391 -5.80774 27 176 148 255 
-0.4039 -2.84239 -0.898448 1.02509 0.365405 -5.80795 27 176 148 255 
-0.2441 -2.84604 -0.840463 2.95396 0.321307 -5.10704 27 176 148 255 
-0.1139 -2.85291 -0.731378 4.52728 0.238423 -3.78963 27 176 148 255 
-0.0289 -2.86215 -0.584369 5.55258 0.126949 -2.0178 27 176 148 255 
-0.0289 -4.32692 -0.341062 5.55258 -0.126949 2.0178 27 176 148 255 
0.0007 -4.31641 -0.508132 5.90835 5.61391e-009 -8.92305e-008 27 176 148 255 
-0.1139 -4.33617 -0.194053 4.52625 -0.238478 3.7905 27 176 148 255 
-0.2441 -4.34303 -0.0850687 2.95448 -0.321326 5.10734 27 176 148 255 
-0.4039 -4.34668 -0.0269835 1.02665 -0.365369 5.80738 27 176 148 255 
-0.5739 -4.34668 -0.0269835 -1.02721 -0.365357 5.80718 27 176 148 255 
-0.7336 -4.34303 -0.0850687 -2.95418 -0.321359 5.10786 27 176 148 255 
-0.8639 -4.33617 -0.194053 -4.52538 -0.238523 3.79123 27 176 148 255 
-0.9489 -4.32692 -0.341062 -5.55289 -0.126841 2.01609 27 176 148 255 
-0.9784 -4.31641 -0.508132 -5.90895 3.74261e-009 -5.9487e-008 27 176 148 255 
-0.9489 -4.3059 -0.675201 -5.55289 0.126841 -2.01609 27 176 148 255 
-0.8639 -4.29665 -0.822211 -4.52641 0.238469 -3.79036 27 176 148 255 
-0.7336 -4.28979 -0.931295 -2.95366 0.32134 -5.10756 27 176 148 255 
-0.5739 -4.28614 -0.98928 -1.02566 0.365391 -5.80774 27 176 148 255 
-0.4039 -4.28614 -0.98928 1.02509 0.365405 -5.80795 27 176 148 255 
-0.2441 -4.28979 -0.931295 2.95396 0.321307 -5.10704 27 176 148 255 
-0.1139 -4.29665 -0.822211 4.52728 0.238423 -3.78963 27 176 148 255 
-0.0289 -4.3059 -0.675201 5.55258 0.126949 -2.0178 27 176 148 255 
-0.0289 -5.77067 -0.431895 5.55258 -0.126949 2.0178 27 176 148 255 
0.0007 -5.76016 -0.598964 5.90835 5.61391e-009 -8.92305e-008 27 176 148 255 
-0.1139 -5.77992 -0.284885 4.52625 -0.238478 3.7905 27 176 148 255 
-0.2441 -5.78677 -0.175902 2.95448 -0.321326 5.10734 27 176 148 255 
-0.4039 -5.79043 -0.117817 1.02665 -0.365369 5.80738 27 176 148 255 
-0.5739 -5.79043 -0.117817 -1.02721 -0.365357 5.80718 27 176 148 255 
-0.7336 -5.78677 -0.175902 -2.95418 -0.321359 5.10786 27 176 148 255 
-0.8639 -5.77992 -0.284885 -4.52538 -0.238523 3.79123 27 176 148 255 
-0.9489 -5.77067 -0.431895 -5.55289 -0.126841 2.01609 27 176 148 255 
-0.9784 -5.76016 -0.598964 -5.90895 3.74261e-009 -5.9487e-008 27 176 148 255 
-0.9489 -5.74965 -0.766034 -5.55289 0.126841 -2.01609 27 176 148 255 
-0.8639 -5.7404 -0.913043 -4.52641 0.238469 -3.79036 27 176 148 255 
-0.7336 -5.73353 -1.02213 -2.95366 0.32134 -5.10756 27 176 148 255 
-0.5739 -5.72989 -1.08011 -1.02566 0.365391 -5.80774 27 176 148 255 
-0.4039 -5.72989 -1.08011 1.02509 0.365405 -5.80795 27 176 148 255 
-0.2441 -5.73353 -1.02213 2.95396 0.321307 -5.10704 27 176 148 255 
-0.1139 -5.7404 -0.913043 4.52728 0.238423 -3.78963 27 176 148 255 
-0.0289 -5.74965 -0.766034 5.55258 0.126949 -2.01779 27 176 148 255 
-0.0289 -7.21451 -0.522735 2.83559 -2.0493 0.720795 27 176 148 255 
0.0007 -7.204 -0.689804 2.95417 -1.98512 -0.299358 27 176 148 255 
-0.1139 -7.22376 -0.375725 2.37489 -2.10693 1.63674 27 176 148 255 
-0.2441 -7.23062 -0.266741 1.62744 -2.15127 2.34155 27 176 148 255 
-0.4039 -7.23427 -0.208656 0.68443 -2.17684 2.74798 27 176 148 255 
-0.5739 -7.23427 -0.208656 -0.342404 -2.18063 2.80817 27 176 148 255 
-0.7336 -7.23062 -0.266741 -1.32713 -2.16217 2.51474 27 176 148 255 
-0.8639 -7.22376 -0.375725 -2.15078 -2.12369 1.90308 27 176 148 255 
-0.9489 -7.21451 -0.522735 -2.7171 -2.06972 1.04527 27 176 148 255 
-0.9784 -7.204 -0.689804 -2.95447 -2.00695 0.047627 27 176 148 255 
-0.9489 -7.19349 -0.856874 -2.83579 -1.94288 -0.970818 27 176 148 255 
-0.8639 -7.18424 -1.00388 -2.37494 -1.88518 -1.88786 27 176 148 255 
-0.7336 -7.17738 -1.11297 -1.62722 -1.84083 -2.59273 27 176 148 255 
-0.5739 -7.17373 -1.17095 -0.68377 -1.81525 -2.99938 27 176 148 255 
-0.4039 -7.17373 -1.17095 0.341696 -1.81146 -3.05959 27 176 148 255 
-0.2441 -7.17738 -1.11297 1.32635 -1.82994 -2.76588 27 176 148 255 
-0.1139 -7.18424 -1.00388 2.15205 -1.86849 -2.15318 27 176 148 255 
-0.0289 -7.19349 -0.856874 2.717 -1.92235 -1.297 27 176 148 255 
-0.4889 -7.204 -0.689804 0 -17.9645 -1.13023 27 176 148 255 
3 0 1 2 
3 0 2 3 
3 4 5 6 
3 4 6 7 
3 8 9 10 
3 8 10 11 
3 8 11 12 
3 8 12 13 
3 8 13 9 
3 9 14 15 
3 10 15 16 
3 11 16 17 
3 12 17 18 
3 13 18 14 
3 15 10 9 
3 16 11 10 
3 17 12 11 
3 18 13 12 
3 14 9 13 
3 19 16 15 
3 19 17 16 
3 19 18 17 
3 19 14 18 
3 19 15 14 
3 20 21 22 
3 20 22 23 
3 20 24 25 
3 20 25 21 
3 20 26 27 
3 20 27 24 
3 20 28 29 
3 20 29 26 
3 20 30 31 
3 20 31 28 
3 20 32 33 
3 20 33 30 
3 20 34 35 
3 20 35 32 
3 20 36 37 
3 20 37 34 
3 20 23 38 
3 20 38 36 
3 23 22 39 
3 23 39 40 
3 22 21 41 
3 22 41 39 
3 21 25 42 
3 21 42 41 
3 25 24 43 
3 25 43 42 
3 24 27 44 
3 24 44 43 
3 27 26 45 
3 27 45 44 
3 26 29 46 
3 26 46 45 
3 29 28 47 
3 29 47 46 
3 28 31 48 
3 28 48 47 
3 31 30 49 
3 31 49 48 
3 30 33 50 
3 30 50 49 
3 33 32 51 
3 33 51 50 
3 32 35 52 
3 32 52 51 
3 35 34 53 
3 35 53 52 
3 34 37 54 
3 34 54 53 
3 37 36 55 
3 37 55 54 
3 36 38 56 
3 36 56 55 
3 38 23 40 
3 38 40 56 
3 40 39 57 
3 40 57 58 
3 39 41 59 
3 39 59 57 
3 41 42 60 
3 41 60 59 
3 42 43 61 
3 42 61 60 
3 43 44 62 
3 43 62 61 
3 44 45 63 
3 44 63 62 
3 45 46 64 
3 45 64 63 
3 46 47 65 
3 46 65 64 
3 47 48 66 
3 47 66 65 
3 48 49 67 
3 48 67 66 
3 49 50 68 
3 49 68 67 
3 50 51 69 
3 50 69 68 
3 51 52 70 
3 51 70 69 
3 52 53 71 
3 52 71 70 
3 53 54 72 
3 53 72 71 
3 54 55 73 
3 54 73 72 
3 55 56 74 
3 55 74 73 
3 56 40 58 
3 56 58 74 
3 58 57 75 
3 58 75 76 
3 57 59 77 
3 57 77 75 
3 59 60 78 
3 59 78 77 
3 60 61 79 
3 60 79 78 
3 61 62 80 
3 61 80 79 
3 62 63 81 
3 62 81 80 
3 63 64 82 
3 63 82 81 
3 64 65 83 
3 64 83 82 
3 65 66 84 
3 65 84 83 
3 66 67 85 
3 66 85 84 
3 67 68 86 
3 67 86 85 
3 68 69 87 
3 68 87 86 
3 69 70 88 
3 69 88 87 
3 70 71 89 
3 70 89 88 
3 71 72 90 
3 71 90 89 
3 72 73 91 
3 72 91 90 
3 73 74 92 
3 73 92 91 
3 74 58 76 
3 74 76 92 
3 76 75 93 
3 76 93 94 
3 75 77 95 
3 75 95 93 
3 77 78 96 
3 77 96 95 
3 78 79 97 
3 78 97 96 
3 79 80 98 
3 79 98 97 
3 80 81 99 
3 80 99 98 
3 81 82 100 
3 81 100 99 
3 82 83 101 
3 82 101 100 
3 83 84 102 
3 83 102 101 
3 84 85 103 
3 84 103 102 
3 85 86 104 
3 85 104 103 
3 86 87 105 
3 86 105 104 
3 87 88 106 
3 87 106 105 
3 88 89 107 
3 88 107 106 
3 89 90 108 
3 89 108 107 
3 90 91 109 
3 90 109 108 
3 91 92 110 
3 91 110 109 
3 92 76 94 
3 92 94 110 
3 94 93 111 
3 94 111 112 
3 93 95 113 
3 93 113 111 
3 95 96 114 
3 95 114 113 
3 96 97 115 
3 96 115 114 
3 97 98 116 
3 97 116 115 
3 98 99 117 
3 98 117 116 
3 99 100 118 
3 99 118 117 
3 100 101 119 
3 100 119 118 
3 101 102 120 
3 101 120 119 
3 102 103 121 
3 102 121 120 
3 103 104 122 
3 103 122 121 
3 104 105 123 
3 104 123 122 
3 105 106 124 
3 105 124 123 
3 106 107 125 
3 106 125 124 
3 107 108 126 
3 107 126 125 
3 108 109 127 
3 108 127 126 
3 109 110 128 
3 109 128 127 
3 110 94 112 
3 110 112 128 
3 129 128 112 
3 129 112 111 
3 129 111 113 
3 129 113 114 
3 129 114 115 
3 129 115 116 
3 129 116 117 
3 129 117 118 
3 129 118 119 
3 129 119 120 
3 129 120 121 
3 129 121 122 
3 129 122 123 
3 129 123 124 
3 129 124 125 
3 129 125 126 
3 129 126 127 
3 129 127 128 
