ply
format ascii 1.0
comment VCGLIB generated
element vertex 50
property float x
property float y
property float z
property float nx
property float ny
property float nz
element face 96
property list uchar int vertex_indices
end_header
-6.07428 17.2036 -0.234369 -2.83297 0.123392 0.97933 
-5.0623 18.1309 -0.226994 -2.04865 2.21188 2.98512 
-5.03499 18.1309 -3.96884 -4.05344 4.42366 -0.029602 
-6.04694 17.2036 -3.97624 -4.23854 0.185075 -0.0309539 
-4.05036 19.0583 -0.21959 -2.04866 2.21187 2.98512 
-4.02305 19.0583 -3.96147 -4.05341 4.42368 -0.0295964 
-3.03842 19.9855 -0.212214 -2.04863 2.21186 2.98512 
-3.01109 19.9855 -3.95406 -4.05342 4.42368 -0.0295992 
-2.02647 20.9128 -0.204808 0.0470884 1.41285 2.0004 
-1.99911 20.9128 -3.94668 0.185067 4.23858 0.00135178 
-5.00766 18.1309 -7.71072 -4.05345 4.42365 -0.0295968 
-6.0196 17.2036 -7.71813 -4.23856 0.185084 -0.0309483 
-3.99571 19.0583 -7.70334 -4.0534 4.42369 -0.0296018 
-2.98377 19.9855 -7.69595 -4.05342 4.42368 -0.0296045 
-1.97179 20.9128 -7.68856 0.185097 4.23856 0.00134885 
-4.98034 18.1309 -11.4526 -4.05345 4.42365 -0.0295966 
-5.99229 17.2036 -11.46 -4.23856 0.185084 -0.0309482 
-3.9684 19.0583 -11.4452 -4.05338 4.42371 -0.029599 
-2.95641 19.9855 -11.4378 -4.05342 4.42368 -0.0296047 
-1.94446 20.9128 -11.4304 0.185081 4.23855 0.00134598 
-4.95301 18.1309 -15.1945 -2.00483 2.21184 -3.01472 
-5.96497 17.2036 -15.2019 -1.39826 0.0617062 -2.01026 
-3.94107 19.0583 -15.187 -2.0048 2.21187 -3.01472 
-2.9291 19.9855 -15.1797 -2.0048 2.21187 -3.01472 
-1.91715 20.9128 -15.1723 0.130679 2.8257 -0.999073 
-4.62751 17.6862 -3.96588 4.05342 -4.42368 0.0295992 
-4.65485 17.6862 -0.224009 2.00476 -2.21181 3.01472 
-5.66679 16.7589 -0.231384 0.59929 -2.15009 2.00443 
-5.63946 16.7589 -3.97326 -0.185048 -4.23856 -0.00135703 
-3.61554 18.6135 -3.95848 4.05339 -4.42371 0.0296042 
-3.6429 18.6135 -0.216603 2.00476 -2.21181 3.01473 
-2.6036 19.5408 -3.9511 4.05344 -4.42366 0.0296019 
-2.63091 19.5408 -0.209228 2.00482 -2.21182 3.01472 
-1.59165 20.4681 -3.94369 4.23854 -0.185067 0.0309511 
-1.61897 20.4681 -0.201852 2.1428 0.613904 1.01568 
-4.6002 17.6862 -7.70776 4.05342 -4.42368 0.0296046 
-5.61214 16.7589 -7.71515 -0.185084 -4.23855 -0.001346 
-3.58823 18.6135 -7.70035 4.05339 -4.42371 0.0295991 
-2.57627 19.5408 -7.69299 4.05345 -4.42365 0.0295968 
-1.56432 20.4681 -7.68558 4.23855 -0.185081 0.0309483 
-4.57284 17.6862 -11.4496 4.05342 -4.42368 0.0296046 
-5.58483 16.7589 -11.457 -0.185101 -4.23856 -0.00134876 
-3.5609 18.6135 -11.4422 4.0534 -4.42369 0.0296018 
-2.54895 19.5408 -11.4348 4.05345 -4.42365 0.0295968 
-1.537 20.4681 -11.4274 4.23855 -0.185081 0.0309483 
-4.54553 17.6862 -15.1916 2.0486 -2.21182 -2.98512 
-5.5575 16.7589 -15.1989 -0.791675 -2.08842 -1.00581 
-3.53358 18.6135 -15.184 2.0486 -2.21183 -2.98512 
-2.52164 19.5408 -15.1767 2.04861 -2.21181 -2.98512 
-1.50968 20.4681 -15.1693 2.10303 -0.798952 -1.9847 
3 0 1 2 
3 0 2 3 
3 1 4 5 
3 1 5 2 
3 4 6 7 
3 4 7 5 
3 6 8 9 
3 6 9 7 
3 3 2 10 
3 3 10 11 
3 2 5 12 
3 2 12 10 
3 5 7 13 
3 5 13 12 
3 7 9 14 
3 7 14 13 
3 11 10 15 
3 11 15 16 
3 10 12 17 
3 10 17 15 
3 12 13 18 
3 12 18 17 
3 13 14 19 
3 13 19 18 
3 16 15 20 
3 16 20 21 
3 15 17 22 
3 15 22 20 
3 17 18 23 
3 17 23 22 
3 18 19 24 
3 18 24 23 
3 25 26 27 
3 25 27 28 
3 29 30 26 
3 29 26 25 
3 31 32 30 
3 31 30 29 
3 33 34 32 
3 33 32 31 
3 35 25 28 
3 35 28 36 
3 37 29 25 
3 37 25 35 
3 38 31 29 
3 38 29 37 
3 39 33 31 
3 39 31 38 
3 40 35 36 
3 40 36 41 
3 42 37 35 
3 42 35 40 
3 43 38 37 
3 43 37 42 
3 44 39 38 
3 44 38 43 
3 45 40 41 
3 45 41 46 
3 47 42 40 
3 47 40 45 
3 48 43 42 
3 48 42 47 
3 49 44 43 
3 49 43 48 
3 1 0 27 
3 1 27 26 
3 0 3 28 
3 0 28 27 
3 4 1 26 
3 4 26 30 
3 6 4 30 
3 6 30 32 
3 8 6 32 
3 8 32 34 
3 9 8 34 
3 9 34 33 
3 3 11 36 
3 3 36 28 
3 14 9 33 
3 14 33 39 
3 11 16 41 
3 11 41 36 
3 19 14 39 
3 19 39 44 
3 21 20 45 
3 21 45 46 
3 16 21 46 
3 16 46 41 
3 20 22 47 
3 20 47 45 
3 22 23 48 
3 22 48 47 
3 24 19 44 
3 24 44 49 
3 23 24 49 
3 23 49 48 
