ply
format ascii 1.0
comment VCGLIB generated
element vertex 26
property float x
property float y
property float z
property float nx
property float ny
property float nz
element face 48
property list uchar int vertex_indices
end_header
0 0.24714 -0 7.45058e-009 5.27576 0 
-0 0.17475 -0.17475 -5.24521e-005 3.43515 -3.87871 
-0.12357 0.17475 -0.12357 -2.74258 3.43497 -2.74265 
-0.17475 0.17475 0 -3.87871 3.43515 5.24223e-005 
-0.12357 0.17475 0.12357 -2.74265 3.43497 2.74258 
0 0.17475 0.17475 5.24521e-005 3.43515 3.87871 
0.12357 0.17475 0.12357 2.74258 3.43497 2.74265 
0.17475 0.17475 0 3.87871 3.43515 -5.24223e-005 
0.12357 0.17475 -0.12357 2.74265 3.43497 -2.74258 
-0 -0 -0.24714 0 -5.96046e-008 -4.91407 
-0.17475 -0 -0.17475 -3.47495 2.98023e-008 -3.47495 
-0.24714 -0 0 -4.91407 0 0 
-0.17475 -0 0.17475 -3.47495 5.96046e-008 3.47495 
0 -0 0.24714 0 -5.96046e-008 4.91407 
0.17475 -0 0.17475 3.47495 2.98023e-008 3.47495 
0.24714 -0 0 4.91407 0 0 
0.17475 -0 -0.17475 3.47495 5.96046e-008 -3.47495 
-0 -0.17475 -0.17475 5.25117e-005 -3.43515 -3.87871 
-0.12357 -0.17475 -0.12357 -2.74265 -3.43497 -2.74258 
-0.17475 -0.17475 0 -3.87871 -3.43515 -5.25117e-005 
-0.12357 -0.17475 0.12357 -2.74258 -3.43497 2.74265 
0 -0.17475 0.17475 -5.25117e-005 -3.43515 3.87871 
0.12357 -0.17475 0.12357 2.74265 -3.43497 2.74258 
0.17475 -0.17475 0 3.87871 -3.43515 5.25117e-005 
0.12357 -0.17475 -0.12357 2.74258 -3.43497 -2.74265 
0 -0.24714 -0 7.45058e-009 -5.27576 0 
3 0 1 2 
3 0 2 3 
3 0 3 4 
3 0 4 5 
3 0 5 6 
3 0 6 7 
3 0 7 8 
3 0 8 1 
3 1 9 10 
3 1 10 2 
3 2 10 11 
3 2 11 3 
3 3 11 12 
3 3 12 4 
3 4 12 13 
3 4 13 5 
3 5 13 14 
3 5 14 6 
3 6 14 15 
3 6 15 7 
3 7 15 16 
3 7 16 8 
3 8 16 9 
3 8 9 1 
3 9 17 18 
3 9 18 10 
3 10 18 19 
3 10 19 11 
3 11 19 20 
3 11 20 12 
3 12 20 21 
3 12 21 13 
3 13 21 22 
3 13 22 14 
3 14 22 23 
3 14 23 15 
3 15 23 24 
3 15 24 16 
3 16 24 17 
3 16 17 9 
3 25 18 17 
3 25 19 18 
3 25 20 19 
3 25 21 20 
3 25 22 21 
3 25 23 22 
3 25 24 23 
3 25 17 24 
