ply
format ascii 1.0
comment VCGLIB generated
element vertex 182
property float x
property float y
property float z
element face 360
property list uchar int vertex_indices
end_header
0 0.41894 0 
-0 0.39843 -0.12946 
-0.04 0.39843 -0.12312 
-0.07609 0.39843 -0.10473 
-0.10473 0.39843 -0.07609 
-0.12312 0.39843 -0.04 
-0.12946 0.39843 0 
-0.12312 0.39843 0.04 
-0.10473 0.39843 0.07609 
-0.07609 0.39843 0.10473 
-0.04 0.39843 0.12312 
0 0.39843 0.12946 
0.04 0.39843 0.12312 
0.07609 0.39843 0.10473 
0.10473 0.39843 0.07609 
0.12312 0.39843 0.04 
0.12946 0.39843 -0 
0.12312 0.39843 -0.04001 
0.10473 0.39843 -0.07609 
0.07609 0.39843 -0.10473 
0.04 0.39843 -0.12312 
-0 0.33893 -0.24624 
-0.07609 0.33893 -0.23419 
-0.14474 0.33893 -0.19922 
-0.19922 0.33893 -0.14474 
-0.23419 0.33893 -0.07609 
-0.24624 0.33893 0 
-0.23419 0.33893 0.07609 
-0.19922 0.33893 0.14474 
-0.14474 0.33893 0.19922 
-0.07609 0.33893 0.23419 
0 0.33893 0.24624 
0.07609 0.33893 0.23419 
0.14474 0.33893 0.19922 
0.19922 0.33893 0.14474 
0.23419 0.33893 0.07609 
0.24624 0.33893 -0 
0.23419 0.33893 -0.07609 
0.19922 0.33893 -0.14474 
0.14474 0.33893 -0.19922 
0.07609 0.33893 -0.23419 
-0 0.24624 -0.33893 
-0.10473 0.24624 -0.32234 
-0.19922 0.24624 -0.2742 
-0.2742 0.24624 -0.19922 
-0.32234 0.24624 -0.10473 
-0.33893 0.24624 0 
-0.32234 0.24624 0.10473 
-0.2742 0.24624 0.19922 
-0.19922 0.24624 0.2742 
-0.10473 0.24624 0.32234 
0 0.24624 0.33893 
0.10473 0.24624 0.32234 
0.19922 0.24624 0.2742 
0.2742 0.24624 0.19922 
0.32234 0.24624 0.10473 
0.33893 0.24624 -0 
0.32234 0.24624 -0.10473 
0.2742 0.24624 -0.19922 
0.19922 0.24624 -0.2742 
0.10473 0.24624 -0.32234 
-0 0.12946 -0.39843 
-0.12312 0.12946 -0.37893 
-0.23419 0.12946 -0.32234 
-0.32234 0.12946 -0.23419 
-0.37893 0.12946 -0.12312 
-0.39843 0.12946 0 
-0.37893 0.12946 0.12312 
-0.32234 0.12946 0.23419 
-0.23419 0.12946 0.32234 
-0.12312 0.12946 0.37893 
0 0.12946 0.39843 
0.12312 0.12946 0.37893 
0.23419 0.12946 0.32234 
0.32234 0.12946 0.23419 
0.37893 0.12946 0.12312 
0.39843 0.12946 -0 
0.37893 0.12946 -0.12312 
0.32234 0.12946 -0.23419 
0.23419 0.12946 -0.32234 
0.12312 0.12946 -0.37893 
-0 -0 -0.41894 
-0.12946 -0 -0.39843 
-0.24624 -0 -0.33893 
-0.33893 -0 -0.24624 
-0.39843 -0 -0.12946 
-0.41894 -0 0 
-0.39843 -0 0.12946 
-0.33893 -0 0.24624 
-0.24624 -0 0.33893 
-0.12946 -0 0.39843 
0 -0 0.41894 
0.12946 -0 0.39843 
0.24624 -0 0.33893 
0.33893 -0 0.24624 
0.39843 -0 0.12946 
0.41894 -0 -0 
0.39843 -0 -0.12946 
0.33893 -0 -0.24624 
0.24624 -0 -0.33893 
0.12946 -0 -0.39843 
-0 -0.12946 -0.39843 
-0.12312 -0.12946 -0.37893 
-0.23419 -0.12946 -0.32234 
-0.32234 -0.12946 -0.23419 
-0.37893 -0.12946 -0.12312 
-0.39843 -0.12946 0 
-0.37893 -0.12946 0.12312 
-0.32234 -0.12946 0.23419 
-0.23419 -0.12946 0.32234 
-0.12312 -0.12946 0.37893 
0 -0.12946 0.39843 
0.12312 -0.12946 0.37893 
0.23419 -0.12946 0.32234 
0.32234 -0.12946 0.23419 
0.37893 -0.12946 0.12312 
0.39843 -0.12946 -0 
0.37893 -0.12946 -0.12312 
0.32234 -0.12946 -0.23419 
0.23419 -0.12946 -0.32234 
0.12312 -0.12946 -0.37893 
-0 -0.24624 -0.33893 
-0.10473 -0.24624 -0.32234 
-0.19922 -0.24624 -0.2742 
-0.2742 -0.24624 -0.19922 
-0.32234 -0.24624 -0.10473 
-0.33893 -0.24624 0 
-0.32234 -0.24624 0.10473 
-0.2742 -0.24624 0.19922 
-0.19922 -0.24624 0.2742 
-0.10473 -0.24624 0.32234 
0 -0.24624 0.33893 
0.10473 -0.24624 0.32234 
0.19922 -0.24624 0.2742 
0.2742 -0.24624 0.19922 
0.32234 -0.24624 0.10473 
0.33893 -0.24624 -0 
0.32234 -0.24624 -0.10473 
0.2742 -0.24624 -0.19922 
0.19922 -0.24624 -0.2742 
0.10473 -0.24624 -0.32234 
-0 -0.33893 -0.24624 
-0.07609 -0.33893 -0.23419 
-0.14474 -0.33893 -0.19922 
-0.19922 -0.33893 -0.14474 
-0.23419 -0.33893 -0.07609 
-0.24624 -0.33893 0 
-0.23419 -0.33893 0.07609 
-0.19922 -0.33893 0.14474 
-0.14474 -0.33893 0.19922 
-0.07609 -0.33893 0.23419 
0 -0.33893 0.24624 
0.07609 -0.33893 0.23419 
0.14474 -0.33893 0.19922 
0.19922 -0.33893 0.14474 
0.23419 -0.33893 0.07609 
0.24624 -0.33893 -0 
0.23419 -0.33893 -0.07609 
0.19922 -0.33893 -0.14474 
0.14474 -0.33893 -0.19922 
0.07609 -0.33893 -0.23419 
-0 -0.39843 -0.12946 
-0.04 -0.39843 -0.12312 
-0.07609 -0.39843 -0.10473 
-0.10473 -0.39843 -0.07609 
-0.12312 -0.39843 -0.04 
-0.12946 -0.39843 0 
-0.12312 -0.39843 0.04 
-0.10473 -0.39843 0.07609 
-0.07609 -0.39843 0.10473 
-0.04 -0.39843 0.12312 
0 -0.39843 0.12946 
0.04 -0.39843 0.12312 
0.07609 -0.39843 0.10473 
0.10473 -0.39843 0.07609 
0.12312 -0.39843 0.04 
0.12946 -0.39843 -0 
0.12312 -0.39843 -0.04001 
0.10473 -0.39843 -0.07609 
0.07609 -0.39843 -0.10473 
0.04 -0.39843 -0.12312 
0 -0.41894 0 
3 0 1 2 
3 0 2 3 
3 0 3 4 
3 0 4 5 
3 0 5 6 
3 0 6 7 
3 0 7 8 
3 0 8 9 
3 0 9 10 
3 0 10 11 
3 0 11 12 
3 0 12 13 
3 0 13 14 
3 0 14 15 
3 0 15 16 
3 0 16 17 
3 0 17 18 
3 0 18 19 
3 0 19 20 
3 0 20 1 
3 1 21 22 
3 1 22 2 
3 2 22 23 
3 2 23 3 
3 3 23 24 
3 3 24 4 
3 4 24 25 
3 4 25 5 
3 5 25 26 
3 5 26 6 
3 6 26 27 
3 6 27 7 
3 7 27 28 
3 7 28 8 
3 8 28 29 
3 8 29 9 
3 9 29 30 
3 9 30 10 
3 10 30 31 
3 10 31 11 
3 11 31 32 
3 11 32 12 
3 12 32 33 
3 12 33 13 
3 13 33 34 
3 13 34 14 
3 14 34 35 
3 14 35 15 
3 15 35 36 
3 15 36 16 
3 16 36 37 
3 16 37 17 
3 17 37 38 
3 17 38 18 
3 18 38 39 
3 18 39 19 
3 19 39 40 
3 19 40 20 
3 20 40 21 
3 20 21 1 
3 21 41 42 
3 21 42 22 
3 22 42 43 
3 22 43 23 
3 23 43 44 
3 23 44 24 
3 24 44 45 
3 24 45 25 
3 25 45 46 
3 25 46 26 
3 26 46 47 
3 26 47 27 
3 27 47 48 
3 27 48 28 
3 28 48 49 
3 28 49 29 
3 29 49 50 
3 29 50 30 
3 30 50 51 
3 30 51 31 
3 31 51 52 
3 31 52 32 
3 32 52 53 
3 32 53 33 
3 33 53 54 
3 33 54 34 
3 34 54 55 
3 34 55 35 
3 35 55 56 
3 35 56 36 
3 36 56 57 
3 36 57 37 
3 37 57 58 
3 37 58 38 
3 38 58 59 
3 38 59 39 
3 39 59 60 
3 39 60 40 
3 40 60 41 
3 40 41 21 
3 41 61 62 
3 41 62 42 
3 42 62 63 
3 42 63 43 
3 43 63 64 
3 43 64 44 
3 44 64 65 
3 44 65 45 
3 45 65 66 
3 45 66 46 
3 46 66 67 
3 46 67 47 
3 47 67 68 
3 47 68 48 
3 48 68 69 
3 48 69 49 
3 49 69 70 
3 49 70 50 
3 50 70 71 
3 50 71 51 
3 51 71 72 
3 51 72 52 
3 52 72 73 
3 52 73 53 
3 53 73 74 
3 53 74 54 
3 54 74 75 
3 54 75 55 
3 55 75 76 
3 55 76 56 
3 56 76 77 
3 56 77 57 
3 57 77 78 
3 57 78 58 
3 58 78 79 
3 58 79 59 
3 59 79 80 
3 59 80 60 
3 60 80 61 
3 60 61 41 
3 61 81 82 
3 61 82 62 
3 62 82 83 
3 62 83 63 
3 63 83 84 
3 63 84 64 
3 64 84 85 
3 64 85 65 
3 65 85 86 
3 65 86 66 
3 66 86 87 
3 66 87 67 
3 67 87 88 
3 67 88 68 
3 68 88 89 
3 68 89 69 
3 69 89 90 
3 69 90 70 
3 70 90 91 
3 70 91 71 
3 71 91 92 
3 71 92 72 
3 72 92 93 
3 72 93 73 
3 73 93 94 
3 73 94 74 
3 74 94 95 
3 74 95 75 
3 75 95 96 
3 75 96 76 
3 76 96 97 
3 76 97 77 
3 77 97 98 
3 77 98 78 
3 78 98 99 
3 78 99 79 
3 79 99 100 
3 79 100 80 
3 80 100 81 
3 80 81 61 
3 81 101 102 
3 81 102 82 
3 82 102 103 
3 82 103 83 
3 83 103 104 
3 83 104 84 
3 84 104 105 
3 84 105 85 
3 85 105 106 
3 85 106 86 
3 86 106 107 
3 86 107 87 
3 87 107 108 
3 87 108 88 
3 88 108 109 
3 88 109 89 
3 89 109 110 
3 89 110 90 
3 90 110 111 
3 90 111 91 
3 91 111 112 
3 91 112 92 
3 92 112 113 
3 92 113 93 
3 93 113 114 
3 93 114 94 
3 94 114 115 
3 94 115 95 
3 95 115 116 
3 95 116 96 
3 96 116 117 
3 96 117 97 
3 97 117 118 
3 97 118 98 
3 98 118 119 
3 98 119 99 
3 99 119 120 
3 99 120 100 
3 100 120 101 
3 100 101 81 
3 101 121 122 
3 101 122 102 
3 102 122 123 
3 102 123 103 
3 103 123 124 
3 103 124 104 
3 104 124 125 
3 104 125 105 
3 105 125 126 
3 105 126 106 
3 106 126 127 
3 106 127 107 
3 107 127 128 
3 107 128 108 
3 108 128 129 
3 108 129 109 
3 109 129 130 
3 109 130 110 
3 110 130 131 
3 110 131 111 
3 111 131 132 
3 111 132 112 
3 112 132 133 
3 112 133 113 
3 113 133 134 
3 113 134 114 
3 114 134 135 
3 114 135 115 
3 115 135 136 
3 115 136 116 
3 116 136 137 
3 116 137 117 
3 117 137 138 
3 117 138 118 
3 118 138 139 
3 118 139 119 
3 119 139 140 
3 119 140 120 
3 120 140 121 
3 120 121 101 
3 121 141 142 
3 121 142 122 
3 122 142 143 
3 122 143 123 
3 123 143 144 
3 123 144 124 
3 124 144 145 
3 124 145 125 
3 125 145 146 
3 125 146 126 
3 126 146 147 
3 126 147 127 
3 127 147 148 
3 127 148 128 
3 128 148 149 
3 128 149 129 
3 129 149 150 
3 129 150 130 
3 130 150 151 
3 130 151 131 
3 131 151 152 
3 131 152 132 
3 132 152 153 
3 132 153 133 
3 133 153 154 
3 133 154 134 
3 134 154 155 
3 134 155 135 
3 135 155 156 
3 135 156 136 
3 136 156 157 
3 136 157 137 
3 137 157 158 
3 137 158 138 
3 138 158 159 
3 138 159 139 
3 139 159 160 
3 139 160 140 
3 140 160 141 
3 140 141 121 
3 141 161 162 
3 141 162 142 
3 142 162 163 
3 142 163 143 
3 143 163 164 
3 143 164 144 
3 144 164 165 
3 144 165 145 
3 145 165 166 
3 145 166 146 
3 146 166 167 
3 146 167 147 
3 147 167 168 
3 147 168 148 
3 148 168 169 
3 148 169 149 
3 149 169 170 
3 149 170 150 
3 150 170 171 
3 150 171 151 
3 151 171 172 
3 151 172 152 
3 152 172 173 
3 152 173 153 
3 153 173 174 
3 153 174 154 
3 154 174 175 
3 154 175 155 
3 155 175 176 
3 155 176 156 
3 156 176 177 
3 156 177 157 
3 157 177 178 
3 157 178 158 
3 158 178 179 
3 158 179 159 
3 159 179 180 
3 159 180 160 
3 160 180 161 
3 160 161 141 
3 181 162 161 
3 181 163 162 
3 181 164 163 
3 181 165 164 
3 181 166 165 
3 181 167 166 
3 181 168 167 
3 181 169 168 
3 181 170 169 
3 181 171 170 
3 181 172 171 
3 181 173 172 
3 181 174 173 
3 181 175 174 
3 181 176 175 
3 181 177 176 
3 181 178 177 
3 181 179 178 
3 181 180 179 
3 181 161 180 
