ply
format ascii 1.0
comment VCGLIB generated
element vertex 529
property float x
property float y
property float z
property float nx
property float ny
property float nz
element face 992
property list uchar int vertex_indices
end_header
0.217794 0.373358 0 -2.84864 -0.754243 -0.187489 
0.200916 0.373358 0.0854844 -2.55789 -0.756049 -1.26387 
0.198109 0.384846 0.084291 -4.66246 1.25873 -1.881 
0.214754 0.384846 0 -5.03218 1.25728 0.0437595 
0.201362 0.388675 0.0856763 -0.81006 4.64916 -0.0765982 
0.218282 0.388675 0 -0.776473 4.64647 0.236352 
0.207978 0.384846 0.0884885 3.52346 4.31674 1.53199 
0.225452 0.384846 0 3.8469 4.31279 0.0679569 
0.215267 0.373358 0.0915911 4.71582 2.93329 1.96811 
0.233349 0.373358 0 5.11487 2.92893 0.015467 
0.154636 0.373358 0.154636 -1.88055 -0.756952 -2.14653 
0.152477 0.384846 0.152477 -3.58631 1.2581 -3.52395 
0.154978 0.388675 0.154978 -0.716965 4.65227 -0.382347 
0.160068 0.384846 0.160068 2.66645 4.31986 2.76294 
0.165677 0.373358 0.165677 3.6017 2.93786 3.62381 
0.0854844 0.373358 0.200916 -0.913167 -0.755146 -2.70326 
0.084291 0.384846 0.198109 -1.96338 1.25665 -4.62925 
0.0856763 0.388675 0.201362 -0.517443 4.64958 -0.625006 
0.0884885 0.384846 0.207978 1.40458 4.3159 3.57586 
0.0915911 0.373358 0.215267 1.93889 2.93351 4.72743 
0 0.373358 0.217794 0.167949 -0.803513 -2.83869 
0 0.384846 0.214754 -0.0525195 1.19586 -5.06006 
0 0.388675 0.218282 -0.236264 4.6245 -0.786308 
0 0.384846 0.225452 -0.0681222 4.3101 3.85082 
0 0.373358 0.233349 -0.0154454 2.92848 5.11519 
-0.0913888 0.373358 0.200916 1.20899 -1.04677 -2.47508 
-0.0867815 0.384846 0.198109 1.94288 0.823077 -4.78106 
-0.0864131 0.388675 0.201362 0.108571 4.4728 -0.88493 
-0.0885818 0.384846 0.207978 -1.54454 4.2977 3.54817 
-0.0915911 0.373358 0.215267 -1.969 2.92996 4.71779 
-0.159886 0.373358 0.154636 2.07555 -1.14996 -1.75625 
-0.154693 0.384846 0.152477 3.66244 0.517454 -3.6277 
-0.155637 0.388675 0.154978 0.522774 4.27386 -0.878186 
-0.160151 0.384846 0.160068 -2.80271 4.28253 2.7084 
-0.165677 0.373358 0.165677 -3.62711 2.93065 3.60511 
-0.202883 0.373358 0.0854844 2.66073 -0.971259 -0.835818 
-0.198945 0.384846 0.084291 4.70673 0.775042 -1.90547 
-0.201612 0.388675 0.0856763 0.782786 4.37387 -0.594958 
-0.208009 0.384846 0.0884885 -3.61485 4.28917 1.4235 
-0.215267 0.373358 0.0915911 -4.73082 2.92805 1.94028 
-0.217794 0.373358 0 2.83948 -0.797309 0.204817 
-0.214754 0.384846 0 5.04237 1.13863 -0.0099088 
-0.218282 0.388675 0 0.827789 4.57833 -0.237598 
-0.225452 0.384846 0 -3.85884 4.30581 -0.0672679 
-0.233349 0.373358 0 -5.11593 2.92742 -0.0155397 
-0.200916 0.373358 -0.0854844 2.55789 -0.756049 1.26387 
-0.198109 0.384846 -0.084291 4.66246 1.25873 1.881 
-0.201362 0.388675 -0.0856763 0.81006 4.64916 0.0765982 
-0.207978 0.384846 -0.0884885 -3.52346 4.31674 -1.53199 
-0.215267 0.373358 -0.0915911 -4.71582 2.93329 -1.96811 
-0.154636 0.373358 -0.154636 1.88055 -0.756952 2.14653 
-0.152477 0.384846 -0.152477 3.58631 1.2581 3.52395 
-0.154978 0.388675 -0.154978 0.716965 4.65227 0.382347 
-0.160068 0.384846 -0.160068 -2.66645 4.31986 -2.76294 
-0.165677 0.373358 -0.165677 -3.6017 2.93786 -3.62381 
-0.0854844 0.373358 -0.200916 0.913167 -0.755146 2.70326 
-0.084291 0.384846 -0.198109 1.96338 1.25665 4.62925 
-0.0856763 0.388675 -0.201362 0.517443 4.64958 0.625006 
-0.0884885 0.384846 -0.207978 -1.40458 4.3159 -3.57586 
-0.0915911 0.373358 -0.215267 -1.93889 2.93351 -4.72743 
0 0.373358 -0.217794 -0.187489 -0.754243 2.84864 
0 0.384846 -0.214754 0.0437595 1.25728 5.03218 
0 0.388675 -0.218282 0.236352 4.64647 0.776473 
0 0.384846 -0.225452 0.067957 4.31279 -3.8469 
0 0.373358 -0.233349 0.015467 2.92893 -5.11487 
0.0854844 0.373358 -0.200916 -1.26387 -0.756049 2.55789 
0.084291 0.384846 -0.198109 -1.881 1.25873 4.66246 
0.0856763 0.388675 -0.201362 -0.0765982 4.64916 0.81006 
0.0884885 0.384846 -0.207978 1.53199 4.31674 -3.52346 
0.0915911 0.373358 -0.215267 1.96811 2.93329 -4.71582 
0.154636 0.373358 -0.154636 -2.14653 -0.756952 1.88055 
0.152477 0.384846 -0.152477 -3.52395 1.2581 3.58631 
0.154978 0.388675 -0.154978 -0.382347 4.65227 0.716965 
0.160068 0.384846 -0.160068 2.76294 4.31986 -2.66645 
0.165677 0.373358 -0.165677 3.62381 2.93786 -3.6017 
0.200916 0.373358 -0.0854844 -2.70326 -0.755146 0.913167 
0.198109 0.384846 -0.084291 -4.62925 1.25665 1.96338 
0.201362 0.388675 -0.0856763 -0.625006 4.64958 0.517443 
0.207978 0.384846 -0.0884885 3.57586 4.3159 -1.40458 
0.215267 0.373358 -0.0915911 4.72743 2.93351 -1.93889 
0.241614 0.312291 0.102798 4.985 2.38712 2.06627 
0.261911 0.312291 0 5.40061 2.38321 0.00333372 
0.264599 0.252308 0.112578 5.11793 1.99536 2.12454 
0.286826 0.252308 0 5.54525 1.992 0.00620753 
0.280854 0.194519 0.119494 5.29984 1.2203 2.20056 
0.304451 0.194519 0 5.74179 1.21825 0.00673837 
0.287023 0.140009 0.12212 5.33169 -0.393979 2.20113 
0.311134 0.140009 0 5.77161 -0.392471 -0.004787 
0.185958 0.312291 0.185958 3.81355 2.39114 3.81831 
0.203645 0.252308 0.203645 3.91444 1.99894 3.92329 
0.21616 0.194519 0.21616 4.05393 1.2229 4.06359 
0.220907 0.140009 0.220907 4.0834 -0.39398 4.07652 
0.102798 0.312291 0.241614 2.06 2.38723 4.98747 
0.112578 0.252308 0.264599 2.11285 1.99558 5.12255 
0.119494 0.194519 0.280854 2.18781 1.22085 5.30484 
0.12212 0.140009 0.287023 2.21014 -0.392472 5.32817 
0 0.312291 0.261911 -0.00333375 2.38321 5.40061 
0 0.252308 0.286826 -0.00620753 1.992 5.54525 
0 0.194519 0.304451 -0.00673834 1.21825 5.74179 
0 0.140009 0.311134 0.004787 -0.392471 5.77161 
-0.102798 0.312291 0.241614 -2.06627 2.38712 4.985 
-0.112578 0.252308 0.264599 -2.12454 1.99536 5.11793 
-0.119494 0.194519 0.280854 -2.20056 1.2203 5.29984 
-0.12212 0.140009 0.287023 -2.20113 -0.393979 5.33169 
-0.185958 0.312291 0.185958 -3.81831 2.39114 3.81355 
-0.203645 0.252308 0.203645 -3.92329 1.99894 3.91444 
-0.21616 0.194519 0.21616 -4.06359 1.2229 4.05393 
-0.220907 0.140009 0.220907 -4.07652 -0.39398 4.0834 
-0.241614 0.312291 0.102798 -4.98747 2.38723 2.06 
-0.264599 0.252308 0.112578 -5.12255 1.99558 2.11285 
-0.280854 0.194519 0.119494 -5.30484 1.22085 2.18781 
-0.287023 0.140009 0.12212 -5.32817 -0.392472 2.21014 
-0.261911 0.312291 0 -5.40061 2.38321 -0.00333372 
-0.286826 0.252308 0 -5.54525 1.992 -0.00620753 
-0.304451 0.194519 0 -5.74179 1.21825 -0.00673834 
-0.311134 0.140009 0 -4.2112 2.09938 -0.19404 
-0.241614 0.312291 -0.102798 -4.985 2.38712 -2.06627 
-0.264599 0.252308 -0.112578 -5.11793 1.99536 -2.12454 
-0.280854 0.194519 -0.119494 -5.29984 1.2203 -2.20056 
-0.287023 0.140009 -0.12212 -5.33169 -0.393979 -2.20113 
-0.185958 0.312291 -0.185958 -3.81355 2.39114 -3.81831 
-0.203645 0.252308 -0.203645 -3.91444 1.99894 -3.92329 
-0.21616 0.194519 -0.21616 -4.05393 1.2229 -4.06359 
-0.220907 0.140009 -0.220907 -4.0834 -0.39398 -4.07652 
-0.102798 0.312291 -0.241614 -2.06 2.38723 -4.98747 
-0.112578 0.252308 -0.264599 -2.11285 1.99558 -5.12255 
-0.119494 0.194519 -0.280854 -2.18781 1.22085 -5.30484 
-0.12212 0.140009 -0.287023 -2.21014 -0.392472 -5.32817 
0 0.312291 -0.261911 0.00333375 2.38321 -5.40061 
0 0.252308 -0.286826 0.00620753 1.992 -5.54525 
0 0.194519 -0.304451 0.00673834 1.21825 -5.74179 
0 0.140009 -0.311134 -0.004787 -0.392471 -5.77161 
0.102798 0.312291 -0.241614 2.06627 2.38712 -4.985 
0.112578 0.252308 -0.264599 2.12454 1.99536 -5.11793 
0.119494 0.194519 -0.280854 2.20056 1.2203 -5.29984 
0.12212 0.140009 -0.287023 2.20113 -0.393979 -5.33169 
0.185958 0.312291 -0.185958 3.81831 2.39114 -3.81355 
0.203645 0.252308 -0.203645 3.92329 1.99894 -3.91444 
0.21616 0.194519 -0.21616 4.06359 1.2229 -4.05393 
0.220907 0.140009 -0.220907 4.07652 -0.39398 -4.0834 
0.241614 0.312291 -0.102798 4.98747 2.38723 -2.06 
0.264599 0.252308 -0.112578 5.12255 1.99558 -2.11285 
0.280854 0.194519 -0.119494 5.30484 1.22085 -2.18781 
0.287023 0.140009 -0.12212 5.32817 -0.392472 -2.21014 
0.275811 0.0938896 0.117352 4.79686 -2.58432 1.94738 
0.298983 0.0938896 0 5.18209 -2.58031 -0.0340236 
0.251145 0.0597965 0.106855 3.95931 -4.08277 1.60993 
0.272241 0.0597965 0 4.28014 -4.07873 -0.0253422 
0.22648 0.0366458 0.0963593 3.81333 -4.25554 1.59486 
0.245506 0.0366458 0 4.13952 -4.25126 0.0160815 
0.215267 0.0233375 0.0915911 4.33902 -3.55944 1.81856 
0.233349 0.0233375 0 4.71 -3.55518 0.0214456 
0.212274 0.0938896 0.212274 3.68517 -2.58783 3.63662 
0.193289 0.0597965 0.193289 3.03873 -4.08705 3.00274 
0.17431 0.0366458 0.17431 2.90948 -4.25959 2.93232 
0.165677 0.0233375 0.165677 3.31023 -3.56382 3.34079 
0.117352 0.0938896 0.275811 2.01153 -2.58382 4.77127 
0.106855 0.0597965 0.251145 1.65754 -4.083 3.9399 
0.0963593 0.0366458 0.22648 1.56471 -4.25531 3.82571 
0.0915911 0.0233375 0.215267 1.77808 -3.55957 4.35522 
0 0.0938896 0.298983 0.0340235 -2.58031 5.18209 
0 0.0597965 0.272241 0.0253421 -4.07873 4.28014 
0 0.0366458 0.245506 -0.0160815 -4.25126 4.13952 
0 0.0233375 0.233349 -0.0214456 -3.55518 4.71 
-0.117352 0.0938896 0.275811 -1.94738 -2.58432 4.79686 
-0.106855 0.0597965 0.251145 -1.60993 -4.08277 3.95931 
-0.0963593 0.0366458 0.22648 -1.59486 -4.25554 3.81333 
-0.0915911 0.0233375 0.215267 -1.81856 -3.55944 4.33902 
-0.212274 0.0938896 0.212274 -3.63662 -2.58783 3.68517 
-0.193289 0.0597965 0.193289 -3.00274 -4.08705 3.03873 
-0.17431 0.0366458 0.17431 -2.93232 -4.25959 2.90948 
-0.165677 0.0233375 0.165677 -3.34079 -3.56382 3.31023 
-0.275811 0.0938896 0.117352 -4.77127 -2.58382 2.01153 
-0.251145 0.0597965 0.106855 -3.9399 -4.083 1.65754 
-0.22648 0.0366458 0.0963593 -3.82571 -4.25531 1.56471 
-0.215267 0.0233375 0.0915911 -4.35522 -3.55957 1.77808 
-0.298983 0.0938896 0 -5.18209 -2.58031 0.0340235 
-0.272241 0.0597965 0 -4.28014 -4.07873 0.0253421 
-0.245506 0.0366458 0 -4.13952 -4.25126 -0.0160815 
-0.233349 0.0233375 0 -4.71 -3.55518 -0.0214456 
-0.275811 0.0938896 -0.117352 -4.79686 -2.58432 -1.94738 
-0.251145 0.0597965 -0.106855 -3.95931 -4.08277 -1.60993 
-0.22648 0.0366458 -0.0963593 -3.81333 -4.25554 -1.59486 
-0.215267 0.0233375 -0.0915911 -4.33902 -3.55944 -1.81856 
-0.212274 0.0938896 -0.212274 -3.68517 -2.58783 -3.63662 
-0.193289 0.0597965 -0.193289 -3.03873 -4.08705 -3.00274 
-0.17431 0.0366458 -0.17431 -2.90948 -4.25959 -2.93232 
-0.165677 0.0233375 -0.165677 -3.31023 -3.56382 -3.34079 
-0.117352 0.0938896 -0.275811 -2.01153 -2.58382 -4.77127 
-0.106855 0.0597965 -0.251145 -1.65754 -4.083 -3.9399 
-0.0963593 0.0366458 -0.22648 -1.56471 -4.25531 -3.82571 
-0.0915911 0.0233375 -0.215267 -1.77808 -3.55957 -4.35522 
0 0.0938896 -0.298983 -0.0340235 -2.58031 -5.18209 
0 0.0597965 -0.272241 -0.0253421 -4.07873 -4.28014 
0 0.0366458 -0.245506 0.0160815 -4.25126 -4.13952 
0 0.0233375 -0.233349 0.0214456 -3.55518 -4.71 
0.117352 0.0938896 -0.275811 1.94738 -2.58432 -4.79686 
0.106855 0.0597965 -0.251145 1.60993 -4.08277 -3.95931 
0.0963593 0.0366458 -0.22648 1.59486 -4.25554 -3.81333 
0.0915911 0.0233375 -0.215267 1.81856 -3.55944 -4.33902 
0.212274 0.0938896 -0.212274 3.63662 -2.58783 -3.68517 
0.193289 0.0597965 -0.193289 3.00274 -4.08705 -3.03873 
0.17431 0.0366458 -0.17431 2.93232 -4.25959 -2.90948 
0.165677 0.0233375 -0.165677 3.34079 -3.56382 -3.31023 
0.275811 0.0938896 -0.117352 4.77127 -2.58382 -2.01153 
0.251145 0.0597965 -0.106855 3.9399 -4.083 -1.65754 
0.22648 0.0366458 -0.0963593 3.82571 -4.25531 -1.56471 
0.215267 0.0233375 -0.0915911 4.35522 -3.55957 -1.77808 
0.21039 0.0147662 0.0895158 3.07563 -4.45158 1.14586 
0.228062 0.0147662 0 3.28445 -4.44968 -0.115267 
0.184324 0.00728973 0.0784229 0.929217 -5.88793 0.345247 
0.199806 0.00728973 0 0.992669 -5.88763 -0.0355417 
0.11991 0.00200792 0.0510177 0.283314 -7.81636 0.100497 
0.129985 0.00200792 0 0.302373 -7.91805 -0.0148921 
0 0 0 0 -38.6018 8.3819e-009 
0.161925 0.0147662 0.161925 2.40018 -4.45459 2.23662 
0.141862 0.00728973 0.141862 0.724302 -5.88848 0.674053 
0.0922864 0.00200792 0.0922864 0.221249 -7.71471 0.200208 
0.0895158 0.0147662 0.21039 1.36172 -4.45269 2.98644 
0.0784229 0.00728973 0.184324 0.411412 -5.88817 0.901126 
0.0510177 0.00200792 0.11991 0.128199 -7.81639 0.271528 
0 0.0147662 0.228062 0.115267 -4.44968 3.28445 
0 0.00728973 0.199806 0.0355417 -5.88763 0.992669 
0 0.00200792 0.129985 0.0148921 -7.91805 0.302373 
-0.0895158 0.0147662 0.21039 -1.14586 -4.45158 3.07563 
-0.0784229 0.00728973 0.184324 -0.345247 -5.88793 0.929217 
-0.0510177 0.00200792 0.11991 -0.100497 -7.81636 0.283314 
-0.161925 0.0147662 0.161925 -2.23662 -4.45459 2.40018 
-0.141862 0.00728973 0.141862 -0.674053 -5.88848 0.724302 
-0.0922864 0.00200792 0.0922864 -0.200208 -7.71471 0.221249 
-0.21039 0.0147662 0.0895158 -2.98644 -4.45269 1.36172 
-0.184324 0.00728973 0.0784229 -0.901126 -5.88817 0.411412 
-0.11991 0.00200792 0.0510177 -0.271528 -7.81639 0.128199 
-0.228062 0.0147662 0 -3.28445 -4.44968 0.115267 
-0.199806 0.00728973 0 -0.992669 -5.88763 0.0355417 
-0.129985 0.00200792 0 -0.302373 -7.91805 0.0148921 
-0.21039 0.0147662 -0.0895158 -3.07563 -4.45158 -1.14586 
-0.184324 0.00728973 -0.0784229 -0.929217 -5.88793 -0.345247 
-0.11991 0.00200792 -0.0510177 -0.283314 -7.81636 -0.100497 
-0.161925 0.0147662 -0.161925 -2.40018 -4.45459 -2.23662 
-0.141862 0.00728973 -0.141862 -0.724302 -5.88848 -0.674053 
-0.0922864 0.00200792 -0.0922864 -0.221249 -7.71471 -0.200208 
-0.0895158 0.0147662 -0.21039 -1.36172 -4.45269 -2.98644 
-0.0784229 0.00728973 -0.184324 -0.411412 -5.88817 -0.901126 
-0.0510177 0.00200792 -0.11991 -0.128199 -7.81639 -0.271528 
0 0.0147662 -0.228062 -0.115267 -4.44968 -3.28445 
0 0.00728973 -0.199806 -0.0355417 -5.88763 -0.992669 
0 0.00200792 -0.129985 -0.0148921 -7.91805 -0.302373 
0.0895158 0.0147662 -0.21039 1.14586 -4.45158 -3.07563 
0.0784229 0.00728973 -0.184324 0.345247 -5.88793 -0.929217 
0.0510177 0.00200792 -0.11991 0.100497 -7.81636 -0.283314 
0.161925 0.0147662 -0.161925 2.23662 -4.45459 -2.40018 
0.141862 0.00728973 -0.141862 0.674053 -5.88848 -0.724302 
0.0922864 0.00200792 -0.0922864 0.200208 -7.71471 -0.221249 
0.21039 0.0147662 -0.0895158 2.98644 -4.45269 -1.36172 
0.184324 0.00728973 -0.0784229 0.901126 -5.88817 -0.411412 
0.11991 0.00200792 -0.0510177 0.271528 -7.81639 -0.128199 
-0.248909 0.315025 0 0.0231769 -2.93782 0.202396 
-0.246476 0.320494 0.0262534 0.0181561 -2.16151 1.81553 
-0.323752 0.319861 0.0262534 0.194098 -4.7119 3.01887 
-0.321583 0.314475 0 0.242288 -5.8693 -0.00284188 
-0.380472 0.315435 0.0262534 0.89794 -4.53136 3.06505 
-0.375304 0.310646 0 1.13419 -5.71805 0.0106561 
-0.415405 0.303419 0.0262534 2.55143 -3.25431 3.24499 
-0.408609 0.300254 0 3.47217 -4.15419 0.0460254 
-0.427323 0.280019 0.0262534 4.05428 -0.74826 3.39207 
-0.420028 0.280019 0 5.40001 -0.819805 0.00574181 
-0.241126 0.332526 0.0350011 -0.00649824 0.591301 2.41956 
-0.328515 0.331706 0.0350011 -0.0584849 -0.00463498 4.83522 
-0.391834 0.325962 0.0350011 -0.194312 -0.11053 4.90805 
-0.430364 0.310376 0.0350011 -0.28081 -0.393447 5.10376 
-0.443366 0.280019 0.0350011 -0.0392361 -0.328395 5.23538 
-0.235782 0.344558 0.0262534 -0.0265274 2.54972 1.21125 
-0.333278 0.343546 0.0262534 -0.279362 4.69932 3.02651 
-0.403197 0.33649 0.0262534 -1.25317 4.42546 3.10307 
-0.445317 0.317329 0.0262534 -3.10987 2.74433 3.29511 
-0.459408 0.280019 0.0262534 -4.18024 0.220711 3.40654 
-0.233349 0.350026 0 -0.031006 2.93776 -0.202378 
-0.335442 0.348931 0 -0.332033 5.86004 -0.000290811 
-0.408365 0.341273 0 -1.53309 5.57125 -0.0246236 
-0.452119 0.320494 0 -3.94779 3.64998 -0.0357687 
-0.466698 0.280019 0 -5.55439 0.430969 0.00121528 
-0.235782 0.344558 -0.0262534 -0.0220488 2.16167 -1.81537 
-0.333278 0.343546 -0.0262534 -0.240126 4.70274 -3.02553 
-0.403197 0.33649 -0.0262534 -1.1044 4.43354 -3.10685 
-0.445317 0.317329 -0.0262534 -2.84942 2.9683 -3.29842 
-0.459408 0.280019 -0.0262534 -4.16492 0.46816 -3.40768 
-0.241126 0.332526 -0.0350011 0.00457373 -0.591029 -2.41963 
-0.328515 0.331706 -0.0350011 0.0372686 -0.0043025 -4.83333 
-0.391834 0.325962 -0.0350011 0.115384 0.0371945 -4.90155 
-0.430364 0.310376 -0.0350011 0.200317 0.253279 -5.11003 
-0.443366 0.280019 -0.0350011 0.0193592 0.247953 -5.23741 
-0.246476 0.320494 -0.0262534 0.0206665 -2.54967 -1.21136 
-0.323752 0.319861 -0.0262534 0.214427 -4.70837 -3.01862 
-0.380472 0.315435 -0.0262534 0.981807 -4.54776 -3.05381 
-0.415405 0.303419 -0.0262534 2.85174 -3.1027 -3.24566 
-0.427323 0.280019 -0.0262534 4.11662 -0.409889 -3.39585 
-0.420583 0.245236 0.0262534 4.1123 1.39244 3.37702 
-0.413953 0.248297 0 5.42362 1.87903 -0.0107836 
-0.399461 0.205342 0.0262534 3.67259 2.57256 3.2463 
-0.39475 0.210017 0 4.74667 3.30111 -0.0331133 
-0.362613 0.165962 0.0262534 2.96766 3.55277 3.07685 
-0.360963 0.171731 0 3.72639 4.46176 -0.0192535 
-0.3087 0.13272 0.0262534 1.34433 2.16979 1.20321 
-0.435163 0.238501 0.0350011 0.0598313 -0.183914 5.21377 
-0.409823 0.195064 0.0350011 0.0983454 -0.193779 5.09125 
-0.36625 0.153271 0.0350011 0.142049 -0.1359 4.91993 
-0.303356 0.116677 0.0350011 0.31831 0.506823 2.42082 
-0.449742 0.231761 0.0262534 -3.96194 -1.68247 3.37861 
-0.420184 0.184791 0.0262534 -3.32077 -2.92459 3.26353 
-0.369887 0.14058 0.0262534 -2.61752 -3.77703 3.11276 
-0.298007 0.100635 0.0262534 -1.05165 -1.87769 1.8256 
-0.456368 0.2287 0 -5.28484 -2.13255 0.00913829 
-0.42489 0.180116 0 -4.35726 -3.77546 0.0289414 
-0.371537 0.134816 0 -3.32725 -4.7843 0.0175841 
-0.295579 0.0933396 0 -1.41617 -2.57136 0.206182 
-0.449742 0.231761 -0.0262534 -4.04382 -1.51702 -3.37945 
-0.420184 0.184791 -0.0262534 -3.44341 -2.8547 -3.26101 
-0.369887 0.14058 -0.0262534 -2.69899 -3.76042 -3.10659 
-0.298007 0.100635 -0.0262534 -1.23391 -2.22452 -1.22207 
-0.435163 0.238501 -0.0350011 -0.0281444 0.132709 -5.21322 
-0.409823 0.195064 -0.0350011 -0.00119221 0.100004 -5.08912 
-0.36625 0.153271 -0.0350011 -0.0328317 0.083736 -4.91849 
-0.303356 0.116677 -0.0350011 -0.275539 -0.512018 -2.42497 
-0.420583 0.245236 -0.0262534 4.06393 1.50232 -3.37509 
-0.399461 0.205342 -0.0262534 3.57816 2.6386 -3.24677 
-0.362613 0.165962 -0.0262534 2.8572 3.60997 -3.08279 
-0.3087 0.13272 -0.0262534 1.12824 1.84773 -1.80994 
0.264464 0.22168 0 -0.673715 2.77583 0.305666 
0.264464 0.201627 0.0577523 -0.360044 1.76612 2.11526 
0.344786 0.223948 0.0521488 -1.75216 3.65855 3.55181 
0.339089 0.238818 0 -2.94027 4.57917 -0.0451801 
0.378708 0.271359 0.0398159 -3.30136 2.58278 3.46311 
0.371418 0.280019 0 -4.95478 2.84578 0.0156702 
0.398045 0.326839 0.027483 -3.33953 2.2453 3.64603 
0.389162 0.329973 0 -4.87116 2.75133 0.10571 
0.434613 0.373358 0.0218744 -2.5253 3.34095 3.66303 
0.420028 0.373358 0 -3.5569 4.19681 -0.0621805 
0.264464 0.15751 0.0770065 0.361895 -0.362748 2.69423 
0.357316 0.19124 0.06953 0.984585 0.522351 5.20007 
0.39475 0.252308 0.0530879 0.821174 0.92555 5.16707 
0.4176 0.319944 0.0366458 0.186548 0.632879 5.43091 
0.466698 0.373358 0.0291693 0.0151534 0.592839 5.51266 
0.264464 0.113393 0.0577523 0.998173 -2.13326 1.48877 
0.369851 0.158527 0.0521488 3.12204 -2.70343 3.36223 
0.410793 0.233261 0.0398159 4.37752 -1.34013 3.2349 
0.43715 0.313054 0.027483 3.56641 -1.80094 3.62361 
0.498788 0.373358 0.0218744 2.27799 -2.91164 3.79972 
0.264464 0.0933396 0 1.17504 -2.61252 -0.29703 
0.375548 0.143657 0 3.76729 -3.94655 0.0611889 
0.418088 0.224601 0 5.35306 -2.18142 -0.0349438 
0.446038 0.30992 0 4.72715 -2.8487 -0.0832767 
0.513373 0.373358 0 3.25294 -4.55854 0.0549349 
0.264464 0.113393 -0.0577523 0.82131 -1.65401 -2.08646 
0.369851 0.158527 -0.0521488 3.00738 -2.89808 -3.33278 
0.410793 0.233261 -0.0398159 4.27655 -1.35266 -3.24519 
0.43715 0.313054 -0.027483 3.58315 -1.56941 -3.63708 
0.498788 0.373358 -0.0218744 2.43031 -2.77556 -3.86386 
0.264464 0.15751 -0.0770065 0.0793434 0.449259 -2.70431 
0.357316 0.19124 -0.06953 0.454693 0.263646 -5.2735 
0.39475 0.252308 -0.0530879 0.778616 0.702598 -5.12337 
0.4176 0.319944 -0.0366458 0.515478 0.796498 -5.35613 
0.466698 0.373358 -0.0291693 0.152794 0.832638 -5.42605 
0.264464 0.201627 -0.0577523 -0.516879 2.27097 -1.51613 
0.344786 0.223948 -0.0521488 -2.11097 3.36158 -3.52383 
0.378708 0.271359 -0.0398159 -3.35458 2.40254 -3.4774 
0.39805 0.326839 -0.027483 -3.25205 2.45698 -3.73013 
0.434613 0.373358 -0.0218744 -2.31904 3.41005 -3.67844 
0.446832 0.380244 0.0205098 -1.56658 4.9001 2.55901 
0.431209 0.379922 0 -2.112 5.34797 -0.145028 
0.454137 0.382625 0.0175005 0.106577 5.07554 -0.853793 
0.439474 0.382111 0 0.936379 4.86192 -0.668175 
0.454355 0.380373 0.0144912 2.1709 1.3233 -4.00137 
0.441908 0.379922 0 3.49186 0.0891299 0.0172231 
0.445311 0.373358 0.0131267 1.39816 -1.36658 -1.92995 
0.435588 0.373358 0 1.8174 -1.91282 0.47588 
0.481195 0.380949 0.0273481 -0.0331585 3.07179 4.52569 
0.486388 0.383751 0.0233375 -0.240658 5.06004 0.215248 
0.481739 0.381359 0.0193269 -0.106778 3.46177 -4.24085 
0.466698 0.373358 0.0175005 0.204176 0.333733 -2.79585 
0.515557 0.381655 0.0205098 2.44813 -1.23655 4.10598 
0.518645 0.384882 0.0175005 0.452153 3.87335 1.31505 
0.509124 0.382345 0.0144912 -1.3119 5.07147 -2.37273 
0.48809 0.373358 0.0131267 -0.696613 1.92542 -1.9524 
0.531175 0.381976 0 3.5207 -3.51451 -0.287045 
0.533302 0.38539 0 1.59846 1.93959 0.736748 
0.521576 0.382796 0 -1.71185 5.57434 0.122875 
0.497813 0.373358 0 -1.0762 2.67746 -0.273451 
0.515557 0.381655 -0.0205098 2.04588 -0.877638 -3.58762 
0.518645 0.384882 -0.0175005 1.18293 2.81133 -0.909947 
0.509124 0.382345 -0.0144912 -1.22718 4.75887 2.67145 
0.48809 0.373358 -0.0131267 -0.886407 2.30144 1.38638 
0.481195 0.380949 -0.0273481 0.125258 2.54216 -4.37824 
0.486388 0.383751 -0.0233375 0.171696 4.76277 -0.319197 
0.481739 0.381359 -0.0193269 0.0662435 2.94713 4.21454 
0.466698 0.373358 -0.0175005 -0.151321 0.941567 2.65714 
0.446832 0.380244 -0.0205098 -1.42663 4.66149 -2.79274 
0.454137 0.382625 -0.0175005 0.724217 4.8641 0.484068 
0.454355 0.380373 -0.0144912 2.10766 0.918743 3.58887 
0.445311 0.373358 -0.0131267 0.978915 -0.820342 2.43225 
0.0489008 0.482378 0.0208522 2.73013 0.419817 1.33592 
0.0529893 0.482378 0 3.03868 0.439508 0.190876 
0 0.490036 0 0 6.42392 9.31323e-010 
0.0466594 0.463782 0.0198924 4.78173 -2.33142 1.92321 
0.0505611 0.463782 0 5.16113 -2.32666 -0.0442381 
0.0282613 0.440813 0.0120371 4.76854 -1.87995 2.02026 
0.0306272 0.440813 0 5.18373 -1.87705 0.0466415 
0.0287023 0.420028 0.0122135 3.67338 2.89638 1.37716 
0.0311149 0.420028 0 3.92535 2.89603 -0.128597 
0.0376731 0.482378 0.0376731 2.00607 0.401006 2.28014 
0.0359402 0.463782 0.0359402 3.67603 -2.33512 3.61152 
0.0217602 0.440813 0.0217602 3.6279 -1.88431 3.69351 
0.0220923 0.420028 0.0220923 2.86444 2.89583 2.68075 
0.0208522 0.482378 0.0489008 0.976061 0.420697 2.87867 
0.0198924 0.463782 0.0466594 2.00767 -2.33036 4.74861 
0.0120371 0.440813 0.0282613 1.93311 -1.8814 4.80299 
0.0122135 0.420028 0.0287023 1.61935 2.89548 3.57454 
0 0.482378 0.0529893 -0.190876 0.439508 3.03868 
0 0.463782 0.0505611 0.0442382 -2.32666 5.16113 
0 0.440813 0.0306272 -0.0466416 -1.87705 5.18373 
0 0.420028 0.0311149 0.128597 2.89603 3.92535 
-0.0208522 0.482378 0.0489008 -1.33592 0.419817 2.73013 
-0.0198924 0.463782 0.0466594 -1.92321 -2.33142 4.78173 
-0.0120371 0.440813 0.0282613 -2.02026 -1.87995 4.76854 
-0.0122135 0.420028 0.0287023 -1.37716 2.89638 3.67338 
-0.0376731 0.482378 0.0376731 -2.28014 0.401006 2.00607 
-0.0359402 0.463782 0.0359402 -3.61152 -2.33512 3.67603 
-0.0217602 0.440813 0.0217602 -3.69351 -1.88431 3.6279 
-0.0220923 0.420028 0.0220923 -2.68075 2.89583 2.86444 
-0.0489008 0.482378 0.0208522 -2.87867 0.420697 0.976061 
-0.0466594 0.463782 0.0198924 -4.74861 -2.33036 2.00767 
-0.0282613 0.440813 0.0120371 -4.80299 -1.8814 1.93311 
-0.0287023 0.420028 0.0122135 -3.57454 2.89548 1.61935 
-0.0529893 0.482378 0 -3.03868 0.439508 -0.190876 
-0.0505611 0.463782 0 -5.16113 -2.32666 0.0442382 
-0.0306272 0.440813 0 -5.18373 -1.87705 -0.0466416 
-0.0311149 0.420028 0 -3.92535 2.89603 0.128597 
-0.0489008 0.482378 -0.0208522 -2.73013 0.419817 -1.33592 
-0.0466594 0.463782 -0.0198924 -4.78173 -2.33142 -1.92321 
-0.0282613 0.440813 -0.0120371 -4.76854 -1.87995 -2.02026 
-0.0287023 0.420028 -0.0122135 -3.67338 2.89638 -1.37716 
-0.0376731 0.482378 -0.0376731 -2.00607 0.401006 -2.28014 
-0.0359402 0.463782 -0.0359402 -3.67603 -2.33512 -3.61152 
-0.0217602 0.440813 -0.0217602 -3.6279 -1.88431 -3.69351 
-0.0220923 0.420028 -0.0220923 -2.86444 2.89583 -2.68075 
-0.0208522 0.482378 -0.0489008 -0.976061 0.420697 -2.87867 
-0.0198924 0.463782 -0.0466594 -2.00767 -2.33036 -4.74861 
-0.0120371 0.440813 -0.0282613 -1.93311 -1.8814 -4.80299 
-0.0122135 0.420028 -0.0287023 -1.61935 2.89548 -3.57454 
0 0.482378 -0.0529893 0.190876 0.439508 -3.03868 
0 0.463782 -0.0505611 -0.0442382 -2.32666 -5.16113 
0 0.440813 -0.0306272 0.0466416 -1.87705 -5.18373 
0 0.420028 -0.0311149 -0.128597 2.89603 -3.92535 
0.0208522 0.482378 -0.0489008 1.33592 0.419817 -2.73013 
0.0198924 0.463782 -0.0466594 1.92321 -2.33142 -4.78173 
0.0120371 0.440813 -0.0282613 2.02026 -1.87995 -4.76854 
0.0122135 0.420028 -0.0287023 1.37716 2.89638 -3.67338 
0.0376731 0.482378 -0.0376731 2.28014 0.401006 -2.00607 
0.0359402 0.463782 -0.0359402 3.61152 -2.33512 -3.67603 
0.0217602 0.440813 -0.0217602 3.69351 -1.88431 -3.6279 
0.0220923 0.420028 -0.0220923 2.68075 2.89583 -2.86444 
0.0489008 0.482378 -0.0208522 2.87867 0.420697 -0.976061 
0.0466594 0.463782 -0.0198924 4.74861 -2.33036 -2.00767 
0.0282613 0.440813 -0.0120371 4.80299 -1.8814 -1.93311 
0.0287023 0.420028 -0.0122135 3.57454 2.89548 -1.61935 
0.0654778 0.406175 0.0278566 1.36963 5.78679 0.530625 
0.0709775 0.406175 0 1.47157 5.78616 -0.0325088 
0.118394 0.396696 0.0503743 0.949348 5.90732 0.396267 
0.128341 0.396696 0 1.03125 5.90695 0.00351853 
0.165936 0.387217 0.0705988 1.9232 5.48703 0.869316 
0.179872 0.387217 0 2.11408 5.48505 0.0677423 
0.186565 0.373358 0.0793776 1.49037 2.53736 0.503066 
0.202239 0.373358 0 1.57169 2.53644 -0.103435 
0.0503951 0.406175 0.0503951 1.05964 5.78772 1.01365 
0.0911242 0.396696 0.0911242 0.723811 5.90766 0.728789 
0.127713 0.387217 0.127713 1.44221 5.48822 1.53812 
0.143589 0.373358 0.143589 1.18134 2.53921 1.03497 
0.0278566 0.406175 0.0654778 0.591137 5.78709 1.34403 
0.0503743 0.396696 0.118394 0.389704 5.90729 0.95213 
0.0705988 0.387217 0.165936 0.742964 5.48624 1.9763 
0.0793776 0.373358 0.186565 0.695829 2.53828 1.40904 
0 0.406175 0.0709775 0.0325088 5.78616 1.47157 
0 0.396696 0.128341 -0.00351853 5.90695 1.03125 
0 0.387217 0.179872 -0.0677423 5.48505 2.11408 
0 0.373358 0.202239 0.103435 2.53644 1.57169 
-0.0278566 0.406175 0.0654778 -0.530625 5.78679 1.36963 
-0.0503743 0.396696 0.118394 -0.396267 5.90732 0.949348 
-0.0705988 0.387217 0.165936 -0.869316 5.48703 1.9232 
-0.0793776 0.373358 0.186565 -0.503066 2.53736 1.49037 
-0.0503951 0.406175 0.0503951 -1.01365 5.78772 1.05964 
-0.0911242 0.396696 0.0911242 -0.728789 5.90766 0.723811 
-0.127713 0.387217 0.127713 -1.53812 5.48822 1.44221 
-0.143589 0.373358 0.143589 -1.03497 2.53921 1.18134 
-0.0654778 0.406175 0.0278566 -1.34403 5.78709 0.591137 
-0.118394 0.396696 0.0503743 -0.95213 5.90729 0.389704 
-0.165936 0.387217 0.0705988 -1.9763 5.48624 0.742964 
-0.186565 0.373358 0.0793776 -1.40904 2.53828 0.695829 
-0.0709775 0.406175 0 -1.47157 5.78616 0.0325088 
-0.128341 0.396696 0 -1.03125 5.90695 -0.00351853 
-0.179872 0.387217 0 -2.11408 5.48505 -0.0677423 
-0.202239 0.373358 0 -1.57169 2.53644 0.103435 
-0.0654778 0.406175 -0.0278566 -1.36963 5.78679 -0.530625 
-0.118394 0.396696 -0.0503743 -0.949348 5.90732 -0.396267 
-0.165936 0.387217 -0.0705988 -1.9232 5.48703 -0.869316 
-0.186565 0.373358 -0.0793776 -1.49037 2.53736 -0.503066 
-0.0503951 0.406175 -0.0503951 -1.05964 5.78772 -1.01365 
-0.0911242 0.396696 -0.0911242 -0.723811 5.90766 -0.728789 
-0.127713 0.387217 -0.127713 -1.44221 5.48822 -1.53812 
-0.143589 0.373358 -0.143589 -1.18134 2.53921 -1.03497 
-0.0278566 0.406175 -0.0654778 -0.591137 5.78709 -1.34403 
-0.0503743 0.396696 -0.118394 -0.389704 5.90729 -0.95213 
-0.0705988 0.387217 -0.165936 -0.742964 5.48624 -1.9763 
-0.0793776 0.373358 -0.186565 -0.695829 2.53828 -1.40904 
0 0.406175 -0.0709775 -0.0325088 5.78616 -1.47157 
0 0.396696 -0.128341 0.00351853 5.90695 -1.03125 
0 0.387217 -0.179872 0.0677423 5.48505 -2.11408 
0 0.373358 -0.202239 -0.103435 2.53644 -1.57169 
0.0278566 0.406175 -0.0654778 0.530625 5.78679 -1.36963 
0.0503743 0.396696 -0.118394 0.396267 5.90732 -0.949348 
0.0705988 0.387217 -0.165936 0.869316 5.48703 -1.9232 
0.0793776 0.373358 -0.186565 0.503066 2.53736 -1.49037 
0.0503951 0.406175 -0.0503951 1.01365 5.78772 -1.05964 
0.0911242 0.396696 -0.0911242 0.728789 5.90766 -0.723811 
0.127713 0.387217 -0.127713 1.53812 5.48822 -1.44221 
0.143589 0.373358 -0.143589 1.03497 2.53921 -1.18134 
0.0654778 0.406175 -0.0278566 1.34403 5.78709 -0.591137 
0.118394 0.396696 -0.0503743 0.95213 5.90729 -0.389704 
0.165936 0.387217 -0.0705988 1.9763 5.48624 -0.742964 
0.186565 0.373358 -0.0793776 1.40904 2.53828 -0.695829 
3 0 1 2 
3 0 2 3 
3 3 2 4 
3 3 4 5 
3 5 4 6 
3 5 6 7 
3 7 6 8 
3 7 8 9 
3 1 10 11 
3 1 11 2 
3 2 11 12 
3 2 12 4 
3 4 12 13 
3 4 13 6 
3 6 13 14 
3 6 14 8 
3 10 15 16 
3 10 16 11 
3 11 16 17 
3 11 17 12 
3 12 17 18 
3 12 18 13 
3 13 18 19 
3 13 19 14 
3 15 20 21 
3 15 21 16 
3 16 21 22 
3 16 22 17 
3 17 22 23 
3 17 23 18 
3 18 23 24 
3 18 24 19 
3 20 25 26 
3 20 26 21 
3 21 26 27 
3 21 27 22 
3 22 27 28 
3 22 28 23 
3 23 28 29 
3 23 29 24 
3 25 30 31 
3 25 31 26 
3 26 31 32 
3 26 32 27 
3 27 32 33 
3 27 33 28 
3 28 33 34 
3 28 34 29 
3 30 35 36 
3 30 36 31 
3 31 36 37 
3 31 37 32 
3 32 37 38 
3 32 38 33 
3 33 38 39 
3 33 39 34 
3 35 40 41 
3 35 41 36 
3 36 41 42 
3 36 42 37 
3 37 42 43 
3 37 43 38 
3 38 43 44 
3 38 44 39 
3 40 45 46 
3 40 46 41 
3 41 46 47 
3 41 47 42 
3 42 47 48 
3 42 48 43 
3 43 48 49 
3 43 49 44 
3 45 50 51 
3 45 51 46 
3 46 51 52 
3 46 52 47 
3 47 52 53 
3 47 53 48 
3 48 53 54 
3 48 54 49 
3 50 55 56 
3 50 56 51 
3 51 56 57 
3 51 57 52 
3 52 57 58 
3 52 58 53 
3 53 58 59 
3 53 59 54 
3 55 60 61 
3 55 61 56 
3 56 61 62 
3 56 62 57 
3 57 62 63 
3 57 63 58 
3 58 63 64 
3 58 64 59 
3 60 65 66 
3 60 66 61 
3 61 66 67 
3 61 67 62 
3 62 67 68 
3 62 68 63 
3 63 68 69 
3 63 69 64 
3 65 70 71 
3 65 71 66 
3 66 71 72 
3 66 72 67 
3 67 72 73 
3 67 73 68 
3 68 73 74 
3 68 74 69 
3 70 75 76 
3 70 76 71 
3 71 76 77 
3 71 77 72 
3 72 77 78 
3 72 78 73 
3 73 78 79 
3 73 79 74 
3 75 0 3 
3 75 3 76 
3 76 3 5 
3 76 5 77 
3 77 5 7 
3 77 7 78 
3 78 7 9 
3 78 9 79 
3 9 8 80 
3 9 80 81 
3 81 80 82 
3 81 82 83 
3 83 82 84 
3 83 84 85 
3 85 84 86 
3 85 86 87 
3 8 14 88 
3 8 88 80 
3 80 88 89 
3 80 89 82 
3 82 89 90 
3 82 90 84 
3 84 90 91 
3 84 91 86 
3 14 19 92 
3 14 92 88 
3 88 92 93 
3 88 93 89 
3 89 93 94 
3 89 94 90 
3 90 94 95 
3 90 95 91 
3 19 24 96 
3 19 96 92 
3 92 96 97 
3 92 97 93 
3 93 97 98 
3 93 98 94 
3 94 98 99 
3 94 99 95 
3 24 29 100 
3 24 100 96 
3 96 100 101 
3 96 101 97 
3 97 101 102 
3 97 102 98 
3 98 102 103 
3 98 103 99 
3 29 34 104 
3 29 104 100 
3 100 104 105 
3 100 105 101 
3 101 105 106 
3 101 106 102 
3 102 106 107 
3 102 107 103 
3 34 39 108 
3 34 108 104 
3 104 108 109 
3 104 109 105 
3 105 109 110 
3 105 110 106 
3 106 110 111 
3 106 111 107 
3 39 44 112 
3 39 112 108 
3 108 112 113 
3 108 113 109 
3 109 113 114 
3 109 114 110 
3 110 114 115 
3 110 115 111 
3 44 49 116 
3 44 116 112 
3 112 116 117 
3 112 117 113 
3 113 117 118 
3 113 118 114 
3 114 118 119 
3 114 119 115 
3 49 54 120 
3 49 120 116 
3 116 120 121 
3 116 121 117 
3 117 121 122 
3 117 122 118 
3 118 122 123 
3 118 123 119 
3 54 59 124 
3 54 124 120 
3 120 124 125 
3 120 125 121 
3 121 125 126 
3 121 126 122 
3 122 126 127 
3 122 127 123 
3 59 64 128 
3 59 128 124 
3 124 128 129 
3 124 129 125 
3 125 129 130 
3 125 130 126 
3 126 130 131 
3 126 131 127 
3 64 69 132 
3 64 132 128 
3 128 132 133 
3 128 133 129 
3 129 133 134 
3 129 134 130 
3 130 134 135 
3 130 135 131 
3 69 74 136 
3 69 136 132 
3 132 136 137 
3 132 137 133 
3 133 137 138 
3 133 138 134 
3 134 138 139 
3 134 139 135 
3 74 79 140 
3 74 140 136 
3 136 140 141 
3 136 141 137 
3 137 141 142 
3 137 142 138 
3 138 142 143 
3 138 143 139 
3 79 9 81 
3 79 81 140 
3 140 81 83 
3 140 83 141 
3 141 83 85 
3 141 85 142 
3 142 85 87 
3 142 87 143 
3 87 86 144 
3 87 144 145 
3 145 144 146 
3 145 146 147 
3 147 146 148 
3 147 148 149 
3 149 148 150 
3 149 150 151 
3 86 91 152 
3 86 152 144 
3 144 152 153 
3 144 153 146 
3 146 153 154 
3 146 154 148 
3 148 154 155 
3 148 155 150 
3 91 95 156 
3 91 156 152 
3 152 156 157 
3 152 157 153 
3 153 157 158 
3 153 158 154 
3 154 158 159 
3 154 159 155 
3 95 99 160 
3 95 160 156 
3 156 160 161 
3 156 161 157 
3 157 161 162 
3 157 162 158 
3 158 162 163 
3 158 163 159 
3 99 103 164 
3 99 164 160 
3 160 164 165 
3 160 165 161 
3 161 165 166 
3 161 166 162 
3 162 166 167 
3 162 167 163 
3 103 107 168 
3 103 168 164 
3 164 168 169 
3 164 169 165 
3 165 169 170 
3 165 170 166 
3 166 170 171 
3 166 171 167 
3 107 111 172 
3 107 172 168 
3 168 172 173 
3 168 173 169 
3 169 173 174 
3 169 174 170 
3 170 174 175 
3 170 175 171 
3 111 115 176 
3 111 176 172 
3 172 176 177 
3 172 177 173 
3 173 177 178 
3 173 178 174 
3 174 178 179 
3 174 179 175 
3 115 119 180 
3 115 180 176 
3 176 180 181 
3 176 181 177 
3 177 181 182 
3 177 182 178 
3 178 182 183 
3 178 183 179 
3 119 123 184 
3 119 184 180 
3 180 184 185 
3 180 185 181 
3 181 185 186 
3 181 186 182 
3 182 186 187 
3 182 187 183 
3 123 127 188 
3 123 188 184 
3 184 188 189 
3 184 189 185 
3 185 189 190 
3 185 190 186 
3 186 190 191 
3 186 191 187 
3 127 131 192 
3 127 192 188 
3 188 192 193 
3 188 193 189 
3 189 193 194 
3 189 194 190 
3 190 194 195 
3 190 195 191 
3 131 135 196 
3 131 196 192 
3 192 196 197 
3 192 197 193 
3 193 197 198 
3 193 198 194 
3 194 198 199 
3 194 199 195 
3 135 139 200 
3 135 200 196 
3 196 200 201 
3 196 201 197 
3 197 201 202 
3 197 202 198 
3 198 202 203 
3 198 203 199 
3 139 143 204 
3 139 204 200 
3 200 204 205 
3 200 205 201 
3 201 205 206 
3 201 206 202 
3 202 206 207 
3 202 207 203 
3 143 87 145 
3 143 145 204 
3 204 145 147 
3 204 147 205 
3 205 147 149 
3 205 149 206 
3 206 149 151 
3 206 151 207 
3 151 150 208 
3 151 208 209 
3 209 208 210 
3 209 210 211 
3 211 210 212 
3 211 212 213 
3 213 212 214 
3 150 155 215 
3 150 215 208 
3 208 215 216 
3 208 216 210 
3 210 216 217 
3 210 217 212 
3 212 217 214 
3 155 159 218 
3 155 218 215 
3 215 218 219 
3 215 219 216 
3 216 219 220 
3 216 220 217 
3 217 220 214 
3 159 163 221 
3 159 221 218 
3 218 221 222 
3 218 222 219 
3 219 222 223 
3 219 223 220 
3 220 223 214 
3 163 167 224 
3 163 224 221 
3 221 224 225 
3 221 225 222 
3 222 225 226 
3 222 226 223 
3 223 226 214 
3 167 171 227 
3 167 227 224 
3 224 227 228 
3 224 228 225 
3 225 228 229 
3 225 229 226 
3 226 229 214 
3 171 175 230 
3 171 230 227 
3 227 230 231 
3 227 231 228 
3 228 231 232 
3 228 232 229 
3 229 232 214 
3 175 179 233 
3 175 233 230 
3 230 233 234 
3 230 234 231 
3 231 234 235 
3 231 235 232 
3 232 235 214 
3 179 183 236 
3 179 236 233 
3 233 236 237 
3 233 237 234 
3 234 237 238 
3 234 238 235 
3 235 238 214 
3 183 187 239 
3 183 239 236 
3 236 239 240 
3 236 240 237 
3 237 240 241 
3 237 241 238 
3 238 241 214 
3 187 191 242 
3 187 242 239 
3 239 242 243 
3 239 243 240 
3 240 243 244 
3 240 244 241 
3 241 244 214 
3 191 195 245 
3 191 245 242 
3 242 245 246 
3 242 246 243 
3 243 246 247 
3 243 247 244 
3 244 247 214 
3 195 199 248 
3 195 248 245 
3 245 248 249 
3 245 249 246 
3 246 249 250 
3 246 250 247 
3 247 250 214 
3 199 203 251 
3 199 251 248 
3 248 251 252 
3 248 252 249 
3 249 252 253 
3 249 253 250 
3 250 253 214 
3 203 207 254 
3 203 254 251 
3 251 254 255 
3 251 255 252 
3 252 255 256 
3 252 256 253 
3 253 256 214 
3 207 151 209 
3 207 209 254 
3 254 209 211 
3 254 211 255 
3 255 211 213 
3 255 213 256 
3 256 213 214 
3 257 258 259 
3 257 259 260 
3 260 259 261 
3 260 261 262 
3 262 261 263 
3 262 263 264 
3 264 263 265 
3 264 265 266 
3 258 267 268 
3 258 268 259 
3 259 268 269 
3 259 269 261 
3 261 269 270 
3 261 270 263 
3 263 270 271 
3 263 271 265 
3 267 272 273 
3 267 273 268 
3 268 273 274 
3 268 274 269 
3 269 274 275 
3 269 275 270 
3 270 275 276 
3 270 276 271 
3 272 277 278 
3 272 278 273 
3 273 278 279 
3 273 279 274 
3 274 279 280 
3 274 280 275 
3 275 280 281 
3 275 281 276 
3 277 282 283 
3 277 283 278 
3 278 283 284 
3 278 284 279 
3 279 284 285 
3 279 285 280 
3 280 285 286 
3 280 286 281 
3 282 287 288 
3 282 288 283 
3 283 288 289 
3 283 289 284 
3 284 289 290 
3 284 290 285 
3 285 290 291 
3 285 291 286 
3 287 292 293 
3 287 293 288 
3 288 293 294 
3 288 294 289 
3 289 294 295 
3 289 295 290 
3 290 295 296 
3 290 296 291 
3 292 257 260 
3 292 260 293 
3 293 260 262 
3 293 262 294 
3 294 262 264 
3 294 264 295 
3 295 264 266 
3 295 266 296 
3 266 265 297 
3 266 297 298 
3 298 297 299 
3 298 299 300 
3 300 299 301 
3 300 301 302 
3 302 301 303 
3 302 303 115 
3 265 271 304 
3 265 304 297 
3 297 304 305 
3 297 305 299 
3 299 305 306 
3 299 306 301 
3 301 306 307 
3 301 307 303 
3 271 276 308 
3 271 308 304 
3 304 308 309 
3 304 309 305 
3 305 309 310 
3 305 310 306 
3 306 310 311 
3 306 311 307 
3 276 281 312 
3 276 312 308 
3 308 312 313 
3 308 313 309 
3 309 313 314 
3 309 314 310 
3 310 314 315 
3 310 315 311 
3 281 286 316 
3 281 316 312 
3 312 316 317 
3 312 317 313 
3 313 317 318 
3 313 318 314 
3 314 318 319 
3 314 319 315 
3 286 291 320 
3 286 320 316 
3 316 320 321 
3 316 321 317 
3 317 321 322 
3 317 322 318 
3 318 322 323 
3 318 323 319 
3 291 296 324 
3 291 324 320 
3 320 324 325 
3 320 325 321 
3 321 325 326 
3 321 326 322 
3 322 326 327 
3 322 327 323 
3 296 266 298 
3 296 298 324 
3 324 298 300 
3 324 300 325 
3 325 300 302 
3 325 302 326 
3 326 302 115 
3 326 115 327 
3 328 329 330 
3 328 330 331 
3 331 330 332 
3 331 332 333 
3 333 332 334 
3 333 334 335 
3 335 334 336 
3 335 336 337 
3 329 338 339 
3 329 339 330 
3 330 339 340 
3 330 340 332 
3 332 340 341 
3 332 341 334 
3 334 341 342 
3 334 342 336 
3 338 343 344 
3 338 344 339 
3 339 344 345 
3 339 345 340 
3 340 345 346 
3 340 346 341 
3 341 346 347 
3 341 347 342 
3 343 348 349 
3 343 349 344 
3 344 349 350 
3 344 350 345 
3 345 350 351 
3 345 351 346 
3 346 351 352 
3 346 352 347 
3 348 353 354 
3 348 354 349 
3 349 354 355 
3 349 355 350 
3 350 355 356 
3 350 356 351 
3 351 356 357 
3 351 357 352 
3 353 358 359 
3 353 359 354 
3 354 359 360 
3 354 360 355 
3 355 360 361 
3 355 361 356 
3 356 361 362 
3 356 362 357 
3 358 363 364 
3 358 364 359 
3 359 364 365 
3 359 365 360 
3 360 365 366 
3 360 366 361 
3 361 366 367 
3 361 367 362 
3 363 328 331 
3 363 331 364 
3 364 331 333 
3 364 333 365 
3 365 333 335 
3 365 335 366 
3 366 335 337 
3 366 337 367 
3 337 336 368 
3 337 368 369 
3 369 368 370 
3 369 370 371 
3 371 370 372 
3 371 372 373 
3 373 372 374 
3 373 374 375 
3 336 342 376 
3 336 376 368 
3 368 376 377 
3 368 377 370 
3 370 377 378 
3 370 378 372 
3 372 378 379 
3 372 379 374 
3 342 347 380 
3 342 380 376 
3 376 380 381 
3 376 381 377 
3 377 381 382 
3 377 382 378 
3 378 382 383 
3 378 383 379 
3 347 352 384 
3 347 384 380 
3 380 384 385 
3 380 385 381 
3 381 385 386 
3 381 386 382 
3 382 386 387 
3 382 387 383 
3 352 357 388 
3 352 388 384 
3 384 388 389 
3 384 389 385 
3 385 389 390 
3 385 390 386 
3 386 390 391 
3 386 391 387 
3 357 362 392 
3 357 392 388 
3 388 392 393 
3 388 393 389 
3 389 393 394 
3 389 394 390 
3 390 394 395 
3 390 395 391 
3 362 367 396 
3 362 396 392 
3 392 396 397 
3 392 397 393 
3 393 397 398 
3 393 398 394 
3 394 398 399 
3 394 399 395 
3 367 337 369 
3 367 369 396 
3 396 369 371 
3 396 371 397 
3 397 371 373 
3 397 373 398 
3 398 373 375 
3 398 375 399 
3 400 401 402 
3 401 400 403 
3 401 403 404 
3 404 403 405 
3 404 405 406 
3 406 405 407 
3 406 407 408 
3 409 400 402 
3 400 409 410 
3 400 410 403 
3 403 410 411 
3 403 411 405 
3 405 411 412 
3 405 412 407 
3 413 409 402 
3 409 413 414 
3 409 414 410 
3 410 414 415 
3 410 415 411 
3 411 415 416 
3 411 416 412 
3 417 413 402 
3 413 417 418 
3 413 418 414 
3 414 418 419 
3 414 419 415 
3 415 419 420 
3 415 420 416 
3 421 417 402 
3 417 421 422 
3 417 422 418 
3 418 422 423 
3 418 423 419 
3 419 423 424 
3 419 424 420 
3 425 421 402 
3 421 425 426 
3 421 426 422 
3 422 426 427 
3 422 427 423 
3 423 427 428 
3 423 428 424 
3 429 425 402 
3 425 429 430 
3 425 430 426 
3 426 430 431 
3 426 431 427 
3 427 431 432 
3 427 432 428 
3 433 429 402 
3 429 433 434 
3 429 434 430 
3 430 434 435 
3 430 435 431 
3 431 435 436 
3 431 436 432 
3 437 433 402 
3 433 437 438 
3 433 438 434 
3 434 438 439 
3 434 439 435 
3 435 439 440 
3 435 440 436 
3 441 437 402 
3 437 441 442 
3 437 442 438 
3 438 442 443 
3 438 443 439 
3 439 443 444 
3 439 444 440 
3 445 441 402 
3 441 445 446 
3 441 446 442 
3 442 446 447 
3 442 447 443 
3 443 447 448 
3 443 448 444 
3 449 445 402 
3 445 449 450 
3 445 450 446 
3 446 450 451 
3 446 451 447 
3 447 451 452 
3 447 452 448 
3 453 449 402 
3 449 453 454 
3 449 454 450 
3 450 454 455 
3 450 455 451 
3 451 455 456 
3 451 456 452 
3 457 453 402 
3 453 457 458 
3 453 458 454 
3 454 458 459 
3 454 459 455 
3 455 459 460 
3 455 460 456 
3 461 457 402 
3 457 461 462 
3 457 462 458 
3 458 462 463 
3 458 463 459 
3 459 463 464 
3 459 464 460 
3 401 461 402 
3 461 401 404 
3 461 404 462 
3 462 404 406 
3 462 406 463 
3 463 406 408 
3 463 408 464 
3 408 407 465 
3 408 465 466 
3 466 465 467 
3 466 467 468 
3 468 467 469 
3 468 469 470 
3 470 469 471 
3 470 471 472 
3 407 412 473 
3 407 473 465 
3 465 473 474 
3 465 474 467 
3 467 474 475 
3 467 475 469 
3 469 475 476 
3 469 476 471 
3 412 416 477 
3 412 477 473 
3 473 477 478 
3 473 478 474 
3 474 478 479 
3 474 479 475 
3 475 479 480 
3 475 480 476 
3 416 420 481 
3 416 481 477 
3 477 481 482 
3 477 482 478 
3 478 482 483 
3 478 483 479 
3 479 483 484 
3 479 484 480 
3 420 424 485 
3 420 485 481 
3 481 485 486 
3 481 486 482 
3 482 486 487 
3 482 487 483 
3 483 487 488 
3 483 488 484 
3 424 428 489 
3 424 489 485 
3 485 489 490 
3 485 490 486 
3 486 490 491 
3 486 491 487 
3 487 491 492 
3 487 492 488 
3 428 432 493 
3 428 493 489 
3 489 493 494 
3 489 494 490 
3 490 494 495 
3 490 495 491 
3 491 495 496 
3 491 496 492 
3 432 436 497 
3 432 497 493 
3 493 497 498 
3 493 498 494 
3 494 498 499 
3 494 499 495 
3 495 499 500 
3 495 500 496 
3 436 440 501 
3 436 501 497 
3 497 501 502 
3 497 502 498 
3 498 502 503 
3 498 503 499 
3 499 503 504 
3 499 504 500 
3 440 444 505 
3 440 505 501 
3 501 505 506 
3 501 506 502 
3 502 506 507 
3 502 507 503 
3 503 507 508 
3 503 508 504 
3 444 448 509 
3 444 509 505 
3 505 509 510 
3 505 510 506 
3 506 510 511 
3 506 511 507 
3 507 511 512 
3 507 512 508 
3 448 452 513 
3 448 513 509 
3 509 513 514 
3 509 514 510 
3 510 514 515 
3 510 515 511 
3 511 515 516 
3 511 516 512 
3 452 456 517 
3 452 517 513 
3 513 517 518 
3 513 518 514 
3 514 518 519 
3 514 519 515 
3 515 519 520 
3 515 520 516 
3 456 460 521 
3 456 521 517 
3 517 521 522 
3 517 522 518 
3 518 522 523 
3 518 523 519 
3 519 523 524 
3 519 524 520 
3 460 464 525 
3 460 525 521 
3 521 525 526 
3 521 526 522 
3 522 526 527 
3 522 527 523 
3 523 527 528 
3 523 528 524 
3 464 408 466 
3 464 466 525 
3 525 466 468 
3 525 468 526 
3 526 468 470 
3 526 470 527 
3 527 470 472 
3 527 472 528 
