ply
format ascii 1.0
comment VCGLIB generated
element vertex 288
property float x
property float y
property float z
property float nx
property float ny
property float nz
element face 576
property list uchar int vertex_indices
end_header
0 0 -1.5 0 0 -5.74921 
0 0.166563 -1.45536 -0.033436 2.88253 -4.98683 
0.376674 0.166563 -1.40578 1.25834 2.88253 -4.82553 
0.388233 0 -1.44889 1.488 -2.47061e-005 -5.55329 
0 0.2885 -1.33344 -0.0586387 5.00827 -2.88813 
0.345123 0.2885 -1.28799 0.690861 5.00828 -2.80491 
0 0.333126 -1.16686 -0.0680921 5.79224 4.4167e-005 
0.302013 0.333126 -1.1271 -0.0657818 5.79224 -0.0176032 
0 0.2885 -1.00029 -0.0586278 5.00835 2.8881 
0.258902 0.2885 -0.966219 -0.804084 5.00834 2.77451 
0 0.166563 -0.878355 -0.033484 2.88245 4.98678 
0.227331 0.166563 -0.848427 -1.32288 2.88247 4.80823 
0 0 -0.83373 0 -2.98023e-008 5.74927 
0.215791 0 -0.805317 -1.48792 -1.19209e-005 5.55341 
0 -0.166563 -0.878355 0.033484 -2.88245 4.98678 
0.227331 -0.166563 -0.848427 -1.25829 -2.88246 4.82554 
0 -0.2885 -1.00029 0.0586278 -5.00835 2.8881 
0.258902 -0.2885 -0.966219 -0.690803 -5.00835 2.80486 
0 -0.333126 -1.16686 0.0680921 -5.79224 4.4167e-005 
0.302013 -0.333126 -1.1271 0.0657977 -5.79223 0.0176427 
0 -0.2885 -1.33344 0.0586387 -5.00827 -2.88813 
0.345123 -0.2885 -1.28799 0.804153 -5.0083 -2.77452 
0 -0.166563 -1.45536 0.033436 -2.88253 -4.98683 
0.376674 -0.166563 -1.40578 1.32302 -2.8825 -4.80822 
0.727677 0.166563 -1.26038 2.46443 2.88244 -4.33547 
0.749991 0 -1.29904 2.87464 -3.54648e-005 -4.97901 
0.666708 0.2885 -1.15479 1.39325 5.00831 -2.5305 
0.583428 0.333126 -1.01054 -0.0590009 5.79223 -0.0340401 
0.500145 0.2885 -0.866286 -1.49486 5.0083 2.47187 
0.439179 0.166563 -0.760692 -2.52231 2.88242 4.30201 
0.416865 0 -0.722037 -2.8745 1.68085e-005 4.97908 
0.439179 -0.166563 -0.760692 -2.46435 -2.88242 4.33549 
0.500145 -0.2885 -0.866286 -1.39327 -5.00832 2.5305 
0.583428 -0.333126 -1.01054 0.0589442 -5.79224 0.0340719 
0.666708 -0.2885 -1.15479 1.49481 -5.00829 -2.4719 
0.727677 -0.166563 -1.26038 2.52237 -2.88242 -4.30202 
1.02911 0.166563 -1.02911 3.50257 2.88236 -3.54988 
1.06066 0 -1.06066 4.06534 5.96047e-008 -4.06534 
0.942885 0.2885 -0.942885 2.00071 5.00829 -2.08367 
0.825093 0.333126 -0.825093 -0.0481955 5.79224 -0.0481142 
0.707319 0.2885 -0.707319 -2.08371 5.00827 2.00077 
0.621096 0.166563 -0.621096 -3.54991 2.88236 3.50257 
0.589545 0 -0.589545 -4.06535 0 4.06535 
0.621096 -0.166563 -0.621096 -3.50257 -2.88236 3.54991 
0.707319 -0.2885 -0.707319 -2.00077 -5.00827 2.08371 
0.825093 -0.333126 -0.825093 0.0481142 -5.79224 0.0481955 
0.942885 -0.2885 -0.942885 2.08367 -5.00829 -2.00071 
1.02911 -0.166563 -1.02911 3.54988 -2.88236 -3.50257 
1.26038 0.166563 -0.727677 4.30202 2.88242 -2.52237 
1.29904 0 -0.749991 4.97901 3.55542e-005 -2.87464 
1.15479 0.2885 -0.666708 2.4719 5.00829 -1.49481 
1.01054 0.333126 -0.583428 -0.0340718 5.79224 -0.0589443 
0.866286 0.2885 -0.500145 -2.5305 5.00832 1.39327 
0.760692 0.166563 -0.439179 -4.33549 2.88242 2.46435 
0.722037 0 -0.416865 -4.97908 -1.67489e-005 2.8745 
0.760692 -0.166563 -0.439179 -4.30201 -2.88242 2.52231 
0.866286 -0.2885 -0.500145 -2.47187 -5.0083 1.49486 
1.01054 -0.333126 -0.583428 0.0340402 -5.79223 0.0590009 
1.15479 -0.2885 -0.666708 2.5305 -5.00831 -1.39325 
1.26038 -0.166563 -0.727677 4.33547 -2.88244 -2.46443 
1.40578 0.166563 -0.376674 4.80822 2.8825 -1.32302 
1.44889 0 -0.388233 5.55329 2.46465e-005 -1.488 
1.28799 0.2885 -0.345123 2.77452 5.0083 -0.804153 
1.1271 0.333126 -0.302013 -0.0176427 5.79223 -0.0657977 
0.966219 0.2885 -0.258902 -2.80486 5.00835 0.690803 
0.848427 0.166563 -0.227331 -4.82554 2.88246 1.25829 
0.805317 0 -0.215791 -5.55341 1.19805e-005 1.48792 
0.848427 -0.166563 -0.227331 -4.80823 -2.88247 1.32288 
0.966219 -0.2885 -0.258902 -2.77451 -5.00834 0.804084 
1.1271 -0.333126 -0.302013 0.0176032 -5.79224 0.0657818 
1.28799 -0.2885 -0.345123 2.80491 -5.00828 -0.690861 
1.40578 -0.166563 -0.376674 4.82553 -2.88254 -1.25834 
1.45536 0.166563 0 4.98683 2.88253 -0.033436 
1.5 0 0 5.74921 0 0 
1.33344 0.2885 0 2.88813 5.00827 -0.0586387 
1.16686 0.333126 0 -4.4167e-005 5.79224 -0.0680921 
1.00029 0.2885 0 -2.8881 5.00835 -0.0586277 
0.878355 0.166563 0 -4.98678 2.88245 -0.033484 
0.83373 0 0 -5.74927 0 0 
0.878355 -0.166563 0 -4.98678 -2.88245 0.033484 
1.00029 -0.2885 0 -2.8881 -5.00835 0.0586278 
1.16686 -0.333126 0 -4.4167e-005 -5.79224 0.0680921 
1.33344 -0.2885 0 2.88813 -5.00827 0.0586387 
1.45536 -0.166563 0 4.98683 -2.88253 0.033436 
1.40578 0.166563 0.376674 4.82553 2.88254 1.25834 
1.44889 0 0.388233 5.55329 -2.46465e-005 1.488 
1.28799 0.2885 0.345123 2.80491 5.00828 0.690861 
1.1271 0.333126 0.302013 0.0176032 5.79224 -0.0657818 
0.966219 0.2885 0.258902 -2.77451 5.00834 -0.804084 
0.848427 0.166563 0.227331 -4.80823 2.88247 -1.32288 
0.805317 0 0.215791 -5.55341 -1.19209e-005 -1.48792 
0.848427 -0.166563 0.227331 -4.82554 -2.88246 -1.25829 
0.966219 -0.2885 0.258902 -2.80486 -5.00835 -0.690803 
1.1271 -0.333126 0.302013 -0.0176427 -5.79223 0.0657977 
1.28799 -0.2885 0.345123 2.77452 -5.0083 0.804153 
1.40578 -0.166563 0.376674 4.80822 -2.8825 1.32302 
1.26038 0.166563 0.727677 4.33547 2.88244 2.46443 
1.29904 0 0.749991 4.97901 -3.5435e-005 2.87464 
1.15479 0.2885 0.666708 2.5305 5.00831 1.39325 
1.01054 0.333126 0.583428 0.0340401 5.79223 -0.0590009 
0.866286 0.2885 0.500145 -2.47187 5.0083 -1.49486 
0.760692 0.166563 0.439179 -4.30201 2.88242 -2.52231 
0.722037 0 0.416865 -4.97908 1.68085e-005 -2.8745 
0.760692 -0.166563 0.439179 -4.33549 -2.88242 -2.46435 
0.866286 -0.2885 0.500145 -2.5305 -5.00832 -1.39327 
1.01054 -0.333126 0.583428 -0.0340718 -5.79224 0.0589442 
1.15479 -0.2885 0.666708 2.4719 -5.00829 1.49481 
1.26038 -0.166563 0.727677 4.30202 -2.88242 2.52237 
1.02911 0.166563 1.02911 3.54988 2.88236 3.50257 
1.06066 0 1.06066 4.06534 5.96047e-008 4.06534 
0.942885 0.2885 0.942885 2.08367 5.00829 2.00071 
0.825093 0.333126 0.825093 0.0481142 5.79224 -0.0481955 
0.707319 0.2885 0.707319 -2.00077 5.00827 -2.08371 
0.621096 0.166563 0.621096 -3.50257 2.88236 -3.54991 
0.589545 0 0.589545 -4.06535 0 -4.06535 
0.621096 -0.166563 0.621096 -3.54991 -2.88236 -3.50257 
0.707319 -0.2885 0.707319 -2.08371 -5.00827 -2.00077 
0.825093 -0.333126 0.825093 -0.0481955 -5.79224 0.0481142 
0.942885 -0.2885 0.942885 2.00071 -5.00829 2.08367 
1.02911 -0.166563 1.02911 3.50257 -2.88236 3.54988 
0.727677 0.166563 1.26038 2.52237 2.88242 4.30202 
0.749991 0 1.29904 2.87464 3.5584e-005 4.97901 
0.666708 0.2885 1.15479 1.49481 5.00829 2.4719 
0.583428 0.333126 1.01054 0.0589443 5.79224 -0.0340719 
0.500145 0.2885 0.866286 -1.39327 5.00832 -2.5305 
0.439179 0.166563 0.760692 -2.46435 2.88242 -4.33549 
0.416865 0 0.722037 -2.8745 -1.67489e-005 -4.97908 
0.439179 -0.166563 0.760692 -2.52231 -2.88242 -4.30201 
0.500145 -0.2885 0.866286 -1.49486 -5.0083 -2.47187 
0.583428 -0.333126 1.01054 -0.0590009 -5.79223 0.0340401 
0.666708 -0.2885 1.15479 1.39325 -5.00831 2.5305 
0.727677 -0.166563 1.26038 2.46443 -2.88244 4.33547 
0.376674 0.166563 1.40578 1.32302 2.8825 4.80822 
0.388233 0 1.44889 1.488 2.47061e-005 5.55329 
0.345123 0.2885 1.28799 0.804153 5.0083 2.77452 
0.302013 0.333126 1.1271 0.0657977 5.79223 -0.0176427 
0.258902 0.2885 0.966219 -0.690803 5.00835 -2.80486 
0.227331 0.166563 0.848427 -1.25829 2.88246 -4.82554 
0.215791 0 0.805317 -1.48792 1.19805e-005 -5.55341 
0.227331 -0.166563 0.848427 -1.32288 -2.88247 -4.80823 
0.258902 -0.2885 0.966219 -0.804084 -5.00834 -2.77451 
0.302013 -0.333126 1.1271 -0.0657818 -5.79224 0.0176032 
0.345123 -0.2885 1.28799 0.690861 -5.00828 2.80491 
0.376674 -0.166563 1.40578 1.25834 -2.88253 4.82553 
0 0.166563 1.45536 0.033436 2.88253 4.98683 
0 0 1.5 0 0 5.74921 
0 0.2885 1.33344 0.0586387 5.00827 2.88813 
0 0.333126 1.16686 0.0680921 5.79224 -4.4167e-005 
0 0.2885 1.00029 0.0586277 5.00835 -2.8881 
0 0.166563 0.878355 0.033484 2.88245 -4.98678 
0 0 0.83373 0 0 -5.74927 
0 -0.166563 0.878355 -0.033484 -2.88245 -4.98678 
0 -0.2885 1.00029 -0.0586278 -5.00835 -2.8881 
0 -0.333126 1.16686 -0.0680921 -5.79224 -4.4167e-005 
0 -0.2885 1.33344 -0.0586387 -5.00827 2.88813 
0 -0.166563 1.45536 -0.033436 -2.88253 4.98683 
-0.376674 0.166563 1.40578 -1.25834 2.88253 4.82553 
-0.388233 0 1.44889 -1.488 -2.47061e-005 5.55329 
-0.345123 0.2885 1.28799 -0.690861 5.00828 2.80491 
-0.302013 0.333126 1.1271 0.0657818 5.79224 0.0176032 
-0.258902 0.2885 0.966219 0.804084 5.00834 -2.77451 
-0.227331 0.166563 0.848427 1.32288 2.88247 -4.80823 
-0.215791 0 0.805317 1.48792 -1.19209e-005 -5.55341 
-0.227331 -0.166563 0.848427 1.25829 -2.88246 -4.82554 
-0.258902 -0.2885 0.966219 0.690803 -5.00835 -2.80486 
-0.302013 -0.333126 1.1271 -0.0657977 -5.79223 -0.0176427 
-0.345123 -0.2885 1.28799 -0.804153 -5.0083 2.77452 
-0.376674 -0.166563 1.40578 -1.32302 -2.8825 4.80822 
-0.727677 0.166563 1.26038 -2.46443 2.88244 4.33547 
-0.749991 0 1.29904 -2.87464 -3.54648e-005 4.97901 
-0.666708 0.2885 1.15479 -1.39325 5.00831 2.5305 
-0.583428 0.333126 1.01054 0.0590009 5.79223 0.0340401 
-0.500145 0.2885 0.866286 1.49486 5.0083 -2.47187 
-0.439179 0.166563 0.760692 2.52231 2.88242 -4.30201 
-0.416865 0 0.722037 2.8745 1.68085e-005 -4.97908 
-0.439179 -0.166563 0.760692 2.46435 -2.88242 -4.33549 
-0.500145 -0.2885 0.866286 1.39327 -5.00832 -2.5305 
-0.583428 -0.333126 1.01054 -0.0589442 -5.79224 -0.0340719 
-0.666708 -0.2885 1.15479 -1.49481 -5.00829 2.4719 
-0.727677 -0.166563 1.26038 -2.52237 -2.88242 4.30202 
-1.02911 0.166563 1.02911 -3.50257 2.88236 3.54988 
-1.06066 0 1.06066 -4.06534 5.96047e-008 4.06534 
-0.942885 0.2885 0.942885 -2.00071 5.00829 2.08367 
-0.825093 0.333126 0.825093 0.0481955 5.79224 0.0481142 
-0.707319 0.2885 0.707319 2.08371 5.00827 -2.00077 
-0.621096 0.166563 0.621096 3.54991 2.88236 -3.50257 
-0.589545 0 0.589545 4.06535 0 -4.06535 
-0.621096 -0.166563 0.621096 3.50257 -2.88236 -3.54991 
-0.707319 -0.2885 0.707319 2.00077 -5.00827 -2.08371 
-0.825093 -0.333126 0.825093 -0.0481142 -5.79224 -0.0481955 
-0.942885 -0.2885 0.942885 -2.08367 -5.00829 2.00071 
-1.02911 -0.166563 1.02911 -3.54988 -2.88236 3.50257 
-1.26038 0.166563 0.727677 -4.30202 2.88242 2.52237 
-1.29904 0 0.749991 -4.97901 3.55542e-005 2.87464 
-1.15479 0.2885 0.666708 -2.4719 5.00829 1.49481 
-1.01054 0.333126 0.583428 0.0340718 5.79224 0.0589443 
-0.866286 0.2885 0.500145 2.5305 5.00832 -1.39327 
-0.760692 0.166563 0.439179 4.33549 2.88242 -2.46435 
-0.722037 0 0.416865 4.97908 -1.67489e-005 -2.8745 
-0.760692 -0.166563 0.439179 4.30201 -2.88242 -2.52231 
-0.866286 -0.2885 0.500145 2.47187 -5.0083 -1.49486 
-1.01054 -0.333126 0.583428 -0.0340402 -5.79223 -0.0590009 
-1.15479 -0.2885 0.666708 -2.5305 -5.00831 1.39325 
-1.26038 -0.166563 0.727677 -4.33547 -2.88244 2.46443 
-1.40578 0.166563 0.376674 -4.80822 2.8825 1.32302 
-1.44889 0 0.388233 -5.55329 2.46465e-005 1.488 
-1.28799 0.2885 0.345123 -2.77452 5.0083 0.804153 
-1.1271 0.333126 0.302013 0.0176427 5.79223 0.0657977 
-0.966219 0.2885 0.258902 2.80486 5.00835 -0.690803 
-0.848427 0.166563 0.227331 4.82554 2.88246 -1.25829 
-0.805317 0 0.215791 5.55341 1.19805e-005 -1.48792 
-0.848427 -0.166563 0.227331 4.80823 -2.88247 -1.32288 
-0.966219 -0.2885 0.258902 2.77451 -5.00834 -0.804084 
-1.1271 -0.333126 0.302013 -0.0176032 -5.79224 -0.0657818 
-1.28799 -0.2885 0.345123 -2.80491 -5.00828 0.690861 
-1.40578 -0.166563 0.376674 -4.82553 -2.88254 1.25834 
-1.45536 0.166563 0 -4.98683 2.88253 0.033436 
-1.5 0 0 -5.74921 0 0 
-1.33344 0.2885 0 -2.88813 5.00827 0.0586387 
-1.16686 0.333126 0 4.4167e-005 5.79224 0.0680921 
-1.00029 0.2885 0 2.8881 5.00835 0.0586277 
-0.878355 0.166563 0 4.98678 2.88245 0.033484 
-0.83373 0 0 5.74927 0 0 
-0.878355 -0.166563 0 4.98678 -2.88245 -0.033484 
-1.00029 -0.2885 0 2.8881 -5.00835 -0.0586278 
-1.16686 -0.333126 0 4.4167e-005 -5.79224 -0.0680921 
-1.33344 -0.2885 0 -2.88813 -5.00827 -0.0586387 
-1.45536 -0.166563 0 -4.98683 -2.88253 -0.033436 
-1.40578 0.166563 -0.376674 -4.82553 2.88254 -1.25834 
-1.44889 0 -0.388233 -5.55329 -2.46465e-005 -1.488 
-1.28799 0.2885 -0.345123 -2.80491 5.00828 -0.690861 
-1.1271 0.333126 -0.302013 -0.0176032 5.79224 0.0657818 
-0.966219 0.2885 -0.258902 2.77451 5.00834 0.804084 
-0.848427 0.166563 -0.227331 4.80823 2.88247 1.32288 
-0.805317 0 -0.215791 5.55341 -1.19209e-005 1.48792 
-0.848427 -0.166563 -0.227331 4.82554 -2.88246 1.25829 
-0.966219 -0.2885 -0.258902 2.80486 -5.00835 0.690803 
-1.1271 -0.333126 -0.302013 0.0176427 -5.79223 -0.0657977 
-1.28799 -0.2885 -0.345123 -2.77452 -5.0083 -0.804153 
-1.40578 -0.166563 -0.376674 -4.80822 -2.8825 -1.32302 
-1.26038 0.166563 -0.727677 -4.33547 2.88244 -2.46443 
-1.29904 0 -0.749991 -4.97901 -3.5435e-005 -2.87464 
-1.15479 0.2885 -0.666708 -2.5305 5.00831 -1.39325 
-1.01054 0.333126 -0.583428 -0.0340401 5.79223 0.0590009 
-0.866286 0.2885 -0.500145 2.47187 5.0083 1.49486 
-0.760692 0.166563 -0.439179 4.30201 2.88242 2.52231 
-0.722037 0 -0.416865 4.97908 1.68085e-005 2.8745 
-0.760692 -0.166563 -0.439179 4.33549 -2.88242 2.46435 
-0.866286 -0.2885 -0.500145 2.5305 -5.00832 1.39327 
-1.01054 -0.333126 -0.583428 0.0340718 -5.79224 -0.0589442 
-1.15479 -0.2885 -0.666708 -2.4719 -5.00829 -1.49481 
-1.26038 -0.166563 -0.727677 -4.30202 -2.88242 -2.52237 
-1.02911 0.166563 -1.02911 -3.54988 2.88236 -3.50257 
-1.06066 0 -1.06066 -4.06534 5.96047e-008 -4.06534 
-0.942885 0.2885 -0.942885 -2.08367 5.00829 -2.00071 
-0.825093 0.333126 -0.825093 -0.0481142 5.79224 0.0481955 
-0.707319 0.2885 -0.707319 2.00077 5.00827 2.08371 
-0.621096 0.166563 -0.621096 3.50257 2.88236 3.54991 
-0.589545 0 -0.589545 4.06535 0 4.06535 
-0.621096 -0.166563 -0.621096 3.54991 -2.88236 3.50257 
-0.707319 -0.2885 -0.707319 2.08371 -5.00827 2.00077 
-0.825093 -0.333126 -0.825093 0.0481955 -5.79224 -0.0481142 
-0.942885 -0.2885 -0.942885 -2.00071 -5.00829 -2.08367 
-1.02911 -0.166563 -1.02911 -3.50257 -2.88236 -3.54988 
-0.727677 0.166563 -1.26038 -2.52237 2.88242 -4.30202 
-0.749991 0 -1.29904 -2.87464 3.5584e-005 -4.97901 
-0.666708 0.2885 -1.15479 -1.49481 5.00829 -2.4719 
-0.583428 0.333126 -1.01054 -0.0589443 5.79224 0.0340719 
-0.500145 0.2885 -0.866286 1.39327 5.00832 2.5305 
-0.439179 0.166563 -0.760692 2.46435 2.88242 4.33549 
-0.416865 0 -0.722037 2.8745 -1.67489e-005 4.97908 
-0.439179 -0.166563 -0.760692 2.52231 -2.88242 4.30201 
-0.500145 -0.2885 -0.866286 1.49486 -5.0083 2.47187 
-0.583428 -0.333126 -1.01054 0.0590009 -5.79223 -0.0340401 
-0.666708 -0.2885 -1.15479 -1.39325 -5.00831 -2.5305 
-0.727677 -0.166563 -1.26038 -2.46443 -2.88244 -4.33547 
-0.376674 0.166563 -1.40578 -1.32302 2.8825 -4.80822 
-0.388233 0 -1.44889 -1.488 2.47061e-005 -5.55329 
-0.345123 0.2885 -1.28799 -0.804153 5.0083 -2.77452 
-0.302013 0.333126 -1.1271 -0.0657977 5.79223 0.0176427 
-0.258902 0.2885 -0.966219 0.690803 5.00835 2.80486 
-0.227331 0.166563 -0.848427 1.25829 2.88246 4.82554 
-0.215791 0 -0.805317 1.48792 1.19805e-005 5.55341 
-0.227331 -0.166563 -0.848427 1.32288 -2.88247 4.80823 
-0.258902 -0.2885 -0.966219 0.804084 -5.00834 2.77451 
-0.302013 -0.333126 -1.1271 0.0657818 -5.79224 -0.0176032 
-0.345123 -0.2885 -1.28799 -0.690861 -5.00828 -2.80491 
-0.376674 -0.166563 -1.40578 -1.25834 -2.88253 -4.82553 
3 0 1 2 
3 0 2 3 
3 1 4 5 
3 1 5 2 
3 4 6 7 
3 4 7 5 
3 6 8 9 
3 6 9 7 
3 8 10 11 
3 8 11 9 
3 10 12 13 
3 10 13 11 
3 12 14 15 
3 12 15 13 
3 14 16 17 
3 14 17 15 
3 16 18 19 
3 16 19 17 
3 18 20 21 
3 18 21 19 
3 20 22 23 
3 20 23 21 
3 22 0 3 
3 22 3 23 
3 3 2 24 
3 3 24 25 
3 2 5 26 
3 2 26 24 
3 5 7 27 
3 5 27 26 
3 7 9 28 
3 7 28 27 
3 9 11 29 
3 9 29 28 
3 11 13 30 
3 11 30 29 
3 13 15 31 
3 13 31 30 
3 15 17 32 
3 15 32 31 
3 17 19 33 
3 17 33 32 
3 19 21 34 
3 19 34 33 
3 21 23 35 
3 21 35 34 
3 23 3 25 
3 23 25 35 
3 25 24 36 
3 25 36 37 
3 24 26 38 
3 24 38 36 
3 26 27 39 
3 26 39 38 
3 27 28 40 
3 27 40 39 
3 28 29 41 
3 28 41 40 
3 29 30 42 
3 29 42 41 
3 30 31 43 
3 30 43 42 
3 31 32 44 
3 31 44 43 
3 32 33 45 
3 32 45 44 
3 33 34 46 
3 33 46 45 
3 34 35 47 
3 34 47 46 
3 35 25 37 
3 35 37 47 
3 37 36 48 
3 37 48 49 
3 36 38 50 
3 36 50 48 
3 38 39 51 
3 38 51 50 
3 39 40 52 
3 39 52 51 
3 40 41 53 
3 40 53 52 
3 41 42 54 
3 41 54 53 
3 42 43 55 
3 42 55 54 
3 43 44 56 
3 43 56 55 
3 44 45 57 
3 44 57 56 
3 45 46 58 
3 45 58 57 
3 46 47 59 
3 46 59 58 
3 47 37 49 
3 47 49 59 
3 49 48 60 
3 49 60 61 
3 48 50 62 
3 48 62 60 
3 50 51 63 
3 50 63 62 
3 51 52 64 
3 51 64 63 
3 52 53 65 
3 52 65 64 
3 53 54 66 
3 53 66 65 
3 54 55 67 
3 54 67 66 
3 55 56 68 
3 55 68 67 
3 56 57 69 
3 56 69 68 
3 57 58 70 
3 57 70 69 
3 58 59 71 
3 58 71 70 
3 59 49 61 
3 59 61 71 
3 61 60 72 
3 61 72 73 
3 60 62 74 
3 60 74 72 
3 62 63 75 
3 62 75 74 
3 63 64 76 
3 63 76 75 
3 64 65 77 
3 64 77 76 
3 65 66 78 
3 65 78 77 
3 66 67 79 
3 66 79 78 
3 67 68 80 
3 67 80 79 
3 68 69 81 
3 68 81 80 
3 69 70 82 
3 69 82 81 
3 70 71 83 
3 70 83 82 
3 71 61 73 
3 71 73 83 
3 73 72 84 
3 73 84 85 
3 72 74 86 
3 72 86 84 
3 74 75 87 
3 74 87 86 
3 75 76 88 
3 75 88 87 
3 76 77 89 
3 76 89 88 
3 77 78 90 
3 77 90 89 
3 78 79 91 
3 78 91 90 
3 79 80 92 
3 79 92 91 
3 80 81 93 
3 80 93 92 
3 81 82 94 
3 81 94 93 
3 82 83 95 
3 82 95 94 
3 83 73 85 
3 83 85 95 
3 85 84 96 
3 85 96 97 
3 84 86 98 
3 84 98 96 
3 86 87 99 
3 86 99 98 
3 87 88 100 
3 87 100 99 
3 88 89 101 
3 88 101 100 
3 89 90 102 
3 89 102 101 
3 90 91 103 
3 90 103 102 
3 91 92 104 
3 91 104 103 
3 92 93 105 
3 92 105 104 
3 93 94 106 
3 93 106 105 
3 94 95 107 
3 94 107 106 
3 95 85 97 
3 95 97 107 
3 97 96 108 
3 97 108 109 
3 96 98 110 
3 96 110 108 
3 98 99 111 
3 98 111 110 
3 99 100 112 
3 99 112 111 
3 100 101 113 
3 100 113 112 
3 101 102 114 
3 101 114 113 
3 102 103 115 
3 102 115 114 
3 103 104 116 
3 103 116 115 
3 104 105 117 
3 104 117 116 
3 105 106 118 
3 105 118 117 
3 106 107 119 
3 106 119 118 
3 107 97 109 
3 107 109 119 
3 109 108 120 
3 109 120 121 
3 108 110 122 
3 108 122 120 
3 110 111 123 
3 110 123 122 
3 111 112 124 
3 111 124 123 
3 112 113 125 
3 112 125 124 
3 113 114 126 
3 113 126 125 
3 114 115 127 
3 114 127 126 
3 115 116 128 
3 115 128 127 
3 116 117 129 
3 116 129 128 
3 117 118 130 
3 117 130 129 
3 118 119 131 
3 118 131 130 
3 119 109 121 
3 119 121 131 
3 121 120 132 
3 121 132 133 
3 120 122 134 
3 120 134 132 
3 122 123 135 
3 122 135 134 
3 123 124 136 
3 123 136 135 
3 124 125 137 
3 124 137 136 
3 125 126 138 
3 125 138 137 
3 126 127 139 
3 126 139 138 
3 127 128 140 
3 127 140 139 
3 128 129 141 
3 128 141 140 
3 129 130 142 
3 129 142 141 
3 130 131 143 
3 130 143 142 
3 131 121 133 
3 131 133 143 
3 133 132 144 
3 133 144 145 
3 132 134 146 
3 132 146 144 
3 134 135 147 
3 134 147 146 
3 135 136 148 
3 135 148 147 
3 136 137 149 
3 136 149 148 
3 137 138 150 
3 137 150 149 
3 138 139 151 
3 138 151 150 
3 139 140 152 
3 139 152 151 
3 140 141 153 
3 140 153 152 
3 141 142 154 
3 141 154 153 
3 142 143 155 
3 142 155 154 
3 143 133 145 
3 143 145 155 
3 145 144 156 
3 145 156 157 
3 144 146 158 
3 144 158 156 
3 146 147 159 
3 146 159 158 
3 147 148 160 
3 147 160 159 
3 148 149 161 
3 148 161 160 
3 149 150 162 
3 149 162 161 
3 150 151 163 
3 150 163 162 
3 151 152 164 
3 151 164 163 
3 152 153 165 
3 152 165 164 
3 153 154 166 
3 153 166 165 
3 154 155 167 
3 154 167 166 
3 155 145 157 
3 155 157 167 
3 157 156 168 
3 157 168 169 
3 156 158 170 
3 156 170 168 
3 158 159 171 
3 158 171 170 
3 159 160 172 
3 159 172 171 
3 160 161 173 
3 160 173 172 
3 161 162 174 
3 161 174 173 
3 162 163 175 
3 162 175 174 
3 163 164 176 
3 163 176 175 
3 164 165 177 
3 164 177 176 
3 165 166 178 
3 165 178 177 
3 166 167 179 
3 166 179 178 
3 167 157 169 
3 167 169 179 
3 169 168 180 
3 169 180 181 
3 168 170 182 
3 168 182 180 
3 170 171 183 
3 170 183 182 
3 171 172 184 
3 171 184 183 
3 172 173 185 
3 172 185 184 
3 173 174 186 
3 173 186 185 
3 174 175 187 
3 174 187 186 
3 175 176 188 
3 175 188 187 
3 176 177 189 
3 176 189 188 
3 177 178 190 
3 177 190 189 
3 178 179 191 
3 178 191 190 
3 179 169 181 
3 179 181 191 
3 181 180 192 
3 181 192 193 
3 180 182 194 
3 180 194 192 
3 182 183 195 
3 182 195 194 
3 183 184 196 
3 183 196 195 
3 184 185 197 
3 184 197 196 
3 185 186 198 
3 185 198 197 
3 186 187 199 
3 186 199 198 
3 187 188 200 
3 187 200 199 
3 188 189 201 
3 188 201 200 
3 189 190 202 
3 189 202 201 
3 190 191 203 
3 190 203 202 
3 191 181 193 
3 191 193 203 
3 193 192 204 
3 193 204 205 
3 192 194 206 
3 192 206 204 
3 194 195 207 
3 194 207 206 
3 195 196 208 
3 195 208 207 
3 196 197 209 
3 196 209 208 
3 197 198 210 
3 197 210 209 
3 198 199 211 
3 198 211 210 
3 199 200 212 
3 199 212 211 
3 200 201 213 
3 200 213 212 
3 201 202 214 
3 201 214 213 
3 202 203 215 
3 202 215 214 
3 203 193 205 
3 203 205 215 
3 205 204 216 
3 205 216 217 
3 204 206 218 
3 204 218 216 
3 206 207 219 
3 206 219 218 
3 207 208 220 
3 207 220 219 
3 208 209 221 
3 208 221 220 
3 209 210 222 
3 209 222 221 
3 210 211 223 
3 210 223 222 
3 211 212 224 
3 211 224 223 
3 212 213 225 
3 212 225 224 
3 213 214 226 
3 213 226 225 
3 214 215 227 
3 214 227 226 
3 215 205 217 
3 215 217 227 
3 217 216 228 
3 217 228 229 
3 216 218 230 
3 216 230 228 
3 218 219 231 
3 218 231 230 
3 219 220 232 
3 219 232 231 
3 220 221 233 
3 220 233 232 
3 221 222 234 
3 221 234 233 
3 222 223 235 
3 222 235 234 
3 223 224 236 
3 223 236 235 
3 224 225 237 
3 224 237 236 
3 225 226 238 
3 225 238 237 
3 226 227 239 
3 226 239 238 
3 227 217 229 
3 227 229 239 
3 229 228 240 
3 229 240 241 
3 228 230 242 
3 228 242 240 
3 230 231 243 
3 230 243 242 
3 231 232 244 
3 231 244 243 
3 232 233 245 
3 232 245 244 
3 233 234 246 
3 233 246 245 
3 234 235 247 
3 234 247 246 
3 235 236 248 
3 235 248 247 
3 236 237 249 
3 236 249 248 
3 237 238 250 
3 237 250 249 
3 238 239 251 
3 238 251 250 
3 239 229 241 
3 239 241 251 
3 241 240 252 
3 241 252 253 
3 240 242 254 
3 240 254 252 
3 242 243 255 
3 242 255 254 
3 243 244 256 
3 243 256 255 
3 244 245 257 
3 244 257 256 
3 245 246 258 
3 245 258 257 
3 246 247 259 
3 246 259 258 
3 247 248 260 
3 247 260 259 
3 248 249 261 
3 248 261 260 
3 249 250 262 
3 249 262 261 
3 250 251 263 
3 250 263 262 
3 251 241 253 
3 251 253 263 
3 253 252 264 
3 253 264 265 
3 252 254 266 
3 252 266 264 
3 254 255 267 
3 254 267 266 
3 255 256 268 
3 255 268 267 
3 256 257 269 
3 256 269 268 
3 257 258 270 
3 257 270 269 
3 258 259 271 
3 258 271 270 
3 259 260 272 
3 259 272 271 
3 260 261 273 
3 260 273 272 
3 261 262 274 
3 261 274 273 
3 262 263 275 
3 262 275 274 
3 263 253 265 
3 263 265 275 
3 265 264 276 
3 265 276 277 
3 264 266 278 
3 264 278 276 
3 266 267 279 
3 266 279 278 
3 267 268 280 
3 267 280 279 
3 268 269 281 
3 268 281 280 
3 269 270 282 
3 269 282 281 
3 270 271 283 
3 270 283 282 
3 271 272 284 
3 271 284 283 
3 272 273 285 
3 272 285 284 
3 273 274 286 
3 273 286 285 
3 274 275 287 
3 274 287 286 
3 275 265 277 
3 275 277 287 
3 277 276 1 
3 277 1 0 
3 276 278 4 
3 276 4 1 
3 278 279 6 
3 278 6 4 
3 279 280 8 
3 279 8 6 
3 280 281 10 
3 280 10 8 
3 281 282 12 
3 281 12 10 
3 282 283 14 
3 282 14 12 
3 283 284 16 
3 283 16 14 
3 284 285 18 
3 284 18 16 
3 285 286 20 
3 285 20 18 
3 286 287 22 
3 286 22 20 
3 287 277 0 
3 287 0 22 
