ply
format ascii 1.0
comment VCGLIB generated
element vertex 180
property float x
property float y
property float z
property float nx
property float ny
property float nz
element face 334
property list uchar int vertex_indices
end_header
-0.361626 0.074244 0.008732 0 0 3.63692 
-0.358229 0.073797 0.008732 -1.34851 -0.665093 4 
-0.353376 0.091908 0.008732 -1.16658 2.36545 5.17918 
-0.369875 0.091908 0.008732 0.583304 1.18268 4.8161 
-0.361626 0.092994 0.008732 0 0 3.17918 
-0.365023 0.073797 0.008732 2.69725 -1.3302 2.63692 
-0.370199 0.029123 0.008732 -0.189288 -0.599855 1.06772 
-0.361626 0.027994 0.008732 -2.29478e-006 -0.837876 -2.90971 
-0.353052 0.029123 0.008732 0.18929 -0.599862 1.06772 
-0.361626 0.029244 0.008732 0 0 4 
-0.353052 0.093116 0.008732 0.189282 0.599868 1.06772 
-0.361626 0.094244 0.008732 -2.26498e-006 0.837898 -2.9097 
-0.370199 0.093116 0.008732 -0.18928 0.59986 1.06772 
-0.345063 0.089806 0.008732 0.338096 0.530426 0.0677218 
-0.345688 0.088724 0.008732 1.60029 2.51051 3 
-0.338203 0.084542 0.008732 0.463847 0.424871 0.0677226 
-0.339087 0.083658 0.008732 1.31593 0.0861963 4 
-0.332938 0.077682 0.008732 0.558021 0.290328 0.0677252 
-0.334021 0.077057 0.008732 0 0 5 
-0.329629 0.069693 0.008732 0.614154 0.135989 1.06772 
-0.330837 0.069369 0.008732 0.73262 1.09643 5 
-0.329751 0.061119 0.008732 2.97434 0.130507 3 
-0.328501 0.061119 0.008732 0.418949 -1.10641e-006 1.04515 
-0.330837 0.052869 0.008732 1.46524 -2.19286 6 
-0.329629 0.052546 0.008732 0.614149 -0.13599 0.067724 
-0.334021 0.045182 0.008732 0 0 5 
-0.332938 0.044557 0.008732 0.558015 -0.290319 0.0677232 
-0.339087 0.03858 0.008732 2.63171 -0.172509 4 
-0.338203 0.037696 0.008732 0.463846 -0.424866 0.0677224 
-0.345688 0.033515 0.008732 1.37423 -2.64108 3 
-0.345063 0.032432 0.008732 0.338089 -0.530441 0.0677234 
-0.353376 0.03033 0.008732 -0.583186 -1.18268 5 
-0.369875 0.03033 0.008732 1.1664 -2.36527 7 
-0.378188 0.032432 0.008732 -0.338088 -0.530438 0.067723 
-0.378188 0.089806 0.008732 -0.338095 0.530423 0.0677212 
-0.377563 0.088724 0.008732 -1.37404 2.64115 3 
-0.385049 0.084542 0.008732 -0.463862 0.424864 0.0677244 
-0.384165 0.083658 0.008732 -4.11773 -1.31372 4 
-0.390313 0.077682 0.008732 -0.558013 0.290336 0.0677243 
-0.38923 0.077057 0.008732 0 0 5 
-0.393622 0.069693 0.008732 -0.404666 0.108434 1.04515 
-0.392414 0.069369 0.008732 -0.921269 4.22304 6 
-0.394751 0.061119 0.008732 -0.628407 0.0275774 1.06772 
-0.393501 0.061119 0.008732 -2.97429 -0.130628 2 
-0.392414 0.052869 0.008732 -0.732604 -1.09655 6 
-0.393622 0.052546 0.008732 -0.61413 -0.136014 0.0677207 
-0.38923 0.045182 0.008732 0 0 5 
-0.390313 0.044557 0.008732 -0.558008 -0.290327 0.0677221 
-0.384165 0.03858 0.008732 -1.31577 -0.0862707 4 
-0.385049 0.037696 0.008732 -0.463861 -0.424859 0.0677239 
-0.377563 0.033515 0.008732 -1.60013 -2.51067 3 
-0.368188 0.072486 0.008732 1.60037 -2.51046 3 
-0.355063 0.072486 0.008732 -1.37401 -2.64114 3 
-0.370906 0.0704 0.008732 -5.19153 -6.59411 6 
-0.352345 0.0704 0.008732 0.196543 -3.00081 6 
-0.372992 0.067682 0.008732 0 0 5 
-0.350259 0.067682 0.008732 0 0 5 
-0.374303 0.064516 0.008732 3.1146 7.79281 4 
-0.348948 0.064516 0.008732 -2.50056 1.67094 4 
-0.374751 0.061119 0.008732 2.97425 -0.130748 3 
-0.348501 0.061119 0.008732 -2.97436 0.130453 3 
-0.374303 0.057722 0.008732 2.50049 -1.67035 4 
-0.348948 0.057722 0.008732 -1.25028 -0.83547 4 
-0.372992 0.054557 0.008732 0 0 5 
-0.350259 0.054557 0.008732 0 0 5 
-0.370906 0.051838 0.008732 -0.196846 3.00113 7 
-0.352345 0.051838 0.008732 0.0984549 1.50055 5 
-0.355063 0.049753 0.008732 -1.60014 2.51069 4 
-0.368188 0.049753 0.008732 1.37452 2.64099 2 
-0.365023 0.048441 0.008732 1.34887 0.664998 4 
-0.358229 0.048441 0.008732 -2.69752 1.32998 4 
-0.361626 0.047994 0.008732 0 0 3 
-0.369875 0.091908 0.030607 1.16661 2.36536 2 
-0.377563 0.088724 0.030607 -1.60017 2.51059 1 
-0.384165 0.083658 0.030607 -6.40915 -5.00747 4 
-0.365023 0.073797 0.030607 1.34862 -0.665101 2 
-0.368188 0.072486 0.030607 1.37421 -2.64105 2 
-0.370906 0.0704 0.030607 -1.68251 -4.48699 1 
-0.374303 0.064516 0.030607 3.04443 3.70028 2 
-0.392414 0.069369 0.030607 1.13176 8.05419 1 
-0.393501 0.061119 0.030607 -2.97429 0.130628 4 
-0.374751 0.061119 0.030607 2.97425 0.130749 2 
-0.374303 0.057722 0.030607 1.25024 -0.835175 2 
-0.392414 0.052869 0.030607 -1.46521 -2.1931 1 
-0.368188 0.049753 0.030607 1.60025 2.51064 2 
-0.370906 0.051838 0.030607 -0.0984231 1.50057 1 
-0.384165 0.03858 0.030607 -2.63155 -0.172541 3 
-0.365023 0.048441 0.030607 2.69774 1.33 3 
-0.377563 0.033515 0.030607 -1.37417 -2.64112 2 
-0.369875 0.03033 0.030607 0.583201 -1.18263 1 
-0.339087 0.03858 0.030607 1.31586 -0.0862547 3 
-0.352345 0.051838 0.030607 0.19691 3.00109 1 
-0.355063 0.049753 0.030607 -1.37432 2.64107 2 
-0.358229 0.048441 0.030607 -1.34876 0.66499 3 
-0.345688 0.033515 0.030607 1.60024 -2.51058 2 
-0.353376 0.03033 0.030607 -1.16637 -2.36537 1 
-0.330837 0.069369 0.030607 1.46524 2.19286 2 
-0.348948 0.064516 0.030607 -1.25028 0.835471 1 
-0.348501 0.061119 0.030607 -2.97436 -0.130453 3 
-0.329751 0.061119 0.030607 2.97434 -0.130507 3 
-0.348948 0.057722 0.030607 -2.50056 -1.67094 2 
-0.330837 0.052869 0.030607 0.73262 -1.09643 1 
-0.339087 0.083658 0.030607 2.63187 0.172393 4 
-0.345688 0.088724 0.030607 1.3741 2.6411 1 
-0.353376 0.091908 0.030607 -0.583289 1.18273 2 
-0.358229 0.073797 0.030607 -2.69702 -1.33019 2 
-0.355063 0.072486 0.030607 -1.60026 -2.51051 2 
-0.352345 0.0704 0.030607 0.0982717 -1.5004 1 
-0.313994 0.033619 0.01342 3.17156 -1.71217 -2.93228 
-0.322735 0.022228 0.01342 3.229 -3.26817 -2.93228 
-0.313994 0.033619 0.041545 3.0409 -1.93823 2.93231 
-0.332938 0.044557 0.046232 0.557901 -0.29026 2.9323 
-0.338203 0.037696 0.046232 0.463751 -0.42478 2.93231 
-0.322735 0.022228 0.041545 1.82684 -1.86592 2.9323 
-0.334126 0.013488 0.01342 1.66448 -3.19913 -2.93228 
-0.345063 0.032432 0.046232 0.33802 -0.530333 2.9323 
-0.334126 0.013488 0.041545 1.89045 -3.06852 2.9323 
-0.347391 0.007993 0.01342 0.779766 -3.52089 -2.93228 
-0.353052 0.029123 0.046232 0.189252 -0.59974 2.93231 
-0.347391 0.007993 0.041545 1.03193 -3.45319 2.93231 
-0.361626 0.006119 0.01342 -0.130522 -3.39327 -1.95485 
-0.3085 0.046884 0.041545 3.43898 -1.08505 2.9323 
-0.329629 0.052546 0.046232 0.614024 -0.135962 2.9323 
-0.3085 0.046884 0.01342 3.50666 -0.832963 -2.93228 
-0.306626 0.061119 0.041545 3.60263 -0.158088 2.9323 
-0.328501 0.061119 0.046232 0.628296 0.0275631 2.9323 
-0.306626 0.061119 0.01342 3.81224 0.13052 -3.9097 
-0.3085 0.075354 0.041545 3.71598 0.86049 3.90974 
-0.329629 0.069693 0.046232 0.404596 0.108397 1.95487 
-0.3085 0.075354 0.01342 3.43911 1.08509 -2.93227 
-0.313994 0.088619 0.041545 3.17145 1.71212 2.9323 
-0.332938 0.077682 0.046232 0.557907 0.290268 2.9323 
-0.313994 0.088619 0.01342 3.04101 1.93831 -2.93228 
-0.322735 0.10001 0.041545 3.229 3.268 2.93231 
-0.338203 0.084542 0.046232 0.463752 0.424784 2.93231 
-0.322735 0.10001 0.01342 1.82697 1.86598 -2.93228 
-0.334126 0.108751 0.041545 1.66435 3.19902 2.93231 
-0.345063 0.089806 0.046232 0.338027 0.530318 2.93231 
-0.334126 0.108751 0.01342 1.89054 3.06858 -2.93228 
-0.347391 0.114245 0.041545 0.779662 3.5208 2.9323 
-0.353052 0.093116 0.046232 0.189243 0.599745 2.9323 
-0.347391 0.114245 0.01342 1.03182 3.45338 -2.93228 
-0.361626 0.116119 0.041545 -0.130522 3.3932 1.95487 
-0.361626 0.094244 0.046232 -2.26498e-006 0.837728 3.90974 
-0.361626 0.116119 0.01342 0.13052 3.39329 -1.95485 
-0.375861 0.114245 0.041545 -1.03179 3.45325 2.9323 
-0.370199 0.093116 0.046232 -0.189241 0.599738 2.93231 
-0.375861 0.114245 0.01342 -0.77969 3.52093 -2.93228 
-0.389126 0.108751 0.041545 -1.89054 3.06841 2.93231 
-0.378188 0.089806 0.046232 -0.338026 0.530315 2.93231 
-0.389126 0.108751 0.01342 -1.66444 3.1991 -2.93228 
-0.400516 0.10001 0.041545 -1.82693 1.86585 2.93231 
-0.385049 0.084542 0.046232 -0.463767 0.424777 2.9323 
-0.400516 0.10001 0.01342 -3.22917 3.26804 -2.93228 
-0.409257 0.088619 0.041545 -3.04088 1.9383 2.9323 
-0.390313 0.077682 0.046232 -0.5579 0.290277 2.9323 
-0.409257 0.088619 0.01342 -3.17152 1.7123 -2.93227 
-0.414752 0.075354 0.041545 -3.43892 1.08519 2.93231 
-0.393622 0.069693 0.046232 -0.61401 0.135985 2.93231 
-0.414752 0.075354 0.01342 -3.71609 0.860622 -3.9097 
-0.416626 0.061119 0.041545 -3.81204 0.130519 3.90974 
-0.394751 0.061119 0.046232 -0.418853 -1.11386e-006 1.95487 
-0.416626 0.061119 0.01342 -3.60274 -0.158102 -2.93228 
-0.393622 0.052546 0.046232 -0.614005 -0.135986 2.93231 
-0.414752 0.046884 0.041545 -3.50649 -0.833004 2.93231 
-0.414752 0.046884 0.01342 -3.43904 -1.08523 -2.93228 
-0.390313 0.044557 0.046232 -0.557894 -0.290268 2.93231 
-0.409257 0.033619 0.041545 -3.17141 -1.71222 2.9323 
-0.409257 0.033619 0.01342 -3.04099 -1.93836 -2.93228 
-0.385049 0.037696 0.046232 -0.463766 -0.424772 2.9323 
-0.400516 0.022228 0.041545 -3.22899 -3.26802 2.9323 
-0.400516 0.022228 0.01342 -1.82696 -1.86599 -2.93228 
-0.378188 0.032432 0.046232 -0.338019 -0.530329 2.93231 
-0.389126 0.013488 0.041545 -1.66446 -3.19898 2.93231 
-0.389126 0.013488 0.01342 -1.89057 -3.06857 -2.93228 
-0.370199 0.029123 0.046232 -0.18925 -0.599732 2.93231 
-0.375861 0.007993 0.041545 -0.779739 -3.52076 2.93231 
-0.375861 0.007993 0.01342 -1.03196 -3.45331 -2.93228 
-0.361626 0.027994 0.046232 -2.25753e-006 -0.837705 3.90974 
-0.361626 0.006119 0.041545 0.13052 -3.39319 1.95487 
3 0 1 2 
3 0 2 3 
3 2 4 3 
3 0 3 5 
3 6 7 8 
3 6 8 9 
3 10 11 12 
3 10 12 4 
3 10 4 2 
3 10 2 13 
3 13 2 14 
3 13 14 15 
3 15 14 16 
3 15 16 17 
3 17 16 18 
3 17 18 19 
3 19 18 20 
3 19 20 21 
3 22 19 21 
3 22 21 23 
3 24 22 23 
3 24 23 25 
3 26 24 25 
3 26 25 27 
3 28 26 27 
3 28 27 29 
3 30 28 29 
3 30 29 31 
3 8 30 31 
3 8 31 9 
3 6 9 32 
3 6 32 33 
3 3 4 12 
3 3 12 34 
3 35 3 34 
3 35 34 36 
3 37 35 36 
3 37 36 38 
3 39 37 38 
3 39 38 40 
3 41 39 40 
3 41 40 42 
3 43 41 42 
3 43 42 44 
3 44 42 45 
3 44 45 46 
3 46 45 47 
3 46 47 48 
3 48 47 49 
3 48 49 50 
3 50 49 33 
3 50 33 32 
3 1 0 5 
3 1 5 51 
3 52 1 51 
3 52 51 53 
3 54 52 53 
3 54 53 55 
3 56 54 55 
3 56 55 57 
3 58 56 57 
3 58 57 59 
3 60 58 59 
3 60 59 61 
3 62 60 61 
3 62 61 63 
3 64 62 63 
3 64 63 65 
3 66 64 65 
3 66 65 67 
3 67 65 68 
3 67 68 69 
3 70 67 69 
3 70 69 71 
3 63 61 44 
3 63 44 65 
3 65 44 46 
3 65 46 48 
3 71 69 32 
3 71 32 70 
3 31 70 32 
3 31 32 9 
3 23 62 64 
3 23 64 66 
3 25 23 66 
3 25 66 27 
3 18 16 54 
3 18 54 20 
3 20 54 56 
3 20 56 58 
3 72 73 74 
3 72 74 75 
3 76 75 74 
3 76 74 77 
3 73 35 37 
3 73 37 74 
3 51 76 77 
3 51 77 53 
3 5 75 76 
3 5 76 51 
3 5 3 72 
3 5 72 75 
3 72 3 35 
3 72 35 73 
3 78 79 80 
3 78 80 81 
3 82 81 80 
3 82 80 83 
3 43 44 83 
3 43 83 80 
3 61 82 83 
3 61 83 44 
3 61 59 81 
3 61 81 82 
3 59 57 78 
3 59 78 81 
3 57 79 78 
3 41 43 80 
3 41 80 79 
3 84 85 86 
3 84 86 87 
3 87 86 88 
3 87 88 89 
3 32 89 88 
3 32 88 50 
3 32 69 87 
3 32 87 89 
3 87 69 68 
3 87 68 84 
3 84 68 65 
3 84 65 85 
3 65 48 86 
3 65 86 85 
3 50 88 86 
3 50 86 48 
3 90 91 92 
3 90 92 93 
3 94 90 93 
3 94 93 95 
3 27 90 94 
3 27 94 29 
3 27 66 91 
3 27 91 90 
3 91 66 67 
3 91 67 92 
3 92 67 70 
3 92 70 93 
3 70 31 95 
3 70 95 93 
3 29 94 95 
3 29 95 31 
3 96 97 98 
3 96 98 99 
3 99 98 100 
3 99 100 101 
3 21 20 96 
3 21 96 99 
3 96 20 58 
3 96 58 97 
3 58 60 98 
3 58 98 97 
3 60 62 100 
3 60 100 98 
3 23 101 100 
3 23 100 62 
3 23 21 99 
3 23 99 101 
3 102 103 104 
3 102 104 105 
3 102 105 106 
3 102 106 107 
3 54 107 106 
3 54 106 52 
3 54 16 102 
3 54 102 107 
3 102 16 14 
3 102 14 103 
3 103 14 2 
3 103 2 104 
3 2 1 105 
3 2 105 104 
3 52 106 105 
3 52 105 1 
3 53 77 74 
3 53 74 37 
3 57 41 79 
3 53 37 39 
3 53 39 41 
3 55 53 41 
3 55 41 57 
3 28 26 108 
3 28 108 109 
3 110 111 112 
3 110 112 113 
3 30 28 109 
3 30 109 114 
3 113 112 115 
3 113 115 116 
3 8 30 114 
3 8 114 117 
3 116 115 118 
3 116 118 119 
3 7 8 117 
3 7 117 120 
3 121 122 111 
3 121 111 110 
3 26 24 123 
3 26 123 108 
3 124 125 122 
3 124 122 121 
3 24 22 126 
3 24 126 123 
3 127 128 125 
3 127 125 124 
3 19 129 126 
3 19 126 22 
3 127 130 131 
3 127 131 128 
3 17 132 129 
3 17 129 19 
3 130 133 134 
3 130 134 131 
3 15 135 132 
3 15 132 17 
3 133 136 137 
3 133 137 134 
3 13 138 135 
3 13 135 15 
3 136 139 140 
3 136 140 137 
3 10 141 138 
3 10 138 13 
3 139 142 143 
3 139 143 140 
3 11 144 141 
3 11 141 10 
3 143 142 145 
3 143 145 146 
3 147 144 11 
3 147 11 12 
3 146 145 148 
3 146 148 149 
3 150 147 12 
3 150 12 34 
3 149 148 151 
3 149 151 152 
3 153 150 34 
3 153 34 36 
3 152 151 154 
3 152 154 155 
3 156 153 36 
3 156 36 38 
3 155 154 157 
3 155 157 158 
3 159 156 38 
3 159 38 40 
3 158 157 160 
3 158 160 161 
3 159 40 42 
3 159 42 162 
3 163 161 160 
3 163 160 164 
3 162 42 45 
3 162 45 165 
3 166 163 164 
3 166 164 167 
3 165 45 47 
3 165 47 168 
3 169 166 167 
3 169 167 170 
3 168 47 49 
3 168 49 171 
3 172 169 170 
3 172 170 173 
3 171 49 33 
3 171 33 174 
3 175 172 173 
3 175 173 176 
3 174 33 6 
3 174 6 177 
3 178 175 176 
3 178 176 179 
3 177 6 7 
3 177 7 120 
3 119 118 178 
3 119 178 179 
3 109 108 110 
3 109 110 113 
3 109 113 116 
3 109 116 114 
3 114 116 119 
3 114 119 117 
3 117 119 179 
3 117 179 120 
3 108 123 121 
3 108 121 110 
3 123 126 124 
3 123 124 121 
3 126 129 127 
3 126 127 124 
3 129 132 130 
3 129 130 127 
3 132 135 133 
3 132 133 130 
3 133 135 138 
3 133 138 136 
3 136 138 141 
3 136 141 139 
3 139 141 144 
3 139 144 142 
3 142 144 147 
3 142 147 145 
3 145 147 150 
3 145 150 148 
3 148 150 153 
3 148 153 151 
3 153 156 154 
3 153 154 151 
3 156 159 157 
3 156 157 154 
3 159 162 160 
3 159 160 157 
3 162 165 164 
3 162 164 160 
3 165 168 167 
3 165 167 164 
3 168 171 170 
3 168 170 167 
3 174 173 170 
3 174 170 171 
3 177 176 173 
3 177 173 174 
3 120 179 176 
3 120 176 177 
