ply
format ascii 1.0
comment VCGLIB generated
element vertex 25
property float x
property float y
property float z
property float nx
property float ny
property float nz
property float texture_u
property float texture_v
element face 32
property list uchar int vertex_indices
end_header
-59.8739 0 29.2945 0 3 0 0 0.25
-59.8739 0 58.589 0 1 0 0 0
-29.937 0 58.589 0 3 0 0.25 0
-29.937 0 29.2945 0 6 0 0.25 0.25
0 0 58.589 0 3 0 0.5 0
0 0 29.2945 0 6 0 0.5 0.25
29.937 0 58.589 0 3 0 0.75 0
29.937 0 29.2945 0 6 0 0.75 0.25
59.8739 0 58.589 0 2 0 1 0
59.8739 0 29.2945 0 3 0 1 0.25
-59.8739 0 0 0 3 0 0 0.5
-29.937 0 0 0 6 0 0.25 0.5
0 0 0 0 6 0 0.5 0.5
29.937 0 0 0 6 0 0.75 0.5
59.8739 0 0 0 3 0 1 0.5
-59.8739 -0 -29.2945 0 3 0 0 0.75
-29.937 -0 -29.2945 0 6 0 0.25 0.75
0 -0 -29.2945 0 6 0 0.5 0.75
29.937 -0 -29.2945 0 6 0 0.75 0.75
59.8739 -0 -29.2945 0 3 0 1 0.75
-59.8739 -0 -58.589 0 2 0 0 1
-29.937 -0 -58.589 0 3 0 0.25 1
0 -0 -58.589 0 3 0 0.5 1
29.937 -0 -58.589 0 3 0 0.75 1
59.8739 -0 -58.589 0 1 0 1 1
3 0 1 2 
3 0 2 3 
3 3 2 4 
3 3 4 5 
3 5 4 6 
3 5 6 7 
3 7 6 8 
3 7 8 9 
3 10 0 3 
3 10 3 11 
3 11 3 5 
3 11 5 12 
3 12 5 7 
3 12 7 13 
3 13 7 9 
3 13 9 14 
3 15 10 11 
3 15 11 16 
3 16 11 12 
3 16 12 17 
3 17 12 13 
3 17 13 18 
3 18 13 14 
3 18 14 19 
3 20 15 16 
3 20 16 21 
3 21 16 17 
3 21 17 22 
3 22 17 18 
3 22 18 23 
3 23 18 19 
3 23 19 24 
