ply
format ascii 1.0
comment VCGLIB generated
element vertex 25
property float x
property float y
property float z
property float nx
property float ny
property float nz
property uchar red
property uchar green
property uchar blue
property uchar alpha
property float texture_u
property float texture_v
element face 32
property list uchar int vertex_indices
end_header
-195.952 4.19179e-006 95.897 0 3 -1.31134e-007 192 192 192 255 0 0.25
-195.952 8.61656e-006 197.124 0 1 -4.37114e-008 192 192 192 255 0 0
-94.661 8.61656e-006 197.124 0 3 -1.31134e-007 192 192 192 255 0.25 0
-94.661 4.19179e-006 95.897 0 6 -2.62268e-007 192 192 192 255 0.25 0.25
6.631 8.61656e-006 197.124 0 3 -1.31134e-007 192 192 192 255 0.5 0
6.631 4.19179e-006 95.897 0 6 -2.62268e-007 192 192 192 255 0.5 0.25
107.922 8.61656e-006 197.124 0 3 -1.31134e-007 192 192 192 255 0.75 0
107.922 4.19179e-006 95.897 0 6 -2.62268e-007 192 192 192 255 0.75 0.25
209.214 8.61656e-006 197.124 0 2 -8.74228e-008 192 192 192 255 1 0
209.214 4.19179e-006 95.897 0 3 -1.31134e-007 192 192 192 255 1 0.25
-195.952 -2.32982e-007 -5.33 0 3 -1.31134e-007 192 192 192 255 0 0.5
-94.661 -2.32982e-007 -5.33 0 6 -2.62268e-007 192 192 192 255 0.25 0.5
6.631 -2.32982e-007 -5.33 0 6 -2.62268e-007 192 192 192 255 0.5 0.5
107.922 -2.32982e-007 -5.33 0 6 -2.62268e-007 192 192 192 255 0.75 0.5
209.214 -2.32982e-007 -5.33 0 3 -1.31134e-007 192 192 192 255 1 0.5
-195.952 -4.65775e-006 -106.557 0 3 -1.31134e-007 192 192 192 255 0 0.75
-94.661 -4.65775e-006 -106.557 0 6 -2.62268e-007 192 192 192 255 0.25 0.75
6.631 -4.65775e-006 -106.557 0 6 -2.62268e-007 192 192 192 255 0.5 0.75
107.922 -4.65775e-006 -106.557 0 6 -2.62268e-007 192 192 192 255 0.75 0.75
209.214 -4.65775e-006 -106.557 0 3 -1.31134e-007 192 192 192 255 1 0.75
-195.952 -9.08253e-006 -207.784 0 2 -8.74228e-008 192 192 192 255 0 1
-94.661 -9.08253e-006 -207.784 0 3 -1.31134e-007 192 192 192 255 0.25 1
6.631 -9.08253e-006 -207.784 0 3 -1.31134e-007 192 192 192 255 0.5 1
107.922 -9.08253e-006 -207.784 0 3 -1.31134e-007 192 192 192 255 0.75 1
209.214 -9.08253e-006 -207.784 0 1 -4.37114e-008 192 192 192 255 1 1
3 0 1 2 
3 0 2 3 
3 3 2 4 
3 3 4 5 
3 5 4 6 
3 5 6 7 
3 7 6 8 
3 7 8 9 
3 10 0 3 
3 10 3 11 
3 11 3 5 
3 11 5 12 
3 12 5 7 
3 12 7 13 
3 13 7 9 
3 13 9 14 
3 15 10 11 
3 15 11 16 
3 16 11 12 
3 16 12 17 
3 17 12 13 
3 17 13 18 
3 18 13 14 
3 18 14 19 
3 20 15 16 
3 20 16 21 
3 21 16 17 
3 21 17 22 
3 22 17 18 
3 22 18 23 
3 23 18 19 
3 23 19 24 
